<svg xmlns="http://www.w3.org/2000/svg" xmlns:xlink="http://www.w3.org/1999/xlink" width="500" zoomAndPan="magnify" viewBox="0 0 375 374.999991" height="500" preserveAspectRatio="xMidYMid meet" version="1.2"><defs><clipPath id="d6c0bdbea3"><path d="M 45 0 L 330 0 L 330 375 L 45 375 Z M 45 0 "/></clipPath></defs><g id="953f9e0fce"><g clip-rule="nonzero" clip-path="url(#d6c0bdbea3)"><path style=" stroke:none;fill-rule:nonzero;fill:#000000;fill-opacity:1;" d="M 330.019531 346.496094 L 330.019531 73.71875 C 330.019531 72.808594 329.976562 71.898438 329.886719 70.992188 C 329.796875 70.085938 329.664062 69.183594 329.484375 68.289062 C 329.308594 67.398438 329.085938 66.515625 328.820312 65.640625 C 328.558594 64.769531 328.25 63.914062 327.902344 63.070312 C 327.554688 62.230469 327.164062 61.40625 326.734375 60.601562 C 326.304688 59.796875 325.835938 59.019531 325.332031 58.261719 C 324.824219 57.503906 324.28125 56.773438 323.703125 56.066406 C 323.125 55.363281 322.515625 54.6875 321.871094 54.042969 C 321.226562 53.398438 320.550781 52.789062 319.847656 52.210938 C 319.144531 51.632812 318.410156 51.089844 317.652344 50.582031 C 316.894531 50.078125 316.117188 49.609375 315.3125 49.179688 C 314.507812 48.75 313.683594 48.359375 312.84375 48.011719 C 312 47.664062 311.144531 47.355469 310.273438 47.09375 C 309.402344 46.828125 308.519531 46.605469 307.625 46.429688 C 306.730469 46.25 305.828125 46.117188 304.921875 46.027344 C 304.015625 45.9375 303.105469 45.894531 302.195312 45.894531 L 287.847656 45.894531 L 250.085938 8.132812 C 248.914062 6.953125 247.636719 5.902344 246.257812 4.976562 C 244.878906 4.050781 243.421875 3.269531 241.886719 2.632812 C 240.347656 1.996094 238.765625 1.515625 237.136719 1.195312 C 235.503906 0.871094 233.859375 0.714844 232.199219 0.71875 L 70.320312 0.71875 C 69.492188 0.71875 68.664062 0.761719 67.839844 0.84375 C 67.015625 0.925781 66.199219 1.046875 65.386719 1.207031 C 64.574219 1.371094 63.773438 1.570312 62.980469 1.8125 C 62.1875 2.054688 61.40625 2.332031 60.644531 2.648438 C 59.878906 2.964844 59.128906 3.320312 58.398438 3.710938 C 57.667969 4.101562 56.957031 4.523438 56.269531 4.984375 C 55.582031 5.445312 54.917969 5.9375 54.277344 6.460938 C 53.636719 6.988281 53.023438 7.542969 52.4375 8.128906 C 51.851562 8.710938 51.292969 9.324219 50.769531 9.964844 C 50.242188 10.605469 49.746094 11.269531 49.285156 11.957031 C 48.824219 12.644531 48.398438 13.355469 48.007812 14.082031 C 47.617188 14.8125 47.261719 15.5625 46.945312 16.324219 C 46.625 17.089844 46.347656 17.867188 46.105469 18.660156 C 45.863281 19.453125 45.660156 20.253906 45.496094 21.066406 C 45.332031 21.878906 45.210938 22.699219 45.128906 23.519531 C 45.042969 24.34375 45 25.171875 45 26 L 45 303.804688 C 45 304.632812 45.042969 305.460938 45.125 306.285156 C 45.207031 307.109375 45.332031 307.929688 45.492188 308.742188 C 45.65625 309.554688 45.859375 310.355469 46.097656 311.148438 C 46.339844 311.941406 46.621094 312.71875 46.9375 313.484375 C 47.257812 314.25 47.609375 315 48.003906 315.730469 C 48.394531 316.460938 48.820312 317.167969 49.28125 317.859375 C 49.742188 318.546875 50.234375 319.210938 50.761719 319.851562 C 51.285156 320.492188 51.84375 321.105469 52.429688 321.691406 C 53.015625 322.277344 53.628906 322.832031 54.269531 323.359375 C 54.910156 323.882812 55.574219 324.375 56.265625 324.835938 C 56.953125 325.296875 57.664062 325.722656 58.394531 326.113281 C 59.125 326.503906 59.871094 326.859375 60.636719 327.175781 C 61.402344 327.492188 62.183594 327.769531 62.976562 328.011719 C 63.769531 328.253906 64.570312 328.453125 65.382812 328.617188 C 66.195312 328.777344 67.015625 328.898438 67.839844 328.980469 C 68.664062 329.0625 69.492188 329.105469 70.320312 329.105469 L 77.257812 329.105469 L 77.257812 346.496094 C 77.257812 347.40625 77.300781 348.316406 77.390625 349.222656 C 77.480469 350.128906 77.613281 351.03125 77.789062 351.925781 C 77.96875 352.816406 78.191406 353.699219 78.453125 354.574219 C 78.71875 355.445312 79.027344 356.300781 79.375 357.144531 C 79.722656 357.984375 80.113281 358.808594 80.542969 359.613281 C 80.972656 360.414062 81.4375 361.195312 81.945312 361.953125 C 82.453125 362.710938 82.992188 363.441406 83.570312 364.148438 C 84.148438 364.851562 84.761719 365.527344 85.40625 366.171875 C 86.050781 366.816406 86.722656 367.425781 87.429688 368.003906 C 88.132812 368.582031 88.863281 369.125 89.621094 369.628906 C 90.378906 370.136719 91.160156 370.605469 91.964844 371.035156 C 92.769531 371.464844 93.589844 371.851562 94.433594 372.203125 C 95.273438 372.550781 96.132812 372.855469 97.003906 373.121094 C 97.875 373.386719 98.757812 373.609375 99.652344 373.785156 C 100.546875 373.964844 101.445312 374.097656 102.351562 374.1875 C 103.261719 374.277344 104.167969 374.320312 105.082031 374.320312 L 302.195312 374.320312 C 303.105469 374.320312 304.015625 374.277344 304.921875 374.1875 C 305.828125 374.097656 306.730469 373.964844 307.625 373.785156 C 308.519531 373.609375 309.402344 373.386719 310.273438 373.121094 C 311.144531 372.855469 312 372.550781 312.84375 372.203125 C 313.683594 371.851562 314.507812 371.464844 315.3125 371.035156 C 316.117188 370.605469 316.894531 370.136719 317.652344 369.628906 C 318.410156 369.125 319.144531 368.582031 319.847656 368.003906 C 320.550781 367.425781 321.226562 366.816406 321.871094 366.171875 C 322.515625 365.527344 323.125 364.851562 323.703125 364.148438 C 324.28125 363.441406 324.824219 362.710938 325.332031 361.953125 C 325.835938 361.195312 326.304688 360.414062 326.734375 359.613281 C 327.164062 358.808594 327.554688 357.984375 327.902344 357.144531 C 328.25 356.300781 328.558594 355.445312 328.820312 354.574219 C 329.085938 353.699219 329.308594 352.816406 329.484375 351.925781 C 329.664062 351.03125 329.796875 350.128906 329.886719 349.222656 C 329.976562 348.316406 330.019531 347.40625 330.019531 346.496094 Z M 270.613281 51.160156 L 247.300781 51.160156 L 247.300781 27.828125 Z M 60.898438 303.804688 L 60.898438 26 C 60.902344 25.382812 60.960938 24.769531 61.082031 24.164062 C 61.207031 23.558594 61.386719 22.96875 61.621094 22.398438 C 61.859375 21.828125 62.148438 21.285156 62.492188 20.769531 C 62.835938 20.257812 63.226562 19.78125 63.664062 19.34375 C 64.101562 18.90625 64.578125 18.515625 65.089844 18.171875 C 65.605469 17.828125 66.148438 17.539062 66.71875 17.300781 C 67.289062 17.066406 67.878906 16.886719 68.484375 16.765625 C 69.089844 16.640625 69.703125 16.582031 70.320312 16.578125 L 231.402344 16.578125 L 231.402344 67.0625 L 281.863281 67.0625 L 281.863281 303.804688 C 281.863281 304.421875 281.800781 305.035156 281.679688 305.640625 C 281.558594 306.246094 281.378906 306.835938 281.140625 307.40625 C 280.902344 307.976562 280.613281 308.515625 280.269531 309.03125 C 279.925781 309.542969 279.535156 310.015625 279.097656 310.453125 C 278.660156 310.890625 278.183594 311.28125 277.671875 311.621094 C 277.15625 311.964844 276.613281 312.253906 276.042969 312.492188 C 275.472656 312.726562 274.886719 312.90625 274.277344 313.027344 C 273.671875 313.144531 273.0625 313.207031 272.445312 313.207031 L 70.320312 313.207031 C 69.703125 313.207031 69.089844 313.144531 68.484375 313.027344 C 67.878906 312.90625 67.289062 312.726562 66.71875 312.492188 C 66.148438 312.253906 65.605469 311.964844 65.09375 311.621094 C 64.578125 311.28125 64.101562 310.890625 63.664062 310.453125 C 63.230469 310.019531 62.839844 309.542969 62.492188 309.03125 C 62.148438 308.515625 61.859375 307.976562 61.621094 307.40625 C 61.386719 306.835938 61.207031 306.246094 61.085938 305.640625 C 60.960938 305.035156 60.902344 304.421875 60.898438 303.804688 Z M 93.15625 346.496094 L 93.15625 329.105469 L 272.445312 329.105469 C 273.273438 329.105469 274.097656 329.0625 274.921875 328.980469 C 275.75 328.898438 276.566406 328.777344 277.378906 328.617188 C 278.191406 328.453125 278.996094 328.253906 279.789062 328.011719 C 280.582031 327.769531 281.359375 327.492188 282.125 327.175781 C 282.890625 326.859375 283.640625 326.503906 284.371094 326.113281 C 285.101562 325.722656 285.8125 325.296875 286.5 324.835938 C 287.1875 324.375 287.855469 323.882812 288.496094 323.359375 C 289.136719 322.832031 289.75 322.277344 290.335938 321.691406 C 290.921875 321.105469 291.476562 320.492188 292.003906 319.851562 C 292.527344 319.210938 293.023438 318.546875 293.484375 317.859375 C 293.945312 317.167969 294.371094 316.460938 294.761719 315.730469 C 295.152344 315 295.507812 314.25 295.824219 313.484375 C 296.144531 312.71875 296.421875 311.941406 296.664062 311.148438 C 296.90625 310.355469 297.109375 309.554688 297.269531 308.742188 C 297.433594 307.929688 297.554688 307.109375 297.636719 306.285156 C 297.71875 305.460938 297.761719 304.632812 297.761719 303.804688 L 297.761719 66.265625 C 297.753906 64.75 297.617188 63.246094 297.347656 61.753906 L 302.195312 61.753906 C 302.980469 61.753906 303.753906 61.832031 304.523438 61.984375 C 305.289062 62.136719 306.035156 62.363281 306.757812 62.660156 C 307.480469 62.960938 308.167969 63.328125 308.820312 63.765625 C 309.472656 64.199219 310.074219 64.691406 310.628906 65.246094 C 311.179688 65.800781 311.675781 66.402344 312.109375 67.054688 C 312.546875 67.703125 312.914062 68.390625 313.210938 69.117188 C 313.511719 69.839844 313.738281 70.585938 313.890625 71.351562 C 314.042969 72.121094 314.121094 72.894531 314.121094 73.679688 L 314.121094 346.496094 C 314.121094 347.277344 314.042969 348.054688 313.890625 348.820312 C 313.738281 349.589844 313.511719 350.335938 313.210938 351.058594 C 312.914062 351.78125 312.546875 352.46875 312.109375 353.121094 C 311.675781 353.773438 311.179688 354.375 310.628906 354.929688 C 310.074219 355.480469 309.472656 355.976562 308.820312 356.410156 C 308.167969 356.847656 307.480469 357.214844 306.757812 357.511719 C 306.035156 357.8125 305.289062 358.039062 304.523438 358.191406 C 303.753906 358.34375 302.980469 358.421875 302.195312 358.421875 L 105.082031 358.421875 C 104.296875 358.421875 103.523438 358.34375 102.753906 358.191406 C 101.984375 358.039062 101.242188 357.8125 100.515625 357.511719 C 99.792969 357.214844 99.105469 356.847656 98.457031 356.410156 C 97.804688 355.976562 97.203125 355.480469 96.648438 354.929688 C 96.09375 354.375 95.601562 353.773438 95.164062 353.121094 C 94.730469 352.46875 94.363281 351.78125 94.0625 351.058594 C 93.765625 350.335938 93.539062 349.589844 93.386719 348.820312 C 93.230469 348.054688 93.15625 347.277344 93.15625 346.496094 Z M 93.15625 346.496094 "/></g><path style=" stroke:none;fill-rule:nonzero;fill:#000000;fill-opacity:1;" d="M 198.035156 172.515625 C 198.785156 171.664062 199.496094 170.777344 200.164062 169.855469 C 200.832031 168.9375 201.453125 167.984375 202.03125 167.007812 C 202.605469 166.027344 203.136719 165.019531 203.617188 163.992188 C 204.097656 162.960938 204.527344 161.910156 204.90625 160.839844 C 205.285156 159.765625 205.613281 158.679688 205.890625 157.578125 C 206.167969 156.472656 206.390625 155.359375 206.558594 154.238281 C 206.726562 153.113281 206.84375 151.984375 206.90625 150.847656 C 206.964844 149.710938 206.972656 148.578125 206.925781 147.441406 C 206.878906 146.304688 206.777344 145.175781 206.621094 144.046875 C 206.46875 142.921875 206.257812 141.804688 205.996094 140.699219 C 205.734375 139.59375 205.421875 138.5 205.054688 137.425781 C 204.6875 136.347656 204.269531 135.292969 203.800781 134.257812 C 203.335938 133.222656 202.820312 132.210938 202.253906 131.222656 C 201.691406 130.234375 201.082031 129.277344 200.425781 128.347656 C 199.769531 127.421875 199.070312 126.523438 198.328125 125.664062 C 197.585938 124.800781 196.804688 123.976562 195.984375 123.191406 C 195.164062 122.402344 194.308594 121.65625 193.417969 120.953125 C 192.527344 120.246094 191.601562 119.585938 190.648438 118.96875 C 189.691406 118.351562 188.710938 117.78125 187.699219 117.261719 C 186.691406 116.738281 185.660156 116.261719 184.605469 115.839844 C 183.550781 115.414062 182.476562 115.042969 181.386719 114.722656 C 180.296875 114.398438 179.191406 114.128906 178.078125 113.914062 C 176.960938 113.699219 175.835938 113.535156 174.703125 113.429688 C 173.574219 113.320312 172.4375 113.265625 171.300781 113.265625 C 170.164062 113.265625 169.03125 113.320312 167.898438 113.429688 C 166.769531 113.535156 165.644531 113.699219 164.527344 113.914062 C 163.410156 114.128906 162.308594 114.398438 161.21875 114.722656 C 160.128906 115.042969 159.054688 115.414062 158 115.839844 C 156.945312 116.261719 155.914062 116.738281 154.902344 117.261719 C 153.894531 117.78125 152.914062 118.351562 151.957031 118.96875 C 151.003906 119.585938 150.078125 120.246094 149.1875 120.953125 C 148.296875 121.65625 147.4375 122.402344 146.617188 123.191406 C 145.796875 123.976562 145.019531 124.800781 144.277344 125.664062 C 143.535156 126.523438 142.835938 127.421875 142.179688 128.347656 C 141.523438 129.277344 140.914062 130.234375 140.351562 131.222656 C 139.785156 132.210938 139.269531 133.222656 138.800781 134.257812 C 138.335938 135.292969 137.917969 136.347656 137.550781 137.425781 C 137.183594 138.5 136.871094 139.59375 136.609375 140.699219 C 136.347656 141.804688 136.136719 142.921875 135.980469 144.046875 C 135.828125 145.175781 135.726562 146.304688 135.679688 147.441406 C 135.632812 148.578125 135.636719 149.710938 135.699219 150.847656 C 135.761719 151.984375 135.875 153.113281 136.046875 154.238281 C 136.214844 155.359375 136.4375 156.472656 136.714844 157.578125 C 136.992188 158.679688 137.320312 159.765625 137.699219 160.839844 C 138.078125 161.910156 138.507812 162.960938 138.988281 163.992188 C 139.46875 165.019531 140 166.027344 140.574219 167.007812 C 141.152344 167.984375 141.773438 168.9375 142.441406 169.855469 C 143.109375 170.777344 143.820312 171.664062 144.570312 172.515625 C 142.425781 173.421875 140.355469 174.480469 138.367188 175.691406 C 136.375 176.902344 134.480469 178.253906 132.6875 179.742188 C 130.894531 181.230469 129.222656 182.84375 127.664062 184.574219 C 126.105469 186.308594 124.683594 188.148438 123.398438 190.089844 C 122.109375 192.03125 120.96875 194.058594 119.980469 196.167969 C 118.988281 198.277344 118.15625 200.449219 117.484375 202.679688 C 116.8125 204.910156 116.304688 207.179688 115.964844 209.484375 C 115.625 211.789062 115.457031 214.105469 115.453125 216.4375 L 115.453125 243.148438 L 227.148438 243.148438 L 227.148438 216.4375 C 227.148438 214.105469 226.980469 211.789062 226.640625 209.484375 C 226.296875 207.179688 225.792969 204.910156 225.121094 202.679688 C 224.449219 200.449219 223.617188 198.277344 222.625 196.167969 C 221.632812 194.058594 220.496094 192.03125 219.207031 190.089844 C 217.921875 188.148438 216.496094 186.308594 214.941406 184.574219 C 213.382812 182.84375 211.707031 181.230469 209.914062 179.742188 C 208.121094 178.253906 206.230469 176.902344 204.238281 175.691406 C 202.25 174.480469 200.179688 173.421875 198.035156 172.515625 Z M 171.382812 129.226562 C 172.027344 129.226562 172.675781 129.257812 173.316406 129.324219 C 173.960938 129.386719 174.601562 129.480469 175.234375 129.609375 C 175.871094 129.734375 176.496094 129.890625 177.117188 130.078125 C 177.734375 130.265625 178.34375 130.484375 178.941406 130.730469 C 179.539062 130.980469 180.125 131.253906 180.695312 131.5625 C 181.265625 131.867188 181.820312 132.199219 182.355469 132.558594 C 182.894531 132.917969 183.414062 133.300781 183.914062 133.710938 C 184.414062 134.121094 184.894531 134.558594 185.351562 135.015625 C 185.808594 135.472656 186.242188 135.949219 186.652344 136.449219 C 187.0625 136.949219 187.449219 137.46875 187.808594 138.007812 C 188.167969 138.546875 188.5 139.101562 188.804688 139.671875 C 189.109375 140.242188 189.386719 140.824219 189.632812 141.421875 C 189.878906 142.019531 190.097656 142.628906 190.285156 143.25 C 190.472656 143.867188 190.632812 144.496094 190.757812 145.128906 C 190.882812 145.765625 190.976562 146.402344 191.042969 147.046875 C 191.105469 147.691406 191.136719 148.335938 191.136719 148.984375 C 191.136719 149.628906 191.105469 150.277344 191.042969 150.917969 C 190.976562 151.5625 190.882812 152.203125 190.757812 152.835938 C 190.632812 153.472656 190.472656 154.097656 190.285156 154.71875 C 190.097656 155.335938 189.878906 155.945312 189.632812 156.542969 C 189.386719 157.140625 189.109375 157.726562 188.804688 158.296875 C 188.5 158.867188 188.167969 159.421875 187.808594 159.957031 C 187.449219 160.496094 187.0625 161.015625 186.652344 161.515625 C 186.242188 162.015625 185.808594 162.496094 185.351562 162.953125 C 184.894531 163.410156 184.414062 163.84375 183.914062 164.253906 C 183.414062 164.664062 182.894531 165.050781 182.355469 165.410156 C 181.820312 165.769531 181.265625 166.101562 180.695312 166.40625 C 180.125 166.710938 179.539062 166.988281 178.941406 167.234375 C 178.34375 167.480469 177.734375 167.699219 177.117188 167.886719 C 176.496094 168.074219 175.871094 168.234375 175.234375 168.359375 C 174.601562 168.484375 173.960938 168.578125 173.316406 168.644531 C 172.675781 168.707031 172.027344 168.738281 171.382812 168.738281 C 170.734375 168.738281 170.089844 168.707031 169.445312 168.644531 C 168.800781 168.578125 168.164062 168.484375 167.527344 168.359375 C 166.894531 168.234375 166.265625 168.074219 165.648438 167.886719 C 165.027344 167.699219 164.417969 167.480469 163.820312 167.234375 C 163.222656 166.988281 162.640625 166.710938 162.070312 166.40625 C 161.5 166.101562 160.945312 165.769531 160.40625 165.410156 C 159.867188 165.050781 159.347656 164.664062 158.847656 164.253906 C 158.347656 163.84375 157.871094 163.410156 157.414062 162.953125 C 156.957031 162.496094 156.519531 162.015625 156.109375 161.515625 C 155.699219 161.015625 155.316406 160.496094 154.957031 159.957031 C 154.597656 159.421875 154.265625 158.867188 153.960938 158.296875 C 153.652344 157.726562 153.378906 157.140625 153.128906 156.542969 C 152.882812 155.945312 152.664062 155.335938 152.476562 154.71875 C 152.289062 154.097656 152.132812 153.472656 152.007812 152.835938 C 151.878906 152.203125 151.785156 151.5625 151.722656 150.917969 C 151.660156 150.277344 151.625 149.628906 151.625 148.984375 C 151.628906 148.335938 151.664062 147.691406 151.730469 147.050781 C 151.800781 146.40625 151.898438 145.769531 152.027344 145.136719 C 152.15625 144.503906 152.3125 143.878906 152.503906 143.261719 C 152.695312 142.644531 152.914062 142.039062 153.160156 141.441406 C 153.410156 140.84375 153.6875 140.261719 153.992188 139.695312 C 154.300781 139.125 154.632812 138.574219 154.992188 138.035156 C 155.351562 137.5 155.738281 136.980469 156.148438 136.480469 C 156.558594 135.984375 156.992188 135.503906 157.449219 135.046875 C 157.902344 134.59375 158.382812 134.160156 158.882812 133.75 C 159.378906 133.339844 159.898438 132.953125 160.433594 132.59375 C 160.972656 132.234375 161.523438 131.902344 162.09375 131.59375 C 162.660156 131.289062 163.242188 131.011719 163.839844 130.761719 C 164.4375 130.515625 165.042969 130.296875 165.660156 130.105469 C 166.277344 129.914062 166.902344 129.757812 167.535156 129.628906 C 168.167969 129.5 168.808594 129.402344 169.449219 129.332031 C 170.089844 129.265625 170.734375 129.230469 171.382812 129.226562 Z M 211.328125 227.25 L 131.433594 227.25 L 131.433594 216.496094 C 131.433594 215.457031 131.484375 214.417969 131.585938 213.378906 C 131.6875 212.34375 131.84375 211.316406 132.046875 210.292969 C 132.25 209.273438 132.5 208.261719 132.804688 207.265625 C 133.105469 206.269531 133.457031 205.289062 133.855469 204.328125 C 134.253906 203.367188 134.699219 202.425781 135.1875 201.507812 C 135.679688 200.589844 136.214844 199.695312 136.792969 198.832031 C 137.371094 197.964844 137.992188 197.128906 138.652344 196.324219 C 139.3125 195.519531 140.011719 194.746094 140.746094 194.011719 C 141.484375 193.273438 142.253906 192.578125 143.058594 191.914062 C 143.863281 191.253906 144.699219 190.636719 145.566406 190.058594 C 146.433594 189.476562 147.324219 188.945312 148.242188 188.453125 C 149.160156 187.960938 150.101562 187.515625 151.0625 187.117188 C 152.027344 186.71875 153.003906 186.371094 154.003906 186.066406 C 155 185.765625 156.007812 185.511719 157.03125 185.308594 C 158.050781 185.105469 159.078125 184.953125 160.117188 184.851562 C 161.152344 184.75 162.191406 184.699219 163.234375 184.699219 L 179.53125 184.699219 C 180.570312 184.699219 181.609375 184.75 182.648438 184.851562 C 183.683594 184.953125 184.710938 185.105469 185.734375 185.308594 C 186.753906 185.511719 187.765625 185.765625 188.761719 186.066406 C 189.757812 186.371094 190.738281 186.71875 191.699219 187.117188 C 192.660156 187.515625 193.601562 187.960938 194.519531 188.453125 C 195.4375 188.945312 196.332031 189.476562 197.195312 190.058594 C 198.0625 190.636719 198.898438 191.253906 199.703125 191.914062 C 200.507812 192.578125 201.28125 193.273438 202.015625 194.011719 C 202.753906 194.746094 203.449219 195.519531 204.113281 196.324219 C 204.773438 197.128906 205.390625 197.964844 205.96875 198.832031 C 206.550781 199.695312 207.082031 200.589844 207.574219 201.507812 C 208.066406 202.425781 208.511719 203.367188 208.910156 204.328125 C 209.308594 205.289062 209.65625 206.269531 209.960938 207.265625 C 210.261719 208.261719 210.515625 209.273438 210.71875 210.292969 C 210.921875 211.316406 211.074219 212.34375 211.175781 213.378906 C 211.277344 214.417969 211.328125 215.457031 211.328125 216.496094 Z M 211.328125 227.25 "/></g></svg>