<svg xmlns="http://www.w3.org/2000/svg" xmlns:xlink="http://www.w3.org/1999/xlink" width="500" zoomAndPan="magnify" viewBox="0 0 375 374.999991" height="500" preserveAspectRatio="xMidYMid meet" version="1.2"><defs><clipPath id="cafce1844d"><path d="M 0 53.523438 L 375 53.523438 L 375 321.273438 L 0 321.273438 Z M 0 53.523438 "/></clipPath></defs><g id="430cb158b5"><g clip-rule="nonzero" clip-path="url(#cafce1844d)"><path style=" stroke:none;fill-rule:nonzero;fill:#5f5f5f;fill-opacity:1;" d="M 40.148438 53.570312 C 17.976562 53.570312 0 71.515625 0 93.71875 C 0.496094 154.597656 0 219.035156 0 281.078125 C 0 302.445312 16.621094 319.738281 37.640625 321.019531 L 336.246094 321.226562 C 357.652344 320.363281 374.722656 302.726562 374.722656 281.078125 L 374.722656 86.820312 C 371.472656 67.890625 355.039062 53.570312 335.199219 53.570312 C 236.902344 53.613281 138.484375 53.570312 40.148438 53.570312 Z M 39.519531 74.6875 L 336.453125 74.6875 L 192.796875 218.347656 C 190.175781 220.96875 186.007812 220.96875 183.386719 218.347656 Z M 354.648438 84.933594 L 354.648438 279.617188 C 354.648438 291.214844 350.46875 297.765625 342.101562 300.109375 L 240.894531 198.691406 L 354.648438 84.9375 Z M 22.378906 85.769531 L 134.253906 197.644531 L 32 299.898438 C 25 297.535156 22.5625 291.898438 22.382812 284.214844 L 22.382812 85.773438 Z M 148.472656 211.648438 L 183.394531 246.78125 C 186.015625 249.402344 190.179688 249.402344 192.800781 246.78125 L 226.679688 212.90625 L 314.925781 301.152344 L 58.976562 301.152344 L 148.476562 211.652344 Z M 148.472656 211.648438 "/></g></g></svg>