<svg xmlns="http://www.w3.org/2000/svg" xmlns:xlink="http://www.w3.org/1999/xlink" width="500" zoomAndPan="magnify" viewBox="0 0 375 374.999991" height="500" preserveAspectRatio="xMidYMid meet" version="1.2"><defs><clipPath id="a37e5ea3af"><path d="M 4.558594 118 L 240 118 L 240 259 L 4.558594 259 Z M 4.558594 118 "/></clipPath><clipPath id="86edc6718e"><path d="M 79 3 L 370.558594 3 L 370.558594 375 L 79 375 Z M 79 3 "/></clipPath></defs><g id="fa3e678acd"><g clip-rule="nonzero" clip-path="url(#a37e5ea3af)"><path style=" stroke:none;fill-rule:nonzero;fill:#000000;fill-opacity:1;" d="M 157.5625 230.144531 C 150.910156 236.796875 150.910156 246.777344 157.5625 253.429688 C 160.890625 256.753906 165.878906 258.417969 169.203125 258.417969 C 172.53125 258.417969 177.519531 256.753906 180.847656 253.429688 L 234.066406 200.210938 C 235.730469 198.546875 237.390625 196.882812 237.390625 195.21875 C 239.054688 193.558594 239.054688 190.230469 239.054688 188.566406 C 239.054688 186.90625 239.054688 183.578125 237.390625 181.914062 C 237.390625 181.914062 235.730469 180.253906 235.730469 180.253906 C 235.730469 178.589844 234.066406 178.589844 234.066406 176.925781 L 180.847656 123.707031 C 174.195312 117.054688 164.214844 117.054688 157.5625 123.707031 C 150.910156 130.359375 150.910156 140.335938 157.5625 146.988281 L 182.507812 171.9375 L 21.1875 171.9375 C 11.210938 171.9375 4.558594 178.589844 4.558594 188.566406 C 4.558594 198.546875 11.210938 205.199219 21.1875 205.199219 L 182.507812 205.199219 Z M 157.5625 230.144531 "/></g><g clip-rule="nonzero" clip-path="url(#86edc6718e)"><path style=" stroke:none;fill-rule:nonzero;fill:#000000;fill-opacity:1;" d="M 353.808594 3.964844 L 96.027344 3.964844 C 86.050781 3.964844 79.398438 10.617188 79.398438 20.59375 L 79.398438 103.75 C 79.398438 113.726562 86.050781 120.378906 96.027344 120.378906 C 106.007812 120.378906 112.660156 113.726562 112.660156 103.75 L 112.660156 37.226562 L 337.179688 37.226562 L 337.179688 344.898438 L 112.660156 344.898438 L 112.660156 278.375 C 112.660156 268.398438 106.007812 261.746094 96.027344 261.746094 C 86.050781 261.746094 79.398438 268.398438 79.398438 278.375 L 79.398438 361.53125 C 79.398438 371.507812 86.050781 378.160156 96.027344 378.160156 L 353.808594 378.160156 C 363.789062 378.160156 370.441406 371.507812 370.441406 361.53125 L 370.441406 20.59375 C 370.441406 10.617188 362.125 3.964844 353.808594 3.964844 Z M 353.808594 3.964844 "/></g></g></svg>