<svg xmlns="http://www.w3.org/2000/svg" xmlns:xlink="http://www.w3.org/1999/xlink" width="500" zoomAndPan="magnify" viewBox="0 0 375 374.999991" height="500" preserveAspectRatio="xMidYMid meet" version="1.0"><metadata><ContainsAiGeneratedContent>Yes</ContainsAiGeneratedContent></metadata><path fill="#00457c" d="M 338.578125 14.597656 C 338.597656 23.503906 338.609375 32.40625 338.621094 41.3125 C 338.625 45.449219 338.628906 49.582031 338.636719 53.71875 C 338.644531 57.324219 338.652344 60.929688 338.652344 64.535156 C 338.652344 66.441406 338.65625 68.351562 338.664062 70.257812 C 338.667969 72.058594 338.667969 73.855469 338.667969 75.65625 C 338.667969 76.3125 338.667969 76.96875 338.671875 77.625 C 338.71875 87.640625 338.71875 87.640625 336.359375 92.03125 L 335.9375 92.839844 C 334.085938 96.253906 331.664062 98.902344 328.382812 100.988281 C 326.003906 102.308594 323.617188 103.402344 321.046875 104.289062 L 320.125 104.617188 C 319.457031 104.851562 318.792969 105.085938 318.128906 105.316406 C 316.253906 105.972656 314.378906 106.640625 312.507812 107.304688 C 312.105469 107.449219 311.699219 107.589844 311.285156 107.738281 C 306.371094 109.488281 301.476562 111.304688 296.585938 113.113281 C 287.945312 116.308594 279.289062 119.460938 270.621094 122.574219 L 269.839844 122.855469 C 263.972656 124.96875 258.105469 127.089844 252.25 129.238281 C 246.074219 131.507812 239.886719 133.742188 233.695312 135.96875 C 225.800781 138.8125 217.90625 141.664062 210.03125 144.566406 L 208.859375 144.996094 L 207.679688 145.429688 L 205.285156 146.3125 L 204.070312 146.761719 C 198.40625 148.84375 192.742188 150.917969 187.070312 152.984375 C 178.210938 156.21875 169.34375 159.4375 160.46875 162.644531 C 154.261719 164.890625 148.054688 167.144531 141.851562 169.402344 C 128.5 174.257812 128.5 174.257812 122.453125 176.449219 C 121.828125 176.671875 121.207031 176.898438 120.585938 177.125 C 119.75 177.425781 118.917969 177.726562 118.085938 178.03125 L 116.691406 178.535156 C 115.675781 178.882812 115.675781 178.882812 115.277344 178.882812 C 115.257812 169.914062 115.246094 160.941406 115.238281 151.972656 C 115.234375 147.804688 115.226562 143.640625 115.21875 139.476562 C 115.210938 135.84375 115.203125 132.210938 115.203125 128.578125 C 115.203125 126.65625 115.199219 124.734375 115.195312 122.8125 C 115.1875 121.003906 115.1875 119.191406 115.1875 117.378906 C 115.1875 116.71875 115.1875 116.054688 115.183594 115.390625 C 115.160156 110.402344 115.359375 105.660156 117.671875 101.128906 C 118.527344 99.738281 119.46875 98.433594 120.460938 97.140625 L 121.019531 96.367188 C 122.976562 93.832031 125.660156 92.246094 128.566406 90.980469 C 131.875 89.671875 135.203125 88.421875 138.550781 87.226562 C 140.109375 86.667969 141.664062 86.109375 143.21875 85.550781 L 144.253906 85.179688 C 148.863281 83.519531 153.464844 81.84375 158.070312 80.167969 L 165.207031 77.570312 C 168.46875 76.382812 171.730469 75.199219 174.992188 74.015625 C 184.3125 70.632812 193.625 67.226562 202.929688 63.792969 C 212.582031 60.230469 222.257812 56.726562 231.945312 53.253906 C 244.179688 48.867188 256.386719 44.40625 268.59375 39.945312 C 272.363281 38.570312 276.132812 37.191406 279.902344 35.816406 L 280.6875 35.53125 L 292.382812 31.261719 L 293.160156 30.976562 C 296.949219 29.59375 300.738281 28.210938 304.527344 26.824219 C 324.082031 19.679688 324.082031 19.679688 331.617188 16.953125 L 333.453125 16.289062 C 334.261719 15.996094 335.074219 15.703125 335.882812 15.410156 L 337.214844 14.929688 C 338.179688 14.597656 338.179688 14.597656 338.578125 14.597656 M 256.4375 152.566406 C 256.472656 161.839844 256.5 171.117188 256.519531 180.394531 C 256.527344 184.699219 256.539062 189.007812 256.554688 193.3125 C 256.570312 197.070312 256.582031 200.824219 256.585938 204.582031 C 256.585938 206.566406 256.59375 208.554688 256.605469 210.542969 C 256.613281 212.414062 256.617188 214.289062 256.617188 216.164062 C 256.617188 216.847656 256.621094 217.53125 256.625 218.214844 C 256.664062 222.890625 256.046875 226.726562 253.96875 230.96875 C 252.695312 233.128906 251.007812 234.921875 249.257812 236.703125 L 248.558594 237.414062 C 245.535156 240.253906 241.226562 241.457031 237.390625 242.820312 L 236.042969 243.304688 C 234.835938 243.738281 233.628906 244.171875 232.417969 244.605469 C 230.339844 245.351562 228.261719 246.101562 226.183594 246.851562 L 224.570312 247.429688 C 218.832031 249.5 213.109375 251.609375 207.390625 253.722656 C 199.523438 256.628906 191.644531 259.496094 183.753906 262.328125 C 177.671875 264.515625 171.59375 266.710938 165.519531 268.925781 C 159.800781 271.007812 154.082031 273.089844 148.359375 275.160156 L 147.605469 275.429688 L 140.902344 277.855469 C 136.074219 279.601562 131.246094 281.347656 126.433594 283.128906 L 125.332031 283.535156 C 123.671875 284.152344 122.011719 284.765625 120.355469 285.386719 L 118.65625 286.019531 L 117.191406 286.566406 C 116.074219 286.945312 116.074219 286.945312 115.277344 286.945312 C 115.257812 277.914062 115.246094 268.886719 115.238281 259.855469 C 115.234375 255.664062 115.226562 251.46875 115.21875 247.277344 C 115.210938 243.621094 115.203125 239.96875 115.203125 236.3125 C 115.203125 234.378906 115.199219 232.441406 115.195312 230.507812 C 115.1875 228.683594 115.1875 226.863281 115.1875 225.039062 C 115.1875 224.371094 115.1875 223.703125 115.183594 223.039062 C 115.160156 218.132812 115.445312 213.652344 117.671875 209.1875 C 119.621094 205.859375 122.1875 202.644531 125.472656 200.5625 C 130.390625 198.046875 135.636719 196.3125 140.832031 194.472656 C 142.203125 193.988281 143.574219 193.496094 144.945312 193.003906 C 147.105469 192.234375 149.269531 191.460938 151.429688 190.691406 C 154.773438 189.5 158.113281 188.300781 161.449219 187.09375 L 164.019531 186.164062 C 167.863281 184.777344 171.699219 183.371094 175.535156 181.960938 C 180.515625 180.128906 185.511719 178.328125 190.503906 176.523438 C 200.886719 172.769531 200.886719 172.769531 211.253906 168.964844 C 217.832031 166.535156 224.414062 164.121094 231.003906 161.71875 L 233.453125 160.820312 C 235.015625 160.253906 236.578125 159.683594 238.136719 159.113281 L 238.898438 158.835938 C 242.910156 157.371094 246.925781 155.921875 250.945312 154.480469 L 252.097656 154.070312 L 253.09375 153.710938 C 253.78125 153.460938 254.460938 153.195312 255.136719 152.921875 C 256.035156 152.566406 256.035156 152.566406 256.4375 152.566406 " fill-opacity="1" fill-rule="nonzero"/><path fill="#01aef0" d="M 258.417969 30.886719 L 259.226562 31.347656 L 259.625 32.144531 C 258.164062 32.746094 256.695312 33.335938 255.222656 33.914062 C 254.480469 34.207031 253.738281 34.511719 253.003906 34.820312 C 249.460938 36.191406 249.460938 36.191406 247.820312 36.027344 C 246.917969 35.730469 246.113281 35.367188 245.269531 34.933594 C 244.753906 34.726562 244.234375 34.527344 243.710938 34.332031 L 242.910156 34.019531 C 227.742188 28.152344 210.769531 24.558594 194.507812 24.484375 L 193.253906 24.476562 C 191.925781 24.472656 190.597656 24.46875 189.269531 24.46875 L 187.894531 24.464844 C 180.886719 24.472656 174.050781 24.6875 167.117188 25.761719 L 165.742188 25.96875 C 149.140625 28.539062 132.945312 33.46875 118.050781 41.304688 C 117.207031 41.746094 116.359375 42.175781 115.511719 42.601562 C 105.972656 47.433594 97.105469 53.53125 88.960938 60.453125 L 88.28125 61.023438 C 84.632812 64.09375 84.632812 64.09375 81.207031 67.410156 C 80.53125 68.085938 79.820312 68.6875 79.089844 69.300781 C 77.101562 71.023438 75.355469 72.96875 73.609375 74.933594 C 73.207031 75.382812 72.808594 75.832031 72.40625 76.28125 C 67.011719 82.277344 62.191406 88.746094 57.859375 95.542969 L 57.046875 96.8125 C 42.957031 119.273438 34.300781 145.550781 33.136719 172.105469 C 32.667969 186.464844 33.804688 200.316406 36.722656 214.371094 C 36.839844 214.933594 36.839844 214.933594 36.957031 215.507812 C 42.332031 240.984375 55.765625 264.609375 72.773438 284.050781 C 75.226562 286.785156 77.800781 289.394531 80.386719 292.003906 L 81.433594 293.066406 C 83.816406 295.453125 86.324219 297.601562 88.960938 299.703125 C 89.496094 300.144531 90.027344 300.589844 90.558594 301.035156 C 95.851562 305.425781 101.5 309.191406 107.304688 312.863281 L 106.804688 314.285156 C 104.828125 320.242188 103.5625 326.035156 103.613281 332.328125 L 103.621094 333.691406 C 103.652344 337.039062 103.902344 340.273438 104.511719 343.566406 C 90.875 337.089844 78.035156 328.109375 66.949219 317.871094 C 66.09375 317.089844 65.222656 316.324219 64.34375 315.570312 C 62.421875 313.894531 60.628906 312.101562 58.828125 310.296875 L 57.851562 309.320312 C 55.914062 307.382812 54.054688 305.375 52.277344 303.292969 C 51.890625 302.855469 51.507812 302.421875 51.125 301.984375 C 48.136719 298.5625 45.378906 295.003906 42.707031 291.332031 L 42.113281 290.523438 C 30.457031 274.554688 21.539062 256.46875 15.988281 237.5 L 15.617188 236.222656 C 7.113281 206.804688 6.789062 175.6875 14.035156 145.988281 C 19.421875 124.472656 28.746094 103.867188 41.90625 85.972656 C 42.210938 85.558594 42.511719 85.144531 42.820312 84.71875 C 46.5625 79.636719 50.601562 74.796875 54.929688 70.199219 C 55.730469 69.34375 56.507812 68.460938 57.285156 67.582031 C 59.960938 64.597656 62.78125 61.75 65.832031 59.148438 C 66.730469 58.375 67.601562 57.570312 68.476562 56.765625 C 70.945312 54.539062 73.558594 52.507812 76.199219 50.484375 L 76.976562 49.886719 C 101.488281 31.082031 130.457031 19.253906 161.035156 15.101562 C 194.402344 10.9375 228.066406 16.535156 258.417969 30.886719 " fill-opacity="1" fill-rule="nonzero"/><path fill="#02aef0" d="M 337.382812 107.90625 C 338.84375 109.25 339.511719 110.839844 340.347656 112.617188 L 340.867188 113.71875 C 348.761719 130.746094 353.964844 148.789062 356.222656 167.417969 L 356.324219 168.246094 C 358.542969 186.78125 357.675781 205.695312 353.730469 223.941406 L 353.460938 225.230469 C 350.398438 239.730469 345.441406 253.835938 338.601562 266.992188 C 338.15625 267.855469 337.714844 268.71875 337.277344 269.589844 C 330.359375 283.128906 321.296875 295.285156 311.0625 306.484375 L 310.003906 307.671875 C 307.039062 310.964844 303.878906 314.003906 300.613281 316.996094 C 300.007812 317.550781 299.402344 318.109375 298.804688 318.671875 C 296.105469 321.152344 293.238281 323.394531 290.328125 325.625 L 289.550781 326.21875 C 265.273438 344.847656 236.339844 356.851562 206.007812 360.898438 C 204.609375 361.074219 203.207031 361.246094 201.808594 361.410156 L 200.503906 361.566406 C 198.261719 361.816406 196.085938 361.964844 193.832031 361.910156 L 194.445312 360.855469 C 199.28125 352.511719 201.839844 344.714844 203.402344 335.191406 L 204.476562 335.046875 C 229.488281 331.628906 253.207031 324.140625 274.378906 310.070312 L 275.207031 309.527344 C 281.109375 305.625 286.742188 301.335938 291.925781 296.515625 C 292.453125 296.046875 292.984375 295.582031 293.519531 295.117188 L 295.113281 293.722656 L 296.101562 292.863281 C 297.941406 291.242188 299.632812 289.597656 301.214844 287.722656 C 301.921875 286.914062 302.667969 286.171875 303.4375 285.425781 C 305.15625 283.726562 306.652344 281.886719 308.15625 280.003906 C 308.695312 279.34375 309.242188 278.691406 309.800781 278.046875 C 315.839844 270.933594 320.871094 262.910156 325.335938 254.730469 C 325.765625 253.949219 326.203125 253.167969 326.648438 252.394531 C 335.265625 237.007812 340.46875 218.984375 342.964844 201.613281 L 343.144531 200.421875 C 346.953125 174.445312 343.109375 147.316406 333.550781 122.988281 C 332.226562 119.664062 330.832031 116.371094 329.40625 113.089844 C 329.707031 112.933594 330.007812 112.777344 330.316406 112.621094 C 332.890625 111.277344 335.15625 109.765625 337.382812 107.90625 " fill-opacity="1" fill-rule="nonzero"/><path fill="#00457c" d="M 168.285156 297.925781 C 174.59375 300.925781 179.933594 304.902344 184.074219 310.59375 C 188.089844 316.425781 190.304688 323.011719 190.910156 330.039062 C 191.371094 337.152344 189.839844 343.714844 186.730469 350.097656 C 185.402344 352.707031 183.808594 354.929688 181.871094 357.125 L 181.332031 357.832031 C 178.074219 362.0625 173.175781 365.058594 168.34375 367.15625 C 161.285156 370.011719 153.824219 370.652344 146.265625 369.714844 C 139.378906 368.398438 133.195312 364.945312 127.886719 360.460938 C 122.753906 355.835938 119.445312 350.078125 117.273438 343.566406 C 115.316406 336.667969 115.15625 329.878906 116.84375 322.890625 C 118.769531 315.878906 122.378906 310.238281 127.425781 305.078125 C 132.375 300.371094 138.613281 297.398438 145.183594 295.71875 C 152.925781 294.039062 160.980469 294.839844 168.285156 297.925781 " fill-opacity="1" fill-rule="nonzero"/></svg>