<svg xmlns="http://www.w3.org/2000/svg" xmlns:xlink="http://www.w3.org/1999/xlink" width="500" zoomAndPan="magnify" viewBox="0 0 375 374.999991" height="500" preserveAspectRatio="xMidYMid meet" version="1.2"><g id="a78760471c"><path style=" stroke:none;fill-rule:nonzero;fill:#5f5f5f;fill-opacity:1;" d="M 267.808594 264.320312 C 274.25 279.210938 272.488281 294.738281 272.589844 310.070312 C 272.6875 325.359375 272.683594 340.648438 272.578125 355.941406 C 272.492188 367.308594 263.335938 374.890625 252.78125 372.574219 C 245.417969 370.957031 240.246094 364.550781 240.226562 356.632812 C 240.183594 335.027344 240.105469 313.417969 240.324219 291.808594 C 240.4375 281.042969 237.265625 271.699219 229.992188 263.785156 C 225.308594 258.691406 223.601562 252.878906 226.109375 246.335938 C 228.542969 239.992188 233.507812 237.046875 240.1875 235.804688 C 252.4375 233.527344 264.871094 231.5625 276.683594 227.773438 C 303.976562 219.019531 319.957031 199.53125 325.789062 171.75 C 329.363281 154.71875 331.027344 137.519531 326.660156 120.3125 C 323.84375 109.21875 318.589844 99.324219 310.773438 90.980469 C 305.0625 84.875 303.695312 78.410156 306.523438 70.492188 C 310.738281 58.695312 311.167969 46.582031 308.066406 33.632812 C 303.8125 35.082031 299.59375 36 295.863281 37.886719 C 286.425781 42.671875 276.988281 47.527344 267.984375 53.058594 C 261.945312 56.765625 256.183594 57.871094 249.320312 56.097656 C 216.257812 47.542969 183.167969 47.554688 150.058594 56.140625 C 143.347656 57.878906 137.554688 57.023438 131.769531 53.105469 C 120.460938 45.441406 108.5625 38.816406 95.351562 34.894531 C 94.171875 34.542969 92.957031 34.3125 91.472656 33.957031 C 89.015625 42.996094 88.820312 51.855469 90.492188 60.734375 C 91.234375 64.683594 92.425781 68.566406 93.640625 72.40625 C 95.605469 78.585938 94.78125 84.253906 90.378906 89.011719 C 75.96875 104.582031 69.570312 122.957031 70.40625 144.0625 C 70.988281 158.65625 72.757812 173.007812 78.199219 186.683594 C 87.019531 208.855469 103.828125 222.304688 126.074219 229.070312 C 136.523438 232.25 147.398438 234.171875 158.191406 236.023438 C 169.148438 237.902344 175.632812 244.636719 174.183594 254.5625 C 173.722656 257.730469 172.082031 261.167969 169.957031 263.578125 C 162.269531 272.289062 158.988281 282.203125 159.167969 293.78125 C 159.484375 314.625 159.320312 335.480469 159.242188 356.328125 C 159.207031 365.898438 152.351562 372.957031 143.308594 373.078125 C 134.207031 373.199219 127.171875 365.972656 127.078125 356.234375 C 126.992188 347.15625 127.058594 338.078125 127.058594 329.476562 C 118.796875 329.476562 110.863281 329.90625 102.992188 329.394531 C 84.214844 328.171875 68.582031 319.984375 55.832031 306.390625 C 50.050781 300.230469 44.867188 293.503906 39.480469 286.980469 C 35.027344 281.59375 30.402344 276.820312 23.363281 274.386719 C 15.558594 271.683594 11.988281 262.40625 14.679688 254.570312 C 17.445312 246.523438 25.796875 242.09375 34.085938 244.222656 C 44.789062 246.96875 53.144531 253.320312 60.210938 261.484375 C 65.335938 267.402344 70.253906 273.507812 75.09375 279.664062 C 88.640625 296.894531 106.320312 300.476562 126.597656 295.625 C 126.976562 290.234375 127.027344 284.921875 127.808594 279.71875 C 128.570312 274.636719 130.082031 269.667969 131.292969 264.527344 C 125.523438 262.769531 119.460938 261.140625 113.550781 259.082031 C 70.320312 244.035156 46.851562 212.863281 40.171875 168.328125 C 37.535156 150.773438 36.640625 133.144531 40.695312 115.59375 C 43.921875 101.625 49.695312 88.835938 58.222656 77.328125 C 59.6875 75.347656 60.210938 73.59375 59.648438 71.121094 C 55.097656 51.078125 56.75 31.492188 64.398438 12.425781 C 67.578125 4.507812 72.828125 1.324219 81.292969 0.929688 C 101.265625 -0.00390625 118.707031 7.664062 135.121094 17.503906 C 142.988281 22.21875 149.941406 23.070312 158.71875 21.328125 C 188.691406 15.375 218.746094 16.238281 248.605469 22.667969 C 252.050781 23.410156 254.699219 23.070312 257.746094 21.203125 C 272.554688 12.132812 287.980469 4.3125 305.359375 1.558594 C 310.664062 0.71875 316.226562 0.71875 321.589844 1.203125 C 327.988281 1.78125 332.410156 5.660156 334.847656 11.671875 C 342.71875 31.078125 344.496094 50.980469 339.988281 71.472656 C 339.640625 73.054688 340.03125 75.304688 340.972656 76.59375 C 356.773438 98.246094 362.929688 122.542969 361.3125 149.078125 C 360.238281 166.695312 357.523438 183.964844 350.621094 200.34375 C 337.5625 231.324219 313.886719 250.261719 282.378906 260.210938 C 277.714844 261.683594 272.960938 262.875 267.808594 264.320312 Z M 267.808594 264.320312 "/></g></svg>