<svg xmlns="http://www.w3.org/2000/svg" xmlns:xlink="http://www.w3.org/1999/xlink" width="500" zoomAndPan="magnify" viewBox="0 0 375 374.999991" height="500" preserveAspectRatio="xMidYMid meet" version="1.0"><metadata><ContainsAiGeneratedContent>Yes</ContainsAiGeneratedContent></metadata><defs><clipPath id="b7356122c5"><path d="M 9.207031 177.726562 L 363.980469 177.726562 L 363.980469 353.175781 L 9.207031 353.175781 Z M 9.207031 177.726562 " clip-rule="nonzero"/></clipPath><clipPath id="c2361b1253"><path d="M 0.207031 0.726562 L 354.980469 0.726562 L 354.980469 176.175781 L 0.207031 176.175781 Z M 0.207031 0.726562 " clip-rule="nonzero"/></clipPath><clipPath id="17d5059820"><rect x="0" width="355" y="0" height="177"/></clipPath><clipPath id="d66e0e3a7f"><path d="M 0.398438 0.601562 L 367 0.601562 L 367 139.558594 L 0.398438 139.558594 Z M 0.398438 0.601562 " clip-rule="nonzero"/></clipPath><clipPath id="722e239874"><path d="M 354 1 L 358 1 L 358 139.558594 L 354 139.558594 Z M 354 1 " clip-rule="nonzero"/></clipPath><clipPath id="182b1fcd91"><path d="M 237.027344 49.820312 L 355.980469 49.820312 L 355.980469 136.332031 L 237.027344 136.332031 Z M 237.027344 49.820312 " clip-rule="nonzero"/></clipPath><clipPath id="50f6eda5c3"><path d="M 0.0273438 0.820312 L 118.980469 0.820312 L 118.980469 87.332031 L 0.0273438 87.332031 Z M 0.0273438 0.820312 " clip-rule="nonzero"/></clipPath><clipPath id="d541abecf9"><rect x="0" width="119" y="0" height="88"/></clipPath><clipPath id="03ada7b3b0"><path d="M 113.15625 93.078125 L 345.28125 93.078125 L 345.28125 136.332031 L 113.15625 136.332031 Z M 113.15625 93.078125 " clip-rule="nonzero"/></clipPath><clipPath id="354ed85180"><path d="M 0.15625 0.078125 L 232.28125 0.078125 L 232.28125 43.332031 L 0.15625 43.332031 Z M 0.15625 0.078125 " clip-rule="nonzero"/></clipPath><clipPath id="b204eac4fa"><rect x="0" width="233" y="0" height="44"/></clipPath><clipPath id="c3cb58246a"><path d="M 119 8 L 356 8 L 356 133 L 119 133 Z M 119 8 " clip-rule="nonzero"/></clipPath><clipPath id="fa37764fa8"><path d="M 119.695312 92.527344 L 340.585938 8.398438 L 355.984375 48.824219 L 135.09375 132.949219 Z M 119.695312 92.527344 " clip-rule="nonzero"/></clipPath><clipPath id="783eb0ff7c"><path d="M 0.679688 0.28125 L 237 0.28125 L 237 125 L 0.679688 125 Z M 0.679688 0.28125 " clip-rule="nonzero"/></clipPath><clipPath id="5b7d549494"><path d="M 0.695312 84.527344 L 221.585938 0.398438 L 236.984375 40.824219 L 16.09375 124.949219 Z M 0.695312 84.527344 " clip-rule="nonzero"/></clipPath><clipPath id="eeb5c6dba0"><rect x="0" width="237" y="0" height="125"/></clipPath><clipPath id="f97128b37c"><path d="M 6 119 L 126 119 L 126 137 L 6 137 Z M 6 119 " clip-rule="nonzero"/></clipPath><clipPath id="5ee8e84ccd"><path d="M 6.144531 123.703125 L 125.046875 119.660156 L 125.476562 132.292969 L 6.574219 136.332031 Z M 6.144531 123.703125 " clip-rule="nonzero"/></clipPath><clipPath id="10790869db"><path d="M 35.867188 122.695312 L 125.03125 119.660156 L 95.738281 133.300781 L 6.574219 136.332031 Z M 35.867188 122.695312 " clip-rule="nonzero"/></clipPath><clipPath id="43ad32155f"><path d="M 0.398438 0.640625 L 119.199219 0.640625 L 119.199219 17.441406 L 0.398438 17.441406 Z M 0.398438 0.640625 " clip-rule="nonzero"/></clipPath><clipPath id="8076520998"><path d="M 0.144531 4.703125 L 119.046875 0.660156 L 119.476562 13.292969 L 0.574219 17.332031 Z M 0.144531 4.703125 " clip-rule="nonzero"/></clipPath><clipPath id="842412dd64"><path d="M 29.867188 3.695312 L 119.03125 0.660156 L 89.738281 14.300781 L 0.574219 17.332031 Z M 29.867188 3.695312 " clip-rule="nonzero"/></clipPath><clipPath id="a7b301a021"><rect x="0" width="120" y="0" height="18"/></clipPath><clipPath id="c6f768327a"><path d="M 45 119 L 164 119 L 164 137 L 45 137 Z M 45 119 " clip-rule="nonzero"/></clipPath><clipPath id="51c0c6b5d8"><path d="M 44.628906 123.703125 L 163.527344 119.660156 L 163.957031 132.292969 L 45.058594 136.332031 Z M 44.628906 123.703125 " clip-rule="nonzero"/></clipPath><clipPath id="b38c75900a"><path d="M 74.347656 122.695312 L 163.515625 119.660156 L 134.222656 133.300781 L 45.058594 136.332031 Z M 74.347656 122.695312 " clip-rule="nonzero"/></clipPath><clipPath id="fb0349f9c9"><path d="M 0.0390625 0.640625 L 118.601562 0.640625 L 118.601562 17.441406 L 0.0390625 17.441406 Z M 0.0390625 0.640625 " clip-rule="nonzero"/></clipPath><clipPath id="67db9c18a7"><path d="M -0.371094 4.703125 L 118.527344 0.660156 L 118.957031 13.292969 L 0.0585938 17.332031 Z M -0.371094 4.703125 " clip-rule="nonzero"/></clipPath><clipPath id="5ce7b8c790"><path d="M 29.347656 3.695312 L 118.515625 0.660156 L 89.222656 14.300781 L 0.0585938 17.332031 Z M 29.347656 3.695312 " clip-rule="nonzero"/></clipPath><clipPath id="4102971f0a"><rect x="0" width="119" y="0" height="18"/></clipPath><clipPath id="4955c55c5c"><path d="M 68 119 L 187 119 L 187 137 L 68 137 Z M 68 119 " clip-rule="nonzero"/></clipPath><clipPath id="38e2f4e2e5"><path d="M 67.632812 123.703125 L 186.535156 119.660156 L 186.964844 132.292969 L 68.0625 136.332031 Z M 67.632812 123.703125 " clip-rule="nonzero"/></clipPath><clipPath id="b80d711bc9"><path d="M 97.355469 122.695312 L 186.519531 119.660156 L 157.226562 133.300781 L 68.0625 136.332031 Z M 97.355469 122.695312 " clip-rule="nonzero"/></clipPath><clipPath id="e962ef58e9"><path d="M 0 0.640625 L 118.640625 0.640625 L 118.640625 17.441406 L 0 17.441406 Z M 0 0.640625 " clip-rule="nonzero"/></clipPath><clipPath id="c43c6ad9d5"><path d="M -0.367188 4.703125 L 118.535156 0.660156 L 118.964844 13.292969 L 0.0625 17.332031 Z M -0.367188 4.703125 " clip-rule="nonzero"/></clipPath><clipPath id="23205c299c"><path d="M 29.355469 3.695312 L 118.519531 0.660156 L 89.226562 14.300781 L 0.0625 17.332031 Z M 29.355469 3.695312 " clip-rule="nonzero"/></clipPath><clipPath id="8d2d7c716c"><rect x="0" width="119" y="0" height="18"/></clipPath><clipPath id="48bb457c19"><path d="M 30 111 L 149 111 L 149 128 L 30 128 Z M 30 111 " clip-rule="nonzero"/></clipPath><clipPath id="f1b9cbb761"><path d="M 29.628906 115.367188 L 148.53125 111.324219 L 148.960938 123.957031 L 30.058594 127.996094 Z M 29.628906 115.367188 " clip-rule="nonzero"/></clipPath><clipPath id="faffbb2130"><path d="M 59.351562 114.359375 L 148.515625 111.324219 L 119.222656 124.964844 L 30.058594 127.996094 Z M 59.351562 114.359375 " clip-rule="nonzero"/></clipPath><clipPath id="5049a69695"><path d="M 0 0.238281 L 118.71875 0.238281 L 118.71875 17 L 0 17 Z M 0 0.238281 " clip-rule="nonzero"/></clipPath><clipPath id="a2823dd625"><path d="M -0.371094 4.367188 L 118.53125 0.324219 L 118.960938 12.957031 L 0.0585938 16.996094 Z M -0.371094 4.367188 " clip-rule="nonzero"/></clipPath><clipPath id="d2ab09a56f"><path d="M 29.351562 3.359375 L 118.515625 0.324219 L 89.222656 13.964844 L 0.0585938 16.996094 Z M 29.351562 3.359375 " clip-rule="nonzero"/></clipPath><clipPath id="98c9637524"><rect x="0" width="119" y="0" height="17"/></clipPath><clipPath id="0c78db22c4"><path d="M 45 106 L 164 106 L 164 124 L 45 124 Z M 45 106 " clip-rule="nonzero"/></clipPath><clipPath id="cc78d86a5b"><path d="M 44.628906 110.410156 L 163.527344 106.371094 L 163.957031 119 L 45.058594 123.042969 Z M 44.628906 110.410156 " clip-rule="nonzero"/></clipPath><clipPath id="4540937f7a"><path d="M 74.347656 109.402344 L 163.515625 106.371094 L 134.222656 120.011719 L 45.058594 123.042969 Z M 74.347656 109.402344 " clip-rule="nonzero"/></clipPath><clipPath id="cb82ad76fc"><path d="M 0.0390625 0.199219 L 118.601562 0.199219 L 118.601562 17.238281 L 0.0390625 17.238281 Z M 0.0390625 0.199219 " clip-rule="nonzero"/></clipPath><clipPath id="a998997618"><path d="M -0.371094 4.410156 L 118.527344 0.371094 L 118.957031 13 L 0.0585938 17.042969 Z M -0.371094 4.410156 " clip-rule="nonzero"/></clipPath><clipPath id="6bf4925beb"><path d="M 29.347656 3.402344 L 118.515625 0.371094 L 89.222656 14.011719 L 0.0585938 17.042969 Z M 29.347656 3.402344 " clip-rule="nonzero"/></clipPath><clipPath id="4c0a0913ad"><rect x="0" width="119" y="0" height="18"/></clipPath><clipPath id="5e9ff8c2c6"><path d="M 60 100 L 179 100 L 179 118 L 60 118 Z M 60 100 " clip-rule="nonzero"/></clipPath><clipPath id="8711d34c76"><path d="M 60.039062 104.707031 L 178.9375 100.664062 L 179.367188 113.296875 L 60.46875 117.335938 Z M 60.039062 104.707031 " clip-rule="nonzero"/></clipPath><clipPath id="dae99e1909"><path d="M 89.757812 103.695312 L 178.921875 100.664062 L 149.632812 114.304688 L 60.46875 117.335938 Z M 89.757812 103.695312 " clip-rule="nonzero"/></clipPath><clipPath id="b09234966e"><path d="M 0.398438 0.441406 L 118.960938 0.441406 L 118.960938 17.480469 L 0.398438 17.480469 Z M 0.398438 0.441406 " clip-rule="nonzero"/></clipPath><clipPath id="f86b5251fd"><path d="M 0.0390625 4.707031 L 118.9375 0.664062 L 119.367188 13.296875 L 0.46875 17.335938 Z M 0.0390625 4.707031 " clip-rule="nonzero"/></clipPath><clipPath id="c1dde7b9cb"><path d="M 29.757812 3.695312 L 118.921875 0.664062 L 89.632812 14.304688 L 0.46875 17.335938 Z M 29.757812 3.695312 " clip-rule="nonzero"/></clipPath><clipPath id="18ffb4ed61"><rect x="0" width="119" y="0" height="18"/></clipPath><clipPath id="a242ce3a81"><path d="M 72 96 L 191 96 L 191 113 L 72 113 Z M 72 96 " clip-rule="nonzero"/></clipPath><clipPath id="accc2047cf"><path d="M 71.828125 100.347656 L 190.730469 96.304688 L 191.160156 108.9375 L 72.257812 112.980469 Z M 71.828125 100.347656 " clip-rule="nonzero"/></clipPath><clipPath id="1c94e61d4b"><path d="M 101.550781 99.339844 L 190.714844 96.308594 L 161.421875 109.949219 L 72.257812 112.980469 Z M 101.550781 99.339844 " clip-rule="nonzero"/></clipPath><clipPath id="527ed903d1"><path d="M 0.160156 0.121094 L 118.71875 0.121094 L 118.71875 17 L 0.160156 17 Z M 0.160156 0.121094 " clip-rule="nonzero"/></clipPath><clipPath id="c029dfaa89"><path d="M -0.171875 4.347656 L 118.730469 0.304688 L 119.160156 12.9375 L 0.257812 16.980469 Z M -0.171875 4.347656 " clip-rule="nonzero"/></clipPath><clipPath id="d9c839596b"><path d="M 29.550781 3.339844 L 118.714844 0.308594 L 89.421875 13.949219 L 0.257812 16.980469 Z M 29.550781 3.339844 " clip-rule="nonzero"/></clipPath><clipPath id="7402604183"><rect x="0" width="119" y="0" height="17"/></clipPath><clipPath id="f1c5da3c0c"><path d="M 82 92 L 201 92 L 201 109 L 82 109 Z M 82 92 " clip-rule="nonzero"/></clipPath><clipPath id="0ac50dd35c"><path d="M 81.921875 96.371094 L 200.824219 92.328125 L 201.253906 104.960938 L 82.351562 109 Z M 81.921875 96.371094 " clip-rule="nonzero"/></clipPath><clipPath id="59a0849c55"><path d="M 111.644531 95.359375 L 200.808594 92.328125 L 171.515625 105.96875 L 82.351562 109 Z M 111.644531 95.359375 " clip-rule="nonzero"/></clipPath><clipPath id="8710f9bf34"><path d="M 0.238281 0.28125 L 119 0.28125 L 119 17 L 0.238281 17 Z M 0.238281 0.28125 " clip-rule="nonzero"/></clipPath><clipPath id="2e6a84caac"><path d="M -0.078125 4.371094 L 118.824219 0.328125 L 119.253906 12.960938 L 0.351562 17 Z M -0.078125 4.371094 " clip-rule="nonzero"/></clipPath><clipPath id="de19b3cb60"><path d="M 29.644531 3.359375 L 118.808594 0.328125 L 89.515625 13.96875 L 0.351562 17 Z M 29.644531 3.359375 " clip-rule="nonzero"/></clipPath><clipPath id="17a14ce9c9"><rect x="0" width="119" y="0" height="17"/></clipPath><clipPath id="7181c383aa"><path d="M 341 3 L 355 3 L 355 63 L 341 63 Z M 341 3 " clip-rule="nonzero"/></clipPath><clipPath id="cfff9a4574"><path d="M 329.757812 57.1875 L 354.851562 3.253906 L 366.308594 8.585938 L 341.21875 62.519531 Z M 329.757812 57.1875 " clip-rule="nonzero"/></clipPath><clipPath id="a67c31668e"><path d="M 342.304688 30.222656 L 354.847656 3.261719 L 353.761719 35.554688 L 341.21875 62.519531 Z M 342.304688 30.222656 " clip-rule="nonzero"/></clipPath><clipPath id="016aff1ed3"><path d="M 0.199219 0.238281 L 13.878906 0.238281 L 13.878906 59.519531 L 0.199219 59.519531 Z M 0.199219 0.238281 " clip-rule="nonzero"/></clipPath><clipPath id="933f8b9a26"><path d="M -11.242188 54.1875 L 13.851562 0.253906 L 25.308594 5.585938 L 0.21875 59.519531 Z M -11.242188 54.1875 " clip-rule="nonzero"/></clipPath><clipPath id="7eaea755e2"><path d="M 1.304688 27.222656 L 13.847656 0.261719 L 12.761719 32.554688 L 0.21875 59.519531 Z M 1.304688 27.222656 " clip-rule="nonzero"/></clipPath><clipPath id="1c4e59a834"><rect x="0" width="14" y="0" height="60"/></clipPath><clipPath id="cb0154911a"><path d="M 341 14 L 355 14 L 355 75 L 341 75 Z M 341 14 " clip-rule="nonzero"/></clipPath><clipPath id="fd724af82b"><path d="M 329.757812 68.710938 L 354.851562 14.777344 L 366.308594 20.109375 L 341.21875 74.042969 Z M 329.757812 68.710938 " clip-rule="nonzero"/></clipPath><clipPath id="ced96ff001"><path d="M 342.304688 41.75 L 354.847656 14.785156 L 353.761719 47.078125 L 341.21875 74.042969 Z M 342.304688 41.75 " clip-rule="nonzero"/></clipPath><clipPath id="e02fad2f5f"><path d="M 0.199219 0.761719 L 13.878906 0.761719 L 13.878906 60.28125 L 0.199219 60.28125 Z M 0.199219 0.761719 " clip-rule="nonzero"/></clipPath><clipPath id="ebaad9b59d"><path d="M -11.242188 54.710938 L 13.851562 0.777344 L 25.308594 6.109375 L 0.21875 60.042969 Z M -11.242188 54.710938 " clip-rule="nonzero"/></clipPath><clipPath id="797047db1d"><path d="M 1.304688 27.75 L 13.847656 0.785156 L 12.761719 33.078125 L 0.21875 60.042969 Z M 1.304688 27.75 " clip-rule="nonzero"/></clipPath><clipPath id="b203aeee31"><rect x="0" width="14" y="0" height="61"/></clipPath><clipPath id="f2b6fc1a36"><path d="M 345 21 L 357 21 L 357 74 L 345 74 Z M 345 21 " clip-rule="nonzero"/></clipPath><clipPath id="ae46628501"><path d="M 335.039062 68.710938 L 356.988281 21.539062 L 367.007812 26.203125 L 345.0625 73.371094 Z M 335.039062 68.710938 " clip-rule="nonzero"/></clipPath><clipPath id="23b7660ed0"><path d="M 346.011719 45.128906 L 356.984375 21.546875 L 356.035156 49.789062 L 345.0625 73.371094 Z M 346.011719 45.128906 " clip-rule="nonzero"/></clipPath><clipPath id="e6d011234e"><path d="M 0.0390625 0.480469 L 12 0.480469 L 12 52.558594 L 0.0390625 52.558594 Z M 0.0390625 0.480469 " clip-rule="nonzero"/></clipPath><clipPath id="3eb489f74c"><path d="M -9.960938 47.710938 L 11.988281 0.539062 L 22.007812 5.203125 L 0.0625 52.371094 Z M -9.960938 47.710938 " clip-rule="nonzero"/></clipPath><clipPath id="a7d8cb7422"><path d="M 1.011719 24.128906 L 11.984375 0.546875 L 11.035156 28.789062 L 0.0625 52.371094 Z M 1.011719 24.128906 " clip-rule="nonzero"/></clipPath><clipPath id="b74346253c"><rect x="0" width="12" y="0" height="53"/></clipPath><clipPath id="1772eeef12"><path d="M 313 4 L 349 4 L 349 43 L 313 43 Z M 313 4 " clip-rule="nonzero"/></clipPath><clipPath id="a900dd8d15"><path d="M 307.722656 34.316406 L 348.03125 4.855469 L 354.292969 13.417969 L 313.984375 42.882812 Z M 307.722656 34.316406 " clip-rule="nonzero"/></clipPath><clipPath id="07f6fe210f"><path d="M 327.875 19.589844 L 348.027344 4.859375 L 334.136719 28.152344 L 313.984375 42.882812 Z M 327.875 19.589844 " clip-rule="nonzero"/></clipPath><clipPath id="b8b6aea95c"><path d="M 0.839844 0.679688 L 35.160156 0.679688 L 35.160156 39 L 0.839844 39 Z M 0.839844 0.679688 " clip-rule="nonzero"/></clipPath><clipPath id="56c2cd499b"><path d="M -5.277344 30.316406 L 35.03125 0.855469 L 41.292969 9.417969 L 0.984375 38.882812 Z M -5.277344 30.316406 " clip-rule="nonzero"/></clipPath><clipPath id="422527ccf8"><path d="M 14.875 15.589844 L 35.027344 0.859375 L 21.136719 24.152344 L 0.984375 38.882812 Z M 14.875 15.589844 " clip-rule="nonzero"/></clipPath><clipPath id="8f3c4cb9e5"><rect x="0" width="36" y="0" height="39"/></clipPath><clipPath id="813f177aa9"><path d="M 336 5 L 357 5 L 357 27 L 336 27 Z M 336 5 " clip-rule="nonzero"/></clipPath><clipPath id="d55c4370d6"><path d="M 341.050781 0.828125 L 361.390625 10.875 L 351.34375 31.214844 L 331.003906 21.167969 Z M 341.050781 0.828125 " clip-rule="nonzero"/></clipPath><clipPath id="387bc1f818"><path d="M 351.222656 5.851562 L 356.367188 21.042969 L 341.171875 26.191406 L 336.027344 10.996094 Z M 351.222656 5.851562 " clip-rule="nonzero"/></clipPath><clipPath id="3a0171afb5"><path d="M 0 0.640625 L 20.558594 0.640625 L 20.558594 21.28125 L 0 21.28125 Z M 0 0.640625 " clip-rule="nonzero"/></clipPath><clipPath id="7efe2eaa20"><path d="M 5.050781 -4.171875 L 25.390625 5.875 L 15.34375 26.214844 L -4.996094 16.167969 Z M 5.050781 -4.171875 " clip-rule="nonzero"/></clipPath><clipPath id="c5619dd53b"><path d="M 15.222656 0.851562 L 20.367188 16.042969 L 5.171875 21.191406 L 0.0273438 5.996094 Z M 15.222656 0.851562 " clip-rule="nonzero"/></clipPath><clipPath id="75f4283501"><rect x="0" width="21" y="0" height="22"/></clipPath><clipPath id="ea908a5be6"><path d="M 345 4 L 357 4 L 357 16 L 345 16 Z M 345 4 " clip-rule="nonzero"/></clipPath><clipPath id="7df6743086"><path d="M 348.199219 1.949219 L 359.335938 7.449219 L 353.832031 18.589844 L 342.695312 13.085938 Z M 348.199219 1.949219 " clip-rule="nonzero"/></clipPath><clipPath id="36bc0849e1"><path d="M 353.765625 4.699219 L 356.585938 13.019531 L 348.265625 15.835938 L 345.449219 7.519531 Z M 353.765625 4.699219 " clip-rule="nonzero"/></clipPath><clipPath id="66c4034ab6"><path d="M 0.28125 0.679688 L 11.800781 0.679688 L 11.800781 11.960938 L 0.28125 11.960938 Z M 0.28125 0.679688 " clip-rule="nonzero"/></clipPath><clipPath id="d4ced3e4e0"><path d="M 3.199219 -2.050781 L 14.335938 3.449219 L 8.832031 14.589844 L -2.304688 9.085938 Z M 3.199219 -2.050781 " clip-rule="nonzero"/></clipPath><clipPath id="c677aa40fd"><path d="M 8.765625 0.699219 L 11.585938 9.019531 L 3.265625 11.835938 L 0.449219 3.519531 Z M 8.765625 0.699219 " clip-rule="nonzero"/></clipPath><clipPath id="411303286d"><rect x="0" width="12" y="0" height="12"/></clipPath><clipPath id="3e258c3c41"><rect x="0" width="367" y="0" height="140"/></clipPath></defs><g clip-path="url(#b7356122c5)"><g transform="matrix(1, 0, 0, 1, 9, 177)"><g clip-path="url(#17d5059820)"><g clip-path="url(#c2361b1253)"><path fill="#f6db15" d="M 0.207031 0.726562 L 355.21875 0.726562 L 355.21875 176.175781 L 0.207031 176.175781 Z M 0.207031 0.726562 " fill-opacity="1" fill-rule="nonzero"/></g></g></g></g><g transform="matrix(1, 0, 0, 1, 8, 21)"><g clip-path="url(#3e258c3c41)"><g clip-path="url(#d66e0e3a7f)"><path stroke-linecap="butt" transform="matrix(0.742133, -0.279525, 0.279525, 0.742133, 2.123097, 134.848144)" fill="none" stroke-linejoin="miter" d="M 0.00187669 2.000197 L 476.058483 1.999118 " stroke="#002279" stroke-width="4" stroke-opacity="1" stroke-miterlimit="4"/></g><path stroke-linecap="butt" transform="matrix(0.793029, 0, 0, 0.793029, 2.682433, 134.747906)" fill="none" stroke-linejoin="miter" d="M 0.00146408 1.997563 L 445.504603 1.997563 " stroke="#002279" stroke-width="4" stroke-opacity="1" stroke-miterlimit="4"/><g clip-path="url(#722e239874)"><path stroke-linecap="butt" transform="matrix(0.0000000013841, -0.793029, 0.793029, 0.0000000013841, 354.38961, 137.774229)" fill="none" stroke-linejoin="miter" d="M 0.00099779 2.001128 L 169.623594 2.001127 " stroke="#002279" stroke-width="4" stroke-opacity="1" stroke-miterlimit="4"/></g><g clip-path="url(#182b1fcd91)"><g transform="matrix(1, 0, 0, 1, 237, 49)"><g clip-path="url(#d541abecf9)"><g clip-path="url(#50f6eda5c3)"><path fill="#002279" d="M 0.0273438 0.820312 L 118.980469 0.820312 L 118.980469 87.332031 L 0.0273438 87.332031 Z M 0.0273438 0.820312 " fill-opacity="1" fill-rule="nonzero"/></g></g></g></g><g clip-path="url(#03ada7b3b0)"><g transform="matrix(1, 0, 0, 1, 113, 93)"><g clip-path="url(#b204eac4fa)"><g clip-path="url(#354ed85180)"><path fill="#002279" d="M 0.15625 0.078125 L 232.316406 0.078125 L 232.316406 43.332031 L 0.15625 43.332031 Z M 0.15625 0.078125 " fill-opacity="1" fill-rule="nonzero"/></g></g></g></g><g clip-path="url(#c3cb58246a)"><g clip-path="url(#fa37764fa8)"><g transform="matrix(1, 0, 0, 1, 119, 8)"><g clip-path="url(#eeb5c6dba0)"><g clip-path="url(#783eb0ff7c)"><g clip-path="url(#5b7d549494)"><path fill="#002279" d="M 0.695312 84.527344 L 221.605469 0.394531 L 237 40.816406 L 16.09375 124.949219 Z M 0.695312 84.527344 " fill-opacity="1" fill-rule="nonzero"/></g></g></g></g></g></g><g clip-path="url(#f97128b37c)"><g clip-path="url(#5ee8e84ccd)"><g clip-path="url(#10790869db)"><g transform="matrix(1, 0, 0, 1, 6, 119)"><g clip-path="url(#a7b301a021)"><g clip-path="url(#43ad32155f)"><g clip-path="url(#8076520998)"><g clip-path="url(#842412dd64)"><path fill="#002279" d="M 0.144531 4.703125 L 119.046875 0.660156 L 119.476562 13.292969 L 0.574219 17.332031 Z M 0.144531 4.703125 " fill-opacity="1" fill-rule="nonzero"/></g></g></g></g></g></g></g></g><g clip-path="url(#c6f768327a)"><g clip-path="url(#51c0c6b5d8)"><g clip-path="url(#b38c75900a)"><g transform="matrix(1, 0, 0, 1, 45, 119)"><g clip-path="url(#4102971f0a)"><g clip-path="url(#fb0349f9c9)"><g clip-path="url(#67db9c18a7)"><g clip-path="url(#5ce7b8c790)"><path fill="#002279" d="M -0.371094 4.703125 L 118.527344 0.660156 L 118.957031 13.292969 L 0.0585938 17.332031 Z M -0.371094 4.703125 " fill-opacity="1" fill-rule="nonzero"/></g></g></g></g></g></g></g></g><g clip-path="url(#4955c55c5c)"><g clip-path="url(#38e2f4e2e5)"><g clip-path="url(#b80d711bc9)"><g transform="matrix(1, 0, 0, 1, 68, 119)"><g clip-path="url(#8d2d7c716c)"><g clip-path="url(#e962ef58e9)"><g clip-path="url(#c43c6ad9d5)"><g clip-path="url(#23205c299c)"><path fill="#002279" d="M -0.367188 4.703125 L 118.535156 0.660156 L 118.964844 13.292969 L 0.0625 17.332031 Z M -0.367188 4.703125 " fill-opacity="1" fill-rule="nonzero"/></g></g></g></g></g></g></g></g><g clip-path="url(#48bb457c19)"><g clip-path="url(#f1b9cbb761)"><g clip-path="url(#faffbb2130)"><g transform="matrix(1, 0, 0, 1, 30, 111)"><g clip-path="url(#98c9637524)"><g clip-path="url(#5049a69695)"><g clip-path="url(#a2823dd625)"><g clip-path="url(#d2ab09a56f)"><path fill="#002279" d="M -0.371094 4.367188 L 118.53125 0.324219 L 118.960938 12.957031 L 0.0585938 16.996094 Z M -0.371094 4.367188 " fill-opacity="1" fill-rule="nonzero"/></g></g></g></g></g></g></g></g><g clip-path="url(#0c78db22c4)"><g clip-path="url(#cc78d86a5b)"><g clip-path="url(#4540937f7a)"><g transform="matrix(1, 0, 0, 1, 45, 106)"><g clip-path="url(#4c0a0913ad)"><g clip-path="url(#cb82ad76fc)"><g clip-path="url(#a998997618)"><g clip-path="url(#6bf4925beb)"><path fill="#002279" d="M -0.371094 4.410156 L 118.527344 0.371094 L 118.957031 13 L 0.0585938 17.042969 Z M -0.371094 4.410156 " fill-opacity="1" fill-rule="nonzero"/></g></g></g></g></g></g></g></g><g clip-path="url(#5e9ff8c2c6)"><g clip-path="url(#8711d34c76)"><g clip-path="url(#dae99e1909)"><g transform="matrix(1, 0, 0, 1, 60, 100)"><g clip-path="url(#18ffb4ed61)"><g clip-path="url(#b09234966e)"><g clip-path="url(#f86b5251fd)"><g clip-path="url(#c1dde7b9cb)"><path fill="#002279" d="M 0.0390625 4.707031 L 118.9375 0.664062 L 119.367188 13.296875 L 0.46875 17.335938 Z M 0.0390625 4.707031 " fill-opacity="1" fill-rule="nonzero"/></g></g></g></g></g></g></g></g><g clip-path="url(#a242ce3a81)"><g clip-path="url(#accc2047cf)"><g clip-path="url(#1c94e61d4b)"><g transform="matrix(1, 0, 0, 1, 72, 96)"><g clip-path="url(#7402604183)"><g clip-path="url(#527ed903d1)"><g clip-path="url(#c029dfaa89)"><g clip-path="url(#d9c839596b)"><path fill="#002279" d="M -0.171875 4.347656 L 118.730469 0.304688 L 119.160156 12.9375 L 0.257812 16.980469 Z M -0.171875 4.347656 " fill-opacity="1" fill-rule="nonzero"/></g></g></g></g></g></g></g></g><g clip-path="url(#f1c5da3c0c)"><g clip-path="url(#0ac50dd35c)"><g clip-path="url(#59a0849c55)"><g transform="matrix(1, 0, 0, 1, 82, 92)"><g clip-path="url(#17a14ce9c9)"><g clip-path="url(#8710f9bf34)"><g clip-path="url(#2e6a84caac)"><g clip-path="url(#de19b3cb60)"><path fill="#002279" d="M -0.078125 4.371094 L 118.824219 0.328125 L 119.253906 12.960938 L 0.351562 17 Z M -0.078125 4.371094 " fill-opacity="1" fill-rule="nonzero"/></g></g></g></g></g></g></g></g><g clip-path="url(#7181c383aa)"><g clip-path="url(#cfff9a4574)"><g clip-path="url(#a67c31668e)"><g transform="matrix(1, 0, 0, 1, 341, 3)"><g clip-path="url(#1c4e59a834)"><g clip-path="url(#016aff1ed3)"><g clip-path="url(#933f8b9a26)"><g clip-path="url(#7eaea755e2)"><path fill="#002279" d="M -11.242188 54.1875 L 13.851562 0.253906 L 25.308594 5.585938 L 0.21875 59.519531 Z M -11.242188 54.1875 " fill-opacity="1" fill-rule="nonzero"/></g></g></g></g></g></g></g></g><g clip-path="url(#cb0154911a)"><g clip-path="url(#fd724af82b)"><g clip-path="url(#ced96ff001)"><g transform="matrix(1, 0, 0, 1, 341, 14)"><g clip-path="url(#b203aeee31)"><g clip-path="url(#e02fad2f5f)"><g clip-path="url(#ebaad9b59d)"><g clip-path="url(#797047db1d)"><path fill="#002279" d="M -11.242188 54.710938 L 13.851562 0.777344 L 25.308594 6.109375 L 0.21875 60.042969 Z M -11.242188 54.710938 " fill-opacity="1" fill-rule="nonzero"/></g></g></g></g></g></g></g></g><g clip-path="url(#f2b6fc1a36)"><g clip-path="url(#ae46628501)"><g clip-path="url(#23b7660ed0)"><g transform="matrix(1, 0, 0, 1, 345, 21)"><g clip-path="url(#b74346253c)"><g clip-path="url(#e6d011234e)"><g clip-path="url(#3eb489f74c)"><g clip-path="url(#a7d8cb7422)"><path fill="#002279" d="M -9.960938 47.710938 L 11.988281 0.539062 L 22.007812 5.203125 L 0.0625 52.371094 Z M -9.960938 47.710938 " fill-opacity="1" fill-rule="nonzero"/></g></g></g></g></g></g></g></g><g clip-path="url(#1772eeef12)"><g clip-path="url(#a900dd8d15)"><g clip-path="url(#07f6fe210f)"><g transform="matrix(1, 0, 0, 1, 313, 4)"><g clip-path="url(#8f3c4cb9e5)"><g clip-path="url(#b8b6aea95c)"><g clip-path="url(#56c2cd499b)"><g clip-path="url(#422527ccf8)"><path fill="#002279" d="M -5.277344 30.316406 L 35.03125 0.855469 L 41.292969 9.417969 L 0.984375 38.882812 Z M -5.277344 30.316406 " fill-opacity="1" fill-rule="nonzero"/></g></g></g></g></g></g></g></g><g clip-path="url(#813f177aa9)"><g clip-path="url(#d55c4370d6)"><g clip-path="url(#387bc1f818)"><g transform="matrix(1, 0, 0, 1, 336, 5)"><g clip-path="url(#75f4283501)"><g clip-path="url(#3a0171afb5)"><g clip-path="url(#7efe2eaa20)"><g clip-path="url(#c5619dd53b)"><path fill="#002279" d="M 5.050781 -4.171875 L 25.390625 5.875 L 15.34375 26.214844 L -4.996094 16.167969 Z M 5.050781 -4.171875 " fill-opacity="1" fill-rule="nonzero"/></g></g></g></g></g></g></g></g><g clip-path="url(#ea908a5be6)"><g clip-path="url(#7df6743086)"><g clip-path="url(#36bc0849e1)"><g transform="matrix(1, 0, 0, 1, 345, 4)"><g clip-path="url(#411303286d)"><g clip-path="url(#66c4034ab6)"><g clip-path="url(#d4ced3e4e0)"><g clip-path="url(#c677aa40fd)"><path fill="#002279" d="M 3.199219 -2.050781 L 14.335938 3.449219 L 8.832031 14.589844 L -2.304688 9.085938 Z M 3.199219 -2.050781 " fill-opacity="1" fill-rule="nonzero"/></g></g></g></g></g></g></g></g></g></g></svg>