<svg xmlns="http://www.w3.org/2000/svg" xmlns:xlink="http://www.w3.org/1999/xlink" width="500" zoomAndPan="magnify" viewBox="0 0 375 374.999991" height="500" preserveAspectRatio="xMidYMid meet" version="1.2"><defs><clipPath id="f573443fd8"><path d="M 122 8.515625 L 135 8.515625 L 135 366.484375 L 122 366.484375 Z M 122 8.515625 "/></clipPath><clipPath id="6c9a73b825"><path d="M 242 8.515625 L 255 8.515625 L 255 366.484375 L 242 366.484375 Z M 242 8.515625 "/></clipPath><clipPath id="29e870fae9"><path d="M 9.410156 109 L 108 109 L 108 208 L 9.410156 208 Z M 9.410156 109 "/></clipPath><clipPath id="7fa8df3ffc"><path d="M 267 246 L 365.589844 246 L 365.589844 345 L 267 345 Z M 267 246 "/></clipPath><clipPath id="b1fb3ea592"><path d="M 267 246 L 365.589844 246 L 365.589844 345 L 267 345 Z M 267 246 "/></clipPath><clipPath id="662444cc52"><path d="M 9.410156 109 L 108 109 L 108 208 L 9.410156 208 Z M 9.410156 109 "/></clipPath></defs><g id="fc47e3f32f"><rect x="0" width="375" y="0" height="374.999991" style="fill:#ffffff;fill-opacity:1;stroke:none;"/><rect x="0" width="375" y="0" height="374.999991" style="fill:#111111;fill-opacity:1;stroke:none;"/><path style=" stroke:none;fill-rule:nonzero;fill:#00bf63;fill-opacity:1;" d="M 20.828125 70.890625 L 356.179688 70.890625 C 359.476562 70.890625 362.152344 73.566406 362.152344 76.863281 C 362.152344 80.160156 359.476562 82.832031 356.179688 82.832031 L 20.828125 82.832031 C 17.53125 82.832031 14.855469 80.160156 14.855469 76.863281 C 14.855469 73.566406 17.53125 70.890625 20.828125 70.890625 Z M 20.828125 70.890625 "/><g clip-rule="nonzero" clip-path="url(#f573443fd8)"><path style=" stroke:none;fill-rule:nonzero;fill:#00bf63;fill-opacity:1;" d="M 134.617188 14.617188 L 134.617188 360.382812 C 134.617188 363.679688 131.941406 366.355469 128.644531 366.355469 C 125.351562 366.355469 122.675781 363.679688 122.675781 360.382812 L 122.675781 14.617188 C 122.675781 11.320312 125.351562 8.644531 128.644531 8.644531 C 131.941406 8.644531 134.617188 11.320312 134.617188 14.617188 Z M 134.617188 14.617188 "/></g><g clip-rule="nonzero" clip-path="url(#6c9a73b825)"><path style=" stroke:none;fill-rule:nonzero;fill:#00bf63;fill-opacity:1;" d="M 254.378906 14.617188 L 254.378906 360.382812 C 254.378906 363.679688 251.703125 366.355469 248.40625 366.355469 C 245.113281 366.355469 242.4375 363.679688 242.4375 360.382812 L 242.4375 14.617188 C 242.4375 11.320312 245.113281 8.644531 248.40625 8.644531 C 251.703125 8.644531 254.378906 11.320312 254.378906 14.617188 Z M 254.378906 14.617188 "/></g><path style=" stroke:none;fill-rule:nonzero;fill:#00bf63;fill-opacity:1;" d="M 37.644531 33.773438 L 99.984375 33.773438 C 103.28125 33.773438 105.953125 36.449219 105.953125 39.746094 C 105.953125 43.039062 103.28125 45.714844 99.984375 45.714844 L 37.644531 45.714844 C 34.347656 45.714844 31.671875 43.039062 31.671875 39.746094 C 31.671875 36.449219 34.347656 33.773438 37.644531 33.773438 Z M 37.644531 33.773438 "/><path style=" stroke:none;fill-rule:nonzero;fill:#00bf63;fill-opacity:1;" d="M 157.261719 33.773438 L 219.601562 33.773438 C 222.898438 33.773438 225.574219 36.449219 225.574219 39.746094 C 225.574219 43.039062 222.898438 45.714844 219.601562 45.714844 L 157.261719 45.714844 C 153.964844 45.714844 151.289062 43.039062 151.289062 39.746094 C 151.289062 36.449219 153.964844 33.773438 157.261719 33.773438 Z M 157.261719 33.773438 "/><path style=" stroke:none;fill-rule:nonzero;fill:#00bf63;fill-opacity:1;" d="M 40.699219 101.703125 L 52.976562 99.21875 C 54.9375 98.835938 56.894531 100.078125 57.277344 102.085938 L 61.671875 123.679688 C 62.054688 125.636719 60.8125 127.59375 58.804688 127.976562 L 46.574219 130.460938 C 44.617188 130.84375 42.660156 129.601562 42.277344 127.59375 L 37.882812 106.003906 C 37.453125 104.042969 38.742188 102.132812 40.699219 101.703125 Z M 40.699219 101.703125 "/><g clip-rule="nonzero" clip-path="url(#29e870fae9)"><path style=" stroke:none;fill-rule:nonzero;fill:#00bf63;fill-opacity:1;" d="M 107.628906 187.835938 L 92.292969 112.5 C 91.910156 110.542969 89.953125 109.25 87.992188 109.632812 L 71.75 112.929688 L 73.421875 121.195312 C 75.144531 129.601562 69.695312 137.867188 61.242188 139.585938 L 48.964844 142.070312 C 47.914062 142.261719 46.910156 142.402344 45.859375 142.402344 C 38.453125 142.402344 32.054688 137.148438 30.574219 129.9375 L 28.902344 121.671875 L 12.660156 124.96875 C 10.699219 125.351562 9.410156 127.308594 9.792969 129.265625 L 25.125 204.554688 C 25.507812 206.511719 27.46875 207.800781 29.425781 207.421875 L 104.808594 192.179688 C 106.765625 191.75 108.058594 189.839844 107.628906 187.835938 Z M 107.628906 187.835938 "/></g><path style=" stroke:none;fill-rule:nonzero;fill:#00bf63;fill-opacity:1;" d="M 61.625 235.652344 L 74.09375 236.941406 C 76.097656 237.132812 77.578125 238.949219 77.339844 240.957031 L 75.09375 262.882812 C 74.902344 264.890625 73.089844 266.371094 71.082031 266.132812 L 58.613281 264.839844 C 56.609375 264.648438 55.125 262.835938 55.367188 260.828125 L 57.609375 238.902344 C 57.800781 236.941406 59.617188 235.460938 61.625 235.652344 Z M 61.625 235.652344 "/><path style=" stroke:none;fill-rule:nonzero;fill:#00bf63;fill-opacity:1;" d="M 104.332031 257.390625 L 87.851562 255.71875 L 86.988281 264.078125 C 86.179688 272.054688 79.488281 278.074219 71.464844 278.074219 C 70.9375 278.074219 70.414062 278.027344 69.886719 277.976562 L 57.417969 276.6875 C 48.867188 275.828125 42.609375 268.136719 43.46875 259.585938 L 44.332031 251.226562 L 27.847656 249.554688 C 25.84375 249.363281 24.027344 250.796875 23.835938 252.804688 L 16.050781 329.332031 C 15.859375 331.339844 17.292969 333.152344 19.296875 333.34375 L 95.78125 341.132812 C 97.785156 341.324219 99.601562 339.890625 99.792969 337.882812 L 107.578125 261.402344 C 107.769531 259.394531 106.335938 257.578125 104.332031 257.390625 Z M 104.332031 257.390625 "/><path style=" stroke:none;fill-rule:nonzero;fill:#00bf63;fill-opacity:1;" d="M 182.148438 100.84375 L 194.714844 100.84375 C 196.71875 100.84375 198.390625 102.46875 198.390625 104.523438 L 198.390625 126.542969 C 198.390625 128.550781 196.765625 130.222656 194.714844 130.222656 L 182.148438 130.222656 C 180.144531 130.222656 178.472656 128.597656 178.472656 126.542969 L 178.472656 104.523438 C 178.472656 102.515625 180.09375 100.84375 182.148438 100.84375 Z M 182.148438 100.84375 "/><path style=" stroke:none;fill-rule:nonzero;fill:#00bf63;fill-opacity:1;" d="M 226.863281 118.136719 L 210.285156 118.136719 L 210.285156 126.542969 C 210.285156 135.144531 203.265625 142.164062 194.664062 142.164062 L 182.101562 142.164062 C 173.503906 142.164062 166.480469 135.144531 166.480469 126.542969 L 166.480469 118.136719 L 149.902344 118.136719 C 147.898438 118.136719 146.226562 119.761719 146.226562 121.816406 L 146.226562 198.679688 C 146.226562 200.683594 147.851562 202.355469 149.902344 202.355469 L 226.769531 202.355469 C 228.773438 202.355469 230.445312 200.734375 230.445312 198.679688 L 230.445312 121.765625 C 230.492188 119.761719 228.871094 118.136719 226.863281 118.136719 Z M 226.863281 118.136719 "/><path style=" stroke:none;fill-rule:nonzero;fill:#00bf63;fill-opacity:1;" d="M 311.65625 105.90625 L 324.125 107.195312 C 326.132812 107.386719 327.613281 109.203125 327.375 111.210938 L 325.128906 133.136719 C 324.9375 135.144531 323.121094 136.625 321.117188 136.386719 L 308.648438 135.09375 C 306.640625 134.902344 305.160156 133.089844 305.398438 131.082031 L 307.644531 109.15625 C 307.882812 107.195312 309.648438 105.714844 311.65625 105.90625 Z M 311.65625 105.90625 "/><path style=" stroke:none;fill-rule:nonzero;fill:#00bf63;fill-opacity:1;" d="M 354.410156 127.59375 L 337.929688 125.921875 L 337.070312 134.28125 C 336.257812 142.261719 329.570312 148.28125 321.546875 148.28125 C 321.019531 148.28125 320.496094 148.230469 319.96875 148.183594 L 307.5 146.894531 C 303.34375 146.464844 299.617188 144.457031 296.992188 141.257812 C 294.363281 138.007812 293.121094 133.949219 293.550781 129.839844 L 294.410156 121.480469 L 277.929688 119.808594 C 275.925781 119.617188 274.109375 121.050781 273.917969 123.058594 L 266.132812 199.539062 C 265.941406 201.542969 267.371094 203.359375 269.378906 203.550781 L 345.859375 211.335938 C 347.867188 211.527344 349.683594 210.09375 349.875 208.089844 L 357.660156 131.609375 C 357.898438 129.601562 356.417969 127.785156 354.410156 127.59375 Z M 354.410156 127.59375 "/><path style=" stroke:none;fill-rule:nonzero;fill:#00bf63;fill-opacity:1;" d="M 321.878906 235.796875 L 334.203125 238.234375 C 336.164062 238.613281 337.453125 240.527344 337.070312 242.53125 L 332.769531 264.125 C 332.390625 266.082031 330.476562 267.371094 328.472656 266.992188 L 316.148438 264.554688 C 314.1875 264.171875 312.898438 262.261719 313.28125 260.253906 L 317.582031 238.664062 C 317.960938 236.703125 319.875 235.414062 321.878906 235.796875 Z M 321.878906 235.796875 "/><g clip-rule="nonzero" clip-path="url(#7fa8df3ffc)"><path style=" stroke:none;fill-rule:nonzero;fill:#00bf63;fill-opacity:1;" d="M 362.339844 261.449219 L 346.097656 258.199219 L 344.476562 266.464844 C 343.042969 273.726562 336.59375 279.027344 329.1875 279.027344 C 328.183594 279.027344 327.132812 278.933594 326.132812 278.742188 L 313.804688 276.304688 C 309.699219 275.492188 306.210938 273.152344 303.871094 269.664062 C 301.527344 266.179688 300.71875 262.070312 301.527344 257.960938 L 303.152344 249.699219 L 286.910156 246.449219 C 284.90625 246.066406 282.992188 247.355469 282.613281 249.316406 L 267.707031 324.746094 C 267.324219 326.753906 268.613281 328.664062 270.574219 329.046875 L 345.957031 343.996094 C 347.960938 344.378906 349.875 343.089844 350.253906 341.132812 L 365.207031 265.75 C 365.589844 263.742188 364.300781 261.832031 362.339844 261.449219 Z M 362.339844 261.449219 "/></g><path style=" stroke:none;fill-rule:nonzero;fill:#00bf63;fill-opacity:1;" d="M 277.117188 33.773438 L 339.460938 33.773438 C 342.753906 33.773438 345.429688 36.449219 345.429688 39.746094 C 345.429688 43.039062 342.753906 45.714844 339.460938 45.714844 L 277.117188 45.714844 C 273.820312 45.714844 271.148438 43.039062 271.148438 39.746094 C 271.148438 36.449219 273.820312 33.773438 277.117188 33.773438 Z M 277.117188 33.773438 "/><path style=" stroke:none;fill-rule:nonzero;fill:#7fe555;fill-opacity:1;" d="M 61.625 235.652344 L 74.09375 236.941406 C 76.097656 237.132812 77.578125 238.949219 77.339844 240.957031 L 75.09375 262.882812 C 74.902344 264.890625 73.089844 266.371094 71.082031 266.132812 L 58.613281 264.839844 C 56.609375 264.648438 55.125 262.835938 55.367188 260.828125 L 57.609375 238.902344 C 57.800781 236.941406 59.617188 235.460938 61.625 235.652344 Z M 61.625 235.652344 "/><path style=" stroke:none;fill-rule:nonzero;fill:#7fe555;fill-opacity:1;" d="M 104.332031 257.390625 L 87.851562 255.71875 L 86.988281 264.078125 C 86.179688 272.054688 79.488281 278.074219 71.464844 278.074219 C 70.9375 278.074219 70.414062 278.027344 69.886719 277.976562 L 57.417969 276.6875 C 48.867188 275.828125 42.609375 268.136719 43.46875 259.585938 L 44.332031 251.226562 L 27.847656 249.554688 C 25.84375 249.363281 24.027344 250.796875 23.835938 252.804688 L 16.050781 329.332031 C 15.859375 331.339844 17.292969 333.152344 19.296875 333.34375 L 95.78125 341.132812 C 97.785156 341.324219 99.601562 339.890625 99.792969 337.882812 L 107.578125 261.402344 C 107.769531 259.394531 106.335938 257.578125 104.332031 257.390625 Z M 104.332031 257.390625 "/><path style=" stroke:none;fill-rule:nonzero;fill:#25553e;fill-opacity:1;" d="M 311.65625 105.90625 L 324.125 107.195312 C 326.132812 107.386719 327.613281 109.203125 327.375 111.210938 L 325.128906 133.136719 C 324.9375 135.144531 323.121094 136.625 321.113281 136.386719 L 308.648438 135.09375 C 306.640625 134.902344 305.160156 133.089844 305.398438 131.082031 L 307.644531 109.15625 C 307.882812 107.195312 309.648438 105.714844 311.65625 105.90625 Z M 311.65625 105.90625 "/><path style=" stroke:none;fill-rule:nonzero;fill:#25553e;fill-opacity:1;" d="M 354.410156 127.59375 L 337.929688 125.921875 L 337.070312 134.28125 C 336.257812 142.261719 329.570312 148.28125 321.546875 148.28125 C 321.019531 148.28125 320.496094 148.230469 319.96875 148.183594 L 307.5 146.894531 C 303.34375 146.464844 299.617188 144.457031 296.992188 141.257812 C 294.363281 138.007812 293.121094 133.949219 293.550781 129.839844 L 294.410156 121.480469 L 277.929688 119.808594 C 275.925781 119.617188 274.109375 121.050781 273.917969 123.058594 L 266.132812 199.539062 C 265.941406 201.542969 267.371094 203.359375 269.378906 203.550781 L 345.859375 211.335938 C 347.867188 211.527344 349.683594 210.09375 349.875 208.089844 L 357.660156 131.609375 C 357.898438 129.601562 356.417969 127.785156 354.410156 127.59375 Z M 354.410156 127.59375 "/><path style=" stroke:none;fill-rule:nonzero;fill:#52ff00;fill-opacity:1;" d="M 321.878906 235.796875 L 334.203125 238.234375 C 336.164062 238.613281 337.453125 240.527344 337.070312 242.53125 L 332.769531 264.125 C 332.390625 266.082031 330.476562 267.371094 328.472656 266.992188 L 316.148438 264.554688 C 314.1875 264.171875 312.898438 262.261719 313.28125 260.253906 L 317.582031 238.664062 C 317.960938 236.703125 319.875 235.414062 321.878906 235.796875 Z M 321.878906 235.796875 "/><g clip-rule="nonzero" clip-path="url(#b1fb3ea592)"><path style=" stroke:none;fill-rule:nonzero;fill:#52ff00;fill-opacity:1;" d="M 362.339844 261.449219 L 346.097656 258.199219 L 344.476562 266.464844 C 343.042969 273.726562 336.59375 279.027344 329.1875 279.027344 C 328.183594 279.027344 327.132812 278.933594 326.132812 278.742188 L 313.804688 276.304688 C 309.699219 275.492188 306.210938 273.152344 303.871094 269.667969 C 301.527344 266.179688 300.71875 262.070312 301.527344 257.960938 L 303.152344 249.699219 L 286.910156 246.449219 C 284.90625 246.066406 282.992188 247.355469 282.613281 249.316406 L 267.707031 324.746094 C 267.324219 326.753906 268.613281 328.664062 270.574219 329.046875 L 345.957031 343.996094 C 347.960938 344.378906 349.875 343.089844 350.253906 341.132812 L 365.207031 265.75 C 365.589844 263.742188 364.300781 261.832031 362.339844 261.449219 Z M 362.339844 261.449219 "/></g><path style=" stroke:none;fill-rule:nonzero;fill:#9bce74;fill-opacity:1;" d="M 40.699219 101.703125 L 52.976562 99.21875 C 54.9375 98.835938 56.894531 100.078125 57.277344 102.085938 L 61.671875 123.679688 C 62.054688 125.636719 60.8125 127.59375 58.804688 127.976562 L 46.574219 130.460938 C 44.617188 130.84375 42.660156 129.601562 42.277344 127.59375 L 37.882812 106.003906 C 37.453125 104.042969 38.742188 102.132812 40.699219 101.703125 Z M 40.699219 101.703125 "/><g clip-rule="nonzero" clip-path="url(#662444cc52)"><path style=" stroke:none;fill-rule:nonzero;fill:#9bce74;fill-opacity:1;" d="M 107.628906 187.835938 L 92.292969 112.5 C 91.910156 110.539062 89.953125 109.25 87.992188 109.632812 L 71.75 112.929688 L 73.421875 121.195312 C 75.144531 129.601562 69.695312 137.867188 61.242188 139.585938 L 48.964844 142.070312 C 47.914062 142.261719 46.910156 142.402344 45.859375 142.402344 C 38.453125 142.402344 32.054688 137.148438 30.574219 129.9375 L 28.902344 121.671875 L 12.660156 124.96875 C 10.699219 125.351562 9.410156 127.308594 9.792969 129.265625 L 25.125 204.554688 C 25.507812 206.511719 27.46875 207.800781 29.425781 207.421875 L 104.808594 192.179688 C 106.765625 191.75 108.058594 189.839844 107.628906 187.835938 Z M 107.628906 187.835938 "/></g><path style=" stroke:none;fill-rule:nonzero;fill:#47653a;fill-opacity:1;" d="M 182.148438 100.84375 L 194.714844 100.84375 C 196.71875 100.84375 198.390625 102.46875 198.390625 104.523438 L 198.390625 126.542969 C 198.390625 128.550781 196.765625 130.222656 194.714844 130.222656 L 182.148438 130.222656 C 180.144531 130.222656 178.472656 128.597656 178.472656 126.542969 L 178.472656 104.523438 C 178.472656 102.515625 180.09375 100.84375 182.148438 100.84375 Z M 182.148438 100.84375 "/><path style=" stroke:none;fill-rule:nonzero;fill:#47653a;fill-opacity:1;" d="M 226.863281 118.136719 L 210.285156 118.136719 L 210.285156 126.542969 C 210.285156 135.144531 203.265625 142.164062 194.664062 142.164062 L 182.101562 142.164062 C 173.503906 142.164062 166.480469 135.144531 166.480469 126.542969 L 166.480469 118.136719 L 149.902344 118.136719 C 147.898438 118.136719 146.226562 119.761719 146.226562 121.816406 L 146.226562 198.679688 C 146.226562 200.683594 147.851562 202.355469 149.902344 202.355469 L 226.769531 202.355469 C 228.773438 202.355469 230.445312 200.734375 230.445312 198.679688 L 230.445312 121.765625 C 230.492188 119.761719 228.871094 118.136719 226.863281 118.136719 Z M 226.863281 118.136719 "/><path style=" stroke:none;fill-rule:nonzero;fill:#00cdd7;fill-opacity:1;" d="M 37.644531 33.773438 L 99.984375 33.773438 C 103.28125 33.773438 105.953125 36.449219 105.953125 39.746094 C 105.953125 43.039062 103.28125 45.714844 99.984375 45.714844 L 37.644531 45.714844 C 34.347656 45.714844 31.671875 43.039062 31.671875 39.746094 C 31.671875 36.449219 34.347656 33.773438 37.644531 33.773438 Z M 37.644531 33.773438 "/><path style=" stroke:none;fill-rule:nonzero;fill:#ffde59;fill-opacity:1;" d="M 157.261719 33.773438 L 219.601562 33.773438 C 222.898438 33.773438 225.574219 36.449219 225.574219 39.746094 C 225.574219 43.039062 222.898438 45.714844 219.601562 45.714844 L 157.261719 45.714844 C 153.964844 45.714844 151.289062 43.039062 151.289062 39.746094 C 151.289062 36.449219 153.964844 33.773438 157.261719 33.773438 Z M 157.261719 33.773438 "/><path style=" stroke:none;fill-rule:nonzero;fill:#ff5757;fill-opacity:1;" d="M 277.117188 33.773438 L 339.460938 33.773438 C 342.753906 33.773438 345.429688 36.449219 345.429688 39.746094 C 345.429688 43.039062 342.753906 45.714844 339.460938 45.714844 L 277.117188 45.714844 C 273.820312 45.714844 271.148438 43.039062 271.148438 39.746094 C 271.148438 36.449219 273.820312 33.773438 277.117188 33.773438 Z M 277.117188 33.773438 "/></g></svg>