<svg xmlns="http://www.w3.org/2000/svg" xmlns:xlink="http://www.w3.org/1999/xlink" width="500" zoomAndPan="magnify" viewBox="0 0 375 374.999991" height="500" preserveAspectRatio="xMidYMid meet" version="1.2"><g id="c5056c093b"><path style=" stroke:none;fill-rule:nonzero;fill:#f36933;fill-opacity:1;" d="M 291.203125 99.25 C 290.671875 99.648438 290.335938 100.265625 290.335938 100.96875 C 290.335938 101.191406 290.363281 101.398438 290.421875 101.589844 L 290.421875 101.574219 C 290.820312 102.367188 291.054688 103.292969 291.054688 104.28125 C 291.054688 105.765625 290.527344 107.132812 289.628906 108.191406 L 289.644531 108.175781 C 289.363281 108.53125 289.203125 108.96875 289.203125 109.457031 C 289.203125 110.101562 289.511719 110.691406 289.980469 111.074219 C 290.320312 111.339844 290.746094 111.5 291.21875 111.515625 C 291.835938 111.515625 292.394531 111.21875 292.777344 110.78125 C 294.230469 109.03125 295.128906 106.765625 295.128906 104.28125 C 295.128906 102.632812 294.730469 101.101562 294.042969 99.71875 C 293.671875 99.207031 293.070312 98.867188 292.394531 98.867188 C 291.953125 98.867188 291.542969 99.015625 291.203125 99.25 Z M 291.203125 99.25 "/><path style=" stroke:none;fill-rule:nonzero;fill:#f36933;fill-opacity:1;" d="M 294.054688 99.734375 L 294.027344 99.675781 L 294.042969 99.71875 Z M 294.054688 99.734375 "/><path style=" stroke:none;fill-rule:nonzero;fill:#f36933;fill-opacity:1;" d="M 212.851562 11.75 C 116.203125 -0.648438 27.777344 67.648438 15.378906 164.308594 C 2.980469 260.957031 71.261719 349.367188 167.921875 361.78125 C 264.585938 374.175781 353.042969 305.882812 365.410156 209.21875 C 377.820312 112.574219 309.542969 24.160156 212.851562 11.75 Z M 249.1875 121.824219 C 245.777344 121.867188 242.703125 123.265625 240.46875 125.5 L 174.980469 190.984375 L 161.011719 177.015625 C 225.554688 112.660156 237.203125 112.042969 249.1875 121.824219 Z M 177.671875 193.308594 L 242.96875 128.015625 C 244.628906 126.28125 246.96875 125.191406 249.570312 125.191406 C 254.601562 125.191406 258.6875 129.28125 258.6875 134.308594 C 258.6875 137.101562 257.421875 139.617188 255.4375 141.28125 L 255.421875 141.292969 L 186.320312 201.957031 Z M 182.527344 203.515625 L 166.351562 207.015625 C 166.292969 207.03125 166.21875 207.03125 166.160156 207.03125 C 165.820312 207.03125 165.511719 206.839844 165.363281 206.542969 C 165.292969 206.410156 165.246094 206.265625 165.246094 206.101562 C 165.246094 205.851562 165.351562 205.632812 165.511719 205.46875 L 174.996094 195.984375 Z M 141.304688 196.765625 L 158.542969 179.53125 L 171.46875 192.441406 L 142.363281 198.707031 C 142.277344 198.71875 142.1875 198.734375 142.085938 198.734375 C 141.660156 198.734375 141.292969 198.484375 141.113281 198.132812 C 141.011719 197.96875 140.953125 197.78125 140.953125 197.558594 C 140.953125 197.25 141.085938 196.957031 141.304688 196.765625 Z M 87.6875 285.839844 C 87.113281 285.792969 86.671875 285.324219 86.671875 284.734375 C 86.671875 284.691406 86.671875 284.660156 86.671875 284.617188 C 86.703125 284.351562 86.820312 284.117188 86.996094 283.941406 L 87.027344 283.941406 L 100.9375 270.03125 L 118.910156 288 Z M 123.363281 267.382812 C 122.261719 267.957031 121.542969 269.074219 121.542969 270.367188 C 121.542969 270.648438 121.570312 270.910156 121.644531 271.175781 L 121.644531 271.148438 L 124.628906 283.867188 C 124.660156 284 124.6875 284.148438 124.6875 284.308594 C 124.6875 285.324219 123.863281 286.148438 122.851562 286.148438 C 122.335938 286.148438 121.863281 285.941406 121.527344 285.589844 L 121.480469 285.589844 L 103.421875 267.515625 L 158.746094 212.25 L 185.511719 206.46875 L 198.363281 219.324219 C 179.910156 235.53125 154.671875 251.691406 123.363281 267.382812 Z M 200.980469 216.96875 L 200.953125 216.96875 L 188.613281 204.632812 L 257.71875 143.96875 C 258.351562 143.398438 258.921875 142.792969 259.4375 142.132812 L 259.46875 142.101562 C 257.304688 161.882812 229.628906 189.824219 200.980469 216.96875 Z M 273.660156 129.792969 C 266.277344 129.792969 259.601562 126.808594 254.761719 121.96875 L 254.777344 121.96875 L 254.730469 121.941406 C 249.910156 117.101562 246.921875 110.410156 246.921875 103.042969 C 246.921875 88.25 258.921875 76.25 273.71875 76.25 C 280.277344 76.25 286.277344 78.601562 290.921875 82.515625 L 290.878906 82.484375 L 267.203125 106.207031 C 266.878906 106.53125 266.6875 106.957031 266.6875 107.441406 C 266.6875 107.925781 266.878906 108.367188 267.203125 108.675781 L 285.542969 127.015625 C 282.070312 128.765625 277.980469 129.792969 273.660156 129.792969 Z M 292.6875 121.96875 C 291.496094 123.148438 290.203125 124.191406 288.792969 125.117188 L 288.703125 125.175781 L 288.6875 125.175781 L 270.9375 107.425781 L 293.480469 84.882812 C 303.203125 95.46875 302.851562 111.824219 292.6875 121.96875 Z M 292.6875 121.96875 "/></g></svg>