<svg xmlns="http://www.w3.org/2000/svg" xmlns:xlink="http://www.w3.org/1999/xlink" width="500" zoomAndPan="magnify" viewBox="0 0 375 374.999991" height="500" preserveAspectRatio="xMidYMid meet" version="1.2"><defs><clipPath id="863a35ff63"><path d="M 160 12.1875 L 367 12.1875 L 367 151 L 160 151 Z M 160 12.1875 "/></clipPath><clipPath id="80a02d058e"><path d="M 135 285 L 374.847656 285 L 374.847656 362.8125 L 135 362.8125 Z M 135 285 "/></clipPath></defs><g id="d0f3eba468"><g clip-rule="nonzero" clip-path="url(#863a35ff63)"><path style=" stroke:none;fill-rule:evenodd;fill:#75c0f2;fill-opacity:1;" d="M 160.386719 112.652344 L 160.386719 90.832031 C 161.609375 83.730469 163.644531 76.789062 166.476562 70.089844 C 171.25 58.796875 178.089844 48.65625 186.785156 39.960938 C 195.484375 31.257812 205.628906 24.421875 216.917969 19.652344 C 228.621094 14.699219 241.039062 12.183594 253.835938 12.183594 C 266.625 12.183594 279.046875 14.695312 290.75 19.652344 C 302.050781 24.425781 312.183594 31.261719 320.882812 39.960938 C 329.574219 48.652344 336.414062 58.789062 341.1875 70.089844 C 345.796875 80.984375 348.292969 92.488281 348.621094 104.332031 L 366.8125 104.332031 L 333.640625 150.746094 L 300.476562 104.332031 L 318.582031 104.332031 C 317.175781 69.835938 288.671875 42.203125 253.832031 42.203125 C 221.597656 42.203125 194.78125 65.859375 189.84375 96.726562 L 189.84375 112.652344 L 160.386719 112.652344 "/></g><g clip-rule="nonzero" clip-path="url(#80a02d058e)"><path style=" stroke:none;fill-rule:evenodd;fill:#75c0f2;fill-opacity:1;" d="M 210.292969 305.039062 L 320.433594 305.039062 L 320.433594 285.042969 L 374.847656 323.925781 L 320.433594 362.8125 L 320.433594 342.816406 L 135.242188 342.816406 L 210.292969 305.039062 "/></g><path style=" stroke:none;fill-rule:evenodd;fill:#32648d;fill-opacity:1;" d="M 199.761719 336.667969 C 190.015625 340.769531 179.519531 342.816406 168.945312 342.816406 L 0.195312 342.816406 L 0.195312 305.039062 L 156.972656 305.039062 C 204.332031 305.039062 243.285156 267.121094 243.882812 219.757812 C 243.890625 219.359375 243.890625 218.953125 243.890625 218.550781 C 243.890625 166.726562 201.878906 124.714844 150.058594 124.714844 C 98.238281 124.714844 56.226562 166.726562 56.226562 218.550781 L 77.964844 218.550781 L 39.082031 272.960938 L 0.195312 218.550781 L 21.929688 218.550781 C 21.929688 201.265625 25.328125 184.480469 32.015625 168.664062 C 38.472656 153.402344 47.703125 139.703125 59.460938 127.949219 C 71.21875 116.191406 84.914062 106.957031 100.175781 100.503906 C 115.996094 93.8125 132.777344 90.421875 150.058594 90.421875 C 167.339844 90.421875 184.125 93.8125 199.941406 100.507812 C 215.207031 106.960938 228.902344 116.191406 240.664062 127.949219 C 252.417969 139.707031 261.652344 153.402344 268.105469 168.667969 C 274.796875 184.484375 278.1875 201.269531 278.1875 218.550781 C 278.1875 235.835938 274.796875 252.617188 268.105469 268.433594 C 262.390625 281.949219 254.488281 294.242188 244.59375 305.042969 C 243.316406 306.433594 242.003906 307.804688 240.664062 309.148438 C 239.457031 310.355469 238.226562 311.53125 236.976562 312.6875 C 227.425781 321.519531 216.695312 328.777344 204.972656 334.335938 C 203.316406 335.121094 201.640625 335.871094 199.941406 336.589844 C 199.878906 336.613281 199.820312 336.644531 199.761719 336.667969 "/></g></svg>