<svg xmlns="http://www.w3.org/2000/svg" xmlns:xlink="http://www.w3.org/1999/xlink" width="500" zoomAndPan="magnify" viewBox="0 0 375 374.999991" height="500" preserveAspectRatio="xMidYMid meet" version="1.2"><defs><filter x="0%" y="0%" width="100%" filterUnits="objectBoundingBox" id="bf89fcf654" height="100%"><feColorMatrix values="0 0 0 0 1 0 0 0 0 1 0 0 0 0 1 0 0 0 1 0" type="matrix" in="SourceGraphic"/></filter><clipPath id="3154ae6687"><rect x="0" width="364" y="0" height="363"/></clipPath><clipPath id="9dbf344a3d"><path d="M 164.890625 125.589844 L 273.679688 125.589844 L 273.679688 237 L 164.890625 237 Z M 164.890625 125.589844 "/></clipPath><clipPath id="024e8b3ed9"><path d="M 219.285156 125.589844 C 189.246094 125.589844 164.890625 150.523438 164.890625 181.277344 C 164.890625 212.035156 189.246094 236.96875 219.285156 236.96875 C 249.328125 236.96875 273.679688 212.035156 273.679688 181.277344 C 273.679688 150.523438 249.328125 125.589844 219.285156 125.589844 Z M 219.285156 125.589844 "/></clipPath></defs><g id="d8d8281f1e"><g mask="url(#5660dddc9e)" transform="matrix(1,0,0,1,9,12)"><g clip-path="url(#3154ae6687)"><path style=" stroke:none;fill-rule:nonzero;fill:#3f86c7;fill-opacity:1;" d="M 110.019531 112.230469 C 110.085938 122.378906 110.136719 132.527344 110.167969 142.675781 C 110.179688 147.390625 110.203125 152.105469 110.234375 156.816406 C 110.265625 161.371094 110.28125 165.925781 110.289062 170.484375 C 110.292969 172.214844 110.304688 173.945312 110.320312 175.675781 C 110.417969 187.097656 110.082031 197.433594 104.714844 207.789062 L 103.992188 209.195312 C 99.34375 217.789062 92.648438 224.535156 84.367188 229.660156 C 76.542969 234.269531 68.140625 236.910156 59.078125 237.460938 L 57.695312 237.574219 C 48.179688 237.996094 38.535156 235.269531 30.070312 231.09375 C 21.527344 226.132812 13.914062 218.921875 8.910156 210.398438 C 3.941406 200.960938 1.507812 191.378906 1.621094 180.726562 C 2.160156 170.964844 5.054688 161.335938 10.386719 153.117188 C 15.996094 144.917969 22.914062 138.714844 31.796875 134.289062 C 41.109375 129.839844 50.734375 127.929688 61.046875 128.707031 C 65.972656 129.34375 70.660156 130.421875 75.351562 132.042969 L 75.839844 130.515625 C 77.929688 125.988281 82.394531 122.304688 86.386719 119.375 C 93.695312 114.832031 101.394531 112.175781 110.019531 112.230469 "/><path style=" stroke:none;fill-rule:nonzero;fill:#a95381;fill-opacity:1;" d="M 243.253906 134.339844 C 247.636719 136.660156 251.390625 139.332031 255.0625 142.65625 L 256.710938 144.105469 C 263.3125 150.253906 267.773438 158.199219 270.628906 166.710938 C 273.355469 175.800781 273.707031 185.261719 271.910156 194.570312 C 269.484375 204.378906 265.046875 212.851562 258.136719 220.214844 C 251.007812 227.449219 243.503906 232.421875 233.679688 235.335938 C 224.632812 237.738281 215.234375 238.363281 206.089844 236.0625 C 195.339844 233.039062 186.945312 227.898438 178.871094 220.261719 C 172.316406 213.519531 168.265625 205 165.617188 196.0625 C 163.394531 186.507812 163.804688 176.070312 166.621094 166.710938 C 170.199219 156.382812 175.898438 148.558594 183.824219 141.109375 C 191.117188 134.859375 199.570312 131.3125 208.90625 129.363281 C 220.867188 127.476562 232.324219 129.160156 243.253906 134.339844 "/><path style=" stroke:none;fill-rule:nonzero;fill:#555eaa;fill-opacity:1;" d="M 142.566406 112.230469 C 146.171875 113.347656 148.84375 115.074219 151.675781 117.539062 L 153.179688 119.308594 L 154.683594 120.941406 C 156.890625 124.109375 157.960938 126.886719 158.363281 130.691406 C 158.507812 135.042969 158.273438 138.710938 156.246094 142.609375 C 153.566406 146.757812 150.457031 150.152344 146.105469 152.558594 C 143.714844 153.445312 143.714844 153.445312 141.859375 153.976562 L 143.28125 154.648438 C 151.058594 158.417969 151.058594 158.417969 153.574219 161.84375 C 156.753906 166.734375 157.953125 171.140625 158.261719 176.957031 C 158.3125 179.257812 158.332031 181.554688 158.316406 183.855469 C 158.308594 185.269531 158.316406 186.6875 158.324219 188.105469 C 158.304688 198.492188 157.339844 208.308594 152.070312 217.453125 C 147.730469 223.980469 142.511719 229.089844 135.617188 232.859375 C 130.515625 235.28125 125.789062 236.824219 120.125 236.78125 L 118.003906 236.769531 L 116.386719 236.753906 C 116.320312 228.296875 116.273438 219.839844 116.242188 211.382812 C 116.226562 207.457031 116.207031 203.53125 116.175781 199.601562 C 116.144531 195.808594 116.125 192.015625 116.121094 188.21875 C 116.113281 186.777344 116.105469 185.332031 116.089844 183.890625 C 115.949219 170.246094 115.949219 170.246094 118.402344 165.191406 C 120.613281 161.640625 122.730469 159.0625 126.378906 156.925781 C 128.453125 155.882812 130.53125 154.898438 132.660156 153.976562 L 131.289062 153.503906 C 127.742188 152.203125 124.527344 150.898438 121.769531 148.269531 C 119.269531 145.257812 117.589844 142.128906 116.386719 138.410156 C 115.742188 133.613281 115.695312 128.859375 117.492188 124.304688 C 119.503906 120.570312 122.066406 117.109375 125.675781 114.8125 C 131.195312 111.992188 136.457031 111.683594 142.566406 112.230469 "/><path style=" stroke:none;fill-rule:nonzero;fill:#ed5062;fill-opacity:1;" d="M 300.742188 197.796875 C 304.886719 199.378906 308.023438 202.367188 310.957031 205.625 C 312.867188 208.445312 314.160156 211.410156 314.492188 214.820312 L 314.628906 216.179688 C 314.886719 220.847656 313.746094 224.808594 311.664062 228.972656 C 309.625 232.0625 307.300781 234.496094 304.058594 236.3125 C 300.042969 238.050781 295.832031 238.996094 291.445312 238.792969 C 286.753906 238.074219 282.855469 236.117188 279.117188 233.21875 C 276.273438 230.480469 274.695312 227.542969 273.503906 223.796875 C 272.5625 219.722656 272.507812 216.070312 273.457031 211.992188 C 274.785156 208.105469 276.621094 205.011719 279.605469 202.175781 C 285.90625 197.183594 292.957031 195.796875 300.742188 197.796875 "/><path style=" stroke:none;fill-rule:nonzero;fill:#f5596e;fill-opacity:1;" d="M 318.738281 240.292969 L 361.191406 240.292969 L 361.191406 249.492188 L 318.738281 249.492188 Z M 318.738281 240.292969 "/><path style=" stroke:none;fill-rule:nonzero;fill:#b4b5de;fill-opacity:1;" d="M 184.308594 140.53125 L 185.726562 141.238281 L 184.382812 142.53125 L 182.628906 144.246094 L 180.890625 145.9375 C 179.507812 147.441406 178.824219 148.640625 177.941406 150.4375 C 175.730469 152.03125 175.730469 152.03125 173.699219 153.269531 C 175.984375 148.222656 180.394531 144.351562 184.308594 140.53125 "/></g><mask id="5660dddc9e"><g filter="url(#bf89fcf654)"><rect x="0" width="375" y="0" height="374.999991" style="fill:#000000;fill-opacity:0.14;stroke:none;"/></g></mask></g><path style=" stroke:none;fill-rule:nonzero;fill:#3f86c7;fill-opacity:1;" d="M 109.757812 111.882812 C 109.824219 122.039062 109.875 132.195312 109.90625 142.355469 C 109.917969 147.070312 109.941406 151.789062 109.972656 156.507812 C 110.003906 161.066406 110.019531 165.625 110.027344 170.183594 C 110.03125 171.917969 110.042969 173.648438 110.058594 175.382812 C 110.15625 186.8125 109.820312 197.160156 104.449219 207.523438 L 103.722656 208.929688 C 99.070312 217.53125 92.371094 224.28125 84.085938 229.410156 C 76.25 234.023438 67.84375 236.667969 58.773438 237.21875 L 57.386719 237.332031 C 47.863281 237.753906 38.210938 235.023438 29.742188 230.847656 C 21.191406 225.878906 13.570312 218.664062 8.5625 210.132812 C 3.589844 200.6875 1.152344 191.09375 1.265625 180.4375 C 1.808594 170.667969 4.703125 161.027344 10.039062 152.800781 C 15.65625 144.597656 22.578125 138.386719 31.46875 133.957031 C 40.789062 129.507812 50.421875 127.59375 60.742188 128.371094 C 65.671875 129.007812 70.363281 130.085938 75.0625 131.710938 L 75.546875 130.179688 C 77.640625 125.652344 82.109375 121.964844 86.105469 119.03125 C 93.421875 114.488281 101.125 111.824219 109.757812 111.882812 "/><path style=" stroke:none;fill-rule:nonzero;fill:#a95381;fill-opacity:1;" d="M 243.105469 134.011719 C 247.492188 136.332031 251.25 139.007812 254.921875 142.332031 L 256.574219 143.785156 C 263.179688 149.9375 267.644531 157.886719 270.5 166.40625 C 273.230469 175.507812 273.585938 184.972656 271.785156 194.289062 C 269.359375 204.109375 264.917969 212.585938 257.996094 219.957031 C 250.863281 227.199219 243.355469 232.171875 233.523438 235.09375 C 224.464844 237.496094 215.0625 238.121094 205.910156 235.820312 C 195.148438 232.792969 186.75 227.648438 178.667969 220.003906 C 172.105469 213.257812 168.054688 204.730469 165.402344 195.785156 C 163.175781 186.222656 163.585938 175.773438 166.40625 166.40625 C 169.988281 156.070312 175.695312 148.238281 183.625 140.78125 C 190.921875 134.53125 199.386719 130.980469 208.726562 129.03125 C 220.699219 127.140625 232.167969 128.824219 243.105469 134.011719 "/><path style=" stroke:none;fill-rule:nonzero;fill:#555eaa;fill-opacity:1;" d="M 142.332031 111.882812 C 145.941406 113 148.613281 114.726562 151.449219 117.195312 L 152.953125 118.964844 L 154.457031 120.601562 C 156.667969 123.769531 157.742188 126.550781 158.140625 130.359375 C 158.289062 134.714844 158.050781 138.386719 156.019531 142.289062 C 153.339844 146.4375 150.230469 149.835938 145.871094 152.246094 C 143.484375 153.128906 143.484375 153.128906 141.625 153.660156 L 143.046875 154.335938 C 150.828125 158.109375 150.828125 158.109375 153.347656 161.535156 C 156.53125 166.433594 157.730469 170.84375 158.042969 176.664062 C 158.089844 178.964844 158.109375 181.265625 158.09375 183.566406 C 158.089844 184.984375 158.09375 186.402344 158.105469 187.820312 C 158.082031 198.214844 157.117188 208.042969 151.84375 217.191406 C 147.5 223.726562 142.277344 228.839844 135.375 232.609375 C 130.269531 235.035156 125.542969 236.582031 119.871094 236.539062 L 117.75 236.527344 L 116.132812 236.511719 C 116.066406 228.046875 116.015625 219.582031 115.984375 211.117188 C 115.96875 207.1875 115.949219 203.257812 115.917969 199.328125 C 115.886719 195.53125 115.871094 191.734375 115.863281 187.9375 C 115.855469 186.492188 115.847656 185.046875 115.832031 183.601562 C 115.691406 169.945312 115.691406 169.945312 118.148438 164.886719 C 120.359375 161.335938 122.476562 158.753906 126.128906 156.617188 C 128.207031 155.570312 130.289062 154.585938 132.417969 153.660156 L 131.042969 153.191406 C 127.496094 151.890625 124.277344 150.582031 121.515625 147.949219 C 119.015625 144.9375 117.335938 141.804688 116.132812 138.082031 C 115.484375 133.28125 115.4375 128.523438 117.238281 123.964844 C 119.246094 120.226562 121.8125 116.765625 125.425781 114.464844 C 130.953125 111.644531 136.21875 111.335938 142.332031 111.882812 "/><path style=" stroke:none;fill-rule:nonzero;fill:#ed5062;fill-opacity:1;" d="M 300.640625 197.519531 C 304.789062 199.101562 307.925781 202.09375 310.863281 205.355469 C 312.777344 208.179688 314.070312 211.144531 314.40625 214.558594 L 314.539062 215.917969 C 314.796875 220.589844 313.65625 224.554688 311.570312 228.722656 C 309.53125 231.8125 307.207031 234.253906 303.960938 236.070312 C 299.941406 237.808594 295.726562 238.753906 291.339844 238.554688 C 286.640625 237.832031 282.738281 235.871094 279 232.972656 C 276.152344 230.230469 274.574219 227.292969 273.378906 223.542969 C 272.4375 219.464844 272.382812 215.808594 273.332031 211.726562 C 274.660156 207.835938 276.5 204.742188 279.484375 201.902344 C 285.792969 196.90625 292.851562 195.519531 300.640625 197.519531 "/><path style=" stroke:none;fill-rule:nonzero;fill:#f5596e;fill-opacity:1;" d="M 318.652344 240.050781 L 361.140625 240.050781 L 361.140625 249.257812 L 318.652344 249.257812 Z M 318.652344 240.050781 "/><path style=" stroke:none;fill-rule:nonzero;fill:#b4b5de;fill-opacity:1;" d="M 184.109375 140.207031 L 185.527344 140.914062 L 184.183594 142.210938 L 182.429688 143.925781 L 180.6875 145.617188 C 179.304688 147.121094 178.621094 148.324219 177.738281 150.121094 C 175.523438 151.714844 175.523438 151.714844 173.488281 152.953125 C 175.777344 147.90625 180.195312 144.027344 184.109375 140.207031 "/><g clip-rule="nonzero" clip-path="url(#9dbf344a3d)"><g clip-rule="nonzero" clip-path="url(#024e8b3ed9)"><path style=" stroke:none;fill-rule:nonzero;fill:#a95381;fill-opacity:1;" d="M 164.890625 125.589844 L 273.679688 125.589844 L 273.679688 236.929688 L 164.890625 236.929688 Z M 164.890625 125.589844 "/></g></g></g></svg>