<svg xmlns="http://www.w3.org/2000/svg" xmlns:xlink="http://www.w3.org/1999/xlink" width="500" zoomAndPan="magnify" viewBox="0 0 375 374.999991" height="500" preserveAspectRatio="xMidYMid meet" version="1.2"><defs><filter x="0%" y="0%" width="100%" filterUnits="objectBoundingBox" id="d2590483c3" height="100%"><feColorMatrix values="0 0 0 0 1 0 0 0 0 1 0 0 0 0 1 0 0 0 1 0" type="matrix" in="SourceGraphic"/></filter><clipPath id="b72a42be3d"><rect x="0" width="301" y="0" height="301"/></clipPath><clipPath id="7068f211fb"><path d="M 173.941406 138.902344 L 263.960938 138.902344 L 263.960938 231.386719 L 173.941406 231.386719 Z M 173.941406 138.902344 "/></clipPath><clipPath id="80712bf9f8"><path d="M 218.949219 138.902344 C 194.089844 138.902344 173.941406 159.535156 173.941406 184.984375 C 173.941406 210.433594 194.089844 231.0625 218.949219 231.0625 C 243.808594 231.0625 263.960938 210.433594 263.960938 184.984375 C 263.960938 159.535156 243.808594 138.902344 218.949219 138.902344 Z M 218.949219 138.902344 "/></clipPath></defs><g id="db63a227d0"><g mask="url(#7239259ffe)" transform="matrix(1,0,0,1,45,45)"><g clip-path="url(#b72a42be3d)"><path style=" stroke:none;fill-rule:nonzero;fill:#3f86c7;fill-opacity:1;" d="M 91.0625 92.859375 C 91.117188 101.261719 91.15625 109.667969 91.183594 118.074219 C 91.195312 121.976562 91.210938 125.878906 91.238281 129.78125 C 91.261719 133.554688 91.277344 137.328125 91.285156 141.101562 C 91.289062 142.535156 91.296875 143.96875 91.308594 145.402344 C 91.390625 154.859375 91.113281 163.421875 86.667969 171.996094 L 86.070312 173.160156 C 82.21875 180.277344 76.675781 185.863281 69.816406 190.109375 C 63.335938 193.925781 56.378906 196.113281 48.875 196.570312 L 47.726562 196.664062 C 39.847656 197.011719 31.859375 194.753906 24.851562 191.296875 C 17.773438 187.1875 11.46875 181.214844 7.324219 174.15625 C 3.210938 166.339844 1.195312 158.402344 1.289062 149.582031 C 1.738281 141.5 4.132812 133.523438 8.546875 126.71875 C 13.195312 119.929688 18.921875 114.789062 26.28125 111.125 C 33.992188 107.441406 41.964844 105.859375 50.503906 106.503906 C 54.582031 107.03125 58.464844 107.921875 62.351562 109.265625 L 62.753906 108 C 64.484375 104.253906 68.179688 101.199219 71.488281 98.773438 C 77.542969 95.011719 83.917969 92.8125 91.0625 92.859375 "/><path style=" stroke:none;fill-rule:nonzero;fill:#a95381;fill-opacity:1;" d="M 201.402344 111.167969 C 205.03125 113.089844 208.136719 115.304688 211.179688 118.054688 L 212.542969 119.253906 C 218.011719 124.347656 221.703125 130.925781 224.070312 137.976562 C 226.328125 145.503906 226.621094 153.339844 225.132812 161.046875 C 223.125 169.171875 219.449219 176.1875 213.722656 182.285156 C 207.820312 188.277344 201.605469 192.394531 193.472656 194.808594 C 185.976562 196.800781 178.195312 197.316406 170.621094 195.410156 C 161.71875 192.90625 154.765625 188.648438 148.078125 182.324219 C 142.652344 176.742188 139.296875 169.6875 137.101562 162.28125 C 135.261719 154.371094 135.601562 145.726562 137.9375 137.976562 C 140.898438 129.421875 145.621094 122.941406 152.183594 116.773438 C 158.222656 111.597656 165.222656 108.660156 172.953125 107.046875 C 182.859375 105.484375 192.347656 106.878906 201.398438 111.167969 "/><path style=" stroke:none;fill-rule:nonzero;fill:#555eaa;fill-opacity:1;" d="M 118.015625 92.859375 C 121 93.785156 123.210938 95.210938 125.558594 97.253906 L 126.804688 98.71875 L 128.046875 100.074219 C 129.878906 102.695312 130.765625 104.996094 131.09375 108.144531 C 131.214844 111.75 131.019531 114.789062 129.339844 118.015625 C 127.125 121.453125 124.546875 124.261719 120.945312 126.257812 C 118.964844 126.988281 118.964844 126.988281 117.429688 127.429688 L 118.605469 127.988281 C 125.046875 131.109375 125.046875 131.109375 127.132812 133.945312 C 129.765625 137.996094 130.757812 141.644531 131.015625 146.464844 C 131.054688 148.367188 131.070312 150.269531 131.058594 152.171875 C 131.050781 153.347656 131.058594 154.519531 131.066406 155.695312 C 131.046875 164.296875 130.25 172.425781 125.886719 180 C 122.289062 185.40625 117.96875 189.636719 112.257812 192.757812 C 108.035156 194.761719 104.121094 196.042969 99.429688 196.007812 L 97.671875 195.996094 L 96.335938 195.984375 C 96.28125 188.980469 96.238281 181.976562 96.214844 174.972656 C 96.203125 171.71875 96.183594 168.46875 96.15625 165.214844 C 96.132812 162.074219 96.117188 158.929688 96.113281 155.789062 C 96.109375 154.59375 96.097656 153.398438 96.085938 152.203125 C 95.972656 140.90625 95.972656 140.90625 98.003906 136.71875 C 99.832031 133.777344 101.585938 131.644531 104.609375 129.875 C 106.324219 129.007812 108.046875 128.195312 109.8125 127.429688 L 108.675781 127.039062 C 105.738281 125.964844 103.078125 124.878906 100.789062 122.703125 C 98.722656 120.210938 97.332031 117.621094 96.335938 114.539062 C 95.800781 110.566406 95.761719 106.628906 97.25 102.855469 C 98.914062 99.765625 101.035156 96.898438 104.023438 94.996094 C 108.597656 92.660156 112.953125 92.40625 118.015625 92.859375 "/><path style=" stroke:none;fill-rule:nonzero;fill:#ed5062;fill-opacity:1;" d="M 249.007812 163.722656 C 252.441406 165.03125 255.039062 167.507812 257.46875 170.203125 C 259.050781 172.539062 260.121094 174.996094 260.398438 177.820312 L 260.507812 178.945312 C 260.722656 182.808594 259.777344 186.089844 258.054688 189.539062 C 256.363281 192.097656 254.441406 194.113281 251.753906 195.617188 C 248.429688 197.054688 244.941406 197.839844 241.3125 197.671875 C 237.425781 197.074219 234.195312 195.453125 231.101562 193.054688 C 228.746094 190.789062 227.4375 188.355469 226.449219 185.253906 C 225.671875 181.878906 225.625 178.855469 226.414062 175.476562 C 227.511719 172.257812 229.035156 169.695312 231.503906 167.347656 C 236.722656 163.214844 242.5625 162.0625 249.007812 163.722656 "/><path style=" stroke:none;fill-rule:nonzero;fill:#f5596e;fill-opacity:1;" d="M 263.914062 198.914062 L 299.070312 198.914062 L 299.070312 206.53125 L 263.914062 206.53125 Z M 263.914062 198.914062 "/><path style=" stroke:none;fill-rule:nonzero;fill:#b4b5de;fill-opacity:1;" d="M 152.585938 116.296875 L 153.757812 116.882812 L 152.644531 117.953125 L 151.191406 119.371094 L 149.75 120.773438 C 148.609375 122.019531 148.042969 123.011719 147.3125 124.5 C 145.480469 125.816406 145.480469 125.816406 143.796875 126.84375 C 145.6875 122.667969 149.34375 119.457031 152.585938 116.296875 "/></g><mask id="7239259ffe"><g filter="url(#d2590483c3)"><rect x="0" width="375" y="0" height="374.999991" style="fill:#000000;fill-opacity:0.14;stroke:none;"/></g></mask></g><path style=" stroke:none;fill-rule:nonzero;fill:#3f86c7;fill-opacity:1;" d="M 128.320312 127.5625 C 128.375 135.96875 128.417969 144.371094 128.441406 152.777344 C 128.453125 156.679688 128.472656 160.582031 128.496094 164.488281 C 128.523438 168.257812 128.539062 172.03125 128.542969 175.804688 C 128.546875 177.238281 128.554688 178.671875 128.566406 180.105469 C 128.648438 189.5625 128.371094 198.125 123.925781 206.699219 L 123.328125 207.863281 C 119.476562 214.980469 113.933594 220.570312 107.078125 224.8125 C 100.59375 228.628906 93.636719 230.816406 86.132812 231.273438 L 84.984375 231.367188 C 77.105469 231.714844 69.117188 229.457031 62.109375 226 C 55.035156 221.890625 48.726562 215.917969 44.585938 208.859375 C 40.472656 201.042969 38.457031 193.109375 38.550781 184.285156 C 38.996094 176.203125 41.390625 168.226562 45.808594 161.421875 C 50.453125 154.632812 56.183594 149.492188 63.539062 145.828125 C 71.25 142.144531 79.222656 140.5625 87.761719 141.207031 C 91.839844 141.734375 95.722656 142.625 99.609375 143.96875 L 100.011719 142.703125 C 101.746094 138.957031 105.441406 135.90625 108.75 133.476562 C 114.800781 129.71875 121.175781 127.515625 128.320312 127.5625 "/><path style=" stroke:none;fill-rule:nonzero;fill:#a95381;fill-opacity:1;" d="M 238.660156 145.871094 C 242.289062 147.792969 245.398438 150.007812 248.4375 152.757812 L 249.804688 153.957031 C 255.269531 159.050781 258.964844 165.628906 261.328125 172.679688 C 263.585938 180.207031 263.878906 188.042969 262.390625 195.75 C 260.382812 203.875 256.707031 210.890625 250.980469 216.988281 C 245.078125 222.980469 238.867188 227.097656 230.730469 229.511719 C 223.234375 231.503906 215.453125 232.019531 207.882812 230.113281 C 198.976562 227.609375 192.027344 223.351562 185.339844 217.027344 C 179.910156 211.445312 176.558594 204.390625 174.363281 196.988281 C 172.519531 189.074219 172.859375 180.429688 175.195312 172.679688 C 178.160156 164.125 182.878906 157.644531 189.441406 151.476562 C 195.480469 146.300781 202.484375 143.363281 210.210938 141.75 C 220.117188 140.1875 229.609375 141.582031 238.660156 145.871094 "/><path style=" stroke:none;fill-rule:nonzero;fill:#555eaa;fill-opacity:1;" d="M 155.273438 127.5625 C 158.261719 128.488281 160.46875 129.917969 162.816406 131.957031 L 164.0625 133.421875 L 165.308594 134.777344 C 167.136719 137.398438 168.023438 139.699219 168.355469 142.847656 C 168.476562 146.453125 168.28125 149.492188 166.601562 152.722656 C 164.382812 156.15625 161.808594 158.96875 158.203125 160.960938 C 156.226562 161.691406 156.226562 161.691406 154.6875 162.132812 L 155.867188 162.691406 C 162.304688 165.8125 162.304688 165.8125 164.390625 168.648438 C 167.023438 172.699219 168.015625 176.347656 168.273438 181.167969 C 168.3125 183.070312 168.328125 184.972656 168.316406 186.875 C 168.3125 188.050781 168.316406 189.222656 168.324219 190.398438 C 168.308594 199 167.507812 207.128906 163.144531 214.703125 C 159.546875 220.109375 155.226562 224.339844 149.515625 227.460938 C 145.292969 229.464844 141.378906 230.746094 136.6875 230.710938 L 134.929688 230.699219 L 133.59375 230.6875 C 133.539062 223.683594 133.5 216.679688 133.472656 209.675781 C 133.460938 206.425781 133.441406 203.171875 133.417969 199.917969 C 133.390625 196.777344 133.375 193.636719 133.371094 190.492188 C 133.367188 189.296875 133.359375 188.101562 133.347656 186.90625 C 133.230469 175.609375 133.230469 175.609375 135.261719 171.421875 C 137.09375 168.480469 138.84375 166.347656 141.867188 164.578125 C 143.585938 163.710938 145.308594 162.898438 147.070312 162.132812 L 145.933594 161.742188 C 142.996094 160.667969 140.335938 159.582031 138.050781 157.40625 C 135.980469 154.914062 134.589844 152.324219 133.59375 149.242188 C 133.058594 145.269531 133.019531 141.332031 134.507812 137.558594 C 136.171875 134.46875 138.296875 131.601562 141.285156 129.699219 C 145.855469 127.363281 150.214844 127.109375 155.273438 127.5625 "/><path style=" stroke:none;fill-rule:nonzero;fill:#ed5062;fill-opacity:1;" d="M 286.265625 198.425781 C 289.699219 199.734375 292.296875 202.210938 294.726562 204.90625 C 296.308594 207.242188 297.378906 209.699219 297.65625 212.523438 L 297.769531 213.648438 C 297.980469 217.511719 297.035156 220.792969 295.3125 224.242188 C 293.621094 226.800781 291.699219 228.816406 289.011719 230.320312 C 285.6875 231.757812 282.199219 232.542969 278.570312 232.375 C 274.683594 231.777344 271.453125 230.15625 268.359375 227.757812 C 266.003906 225.492188 264.699219 223.058594 263.707031 219.957031 C 262.929688 216.582031 262.886719 213.558594 263.671875 210.179688 C 264.769531 206.960938 266.292969 204.398438 268.761719 202.050781 C 273.980469 197.917969 279.820312 196.765625 286.265625 198.425781 "/><path style=" stroke:none;fill-rule:nonzero;fill:#f5596e;fill-opacity:1;" d="M 301.171875 233.617188 L 336.328125 233.617188 L 336.328125 241.234375 L 301.171875 241.234375 Z M 301.171875 233.617188 "/><path style=" stroke:none;fill-rule:nonzero;fill:#b4b5de;fill-opacity:1;" d="M 189.84375 151 L 191.015625 151.585938 L 189.902344 152.65625 L 188.453125 154.074219 L 187.011719 155.476562 C 185.867188 156.722656 185.300781 157.714844 184.570312 159.203125 C 182.738281 160.519531 182.738281 160.519531 181.054688 161.546875 C 182.949219 157.371094 186.601562 154.164062 189.84375 151 "/><g clip-rule="nonzero" clip-path="url(#7068f211fb)"><g clip-rule="nonzero" clip-path="url(#80712bf9f8)"><path style=" stroke:none;fill-rule:nonzero;fill:#a95381;fill-opacity:1;" d="M 173.941406 138.902344 L 263.960938 138.902344 L 263.960938 231.035156 L 173.941406 231.035156 Z M 173.941406 138.902344 "/></g></g></g></svg>