<svg xmlns="http://www.w3.org/2000/svg" xmlns:xlink="http://www.w3.org/1999/xlink" width="500" zoomAndPan="magnify" viewBox="0 0 375 374.999991" height="500" preserveAspectRatio="xMidYMid meet" version="1.2"><defs><clipPath id="27f3bedfe9"><path d="M 81.894531 70 L 271 70 L 271 278 L 81.894531 278 Z M 81.894531 70 "/></clipPath><clipPath id="99260fdc7f"><path d="M 116 100 L 293.394531 100 L 293.394531 305 L 116 305 Z M 116 100 "/></clipPath><filter x="0%" y="0%" width="100%" filterUnits="objectBoundingBox" id="bb5cecff51" height="100%"><feColorMatrix values="0 0 0 0 1 0 0 0 0 1 0 0 0 0 1 0 0 0 1 0" type="matrix" in="SourceGraphic"/></filter><clipPath id="c5573dda3a"><path d="M 0.953125 11 L 190 11 L 190 218 L 0.953125 218 Z M 0.953125 11 "/></clipPath><clipPath id="3edcd54cfa"><path d="M 35 40 L 212.453125 40 L 212.453125 245 L 35 245 Z M 35 40 "/></clipPath><clipPath id="58e018127b"><rect x="0" width="213" y="0" height="256"/></clipPath></defs><g id="579262e1a1"><g clip-rule="nonzero" clip-path="url(#27f3bedfe9)"><path style=" stroke:none;fill-rule:nonzero;fill:#4c565c;fill-opacity:1;" d="M 101.152344 70.914062 L 102.390625 70.910156 C 104.53125 70.910156 106.609375 70.988281 108.730469 71.277344 C 108.527344 73.859375 107.929688 76.296875 107.289062 78.804688 L 106.953125 80.144531 C 106.660156 81.316406 106.363281 82.488281 106.0625 83.660156 C 105.589844 85.523438 105.121094 87.386719 104.648438 89.253906 C 104.488281 89.894531 104.324219 90.535156 104.164062 91.175781 C 103.386719 94.238281 102.664062 97.304688 101.941406 100.378906 L 158.523438 100.378906 C 158.160156 103.285156 158.160156 103.285156 157.765625 104.777344 L 157.492188 105.808594 L 157.191406 106.921875 L 156.871094 108.132812 C 156.578125 109.238281 156.28125 110.347656 155.984375 111.453125 C 155.730469 112.40625 155.476562 113.359375 155.222656 114.3125 C 154.359375 117.558594 153.492188 120.804688 152.621094 124.050781 L 151.632812 127.75 C 148.253906 140.375 144.867188 153 141.472656 165.617188 L 141.285156 166.320312 C 140.882812 167.808594 140.484375 169.300781 140.082031 170.789062 C 138.757812 175.714844 137.449219 180.644531 136.152344 185.582031 C 134.804688 190.722656 133.441406 195.859375 132.074219 200.992188 L 131.445312 203.355469 C 128.828125 213.207031 126.199219 223.054688 123.566406 232.902344 L 123.289062 233.941406 C 120.8125 243.203125 118.332031 252.460938 115.84375 261.71875 L 140.417969 261.398438 L 141.710938 256.609375 C 143.164062 251.230469 144.621094 245.855469 146.078125 240.480469 L 146.40625 239.265625 C 147.921875 233.675781 149.441406 228.09375 150.96875 222.507812 L 151.695312 219.847656 L 151.878906 219.179688 C 153.808594 212.113281 155.71875 205.039062 157.617188 197.964844 C 160.070312 188.8125 162.550781 179.671875 165.050781 170.53125 C 169.074219 155.835938 173.042969 141.125 177.011719 126.414062 L 177.570312 124.351562 L 179.277344 118.011719 C 180.863281 112.128906 182.464844 106.253906 184.070312 100.378906 L 247.117188 100.054688 C 248.15625 97.789062 248.15625 97.789062 248.917969 95.496094 L 249.167969 94.589844 L 249.421875 93.605469 L 249.703125 92.546875 C 250.804688 88.339844 251.796875 84.105469 252.789062 79.871094 C 254.347656 73.226562 254.347656 73.226562 254.878906 71.601562 L 255.203125 71.277344 C 257.820312 70.816406 260.519531 70.90625 263.164062 70.914062 L 264.410156 70.910156 C 266.4375 70.910156 268.394531 70.960938 270.398438 71.277344 C 269.996094 73.617188 269.515625 75.941406 268.953125 78.25 L 268.722656 79.214844 C 268.472656 80.246094 268.222656 81.277344 267.972656 82.3125 L 267.449219 84.484375 C 266.140625 89.910156 264.820312 95.335938 263.492188 100.757812 C 262.234375 105.910156 260.984375 111.066406 259.730469 116.21875 L 197.972656 116.542969 L 191.503906 140.792969 C 190.148438 145.859375 188.792969 150.925781 187.433594 155.996094 L 186.375 159.953125 C 184.515625 166.882812 182.652344 173.8125 180.785156 180.742188 C 179.324219 186.152344 177.882812 191.5625 176.460938 196.980469 C 171.839844 214.589844 167.128906 232.175781 162.40625 249.757812 L 154.96875 277.5625 L 93.535156 277.5625 C 93.898438 273.925781 93.898438 273.925781 94.273438 272.515625 L 94.527344 271.535156 L 94.808594 270.492188 L 95.109375 269.359375 C 96.078125 265.703125 97.101562 262.058594 98.121094 258.414062 C 99.128906 254.796875 100.109375 251.167969 101.058594 247.53125 C 101.804688 244.699219 102.558594 241.871094 103.320312 239.046875 C 105.113281 232.402344 106.894531 225.757812 108.597656 219.09375 L 108.785156 218.355469 L 109.730469 214.660156 C 111.46875 207.832031 113.21875 201.019531 115.226562 194.269531 C 116.425781 190.226562 117.519531 186.15625 118.59375 182.078125 L 118.863281 181.0625 C 119.214844 179.71875 119.570312 178.375 119.921875 177.03125 C 120.792969 173.726562 121.667969 170.425781 122.554688 167.125 L 122.777344 166.296875 C 123.726562 162.753906 124.703125 159.214844 125.707031 155.6875 C 126.898438 151.496094 128.007812 147.285156 129.101562 143.070312 C 129.957031 139.761719 130.835938 136.460938 131.761719 133.171875 L 132.023438 132.238281 C 132.441406 130.757812 132.863281 129.28125 133.285156 127.804688 C 134.136719 124.8125 134.890625 121.828125 135.496094 118.777344 C 135.863281 116.921875 135.863281 116.921875 136.214844 116.21875 L 81.894531 116.21875 C 88.035156 91.28125 88.035156 91.28125 89.460938 85.578125 C 89.75 84.410156 90.042969 83.242188 90.332031 82.070312 C 91.234375 78.457031 92.136719 74.847656 93.210938 71.277344 C 95.863281 70.9375 98.484375 70.90625 101.152344 70.914062 "/></g><g clip-rule="nonzero" clip-path="url(#99260fdc7f)"><path style=" stroke:none;fill-rule:nonzero;fill:#b4373a;fill-opacity:1;" d="M 277.835938 100.378906 L 293.355469 100.378906 C 291.867188 107.074219 291.867188 107.074219 291.164062 109.980469 L 290.921875 110.992188 C 290.660156 112.066406 290.402344 113.144531 290.140625 114.21875 L 289.59375 116.496094 C 287.910156 123.472656 286.203125 130.4375 284.488281 137.40625 L 284.261719 138.332031 L 284.046875 139.203125 L 283.863281 139.949219 C 283.582031 141.09375 283.292969 142.238281 283.007812 143.378906 L 221.253906 143.703125 L 218.34375 154.695312 C 217.246094 158.742188 217.246094 158.742188 216.710938 160.679688 C 216.5 161.445312 216.289062 162.207031 216.078125 162.972656 C 215.421875 165.359375 214.753906 167.746094 214.066406 170.125 C 213.078125 173.558594 212.160156 177.007812 211.273438 180.472656 C 209.402344 187.765625 207.457031 195.039062 205.488281 202.308594 L 205.28125 203.078125 C 203.464844 209.792969 201.628906 216.507812 199.785156 223.214844 C 197.988281 229.738281 196.207031 236.261719 194.496094 242.804688 L 194.261719 243.691406 C 193.441406 246.828125 192.667969 249.972656 191.964844 253.140625 C 191.390625 255.730469 190.707031 258.25 189.867188 260.769531 C 188.601562 264.734375 187.480469 268.730469 186.414062 272.753906 L 186.167969 273.671875 C 185.191406 277.378906 184.230469 281.085938 183.289062 284.800781 L 183.011719 285.902344 C 182.492188 287.941406 181.980469 289.980469 181.46875 292.019531 C 180.382812 296.296875 179.164062 300.472656 177.925781 304.722656 L 116.492188 304.722656 C 116.914062 302.617188 117.355469 300.558594 117.910156 298.488281 L 118.125 297.675781 C 118.347656 296.832031 118.570312 295.988281 118.796875 295.144531 L 119.253906 293.414062 C 119.625 292.011719 120 290.605469 120.371094 289.203125 L 121.351562 289.195312 C 125.449219 289.152344 129.550781 289.105469 133.648438 289.0625 L 134.632812 289.050781 C 144.429688 288.945312 154.226562 288.8125 164.023438 288.558594 L 165.46875 283.089844 C 166.238281 280.191406 167.003906 277.285156 167.765625 274.382812 C 170.144531 265.289062 170.144531 265.289062 171.296875 261.234375 C 172.21875 257.984375 173.089844 254.722656 173.945312 251.453125 L 174.363281 249.863281 L 174.574219 249.050781 L 174.789062 248.230469 L 175.007812 247.402344 C 177.496094 237.917969 180.050781 228.457031 182.605469 218.992188 L 183.222656 216.703125 C 184.761719 210.992188 186.324219 205.292969 187.910156 199.59375 C 188.808594 196.386719 189.675781 193.171875 190.507812 189.945312 C 191.308594 186.835938 192.183594 183.746094 193.058594 180.660156 C 194.65625 175.023438 196.210938 169.378906 197.6875 163.710938 L 197.90625 162.878906 C 198.546875 160.421875 199.179688 157.96875 199.785156 155.507812 C 200.304688 153.394531 200.882812 151.3125 201.550781 149.242188 C 202.71875 145.507812 203.710938 141.726562 204.703125 137.945312 L 204.9375 137.039062 C 205.164062 136.175781 205.390625 135.308594 205.617188 134.441406 L 205.820312 133.664062 C 206.289062 131.847656 206.675781 130.023438 207.023438 128.183594 C 209.179688 127.863281 211.289062 127.804688 213.464844 127.792969 L 214.617188 127.785156 C 215.660156 127.777344 216.703125 127.769531 217.746094 127.761719 C 218.855469 127.753906 219.96875 127.746094 221.082031 127.738281 C 222.964844 127.722656 224.851562 127.710938 226.734375 127.699219 C 228.628906 127.683594 230.519531 127.671875 232.414062 127.65625 C 245.074219 127.558594 257.738281 127.515625 270.398438 127.535156 C 271.910156 122.101562 273.394531 116.660156 274.820312 111.199219 C 275.773438 107.574219 276.804688 103.984375 277.835938 100.378906 "/></g><g mask="url(#b9ef508720)" transform="matrix(1,0,0,1,94,71)"><g clip-path="url(#58e018127b)"><g clip-rule="nonzero" clip-path="url(#c5573dda3a)"><path style=" stroke:none;fill-rule:nonzero;fill:#4c565c;fill-opacity:1;" d="M 20.210938 11.019531 L 21.449219 11.015625 C 23.589844 11.015625 25.667969 11.09375 27.789062 11.382812 C 27.585938 13.964844 26.988281 16.402344 26.347656 18.910156 L 26.011719 20.25 C 25.71875 21.421875 25.421875 22.59375 25.121094 23.765625 C 24.648438 25.628906 24.179688 27.492188 23.707031 29.359375 C 23.546875 30 23.382812 30.640625 23.222656 31.28125 C 22.445312 34.34375 21.722656 37.410156 21 40.480469 L 77.582031 40.480469 C 77.21875 43.390625 77.21875 43.390625 76.824219 44.882812 L 76.550781 45.914062 L 76.25 47.027344 L 75.929688 48.238281 C 75.636719 49.34375 75.339844 50.453125 75.042969 51.558594 C 74.789062 52.511719 74.535156 53.464844 74.28125 54.417969 C 73.417969 57.664062 72.550781 60.910156 71.679688 64.15625 L 70.691406 67.855469 C 67.3125 80.480469 63.925781 93.105469 60.53125 105.722656 L 60.34375 106.425781 C 59.941406 107.914062 59.542969 109.40625 59.140625 110.894531 C 57.816406 115.820312 56.507812 120.75 55.210938 125.6875 C 53.863281 130.828125 52.5 135.964844 51.132812 141.097656 L 50.503906 143.460938 C 47.886719 153.3125 45.257812 163.160156 42.625 173.007812 L 42.347656 174.046875 C 39.871094 183.308594 37.390625 192.566406 34.902344 201.824219 L 59.476562 201.503906 L 60.769531 196.714844 C 62.222656 191.335938 63.679688 185.960938 65.136719 180.585938 L 65.464844 179.371094 C 66.980469 173.78125 68.5 168.199219 70.027344 162.613281 L 70.753906 159.953125 L 70.9375 159.285156 C 72.867188 152.21875 74.777344 145.144531 76.675781 138.070312 C 79.128906 128.917969 81.609375 119.777344 84.109375 110.636719 C 88.132812 95.941406 92.101562 81.230469 96.070312 66.519531 L 96.625 64.457031 L 98.335938 58.117188 C 99.921875 52.234375 101.523438 46.359375 103.128906 40.480469 L 166.175781 40.160156 C 167.214844 37.894531 167.214844 37.894531 167.976562 35.601562 L 168.226562 34.691406 L 168.480469 33.710938 L 168.761719 32.652344 C 169.863281 28.445312 170.855469 24.210938 171.847656 19.976562 C 173.40625 13.332031 173.40625 13.332031 173.9375 11.707031 L 174.261719 11.382812 C 176.878906 10.921875 179.574219 11.011719 182.222656 11.019531 L 183.46875 11.015625 C 185.496094 11.015625 187.453125 11.0625 189.457031 11.382812 C 189.054688 13.722656 188.574219 16.046875 188.011719 18.355469 L 187.78125 19.320312 C 187.53125 20.351562 187.28125 21.382812 187.03125 22.414062 L 186.507812 24.589844 C 185.199219 30.015625 183.878906 35.441406 182.550781 40.863281 C 181.292969 46.015625 180.042969 51.171875 178.789062 56.324219 L 117.03125 56.648438 L 110.5625 80.898438 C 109.207031 85.964844 107.851562 91.03125 106.492188 96.097656 L 105.433594 100.058594 C 103.574219 106.988281 101.710938 113.917969 99.84375 120.847656 C 98.382812 126.257812 96.941406 131.667969 95.519531 137.085938 C 90.898438 154.695312 86.183594 172.28125 81.464844 189.863281 L 74.027344 217.667969 L 12.59375 217.667969 C 12.957031 214.03125 12.957031 214.03125 13.332031 212.621094 L 13.585938 211.640625 L 13.867188 210.597656 L 14.164062 209.464844 C 15.136719 205.808594 16.160156 202.164062 17.179688 198.519531 C 18.1875 194.898438 19.167969 191.273438 20.117188 187.636719 C 20.863281 184.804688 21.617188 181.976562 22.378906 179.152344 C 24.171875 172.507812 25.953125 165.863281 27.65625 159.199219 L 27.84375 158.460938 L 28.789062 154.765625 C 30.527344 147.9375 32.277344 141.125 34.285156 134.375 C 35.484375 130.332031 36.578125 126.261719 37.652344 122.183594 L 37.921875 121.167969 C 38.273438 119.824219 38.628906 118.480469 38.980469 117.136719 C 39.851562 113.832031 40.726562 110.53125 41.613281 107.230469 L 41.835938 106.402344 C 42.785156 102.859375 43.761719 99.320312 44.765625 95.792969 C 45.957031 91.601562 47.066406 87.390625 48.160156 83.175781 C 49.015625 79.867188 49.894531 76.566406 50.820312 73.277344 L 51.082031 72.34375 C 51.5 70.863281 51.921875 69.386719 52.34375 67.910156 C 53.195312 64.917969 53.949219 61.933594 54.554688 58.882812 C 54.921875 57.027344 54.921875 57.027344 55.273438 56.324219 L 0.953125 56.324219 C 7.09375 31.386719 7.09375 31.386719 8.519531 25.683594 C 8.808594 24.515625 9.101562 23.34375 9.390625 22.175781 C 10.292969 18.5625 11.195312 14.953125 12.269531 11.382812 C 14.917969 11.042969 17.542969 11.011719 20.210938 11.019531 "/></g><g clip-rule="nonzero" clip-path="url(#3edcd54cfa)"><path style=" stroke:none;fill-rule:nonzero;fill:#b4373a;fill-opacity:1;" d="M 196.894531 40.480469 L 212.414062 40.480469 C 210.925781 47.179688 210.925781 47.179688 210.222656 50.085938 L 209.980469 51.097656 C 209.71875 52.171875 209.460938 53.25 209.199219 54.324219 L 208.652344 56.601562 C 206.96875 63.578125 205.261719 70.542969 203.546875 77.511719 L 203.320312 78.4375 L 203.105469 79.308594 L 202.921875 80.054688 C 202.640625 81.199219 202.351562 82.34375 202.066406 83.484375 L 140.308594 83.808594 L 137.402344 94.800781 C 136.304688 98.847656 136.304688 98.847656 135.769531 100.785156 C 135.558594 101.550781 135.347656 102.3125 135.136719 103.078125 C 134.480469 105.464844 133.8125 107.847656 133.125 110.230469 C 132.132812 113.664062 131.21875 117.113281 130.332031 120.578125 C 128.460938 127.871094 126.515625 135.144531 124.546875 142.414062 L 124.339844 143.183594 C 122.523438 149.898438 120.6875 156.613281 118.84375 163.320312 C 117.046875 169.84375 115.265625 176.367188 113.554688 182.910156 L 113.320312 183.796875 C 112.5 186.933594 111.726562 190.078125 111.023438 193.246094 C 110.449219 195.835938 109.765625 198.355469 108.925781 200.875 C 107.660156 204.839844 106.539062 208.835938 105.472656 212.859375 L 105.226562 213.777344 C 104.25 217.484375 103.289062 221.191406 102.347656 224.90625 L 102.070312 226.007812 C 101.550781 228.042969 101.039062 230.082031 100.527344 232.125 C 99.441406 236.402344 98.222656 240.578125 96.984375 244.828125 L 35.550781 244.828125 C 35.972656 242.722656 36.414062 240.664062 36.96875 238.59375 L 37.183594 237.78125 C 37.40625 236.9375 37.628906 236.09375 37.855469 235.25 L 38.3125 233.519531 C 38.683594 232.117188 39.058594 230.710938 39.429688 229.308594 L 40.410156 229.300781 C 44.507812 229.257812 48.609375 229.210938 52.707031 229.167969 L 53.691406 229.15625 C 63.488281 229.046875 73.285156 228.917969 83.082031 228.664062 L 84.527344 223.195312 C 85.296875 220.292969 86.0625 217.390625 86.824219 214.488281 C 89.203125 205.394531 89.203125 205.394531 90.355469 201.339844 C 91.277344 198.089844 92.148438 194.828125 93.003906 191.558594 L 93.421875 189.964844 L 93.632812 189.15625 L 93.847656 188.335938 L 94.066406 187.507812 C 96.554688 178.023438 99.109375 168.5625 101.664062 159.097656 L 102.28125 156.808594 C 103.820312 151.097656 105.382812 145.394531 106.96875 139.699219 C 107.867188 136.492188 108.734375 133.277344 109.5625 130.050781 C 110.367188 126.941406 111.242188 123.851562 112.117188 120.765625 C 113.714844 115.128906 115.269531 109.484375 116.746094 103.816406 L 116.964844 102.984375 C 117.605469 100.527344 118.238281 98.074219 118.84375 95.613281 C 119.363281 93.5 119.941406 91.417969 120.609375 89.347656 C 121.777344 85.613281 122.769531 81.832031 123.761719 78.050781 L 123.996094 77.144531 C 124.222656 76.28125 124.449219 75.414062 124.675781 74.546875 L 124.878906 73.769531 C 125.347656 71.953125 125.730469 70.128906 126.082031 68.289062 C 128.238281 67.964844 130.347656 67.910156 132.523438 67.898438 L 133.675781 67.890625 C 134.71875 67.882812 135.761719 67.875 136.804688 67.867188 C 137.914062 67.859375 139.027344 67.851562 140.140625 67.84375 C 142.023438 67.828125 143.910156 67.816406 145.792969 67.804688 C 147.6875 67.789062 149.578125 67.777344 151.472656 67.761719 C 164.132812 67.664062 176.796875 67.621094 189.457031 67.640625 C 190.96875 62.207031 192.453125 56.765625 193.878906 51.304688 C 194.832031 47.679688 195.863281 44.089844 196.894531 40.480469 "/></g></g><mask id="b9ef508720"><g filter="url(#bb5cecff51)"><rect x="0" width="375" y="0" height="374.999991" style="fill:#000000;fill-opacity:0.13;stroke:none;"/></g></mask></g></g></svg>