<svg xmlns="http://www.w3.org/2000/svg" xmlns:xlink="http://www.w3.org/1999/xlink" width="500" zoomAndPan="magnify" viewBox="0 0 375 374.999991" height="500" preserveAspectRatio="xMidYMid meet" version="1.2"><defs><clipPath id="31f45ac523"><path d="M 28.152344 14 L 297 14 L 297 308 L 28.152344 308 Z M 28.152344 14 "/></clipPath><clipPath id="5b7a2435b8"><path d="M 77 55 L 328.152344 55 L 328.152344 347 L 77 347 Z M 77 55 "/></clipPath><filter x="0%" y="0%" width="100%" filterUnits="objectBoundingBox" id="2eeaeab80a" height="100%"><feColorMatrix values="0 0 0 0 1 0 0 0 0 1 0 0 0 0 1 0 0 0 1 0" type="matrix" in="SourceGraphic"/></filter><clipPath id="07dca32683"><path d="M 0.710938 15 L 269 15 L 269 310 L 0.710938 310 Z M 0.710938 15 "/></clipPath><clipPath id="579c1b4ecb"><path d="M 49 57 L 300.710938 57 L 300.710938 349 L 49 349 Z M 49 57 "/></clipPath><clipPath id="b68b441db0"><rect x="0" width="302" y="0" height="361"/></clipPath></defs><g id="4f0da94b34"><g clip-rule="nonzero" clip-path="url(#31f45ac523)"><path style=" stroke:none;fill-rule:nonzero;fill:#4c565c;fill-opacity:1;" d="M 55.527344 14.046875 L 57.285156 14.042969 C 60.328125 14.042969 63.28125 14.152344 66.296875 14.5625 C 66.007812 18.238281 65.160156 21.703125 64.25 25.265625 L 63.769531 27.167969 C 63.351562 28.835938 62.929688 30.5 62.503906 32.164062 C 61.832031 34.8125 61.164062 37.464844 60.496094 40.117188 C 60.265625 41.027344 60.035156 41.9375 59.804688 42.851562 C 58.703125 47.199219 57.675781 51.558594 56.648438 55.925781 L 137.074219 55.925781 C 136.558594 60.0625 136.558594 60.0625 135.992188 62.183594 L 135.605469 63.648438 L 135.179688 65.230469 L 134.726562 66.949219 C 134.304688 68.523438 133.886719 70.097656 133.464844 71.671875 C 133.101562 73.027344 132.742188 74.382812 132.378906 75.738281 C 131.152344 80.351562 129.917969 84.964844 128.683594 89.578125 L 127.277344 94.835938 C 122.476562 112.78125 117.664062 130.722656 112.835938 148.660156 L 112.570312 149.65625 C 112 151.773438 111.429688 153.894531 110.859375 156.011719 C 108.976562 163.011719 107.113281 170.019531 105.277344 177.035156 C 103.355469 184.339844 101.417969 191.644531 99.476562 198.941406 L 98.585938 202.300781 C 94.863281 216.300781 91.125 230.300781 87.382812 244.296875 L 86.988281 245.773438 C 83.46875 258.9375 79.941406 272.097656 76.410156 285.257812 L 111.335938 284.800781 L 113.175781 277.992188 C 115.242188 270.351562 117.308594 262.710938 119.378906 255.070312 L 119.847656 253.339844 C 122 245.398438 124.164062 237.460938 126.332031 229.523438 L 127.367188 225.742188 L 127.625 224.792969 C 130.367188 214.746094 133.085938 204.695312 135.78125 194.636719 C 139.269531 181.628906 142.796875 168.632812 146.351562 155.644531 C 152.066406 134.753906 157.710938 113.847656 163.351562 92.9375 L 164.140625 90 L 166.570312 80.992188 C 168.824219 72.632812 171.101562 64.28125 173.382812 55.925781 L 263 55.46875 C 264.476562 52.246094 264.476562 52.246094 265.558594 48.992188 L 265.910156 47.699219 L 266.273438 46.304688 L 266.675781 44.800781 C 268.238281 38.820312 269.648438 32.800781 271.058594 26.78125 C 273.277344 17.335938 273.277344 17.335938 274.03125 15.023438 L 274.488281 14.5625 C 278.210938 13.910156 282.046875 14.035156 285.808594 14.046875 L 287.578125 14.042969 C 290.457031 14.042969 293.246094 14.113281 296.089844 14.5625 C 295.519531 17.890625 294.832031 21.195312 294.035156 24.476562 L 293.707031 25.847656 C 293.355469 27.3125 293 28.78125 292.644531 30.246094 L 291.898438 33.339844 C 290.035156 41.050781 288.160156 48.761719 286.277344 56.46875 C 284.484375 63.792969 282.707031 71.121094 280.925781 78.445312 L 193.144531 78.90625 L 183.953125 113.375 C 182.027344 120.578125 180.097656 127.777344 178.164062 134.980469 L 176.65625 140.605469 C 174.015625 150.457031 171.371094 160.308594 168.714844 170.15625 C 166.640625 177.84375 164.589844 185.539062 162.566406 193.242188 C 156.003906 218.269531 149.300781 243.261719 142.589844 268.253906 L 132.019531 307.777344 L 44.699219 307.777344 C 45.214844 302.605469 45.214844 302.605469 45.746094 300.601562 L 46.109375 299.207031 L 46.507812 297.726562 L 46.933594 296.117188 C 48.316406 290.917969 49.765625 285.742188 51.214844 280.5625 C 52.648438 275.414062 54.039062 270.257812 55.394531 265.089844 C 56.453125 261.066406 57.523438 257.046875 58.609375 253.03125 C 61.152344 243.589844 63.6875 234.144531 66.105469 224.667969 L 66.375 223.621094 L 67.714844 218.367188 C 70.191406 208.664062 72.679688 198.980469 75.53125 189.382812 C 77.238281 183.636719 78.789062 177.855469 80.316406 172.058594 L 80.699219 170.609375 C 81.199219 168.699219 81.703125 166.789062 82.207031 164.878906 C 83.441406 160.183594 84.6875 155.492188 85.945312 150.800781 L 86.261719 149.625 C 87.613281 144.585938 89 139.558594 90.425781 134.542969 C 92.121094 128.585938 93.699219 122.605469 95.253906 116.609375 C 96.46875 111.90625 97.714844 107.214844 99.035156 102.542969 L 99.40625 101.210938 C 100 99.109375 100.597656 97.007812 101.199219 94.910156 C 102.410156 90.660156 103.480469 86.417969 104.339844 82.082031 C 104.863281 79.445312 104.863281 79.445312 105.363281 78.445312 L 28.152344 78.445312 C 36.878906 43 36.878906 43 38.90625 34.890625 C 39.320312 33.230469 39.734375 31.570312 40.148438 29.90625 C 41.429688 24.769531 42.710938 19.636719 44.238281 14.5625 C 48.003906 14.082031 51.734375 14.035156 55.527344 14.046875 "/></g><g clip-rule="nonzero" clip-path="url(#5b7a2435b8)"><path style=" stroke:none;fill-rule:nonzero;fill:#b4373a;fill-opacity:1;" d="M 306.660156 55.925781 L 328.722656 55.925781 C 326.605469 65.449219 326.605469 65.449219 325.605469 69.578125 L 325.261719 71.015625 C 324.890625 72.542969 324.523438 74.074219 324.152344 75.601562 L 323.375 78.839844 C 320.980469 88.753906 318.554688 98.65625 316.121094 108.558594 L 315.796875 109.878906 L 315.492188 111.113281 L 315.230469 112.175781 C 314.828125 113.800781 314.421875 115.425781 314.015625 117.050781 L 226.234375 117.511719 L 222.097656 133.136719 C 220.539062 138.886719 220.539062 138.886719 219.777344 141.640625 C 219.476562 142.726562 219.179688 143.8125 218.878906 144.898438 C 217.949219 148.292969 216.996094 151.683594 216.019531 155.0625 C 214.613281 159.945312 213.308594 164.851562 212.050781 169.773438 C 209.390625 180.140625 206.625 190.480469 203.828125 200.808594 L 203.53125 201.90625 C 200.949219 211.453125 198.34375 220.992188 195.71875 230.527344 C 193.167969 239.796875 190.636719 249.070312 188.203125 258.375 L 187.871094 259.632812 C 186.703125 264.09375 185.605469 268.5625 184.609375 273.0625 C 183.785156 276.746094 182.816406 280.328125 181.625 283.910156 C 179.824219 289.542969 178.230469 295.222656 176.714844 300.941406 L 176.367188 302.25 C 174.976562 307.515625 173.613281 312.789062 172.273438 318.066406 L 171.878906 319.628906 C 171.140625 322.527344 170.410156 325.425781 169.6875 328.324219 C 168.144531 334.40625 166.410156 340.34375 164.648438 346.382812 L 77.328125 346.382812 C 77.929688 343.386719 78.554688 340.460938 79.34375 337.519531 L 79.648438 336.363281 C 79.964844 335.164062 80.285156 333.964844 80.601562 332.769531 L 81.253906 330.308594 C 81.785156 328.3125 82.3125 326.316406 82.84375 324.324219 L 84.234375 324.308594 C 90.0625 324.25 95.886719 324.1875 101.714844 324.121094 L 103.113281 324.105469 C 117.042969 323.953125 130.964844 323.765625 144.886719 323.40625 L 146.945312 315.636719 C 148.039062 311.511719 149.128906 307.382812 150.207031 303.257812 C 153.59375 290.332031 153.59375 290.332031 155.226562 284.570312 C 156.539062 279.949219 157.773438 275.3125 158.992188 270.667969 L 159.585938 268.402344 L 159.886719 267.25 L 160.191406 266.085938 L 160.5 264.90625 C 164.035156 251.429688 167.671875 237.976562 171.300781 224.523438 L 172.179688 221.273438 C 174.363281 213.15625 176.585938 205.050781 178.84375 196.953125 C 180.117188 192.394531 181.351562 187.824219 182.53125 183.238281 C 183.671875 178.816406 184.917969 174.429688 186.164062 170.039062 C 188.429688 162.027344 190.640625 154.003906 192.742188 145.949219 L 193.050781 144.765625 C 193.960938 141.277344 194.859375 137.785156 195.71875 134.285156 C 196.460938 131.285156 197.28125 128.324219 198.226562 125.382812 C 199.886719 120.074219 201.300781 114.703125 202.710938 109.324219 L 203.046875 108.039062 C 203.367188 106.808594 203.691406 105.578125 204.011719 104.347656 L 204.300781 103.242188 C 204.964844 100.660156 205.511719 98.066406 206.011719 95.449219 C 209.074219 94.992188 212.074219 94.914062 215.167969 94.898438 L 216.804688 94.882812 C 218.285156 94.871094 219.765625 94.863281 221.25 94.851562 C 222.828125 94.839844 224.410156 94.828125 225.992188 94.816406 C 228.671875 94.796875 231.347656 94.777344 234.027344 94.761719 C 236.71875 94.742188 239.410156 94.722656 242.097656 94.703125 C 260.097656 94.566406 278.09375 94.5 296.089844 94.53125 C 298.238281 86.804688 300.351562 79.070312 302.375 71.308594 C 303.726562 66.15625 305.195312 61.054688 306.660156 55.925781 "/></g><g mask="url(#1b34649458)" transform="matrix(1,0,0,1,46,14)"><g clip-path="url(#b68b441db0)"><g clip-rule="nonzero" clip-path="url(#07dca32683)"><path style=" stroke:none;fill-rule:nonzero;fill:#4c565c;fill-opacity:1;" d="M 28.085938 15.828125 L 29.84375 15.824219 C 32.886719 15.824219 35.839844 15.933594 38.855469 16.34375 C 38.566406 20.019531 37.71875 23.484375 36.808594 27.046875 L 36.328125 28.949219 C 35.90625 30.613281 35.484375 32.28125 35.0625 33.945312 C 34.390625 36.59375 33.722656 39.246094 33.054688 41.898438 C 32.824219 42.808594 32.59375 43.71875 32.359375 44.632812 C 31.257812 48.980469 30.230469 53.339844 29.203125 57.707031 L 109.632812 57.707031 C 109.113281 61.84375 109.113281 61.84375 108.550781 63.964844 L 108.164062 65.429688 L 107.738281 67.011719 L 107.28125 68.730469 C 106.863281 70.304688 106.441406 71.878906 106.019531 73.453125 C 105.660156 74.808594 105.296875 76.164062 104.9375 77.519531 C 103.710938 82.132812 102.476562 86.746094 101.242188 91.359375 L 99.835938 96.617188 C 95.035156 114.5625 90.21875 132.503906 85.394531 150.441406 L 85.125 151.4375 C 84.554688 153.554688 83.984375 155.675781 83.414062 157.792969 C 81.53125 164.792969 79.671875 171.800781 77.832031 178.816406 C 75.914062 186.121094 73.976562 193.425781 72.035156 200.722656 L 71.140625 204.082031 C 67.417969 218.082031 63.679688 232.082031 59.9375 246.078125 L 59.542969 247.554688 C 56.023438 260.71875 52.5 273.878906 48.964844 287.039062 L 83.894531 286.582031 L 85.734375 279.773438 C 87.796875 272.132812 89.867188 264.492188 91.9375 256.851562 L 92.40625 255.121094 C 94.558594 247.179688 96.71875 239.242188 98.890625 231.304688 L 99.921875 227.523438 L 100.183594 226.574219 C 102.925781 216.527344 105.644531 206.476562 108.339844 196.417969 C 111.824219 183.410156 115.355469 170.414062 118.910156 157.425781 C 124.625 136.535156 130.269531 115.628906 135.90625 94.71875 L 136.699219 91.78125 L 139.128906 82.773438 C 141.382812 74.414062 143.660156 66.0625 145.9375 57.707031 L 235.558594 57.25 C 237.03125 54.027344 237.03125 54.027344 238.117188 50.773438 L 238.46875 49.480469 L 238.832031 48.085938 L 239.230469 46.582031 C 240.796875 40.601562 242.203125 34.582031 243.617188 28.5625 C 245.832031 19.117188 245.832031 19.117188 246.585938 16.804688 L 247.046875 16.34375 C 250.765625 15.691406 254.601562 15.816406 258.363281 15.828125 L 260.132812 15.824219 C 263.015625 15.824219 265.800781 15.894531 268.648438 16.34375 C 268.074219 19.671875 267.390625 22.976562 266.59375 26.257812 L 266.265625 27.628906 C 265.910156 29.09375 265.554688 30.5625 265.199219 32.027344 L 264.453125 35.121094 C 262.59375 42.832031 260.71875 50.542969 258.832031 58.25 C 257.042969 65.574219 255.261719 72.902344 253.480469 80.226562 L 165.699219 80.6875 L 156.507812 115.15625 C 154.582031 122.359375 152.652344 129.558594 150.722656 136.761719 L 149.214844 142.386719 C 146.574219 152.238281 143.925781 162.089844 141.269531 171.9375 C 139.195312 179.625 137.148438 187.320312 135.125 195.023438 C 128.558594 220.050781 121.859375 245.042969 115.144531 270.035156 L 104.574219 309.558594 L 17.253906 309.558594 C 17.773438 304.386719 17.773438 304.386719 18.300781 302.382812 L 18.664062 300.988281 L 19.0625 299.507812 L 19.488281 297.898438 C 20.871094 292.699219 22.324219 287.523438 23.769531 282.34375 C 25.203125 277.195312 26.597656 272.039062 27.949219 266.871094 C 29.007812 262.847656 30.082031 258.828125 31.164062 254.8125 C 33.710938 245.371094 36.242188 235.925781 38.664062 226.449219 L 38.929688 225.402344 L 40.273438 220.148438 C 42.746094 210.445312 45.234375 200.761719 48.089844 191.164062 C 49.792969 185.417969 51.34375 179.636719 52.871094 173.839844 L 53.253906 172.390625 C 53.757812 170.480469 54.261719 168.570312 54.761719 166.660156 C 56 161.964844 57.246094 157.273438 58.503906 152.582031 L 58.816406 151.40625 C 60.167969 146.367188 61.558594 141.339844 62.984375 136.324219 C 64.675781 130.367188 66.253906 124.386719 67.808594 118.390625 C 69.027344 113.6875 70.273438 108.996094 71.589844 104.324219 L 71.964844 102.992188 C 72.554688 100.890625 73.152344 98.789062 73.757812 96.691406 C 74.96875 92.441406 76.035156 88.199219 76.894531 83.863281 C 77.421875 81.226562 77.421875 81.226562 77.917969 80.226562 L 0.710938 80.226562 C 9.433594 44.78125 9.433594 44.78125 11.460938 36.671875 C 11.875 35.011719 12.289062 33.351562 12.703125 31.6875 C 13.984375 26.550781 15.269531 21.417969 16.796875 16.34375 C 20.5625 15.863281 24.292969 15.816406 28.085938 15.828125 "/></g><g clip-rule="nonzero" clip-path="url(#579c1b4ecb)"><path style=" stroke:none;fill-rule:nonzero;fill:#b4373a;fill-opacity:1;" d="M 279.21875 57.707031 L 301.277344 57.707031 C 299.160156 67.230469 299.160156 67.230469 298.164062 71.359375 L 297.816406 72.796875 C 297.449219 74.324219 297.078125 75.855469 296.710938 77.382812 L 295.929688 80.621094 C 293.539062 90.535156 291.113281 100.4375 288.675781 110.339844 L 288.351562 111.660156 L 288.046875 112.894531 L 287.789062 113.957031 C 287.382812 115.582031 286.976562 117.207031 286.570312 118.832031 L 198.789062 119.292969 L 194.652344 134.917969 C 193.09375 140.667969 193.09375 140.667969 192.332031 143.421875 C 192.035156 144.507812 191.734375 145.59375 191.4375 146.679688 C 190.503906 150.074219 189.550781 153.464844 188.578125 156.84375 C 187.167969 161.726562 185.867188 166.632812 184.605469 171.554688 C 181.949219 181.921875 179.179688 192.261719 176.386719 202.589844 L 176.089844 203.6875 C 173.507812 213.234375 170.902344 222.773438 168.277344 232.308594 C 165.726562 241.578125 163.195312 250.851562 160.761719 260.15625 L 160.429688 261.414062 C 159.257812 265.875 158.164062 270.34375 157.164062 274.84375 C 156.34375 278.527344 155.375 282.105469 154.183594 285.691406 C 152.378906 291.324219 150.789062 297.003906 149.269531 302.722656 L 148.921875 304.03125 C 147.53125 309.296875 146.167969 314.570312 144.832031 319.847656 L 144.433594 321.410156 C 143.699219 324.308594 142.96875 327.207031 142.246094 330.105469 C 140.699219 336.1875 138.96875 342.125 137.207031 348.164062 L 49.886719 348.164062 C 50.484375 345.167969 51.113281 342.242188 51.898438 339.300781 L 52.203125 338.144531 C 52.523438 336.945312 52.839844 335.746094 53.160156 334.550781 L 53.8125 332.089844 C 54.339844 330.09375 54.871094 328.097656 55.398438 326.105469 L 56.789062 326.089844 C 62.617188 326.03125 68.445312 325.96875 74.273438 325.902344 L 75.671875 325.886719 C 89.597656 325.734375 103.519531 325.546875 117.445312 325.1875 L 119.503906 317.417969 C 120.597656 313.292969 121.683594 309.164062 122.765625 305.039062 C 126.148438 292.113281 126.148438 292.113281 127.785156 286.351562 C 129.097656 281.730469 130.332031 277.09375 131.546875 272.449219 L 132.140625 270.183594 L 132.441406 269.03125 L 132.75 267.867188 L 133.058594 266.6875 C 136.59375 253.210938 140.226562 239.757812 143.859375 226.304688 L 144.734375 223.054688 C 146.921875 214.9375 149.144531 206.832031 151.398438 198.734375 C 152.671875 194.175781 153.90625 189.605469 155.089844 185.019531 C 156.230469 180.597656 157.472656 176.210938 158.71875 171.820312 C 160.988281 163.808594 163.199219 155.785156 165.296875 147.730469 L 165.605469 146.546875 C 166.515625 143.058594 167.414062 139.566406 168.277344 136.066406 C 169.015625 133.066406 169.835938 130.105469 170.785156 127.164062 C 172.445312 121.855469 173.855469 116.484375 175.265625 111.105469 L 175.601562 109.820312 C 175.925781 108.589844 176.246094 107.359375 176.566406 106.128906 L 176.855469 105.023438 C 177.523438 102.441406 178.070312 99.847656 178.570312 97.230469 C 181.628906 96.773438 184.628906 96.695312 187.722656 96.679688 L 189.363281 96.664062 C 190.84375 96.652344 192.324219 96.640625 193.804688 96.632812 C 195.386719 96.621094 196.964844 96.609375 198.546875 96.597656 C 201.226562 96.578125 203.90625 96.558594 206.585938 96.542969 C 209.273438 96.523438 211.964844 96.503906 214.65625 96.484375 C 232.652344 96.34375 250.648438 96.28125 268.648438 96.3125 C 270.796875 88.585938 272.90625 80.851562 274.933594 73.089844 C 276.285156 67.9375 277.753906 62.835938 279.21875 57.707031 "/></g></g><mask id="1b34649458"><g filter="url(#2eeaeab80a)"><rect x="0" width="375" y="0" height="374.999991" style="fill:#000000;fill-opacity:0.13;stroke:none;"/></g></mask></g></g></svg>