<svg xmlns="http://www.w3.org/2000/svg" xmlns:xlink="http://www.w3.org/1999/xlink" width="500" zoomAndPan="magnify" viewBox="0 0 375 374.999991" height="500" preserveAspectRatio="xMidYMid meet" version="1.2"><defs><filter x="0%" y="0%" width="100%" filterUnits="objectBoundingBox" id="fad321f7e2" height="100%"><feColorMatrix values="0 0 0 0 1 0 0 0 0 1 0 0 0 0 1 0 0 0 1 0" type="matrix" in="SourceGraphic"/></filter><clipPath id="c6ce2d2911"><rect x="0" width="279" y="0" height="275"/></clipPath></defs><g id="d81ed40ec7"><path style=" stroke:none;fill-rule:nonzero;fill:#00457c;fill-opacity:1;" d="M 299.320312 57.105469 C 299.335938 63.695312 299.34375 70.28125 299.351562 76.871094 C 299.355469 79.929688 299.359375 82.988281 299.367188 86.046875 C 299.371094 88.714844 299.375 91.382812 299.375 94.050781 C 299.378906 95.460938 299.378906 96.875 299.382812 98.285156 C 299.386719 99.617188 299.390625 100.945312 299.386719 102.277344 C 299.386719 102.765625 299.390625 103.25 299.390625 103.734375 C 299.425781 111.144531 299.425781 111.144531 297.679688 114.390625 L 297.367188 114.992188 C 295.996094 117.515625 294.207031 119.476562 291.777344 121.019531 C 290.019531 121.996094 288.253906 122.804688 286.351562 123.460938 L 285.667969 123.703125 C 285.175781 123.878906 284.683594 124.050781 284.191406 124.222656 C 282.804688 124.707031 281.417969 125.199219 280.03125 125.691406 C 279.734375 125.796875 279.4375 125.902344 279.128906 126.011719 C 275.492188 127.308594 271.875 128.652344 268.253906 129.992188 C 261.863281 132.355469 255.460938 134.6875 249.046875 136.988281 L 248.46875 137.195312 C 244.125 138.757812 239.785156 140.328125 235.453125 141.917969 C 230.886719 143.597656 226.308594 145.25 221.730469 146.898438 C 215.886719 149.003906 210.046875 151.113281 204.21875 153.257812 L 203.355469 153.578125 L 202.480469 153.898438 L 200.707031 154.550781 L 199.808594 154.882812 C 195.621094 156.421875 191.429688 157.957031 187.234375 159.488281 C 180.679688 161.878906 174.117188 164.261719 167.554688 166.632812 C 162.960938 168.296875 158.371094 169.960938 153.78125 171.632812 C 143.902344 175.226562 143.902344 175.226562 139.429688 176.847656 C 138.96875 177.011719 138.507812 177.179688 138.046875 177.347656 C 137.429688 177.570312 136.8125 177.792969 136.199219 178.015625 L 135.167969 178.390625 C 134.417969 178.648438 134.417969 178.648438 134.121094 178.648438 C 134.105469 172.011719 134.097656 165.375 134.089844 158.738281 C 134.085938 155.65625 134.082031 152.574219 134.078125 149.492188 C 134.070312 146.804688 134.066406 144.121094 134.066406 141.433594 C 134.066406 140.011719 134.0625 138.589844 134.058594 137.167969 C 134.054688 135.828125 134.054688 134.484375 134.054688 133.144531 C 134.054688 132.65625 134.054688 132.164062 134.050781 131.675781 C 134.035156 127.984375 134.183594 124.476562 135.890625 121.121094 C 136.523438 120.09375 137.222656 119.128906 137.957031 118.171875 L 138.367188 117.601562 C 139.816406 115.726562 141.800781 114.550781 143.953125 113.613281 C 146.398438 112.648438 148.863281 111.722656 151.339844 110.839844 C 152.492188 110.425781 153.640625 110.011719 154.792969 109.597656 L 155.558594 109.324219 C 158.96875 108.097656 162.371094 106.855469 165.777344 105.617188 L 171.058594 103.695312 C 173.472656 102.816406 175.882812 101.941406 178.296875 101.066406 C 185.195312 98.5625 192.082031 96.042969 198.964844 93.503906 C 206.109375 90.867188 213.265625 88.273438 220.433594 85.707031 C 229.484375 82.460938 238.515625 79.160156 247.546875 75.859375 C 250.335938 74.839844 253.125 73.824219 255.914062 72.804688 L 256.492188 72.59375 L 265.144531 69.433594 L 265.722656 69.222656 C 268.523438 68.199219 271.328125 67.175781 274.128906 66.152344 C 288.597656 60.867188 288.597656 60.867188 294.171875 58.847656 L 295.53125 58.355469 C 296.128906 58.140625 296.726562 57.921875 297.328125 57.707031 L 298.3125 57.351562 C 299.027344 57.105469 299.027344 57.105469 299.320312 57.105469 M 238.550781 159.175781 C 238.578125 166.039062 238.597656 172.902344 238.613281 179.765625 C 238.617188 182.949219 238.628906 186.136719 238.640625 189.324219 C 238.652344 192.101562 238.660156 194.878906 238.660156 197.660156 C 238.664062 199.128906 238.667969 200.597656 238.675781 202.070312 C 238.683594 203.453125 238.6875 204.839844 238.683594 206.226562 C 238.683594 206.734375 238.6875 207.242188 238.691406 207.746094 C 238.722656 211.207031 238.265625 214.042969 236.726562 217.179688 C 235.78125 218.78125 234.535156 220.105469 233.242188 221.421875 L 232.726562 221.949219 C 230.484375 224.050781 227.300781 224.9375 224.460938 225.949219 L 223.464844 226.308594 C 222.570312 226.628906 221.675781 226.949219 220.785156 227.269531 C 219.246094 227.820312 217.707031 228.375 216.167969 228.929688 L 214.976562 229.359375 C 210.730469 230.890625 206.5 232.449219 202.265625 234.015625 C 196.449219 236.164062 190.617188 238.285156 184.78125 240.382812 C 180.28125 241.996094 175.785156 243.625 171.292969 245.261719 C 167.0625 246.800781 162.828125 248.339844 158.597656 249.871094 L 158.039062 250.074219 L 153.078125 251.867188 C 149.503906 253.160156 145.933594 254.453125 142.375 255.769531 L 141.558594 256.070312 C 140.332031 256.527344 139.105469 256.980469 137.878906 257.4375 L 136.621094 257.90625 L 135.535156 258.3125 C 134.710938 258.59375 134.710938 258.59375 134.121094 258.59375 C 134.105469 251.914062 134.097656 245.230469 134.089844 238.550781 C 134.085938 235.449219 134.082031 232.347656 134.078125 229.246094 C 134.070312 226.542969 134.066406 223.839844 134.066406 221.132812 C 134.066406 219.703125 134.0625 218.269531 134.058594 216.839844 C 134.054688 215.492188 134.054688 214.140625 134.054688 212.792969 C 134.054688 212.300781 134.054688 211.808594 134.050781 211.3125 C 134.035156 207.683594 134.246094 204.371094 135.890625 201.066406 C 137.335938 198.605469 139.234375 196.226562 141.664062 194.6875 C 145.304688 192.824219 149.183594 191.542969 153.027344 190.179688 C 154.042969 189.820312 155.054688 189.457031 156.070312 189.09375 C 157.667969 188.523438 159.269531 187.953125 160.867188 187.382812 C 163.339844 186.503906 165.8125 185.613281 168.28125 184.722656 L 170.179688 184.035156 C 173.023438 183.007812 175.863281 181.96875 178.699219 180.921875 C 182.386719 179.570312 186.078125 178.234375 189.773438 176.902344 C 197.457031 174.125 197.457031 174.125 205.125 171.308594 C 209.992188 169.511719 214.863281 167.726562 219.738281 165.949219 L 221.550781 165.285156 C 222.703125 164.863281 223.859375 164.441406 225.015625 164.019531 L 225.578125 163.816406 C 228.542969 162.734375 231.515625 161.660156 234.488281 160.59375 L 235.34375 160.289062 L 236.082031 160.027344 C 236.585938 159.839844 237.089844 159.640625 237.589844 159.441406 C 238.257812 159.175781 238.257812 159.175781 238.550781 159.175781 "/><path style=" stroke:none;fill-rule:nonzero;fill:#01aef0;fill-opacity:1;" d="M 240.019531 69.15625 L 240.617188 69.496094 L 240.910156 70.085938 C 239.828125 70.535156 238.742188 70.96875 237.652344 71.394531 C 237.105469 71.617188 236.558594 71.839844 236.011719 72.066406 C 233.390625 73.082031 233.390625 73.082031 232.179688 72.960938 C 231.511719 72.742188 230.914062 72.472656 230.292969 72.152344 C 229.90625 72 229.523438 71.851562 229.136719 71.707031 L 228.546875 71.476562 C 217.324219 67.132812 204.765625 64.476562 192.734375 64.421875 L 191.808594 64.417969 C 190.828125 64.410156 189.84375 64.410156 188.863281 64.410156 L 187.84375 64.40625 C 182.660156 64.414062 177.601562 64.570312 172.472656 65.367188 L 171.453125 65.519531 C 159.171875 67.421875 147.191406 71.070312 136.171875 76.867188 C 135.546875 77.191406 134.921875 77.507812 134.292969 77.824219 C 127.238281 81.398438 120.675781 85.910156 114.652344 91.03125 L 114.148438 91.453125 C 111.449219 93.726562 111.449219 93.726562 108.914062 96.179688 C 108.417969 96.675781 107.890625 97.125 107.351562 97.578125 C 105.875 98.851562 104.585938 100.289062 103.292969 101.746094 C 102.996094 102.078125 102.699219 102.410156 102.402344 102.738281 C 98.410156 107.175781 94.847656 111.960938 91.640625 116.992188 L 91.039062 117.929688 C 80.617188 134.546875 74.210938 153.988281 73.351562 173.632812 C 73.003906 184.253906 73.847656 194.503906 76.007812 204.902344 C 76.089844 205.316406 76.089844 205.316406 76.179688 205.742188 C 80.15625 224.589844 90.09375 242.070312 102.675781 256.453125 C 104.488281 258.472656 106.394531 260.40625 108.308594 262.335938 L 109.082031 263.121094 C 110.847656 264.886719 112.699219 266.476562 114.652344 268.03125 C 115.046875 268.359375 115.441406 268.6875 115.835938 269.015625 C 119.75 272.265625 123.925781 275.050781 128.222656 277.765625 L 127.851562 278.816406 C 126.390625 283.226562 125.453125 287.511719 125.492188 292.167969 L 125.496094 293.175781 C 125.519531 295.652344 125.707031 298.046875 126.15625 300.480469 C 116.066406 295.691406 106.566406 289.046875 98.367188 281.472656 C 97.734375 280.894531 97.089844 280.328125 96.441406 279.769531 C 95.019531 278.527344 93.691406 277.203125 92.359375 275.867188 L 91.636719 275.144531 C 90.203125 273.714844 88.828125 272.226562 87.511719 270.6875 C 87.226562 270.363281 86.945312 270.042969 86.660156 269.71875 C 84.449219 267.1875 82.40625 264.554688 80.429688 261.835938 L 79.992188 261.238281 C 71.367188 249.425781 64.773438 236.046875 60.667969 222.011719 L 60.390625 221.070312 C 54.097656 199.304688 53.859375 176.28125 59.21875 154.3125 C 63.207031 138.394531 70.101562 123.148438 79.839844 109.914062 C 80.0625 109.605469 80.285156 109.300781 80.515625 108.984375 C 83.285156 105.222656 86.269531 101.640625 89.472656 98.242188 C 90.066406 97.609375 90.640625 96.957031 91.21875 96.304688 C 93.199219 94.097656 95.28125 91.992188 97.539062 90.066406 C 98.207031 89.492188 98.847656 88.898438 99.496094 88.304688 C 101.324219 86.65625 103.257812 85.152344 105.210938 83.65625 L 105.785156 83.214844 C 123.917969 69.304688 145.351562 60.550781 167.972656 57.480469 C 192.660156 54.398438 217.5625 58.539062 240.019531 69.15625 "/><path style=" stroke:none;fill-rule:nonzero;fill:#02aef0;fill-opacity:1;" d="M 298.4375 126.136719 C 299.519531 127.132812 300.011719 128.308594 300.628906 129.621094 L 301.015625 130.4375 C 306.855469 143.035156 310.703125 156.382812 312.375 170.167969 L 312.449219 170.777344 C 314.089844 184.492188 313.449219 198.484375 310.53125 211.980469 L 310.332031 212.9375 C 308.066406 223.664062 304.398438 234.097656 299.335938 243.832031 C 299.007812 244.46875 298.679688 245.109375 298.359375 245.75 C 293.242188 255.769531 286.535156 264.761719 278.964844 273.046875 L 278.179688 273.925781 C 275.988281 276.363281 273.648438 278.609375 271.234375 280.824219 C 270.785156 281.234375 270.339844 281.648438 269.894531 282.0625 C 267.898438 283.898438 265.777344 285.558594 263.625 287.207031 L 263.050781 287.648438 C 245.089844 301.429688 223.683594 310.308594 201.246094 313.304688 C 200.210938 313.433594 199.171875 313.5625 198.136719 313.683594 L 197.171875 313.796875 C 195.515625 313.984375 193.902344 314.09375 192.234375 314.050781 L 192.691406 313.273438 C 196.269531 307.101562 198.160156 301.332031 199.316406 294.289062 L 200.109375 294.179688 C 218.617188 291.648438 236.164062 286.109375 251.824219 275.703125 L 252.441406 275.296875 C 256.804688 272.410156 260.972656 269.238281 264.804688 265.671875 C 265.199219 265.328125 265.589844 264.980469 265.984375 264.640625 L 267.167969 263.605469 L 267.894531 262.972656 C 269.257812 261.773438 270.507812 260.554688 271.679688 259.167969 C 272.199219 258.570312 272.753906 258.019531 273.324219 257.46875 C 274.59375 256.210938 275.703125 254.851562 276.816406 253.457031 C 277.214844 252.96875 277.617188 252.488281 278.03125 252.011719 C 282.5 246.746094 286.222656 240.808594 289.523438 234.761719 C 289.839844 234.179688 290.167969 233.605469 290.496094 233.03125 C 296.871094 221.648438 300.722656 208.316406 302.566406 195.460938 L 302.699219 194.582031 C 305.515625 175.363281 302.671875 155.292969 295.601562 137.296875 C 294.621094 134.835938 293.589844 132.402344 292.535156 129.972656 C 292.757812 129.855469 292.980469 129.742188 293.207031 129.625 C 295.113281 128.632812 296.789062 127.511719 298.4375 126.136719 "/><path style=" stroke:none;fill-rule:nonzero;fill:#00457c;fill-opacity:1;" d="M 173.335938 266.71875 C 178.003906 268.933594 181.953125 271.878906 185.019531 276.085938 C 187.988281 280.402344 189.625 285.277344 190.074219 290.472656 C 190.414062 295.738281 189.28125 300.589844 186.980469 305.3125 C 186 307.242188 184.820312 308.886719 183.386719 310.511719 L 182.988281 311.035156 C 180.578125 314.164062 176.957031 316.382812 173.378906 317.933594 C 168.15625 320.046875 162.640625 320.519531 157.046875 319.828125 C 151.949219 318.855469 147.375 316.296875 143.449219 312.980469 C 139.652344 309.558594 137.203125 305.300781 135.597656 300.480469 C 134.148438 295.378906 134.03125 290.355469 135.28125 285.1875 C 136.703125 280 139.371094 275.828125 143.109375 272.007812 C 146.769531 268.523438 151.386719 266.328125 156.246094 265.082031 C 161.972656 263.839844 167.933594 264.433594 173.335938 266.71875 "/><g mask="url(#d3e95ef2d8)" transform="matrix(1,0,0,1,55,57)"><g clip-path="url(#c6ce2d2911)"><path style=" stroke:none;fill-rule:nonzero;fill:#00457c;fill-opacity:1;" d="M 251.410156 9.25 C 251.421875 15.835938 251.433594 22.425781 251.4375 29.011719 C 251.441406 32.070312 251.445312 35.128906 251.453125 38.191406 C 251.457031 40.855469 251.460938 43.523438 251.464844 46.191406 C 251.464844 47.605469 251.464844 49.015625 251.46875 50.425781 C 251.472656 51.757812 251.476562 53.089844 251.476562 54.417969 C 251.476562 54.90625 251.476562 55.390625 251.476562 55.878906 C 251.511719 63.285156 251.511719 63.285156 249.765625 66.535156 L 249.453125 67.132812 C 248.082031 69.65625 246.292969 71.617188 243.867188 73.160156 C 242.105469 74.136719 240.339844 74.945312 238.4375 75.605469 L 237.753906 75.84375 C 237.261719 76.019531 236.769531 76.191406 236.277344 76.363281 C 234.890625 76.847656 233.503906 77.339844 232.121094 77.832031 C 231.820312 77.941406 231.523438 78.046875 231.21875 78.15625 C 227.582031 79.449219 223.960938 80.792969 220.339844 82.132812 C 213.949219 84.496094 207.546875 86.828125 201.132812 89.128906 L 200.554688 89.339844 C 196.214844 90.902344 191.875 92.46875 187.539062 94.0625 C 182.972656 95.738281 178.394531 97.390625 173.816406 99.042969 C 167.972656 101.144531 162.132812 103.253906 156.308594 105.398438 L 155.441406 105.71875 L 154.570312 106.039062 L 152.796875 106.691406 L 151.898438 107.023438 C 147.707031 108.5625 143.515625 110.097656 139.324219 111.628906 C 132.765625 114.019531 126.207031 116.402344 119.640625 118.773438 C 115.050781 120.4375 110.457031 122.101562 105.867188 123.773438 C 95.988281 127.367188 95.988281 127.367188 91.515625 128.988281 C 91.054688 129.152344 90.59375 129.320312 90.132812 129.488281 C 89.519531 129.710938 88.902344 129.933594 88.285156 130.15625 L 87.253906 130.53125 C 86.503906 130.789062 86.503906 130.789062 86.207031 130.789062 C 86.195312 124.152344 86.183594 117.515625 86.175781 110.878906 C 86.175781 107.796875 86.171875 104.714844 86.164062 101.632812 C 86.15625 98.945312 86.152344 96.261719 86.152344 93.574219 C 86.152344 92.152344 86.148438 90.730469 86.144531 89.308594 C 86.140625 87.96875 86.140625 86.628906 86.140625 85.285156 C 86.140625 84.796875 86.140625 84.308594 86.136719 83.816406 C 86.121094 80.125 86.269531 76.617188 87.976562 73.261719 C 88.613281 72.234375 89.308594 71.273438 90.042969 70.3125 L 90.457031 69.742188 C 91.902344 67.867188 93.890625 66.691406 96.039062 65.753906 C 98.488281 64.789062 100.949219 63.863281 103.425781 62.980469 C 104.578125 62.566406 105.730469 62.152344 106.878906 61.738281 L 107.644531 61.464844 C 111.054688 60.238281 114.460938 58.996094 117.867188 57.757812 L 123.144531 55.835938 C 125.558594 54.957031 127.972656 54.082031 130.386719 53.207031 C 137.28125 50.703125 144.171875 48.183594 151.054688 45.644531 C 158.195312 43.007812 165.355469 40.417969 172.519531 37.847656 C 181.570312 34.601562 190.601562 31.300781 199.632812 28 C 202.421875 26.980469 205.210938 25.964844 208 24.945312 L 208.578125 24.734375 L 217.230469 21.574219 L 217.808594 21.363281 C 220.613281 20.34375 223.414062 19.316406 226.214844 18.292969 C 240.683594 13.007812 240.683594 13.007812 246.257812 10.992188 L 247.617188 10.5 C 248.214844 10.28125 248.816406 10.066406 249.414062 9.847656 L 250.398438 9.492188 C 251.113281 9.25 251.113281 9.25 251.410156 9.25 M 190.636719 111.320312 C 190.667969 118.179688 190.6875 125.042969 190.699219 131.90625 C 190.703125 135.089844 190.714844 138.277344 190.726562 141.464844 C 190.738281 144.242188 190.746094 147.019531 190.75 149.800781 C 190.75 151.269531 190.753906 152.738281 190.761719 154.210938 C 190.769531 155.597656 190.773438 156.980469 190.773438 158.367188 C 190.773438 158.875 190.773438 159.382812 190.777344 159.886719 C 190.808594 163.347656 190.351562 166.183594 188.8125 169.324219 C 187.871094 170.921875 186.625 172.246094 185.328125 173.5625 L 184.8125 174.089844 C 182.574219 176.191406 179.386719 177.078125 176.550781 178.089844 L 175.550781 178.449219 C 174.660156 178.769531 173.765625 179.089844 172.871094 179.410156 C 171.332031 179.960938 169.792969 180.515625 168.257812 181.070312 L 167.066406 181.5 C 162.820312 183.03125 158.585938 184.589844 154.351562 186.15625 C 148.535156 188.304688 142.707031 190.429688 136.867188 192.523438 C 132.367188 194.140625 127.871094 195.765625 123.378906 197.402344 C 119.148438 198.945312 114.917969 200.484375 110.683594 202.015625 L 110.125 202.214844 L 105.164062 204.007812 C 101.59375 205.300781 98.023438 206.59375 94.460938 207.910156 L 93.644531 208.210938 C 92.417969 208.667969 91.191406 209.121094 89.964844 209.582031 L 88.707031 210.046875 L 87.621094 210.453125 C 86.796875 210.734375 86.796875 210.734375 86.207031 210.734375 C 86.195312 204.054688 86.183594 197.375 86.175781 190.691406 C 86.175781 187.589844 86.171875 184.488281 86.164062 181.386719 C 86.15625 178.683594 86.152344 175.980469 86.152344 173.273438 C 86.152344 171.84375 86.148438 170.414062 86.144531 168.980469 C 86.140625 167.632812 86.140625 166.285156 86.140625 164.933594 C 86.140625 164.441406 86.140625 163.949219 86.136719 163.453125 C 86.121094 159.824219 86.332031 156.511719 87.976562 153.207031 C 89.421875 150.746094 91.320312 148.367188 93.75 146.828125 C 97.390625 144.964844 101.269531 143.683594 105.113281 142.324219 C 106.128906 141.960938 107.144531 141.597656 108.15625 141.238281 C 109.753906 140.664062 111.355469 140.09375 112.953125 139.523438 C 115.429688 138.644531 117.898438 137.753906 120.367188 136.863281 L 122.265625 136.175781 C 125.109375 135.148438 127.949219 134.109375 130.785156 133.066406 C 134.472656 131.710938 138.167969 130.378906 141.859375 129.042969 C 149.542969 126.265625 149.542969 126.265625 157.210938 123.449219 C 162.078125 121.652344 166.949219 119.867188 171.824219 118.089844 L 173.636719 117.425781 C 174.792969 117.003906 175.945312 116.582031 177.101562 116.160156 L 177.664062 115.957031 C 180.632812 114.875 183.601562 113.800781 186.578125 112.734375 L 187.429688 112.429688 L 188.167969 112.167969 C 188.675781 111.980469 189.175781 111.785156 189.675781 111.582031 C 190.34375 111.320312 190.34375 111.320312 190.636719 111.320312 "/><path style=" stroke:none;fill-rule:nonzero;fill:#01aef0;fill-opacity:1;" d="M 192.105469 21.296875 L 192.703125 21.636719 L 193 22.226562 C 191.917969 22.675781 190.832031 23.113281 189.742188 23.539062 C 189.191406 23.757812 188.644531 23.980469 188.097656 24.207031 C 185.476562 25.222656 185.476562 25.222656 184.265625 25.101562 C 183.597656 24.882812 183.003906 24.613281 182.378906 24.292969 C 181.996094 24.140625 181.609375 23.992188 181.226562 23.847656 L 180.632812 23.617188 C 169.410156 19.277344 156.851562 16.617188 144.820312 16.5625 L 143.894531 16.558594 C 142.914062 16.550781 141.929688 16.550781 140.949219 16.550781 L 139.929688 16.550781 C 134.746094 16.554688 129.6875 16.710938 124.558594 17.507812 L 123.542969 17.660156 C 111.261719 19.5625 99.277344 23.210938 88.261719 29.007812 C 87.636719 29.332031 87.007812 29.648438 86.378906 29.964844 C 79.324219 33.542969 72.761719 38.050781 66.738281 43.171875 L 66.238281 43.59375 C 63.535156 45.867188 63.535156 45.867188 61.003906 48.320312 C 60.503906 48.816406 59.976562 49.265625 59.4375 49.71875 C 57.964844 50.992188 56.671875 52.429688 55.378906 53.886719 C 55.085938 54.21875 54.789062 54.550781 54.488281 54.882812 C 50.5 59.316406 46.933594 64.101562 43.726562 69.132812 L 43.128906 70.070312 C 32.707031 86.6875 26.300781 106.128906 25.4375 125.773438 C 25.09375 136.398438 25.933594 146.644531 28.09375 157.042969 C 28.179688 157.460938 28.179688 157.460938 28.265625 157.882812 C 32.242188 176.730469 42.179688 194.210938 54.761719 208.59375 C 56.578125 210.613281 58.484375 212.546875 60.394531 214.476562 L 61.171875 215.261719 C 62.933594 217.027344 64.789062 218.617188 66.738281 220.171875 C 67.132812 220.5 67.527344 220.828125 67.921875 221.15625 C 71.835938 224.40625 76.015625 227.191406 80.308594 229.910156 L 79.941406 230.960938 C 78.476562 235.367188 77.539062 239.652344 77.578125 244.308594 L 77.582031 245.316406 C 77.609375 247.792969 77.792969 250.1875 78.242188 252.625 C 68.15625 247.832031 58.65625 241.1875 50.453125 233.613281 C 49.820312 233.035156 49.175781 232.46875 48.527344 231.910156 C 47.105469 230.671875 45.777344 229.34375 44.445312 228.007812 L 43.722656 227.289062 C 42.289062 225.855469 40.914062 224.367188 39.597656 222.828125 C 39.316406 222.503906 39.03125 222.183594 38.746094 221.859375 C 36.535156 219.328125 34.496094 216.695312 32.519531 213.976562 L 32.082031 213.378906 C 23.457031 201.566406 16.859375 188.1875 12.753906 174.152344 L 12.476562 173.210938 C 6.183594 151.445312 5.945312 128.421875 11.308594 106.453125 C 15.292969 90.535156 22.191406 75.289062 31.929688 62.054688 C 32.152344 61.746094 32.375 61.441406 32.605469 61.125 C 35.371094 57.363281 38.359375 53.785156 41.5625 50.382812 C 42.152344 49.75 42.726562 49.097656 43.304688 48.445312 C 45.285156 46.238281 47.371094 44.132812 49.628906 42.207031 C 50.292969 41.632812 50.9375 41.039062 51.582031 40.445312 C 53.410156 38.796875 55.34375 37.292969 57.296875 35.796875 L 57.871094 35.355469 C 76.003906 21.445312 97.4375 12.691406 120.0625 9.621094 C 144.746094 6.542969 169.652344 10.679688 192.105469 21.296875 "/><path style=" stroke:none;fill-rule:nonzero;fill:#02aef0;fill-opacity:1;" d="M 250.523438 78.277344 C 251.605469 79.273438 252.097656 80.449219 252.71875 81.761719 L 253.101562 82.578125 C 258.941406 95.175781 262.792969 108.523438 264.460938 122.308594 L 264.535156 122.921875 C 266.175781 136.632812 265.539062 150.625 262.617188 164.125 L 262.417969 165.078125 C 260.152344 175.804688 256.488281 186.238281 251.425781 195.972656 C 251.09375 196.609375 250.769531 197.25 250.445312 197.894531 C 245.328125 207.910156 238.621094 216.902344 231.054688 225.1875 L 230.265625 226.066406 C 228.074219 228.503906 225.734375 230.75 223.320312 232.964844 C 222.871094 233.375 222.425781 233.789062 221.980469 234.203125 C 219.988281 236.042969 217.863281 237.699219 215.714844 239.347656 L 215.136719 239.789062 C 197.175781 253.570312 175.769531 262.453125 153.332031 265.445312 C 152.296875 265.578125 151.261719 265.703125 150.222656 265.824219 L 149.257812 265.9375 C 147.601562 266.125 145.988281 266.234375 144.324219 266.195312 L 144.777344 265.414062 C 148.355469 259.242188 150.246094 253.472656 151.402344 246.429688 L 152.199219 246.320312 C 170.703125 243.789062 188.25 238.25 203.914062 227.84375 L 204.527344 227.4375 C 208.894531 224.550781 213.058594 221.378906 216.894531 217.8125 C 217.285156 217.46875 217.679688 217.125 218.074219 216.78125 L 219.253906 215.75 L 219.984375 215.113281 C 221.34375 213.914062 222.597656 212.695312 223.765625 211.308594 C 224.289062 210.710938 224.839844 210.160156 225.410156 209.609375 C 226.683594 208.351562 227.789062 206.992188 228.902344 205.597656 C 229.300781 205.109375 229.707031 204.628906 230.117188 204.152344 C 234.585938 198.890625 238.308594 192.953125 241.609375 186.902344 C 241.929688 186.320312 242.253906 185.746094 242.582031 185.171875 C 248.957031 173.789062 252.808594 160.457031 254.652344 147.601562 L 254.785156 146.722656 C 257.605469 127.503906 254.761719 107.433594 247.6875 89.4375 C 246.707031 86.976562 245.675781 84.542969 244.625 82.113281 C 244.84375 82 245.066406 81.882812 245.296875 81.765625 C 247.199219 80.773438 248.875 79.652344 250.523438 78.277344 "/><path style=" stroke:none;fill-rule:nonzero;fill:#00457c;fill-opacity:1;" d="M 125.425781 218.859375 C 130.089844 221.074219 134.042969 224.019531 137.105469 228.226562 C 140.074219 232.542969 141.710938 237.417969 142.160156 242.613281 C 142.503906 247.878906 141.371094 252.730469 139.070312 257.453125 C 138.089844 259.386719 136.910156 261.027344 135.472656 262.652344 L 135.078125 263.175781 C 132.667969 266.304688 129.042969 268.523438 125.464844 270.074219 C 120.246094 272.1875 114.726562 272.660156 109.132812 271.96875 C 104.039062 270.996094 99.464844 268.4375 95.539062 265.121094 C 91.738281 261.699219 89.289062 257.441406 87.683594 252.625 C 86.238281 247.519531 86.117188 242.496094 87.367188 237.328125 C 88.792969 232.140625 91.460938 227.96875 95.195312 224.148438 C 98.855469 220.667969 103.472656 218.46875 108.332031 217.222656 C 114.058594 215.980469 120.019531 216.574219 125.421875 218.859375 "/></g><mask id="d3e95ef2d8"><g filter="url(#fad321f7e2)"><rect x="0" width="375" y="0" height="374.999991" style="fill:#000000;fill-opacity:0.12;stroke:none;"/></g></mask></g></g></svg>