<svg xmlns="http://www.w3.org/2000/svg" xmlns:xlink="http://www.w3.org/1999/xlink" width="500" zoomAndPan="magnify" viewBox="0 0 375 374.999991" height="500" preserveAspectRatio="xMidYMid meet" version="1.2"><defs><filter x="0%" y="0%" width="100%" filterUnits="objectBoundingBox" id="fd6084d4f7" height="100%"><feColorMatrix values="0 0 0 0 1 0 0 0 0 1 0 0 0 0 1 0 0 0 1 0" type="matrix" in="SourceGraphic"/></filter><clipPath id="08b850d695"><rect x="0" width="238" y="0" height="239"/></clipPath></defs><g id="4dc7f3b979"><path style=" stroke:none;fill-rule:nonzero;fill:#82a579;fill-opacity:1;" d="M 154.996094 228.285156 C 156.566406 228.289062 158.140625 228.292969 159.714844 228.292969 C 176.683594 228.316406 193.625 228.558594 210.578125 229.246094 C 212.476562 229.320312 214.371094 229.394531 216.265625 229.46875 C 231.097656 230.042969 245.925781 230.757812 260.75 231.578125 C 261.816406 231.636719 262.878906 231.695312 263.945312 231.75 C 265.609375 231.839844 267.273438 231.933594 268.933594 232.03125 C 269.835938 232.082031 270.734375 232.128906 271.632812 232.175781 C 274.308594 232.335938 276.765625 232.503906 279.285156 233.4375 C 280.144531 234.097656 280.144531 234.097656 280.660156 234.8125 C 281.167969 236.34375 281.179688 237.5 281.183594 239.109375 L 281.1875 240.003906 C 281.191406 240.980469 281.195312 241.957031 281.195312 242.933594 L 281.199219 244.984375 C 281.199219 246.417969 281.203125 247.851562 281.203125 249.285156 C 281.203125 251.109375 281.207031 252.933594 281.214844 254.757812 C 281.21875 256.167969 281.222656 257.582031 281.222656 258.992188 C 281.222656 259.664062 281.222656 260.335938 281.226562 261.007812 C 281.253906 266.300781 281.230469 271.578125 278.609375 276.324219 C 276.515625 279.484375 273.738281 281.652344 270.429688 283.460938 C 253.4375 291.726562 232.191406 292.082031 213.675781 292.121094 L 210.890625 292.128906 C 207.886719 292.140625 204.882812 292.140625 201.882812 292.140625 L 200.308594 292.140625 C 165.535156 292.148438 130.84375 290.597656 96.117188 288.863281 L 94.777344 288.796875 C 90.640625 288.589844 86.503906 288.378906 82.367188 288.132812 L 80.667969 288.035156 C 79.21875 287.914062 77.816406 287.710938 76.386719 287.449219 C 78.058594 276.292969 79.832031 265.152344 81.625 254.015625 C 81.875 252.464844 82.121094 250.914062 82.371094 249.363281 C 82.664062 247.503906 82.964844 245.644531 83.265625 243.785156 C 83.378906 243.089844 83.488281 242.394531 83.601562 241.699219 C 83.753906 240.738281 83.910156 239.773438 84.066406 238.8125 L 84.332031 237.167969 C 84.613281 235.824219 84.957031 234.679688 85.546875 233.4375 C 86.464844 232.523438 86.464844 232.523438 87.328125 232.273438 C 109.59375 228.328125 132.449219 228.230469 154.996094 228.285156 "/><path style=" stroke:none;fill-rule:nonzero;fill:#81b1b4;fill-opacity:1;" d="M 285.0625 146.886719 C 286.050781 146.855469 287.039062 146.832031 288.03125 146.8125 L 289.554688 146.777344 C 290.734375 146.929688 290.734375 146.929688 291.5625 147.554688 C 294.546875 151.644531 294.875 158.734375 295.449219 163.648438 C 296.773438 176.710938 295.5 188.976562 290.21875 200.992188 C 288.613281 204.472656 286.457031 209.058594 283.40625 211.46875 C 282 211.871094 282 211.871094 280.292969 212.183594 L 279.367188 212.355469 C 276.269531 212.917969 273.160156 213.363281 270.039062 213.757812 L 269.144531 213.871094 C 264.03125 214.523438 258.914062 215.019531 253.777344 215.445312 L 252.777344 215.527344 C 244.375 216.226562 235.988281 216.589844 227.558594 216.589844 C 226.230469 216.589844 224.902344 216.597656 223.574219 216.605469 C 212.953125 216.640625 202.390625 215.6875 191.8125 214.789062 C 182.078125 213.960938 172.355469 213.253906 162.597656 212.808594 L 161.324219 212.75 C 157.15625 212.558594 152.988281 212.371094 148.820312 212.210938 C 147.265625 212.152344 145.714844 212.082031 144.160156 212.015625 C 143.433594 211.984375 142.707031 211.957031 141.980469 211.929688 C 140.984375 211.898438 139.988281 211.855469 138.988281 211.808594 L 137.289062 211.742188 L 135.929688 211.46875 C 135.054688 210.628906 135.054688 210.628906 134.554688 209.636719 C 134.480469 208.511719 134.488281 207.386719 134.574219 206.261719 L 134.628906 205.234375 C 134.691406 204.109375 134.765625 202.984375 134.839844 201.855469 C 134.886719 201.066406 134.9375 200.277344 134.984375 199.488281 C 135.085938 197.804688 135.191406 196.125 135.300781 194.441406 C 135.449219 192.183594 135.578125 189.925781 135.699219 187.664062 C 135.800781 185.847656 135.910156 184.03125 136.019531 182.210938 C 136.074219 181.335938 136.125 180.460938 136.171875 179.582031 C 136.449219 174.53125 136.78125 170.316406 139.378906 165.867188 C 143.417969 160.757812 148.699219 157.261719 154.679688 154.804688 C 161.621094 152.140625 168.574219 151.765625 175.929688 151.472656 C 176.925781 151.429688 177.917969 151.386719 178.914062 151.34375 C 181.632812 151.230469 184.347656 151.117188 187.0625 151.003906 C 189.941406 150.886719 192.820312 150.765625 195.699219 150.644531 C 199.398438 150.488281 203.097656 150.332031 206.796875 150.179688 C 215.589844 149.8125 224.378906 149.441406 233.171875 149.0625 C 238.730469 148.824219 244.289062 148.585938 249.847656 148.347656 L 250.941406 148.300781 L 258.550781 147.972656 C 261.667969 147.839844 264.785156 147.707031 267.898438 147.574219 C 269.5 147.507812 271.097656 147.4375 272.699219 147.371094 C 276.816406 147.191406 280.941406 147.039062 285.0625 146.886719 "/><path style=" stroke:none;fill-rule:nonzero;fill:#dd8b40;fill-opacity:1;" d="M 193.636719 74.609375 C 205.285156 74.546875 216.933594 74.5 228.585938 74.46875 C 233.992188 74.453125 239.402344 74.433594 244.8125 74.402344 C 249.527344 74.375 254.238281 74.359375 258.953125 74.351562 C 261.449219 74.347656 263.945312 74.339844 266.441406 74.320312 C 268.792969 74.300781 271.144531 74.296875 273.492188 74.300781 C 274.355469 74.300781 275.214844 74.292969 276.078125 74.285156 C 277.257812 74.269531 278.433594 74.273438 279.613281 74.28125 L 280.644531 74.257812 C 281.609375 74.273438 281.609375 74.273438 283.40625 74.609375 C 285.058594 75.675781 286.300781 76.882812 287.378906 78.519531 C 290.441406 86.03125 290.507812 94.082031 290.449219 102.074219 L 290.445312 103.507812 C 290.378906 122.878906 290.378906 122.878906 288.445312 131.824219 C 286.3125 132.15625 284.167969 132.378906 282.015625 132.496094 L 281.078125 132.546875 C 280.054688 132.605469 279.03125 132.660156 278.007812 132.714844 L 275.789062 132.835938 C 273.789062 132.945312 271.789062 133.054688 269.785156 133.160156 C 268.105469 133.253906 266.429688 133.34375 264.75 133.433594 C 260.78125 133.652344 256.8125 133.867188 252.847656 134.078125 C 248.773438 134.296875 244.703125 134.519531 240.632812 134.742188 C 237.125 134.933594 233.613281 135.125 230.105469 135.3125 C 228.015625 135.425781 225.925781 135.539062 223.835938 135.652344 C 208.898438 136.476562 208.898438 136.476562 203.074219 136.542969 L 201.980469 136.570312 C 199.53125 136.566406 197.714844 136.015625 195.46875 135.03125 C 192.695312 133.179688 190.769531 130.984375 189.257812 128.019531 C 187.160156 123.480469 187.375 118.65625 187.777344 113.742188 C 188.0625 111.011719 188.464844 108.296875 188.871094 105.578125 C 188.992188 104.722656 189.113281 103.867188 189.234375 103.007812 C 189.488281 101.234375 189.746094 99.460938 190.007812 97.6875 C 190.339844 95.414062 190.667969 93.140625 190.992188 90.863281 C 191.304688 88.683594 191.617188 86.503906 191.933594 84.324219 L 192.113281 83.070312 C 192.28125 81.902344 192.453125 80.738281 192.621094 79.574219 L 192.773438 78.527344 C 192.976562 77.167969 193.199219 75.917969 193.636719 74.609375 "/><g mask="url(#96c5121d11)" transform="matrix(1,0,0,1,81,79)"><g clip-path="url(#08b850d695)"><path style=" stroke:none;fill-rule:nonzero;fill:#82a579;fill-opacity:1;" d="M 86.492188 162.492188 C 88.066406 162.496094 89.640625 162.496094 91.214844 162.5 C 108.183594 162.519531 125.125 162.765625 142.078125 163.449219 C 143.972656 163.527344 145.867188 163.601562 147.761719 163.671875 C 162.597656 164.246094 177.425781 164.964844 192.25 165.78125 C 193.3125 165.839844 194.378906 165.898438 195.441406 165.957031 C 197.105469 166.042969 198.769531 166.136719 200.433594 166.234375 C 201.335938 166.285156 202.234375 166.332031 203.132812 166.378906 C 205.804688 166.539062 208.261719 166.707031 210.785156 167.644531 C 211.640625 168.300781 211.640625 168.300781 212.15625 169.015625 C 212.667969 170.546875 212.675781 171.703125 212.683594 173.316406 L 212.6875 174.210938 C 212.691406 175.1875 212.691406 176.164062 212.691406 177.140625 L 212.695312 179.1875 C 212.699219 180.621094 212.699219 182.054688 212.699219 183.488281 C 212.699219 185.3125 212.707031 187.136719 212.714844 188.960938 C 212.71875 190.375 212.722656 191.785156 212.71875 193.199219 C 212.71875 193.871094 212.722656 194.539062 212.726562 195.210938 C 212.753906 200.507812 212.730469 205.78125 210.109375 210.527344 C 208.015625 213.691406 205.238281 215.859375 201.925781 217.664062 C 184.9375 225.933594 163.691406 226.285156 145.175781 226.324219 L 142.390625 226.335938 C 139.386719 226.34375 136.382812 226.347656 133.378906 226.347656 L 131.808594 226.347656 C 97.03125 226.355469 62.34375 224.800781 27.617188 223.066406 L 26.277344 223 C 22.140625 222.792969 18.003906 222.582031 13.867188 222.339844 L 12.167969 222.238281 C 10.71875 222.121094 9.316406 221.917969 7.886719 221.65625 C 9.558594 210.5 11.328125 199.359375 13.121094 188.222656 C 13.371094 186.667969 13.621094 185.117188 13.867188 183.566406 C 14.164062 181.707031 14.464844 179.847656 14.765625 177.988281 C 14.878906 177.292969 14.988281 176.597656 15.097656 175.902344 C 15.253906 174.941406 15.40625 173.980469 15.566406 173.019531 L 15.828125 171.375 C 16.109375 170.027344 16.457031 168.882812 17.046875 167.644531 C 17.960938 166.726562 17.960938 166.726562 18.828125 166.476562 C 41.09375 162.535156 63.949219 162.433594 86.492188 162.492188 "/><path style=" stroke:none;fill-rule:nonzero;fill:#81b1b4;fill-opacity:1;" d="M 216.5625 81.089844 C 217.550781 81.058594 218.539062 81.035156 219.527344 81.015625 L 221.054688 80.984375 C 222.234375 81.136719 222.234375 81.136719 223.058594 81.757812 C 226.046875 85.847656 226.375 92.9375 226.949219 97.855469 C 228.273438 110.914062 227 123.179688 221.71875 135.199219 C 220.113281 138.679688 217.957031 143.261719 214.90625 145.671875 C 213.496094 146.074219 213.496094 146.074219 211.792969 146.390625 L 210.867188 146.558594 C 207.769531 147.121094 204.660156 147.566406 201.539062 147.960938 L 200.640625 148.078125 C 195.53125 148.726562 190.410156 149.222656 185.277344 149.648438 L 184.277344 149.734375 C 175.875 150.429688 167.488281 150.792969 159.054688 150.792969 C 157.726562 150.792969 156.402344 150.800781 155.074219 150.8125 C 144.453125 150.84375 133.886719 149.890625 123.3125 148.992188 C 113.578125 148.167969 103.855469 147.457031 94.09375 147.011719 L 92.824219 146.953125 C 88.65625 146.761719 84.488281 146.574219 80.316406 146.417969 C 78.765625 146.355469 77.214844 146.289062 75.660156 146.21875 C 74.933594 146.1875 74.207031 146.160156 73.480469 146.136719 C 72.484375 146.101562 71.484375 146.058594 70.488281 146.011719 L 68.789062 145.949219 L 67.425781 145.671875 C 66.554688 144.832031 66.554688 144.832031 66.054688 143.84375 C 65.980469 142.71875 65.988281 141.589844 66.070312 140.46875 L 66.125 139.4375 C 66.191406 138.3125 66.265625 137.1875 66.339844 136.0625 C 66.386719 135.273438 66.433594 134.480469 66.480469 133.691406 C 66.582031 132.011719 66.691406 130.328125 66.800781 128.648438 C 66.945312 126.390625 67.074219 124.128906 67.199219 121.871094 C 67.300781 120.050781 67.410156 118.234375 67.519531 116.417969 C 67.574219 115.539062 67.621094 114.664062 67.667969 113.785156 C 67.945312 108.738281 68.277344 104.519531 70.878906 100.070312 C 74.917969 94.960938 80.195312 91.464844 86.179688 89.007812 C 93.117188 86.34375 100.074219 85.96875 107.429688 85.675781 C 108.421875 85.632812 109.417969 85.59375 110.414062 85.550781 C 113.128906 85.433594 115.847656 85.320312 118.5625 85.210938 C 121.441406 85.09375 124.320312 84.96875 127.199219 84.847656 C 130.898438 84.691406 134.597656 84.535156 138.296875 84.382812 C 147.085938 84.019531 155.878906 83.644531 164.671875 83.265625 C 170.230469 83.027344 175.789062 82.789062 181.34375 82.550781 L 182.4375 82.503906 L 190.050781 82.179688 C 193.167969 82.042969 196.28125 81.910156 199.398438 81.777344 C 200.996094 81.710938 202.597656 81.644531 204.195312 81.574219 C 208.316406 81.394531 212.4375 81.242188 216.5625 81.089844 "/><path style=" stroke:none;fill-rule:nonzero;fill:#dd8b40;fill-opacity:1;" d="M 125.136719 8.816406 C 136.785156 8.75 148.433594 8.703125 160.082031 8.675781 C 165.492188 8.660156 170.902344 8.640625 176.308594 8.609375 C 181.023438 8.582031 185.738281 8.5625 190.453125 8.558594 C 192.949219 8.554688 195.445312 8.546875 197.941406 8.523438 C 200.292969 8.507812 202.640625 8.5 204.992188 8.503906 C 205.855469 8.503906 206.714844 8.5 207.578125 8.488281 C 208.757812 8.476562 209.933594 8.476562 211.113281 8.484375 L 212.144531 8.460938 C 213.109375 8.476562 213.109375 8.476562 214.90625 8.816406 C 216.558594 9.878906 217.800781 11.085938 218.878906 12.726562 C 221.941406 20.234375 222.007812 28.289062 221.949219 36.277344 L 221.941406 37.714844 C 221.878906 57.082031 221.878906 57.082031 219.945312 66.03125 C 217.8125 66.359375 215.667969 66.582031 213.511719 66.699219 L 212.578125 66.75 C 211.554688 66.808594 210.53125 66.863281 209.503906 66.917969 L 207.289062 67.039062 C 205.289062 67.148438 203.285156 67.257812 201.285156 67.367188 C 199.605469 67.457031 197.929688 67.546875 196.25 67.640625 C 192.28125 67.855469 188.3125 68.070312 184.34375 68.28125 C 180.273438 68.503906 176.203125 68.722656 172.132812 68.945312 C 168.625 69.140625 165.113281 69.328125 161.601562 69.519531 C 159.511719 69.628906 157.425781 69.742188 155.335938 69.859375 C 140.398438 70.679688 140.398438 70.679688 134.574219 70.75 L 133.480469 70.773438 C 131.03125 70.773438 129.210938 70.21875 126.96875 69.234375 C 124.195312 67.382812 122.269531 65.191406 120.757812 62.226562 C 118.660156 57.683594 118.875 52.859375 119.277344 47.949219 C 119.5625 45.214844 119.964844 42.5 120.367188 39.78125 C 120.492188 38.925781 120.613281 38.070312 120.734375 37.214844 C 120.988281 35.4375 121.246094 33.664062 121.503906 31.890625 C 121.839844 29.617188 122.164062 27.34375 122.492188 25.070312 C 122.800781 22.890625 123.117188 20.707031 123.429688 18.527344 L 123.613281 17.273438 C 123.78125 16.109375 123.949219 14.941406 124.121094 13.777344 L 124.273438 12.730469 C 124.472656 11.371094 124.699219 10.121094 125.136719 8.816406 "/></g><mask id="96c5121d11"><g filter="url(#fd6084d4f7)"><rect x="0" width="375" y="0" height="374.999991" style="fill:#000000;fill-opacity:0.17;stroke:none;"/></g></mask></g></g></svg>