<svg xmlns="http://www.w3.org/2000/svg" xmlns:xlink="http://www.w3.org/1999/xlink" width="500" zoomAndPan="magnify" viewBox="0 0 375 374.999991" height="500" preserveAspectRatio="xMidYMid meet" version="1.2"><defs><filter x="0%" y="0%" width="100%" filterUnits="objectBoundingBox" id="b4420fbc15" height="100%"><feColorMatrix values="0 0 0 0 1 0 0 0 0 1 0 0 0 0 1 0 0 0 1 0" type="matrix" in="SourceGraphic"/></filter><clipPath id="2e254b0332"><rect x="0" width="207" y="0" height="259"/></clipPath></defs><g id="df1cc88e53"><path style=" stroke:none;fill-rule:nonzero;fill:#e64c52;fill-opacity:1;" d="M 263.601562 68.824219 C 269.699219 70.695312 274.328125 74.753906 278.925781 79.050781 C 283.253906 83.839844 285.394531 89.007812 287.429688 95.113281 C 287.539062 96.878906 287.597656 98.648438 287.597656 100.421875 L 287.621094 103.707031 L 287.625 107.304688 L 287.640625 111.101562 C 287.660156 115.265625 287.671875 119.425781 287.675781 123.585938 L 287.695312 132.277344 C 287.707031 138.371094 287.714844 144.460938 287.71875 150.546875 C 287.726562 158.3125 287.757812 166.078125 287.789062 173.839844 C 287.8125 179.835938 287.820312 185.832031 287.824219 191.828125 C 287.824219 194.6875 287.835938 197.546875 287.851562 200.40625 C 287.96875 222.546875 286.953125 241.804688 276.472656 261.867188 C 267.449219 277.3125 255.015625 291.25 239.46875 300.308594 L 236.304688 302.035156 L 233.410156 303.722656 C 217.574219 312.410156 199.449219 314.832031 181.636719 314.535156 C 163.101562 313.824219 147.113281 306.992188 131.554688 297.277344 C 117.429688 287.519531 106.894531 275.734375 98.765625 260.652344 L 96.671875 256.855469 C 93.109375 249.855469 90.796875 243 89.460938 235.265625 L 88.988281 232.546875 C 87.425781 222.804688 87.277344 213.175781 87.324219 203.328125 C 87.324219 201.417969 87.320312 199.511719 87.3125 197.601562 C 87.308594 193.644531 87.316406 189.691406 87.332031 185.734375 C 87.355469 180.691406 87.34375 175.648438 87.320312 170.605469 C 87.308594 166.679688 87.3125 162.757812 87.320312 158.832031 C 87.324219 156.972656 87.320312 155.113281 87.3125 153.253906 C 87.242188 133.898438 87.242188 133.898438 91.460938 125.542969 C 96.050781 119.335938 101.945312 113.8125 108.804688 110.175781 C 116.164062 107.4375 123.921875 107.636719 131.628906 108.503906 C 138.871094 110.328125 144.742188 114.332031 150.136719 119.425781 C 154.269531 124.09375 156.160156 128.136719 158.40625 134.0625 L 159.625 151.105469 L 215.613281 151.105469 L 215.710938 138.664062 C 215.757812 134.667969 215.8125 130.671875 215.867188 126.675781 C 215.902344 123.910156 215.925781 121.140625 215.945312 118.375 C 215.972656 114.386719 216.027344 110.398438 216.089844 106.410156 L 216.09375 102.691406 C 216.234375 95.871094 217.082031 90.851562 220.445312 84.871094 C 224.460938 78.695312 229.878906 73.644531 236.382812 70.160156 C 244.914062 66.828125 254.695312 67.347656 263.601562 68.824219 M 242.867188 93.886719 C 239.574219 97.414062 239.574219 97.414062 239.203125 102.351562 C 239.175781 104.261719 239.179688 106.175781 239.214844 108.085938 L 239.191406 111.261719 C 239.175781 114.714844 239.199219 118.171875 239.226562 121.625 C 239.21875 124.03125 239.210938 126.4375 239.195312 128.84375 C 239.167969 135.171875 239.175781 141.5 239.1875 147.828125 C 239.210938 157.957031 239.199219 168.085938 239.15625 178.21875 C 239.148438 181.753906 239.164062 185.289062 239.183594 188.828125 C 239.179688 190.996094 239.175781 193.167969 239.171875 195.339844 L 239.203125 198.3125 C 239.175781 202.558594 238.855469 205.632812 237.039062 209.503906 C 235.089844 211.964844 235.089844 211.964844 232.65625 213.179688 C 225.734375 213.628906 225.734375 213.628906 222.917969 213.179688 C 220.371094 211.816406 220.371094 211.816406 218.046875 209.527344 C 217.382812 205.988281 217.382812 205.988281 217.304688 201.71875 L 217.1875 197.09375 L 217.136719 192.261719 C 217.101562 190.632812 217.066406 189.007812 217.027344 187.382812 C 216.941406 183.40625 216.882812 179.425781 216.832031 175.449219 L 197.355469 175.449219 L 197.21875 181.890625 C 197.136719 184.6875 197.058594 187.484375 196.976562 190.28125 L 196.894531 194.527344 L 196.761719 198.625 L 196.664062 202.390625 C 196.0625 206.375 194.84375 208.722656 192.488281 211.964844 C 190.054688 213.179688 190.054688 213.179688 186.023438 213.5625 C 181.53125 213.179688 181.53125 213.179688 178.261719 211.203125 L 175.445312 208.3125 C 174.644531 204.742188 174.644531 204.742188 174.585938 200.648438 L 174.480469 196.203125 L 174.457031 191.574219 L 174.363281 186.890625 C 174.296875 183.078125 174.253906 179.261719 174.230469 175.449219 L 158.40625 175.449219 L 158.3125 182.773438 C 158.261719 185.121094 158.207031 187.464844 158.152344 189.808594 C 158.101562 192.234375 158.078125 194.664062 158.050781 197.09375 L 157.929688 201.71875 L 157.855469 205.984375 L 157.1875 209.527344 C 154.859375 211.808594 154.859375 211.808594 152.320312 213.179688 C 148.992188 213.902344 145.925781 213.816406 142.582031 213.179688 C 139.625 210.902344 138.152344 209.1875 136.496094 205.878906 C 136.394531 203.734375 136.351562 201.585938 136.363281 199.441406 L 136.359375 195.367188 L 136.371094 190.941406 L 136.3125 181.730469 C 136.285156 176.875 136.269531 172.019531 136.285156 167.164062 C 136.292969 162.484375 136.257812 157.808594 136.21875 153.132812 L 136.261719 148.734375 C 136.207031 144.925781 136.074219 141.441406 135.28125 137.714844 C 133.09375 134.464844 131.519531 133.570312 127.976562 131.628906 C 123.363281 130.980469 120.46875 131.261719 116.109375 132.847656 C 113.007812 135.601562 111.835938 138.175781 110.464844 142.050781 C 109.03125 147.753906 109.226562 153.503906 109.277344 159.351562 L 109.273438 163.503906 C 109.277344 166.394531 109.289062 169.285156 109.308594 172.179688 C 109.335938 176.535156 109.335938 180.894531 109.328125 185.253906 C 109.355469 209.730469 109.710938 233.152344 122.175781 254.96875 C 125.953125 260.675781 130.464844 265.546875 135.28125 270.386719 L 137.191406 272.429688 C 145.859375 280.847656 159.101562 286.550781 170.578125 289.863281 C 183.179688 292.5 196.292969 292.144531 208.640625 288.527344 L 211.960938 287.429688 L 215.09375 286.445312 C 228.28125 281.789062 239.464844 272.398438 248.476562 261.867188 C 256.921875 250.464844 262.53125 238.246094 264.300781 224.136719 C 264.59375 220.4375 264.789062 216.738281 264.972656 213.03125 L 265.128906 209.789062 C 265.640625 198.46875 265.644531 187.167969 265.542969 175.835938 L 265.515625 172.597656 C 265.472656 166.96875 265.417969 161.339844 265.359375 155.714844 C 265.296875 149.929688 265.265625 144.144531 265.238281 138.359375 C 265.214844 133.875 265.167969 129.386719 265.117188 124.898438 C 265.097656 122.761719 265.085938 120.628906 265.078125 118.496094 C 265.070312 115.523438 265.03125 112.558594 264.984375 109.585938 L 264.996094 106.953125 C 264.894531 102.410156 264.207031 99.8125 261.976562 95.804688 C 259.75 92.628906 259.75 92.628906 257 91.460938 C 254.519531 91.082031 254.519531 91.082031 251.75 91.003906 L 248.949219 90.824219 C 245.785156 91.304688 245.785156 91.304688 242.867188 93.886719 "/><g mask="url(#2c4a6d466f)" transform="matrix(1,0,0,1,93,68)"><g clip-path="url(#2e254b0332)"><path style=" stroke:none;fill-rule:nonzero;fill:#e64c52;fill-opacity:1;" d="M 180.15625 10.859375 C 186.253906 12.726562 190.882812 16.789062 195.480469 21.085938 C 199.808594 25.875 201.949219 31.039062 203.984375 37.144531 C 204.09375 38.914062 204.152344 40.683594 204.152344 42.453125 L 204.175781 45.738281 L 204.179688 49.339844 L 204.195312 53.136719 C 204.214844 57.296875 204.226562 61.457031 204.230469 65.617188 L 204.25 74.3125 C 204.261719 80.402344 204.269531 86.492188 204.273438 92.582031 C 204.28125 100.347656 204.3125 108.109375 204.347656 115.871094 C 204.367188 121.867188 204.375 127.867188 204.378906 133.863281 C 204.378906 136.722656 204.390625 139.582031 204.40625 142.4375 C 204.523438 164.578125 203.507812 183.839844 193.027344 203.902344 C 184.003906 219.34375 171.570312 233.28125 156.023438 242.34375 L 152.859375 244.066406 L 149.964844 245.757812 C 134.128906 254.445312 116.003906 256.867188 98.191406 256.570312 C 79.660156 255.855469 63.667969 249.023438 48.109375 239.308594 C 33.984375 229.550781 23.449219 217.765625 15.320312 202.683594 L 13.226562 198.890625 C 9.664062 191.886719 7.351562 185.03125 6.015625 177.300781 L 5.542969 174.578125 C 3.980469 164.835938 3.832031 155.207031 3.878906 145.363281 C 3.878906 143.453125 3.875 141.542969 3.867188 139.632812 C 3.863281 135.679688 3.871094 131.722656 3.886719 127.765625 C 3.910156 122.722656 3.898438 117.679688 3.875 112.636719 C 3.863281 108.714844 3.867188 104.789062 3.875 100.863281 C 3.878906 99.003906 3.875 97.144531 3.867188 95.285156 C 3.796875 75.933594 3.796875 75.933594 8.015625 67.574219 C 12.605469 61.367188 18.5 55.84375 25.359375 52.210938 C 32.71875 49.46875 40.476562 49.667969 48.183594 50.535156 C 55.425781 52.359375 61.296875 56.363281 66.691406 61.457031 C 70.824219 66.128906 72.714844 70.167969 74.960938 76.097656 L 76.179688 93.136719 L 132.167969 93.136719 L 132.265625 80.699219 C 132.3125 76.703125 132.367188 72.707031 132.421875 68.710938 C 132.457031 65.941406 132.480469 63.175781 132.5 60.40625 C 132.527344 56.417969 132.582031 52.433594 132.644531 48.441406 L 132.648438 44.722656 C 132.789062 37.902344 133.636719 32.886719 137 26.90625 C 141.015625 20.726562 146.4375 15.675781 152.9375 12.195312 C 161.46875 8.859375 171.25 9.382812 180.15625 10.859375 M 159.421875 35.917969 C 156.128906 39.445312 156.128906 39.445312 155.757812 44.382812 C 155.734375 46.296875 155.734375 48.207031 155.769531 50.117188 L 155.746094 53.292969 C 155.730469 56.75 155.753906 60.203125 155.78125 63.65625 C 155.773438 66.0625 155.765625 68.46875 155.75 70.875 C 155.722656 77.203125 155.730469 83.53125 155.742188 89.863281 C 155.765625 99.992188 155.753906 110.121094 155.710938 120.25 C 155.703125 123.789062 155.71875 127.324219 155.738281 130.859375 C 155.734375 133.03125 155.730469 135.203125 155.726562 137.371094 L 155.757812 140.34375 C 155.730469 144.59375 155.410156 147.664062 153.59375 151.535156 C 151.644531 153.996094 151.644531 153.996094 149.210938 155.214844 C 142.289062 155.660156 142.289062 155.660156 139.472656 155.214844 C 136.925781 153.851562 136.925781 153.851562 134.601562 151.5625 C 133.9375 148.019531 133.9375 148.019531 133.859375 143.75 L 133.742188 139.125 L 133.691406 134.292969 C 133.65625 132.667969 133.621094 131.042969 133.582031 129.417969 C 133.496094 125.4375 133.4375 121.460938 133.386719 117.480469 L 113.910156 117.480469 L 113.773438 123.921875 C 113.691406 126.71875 113.613281 129.515625 113.53125 132.316406 L 113.449219 136.558594 L 113.316406 140.660156 L 113.21875 144.425781 C 112.617188 148.40625 111.398438 150.757812 109.042969 153.996094 C 106.609375 155.214844 106.609375 155.214844 102.578125 155.59375 C 98.085938 155.214844 98.085938 155.214844 94.816406 153.234375 L 92 150.34375 C 91.199219 146.773438 91.199219 146.773438 91.140625 142.679688 L 91.035156 138.234375 L 91.011719 133.609375 L 90.917969 128.925781 C 90.851562 125.109375 90.808594 121.296875 90.785156 117.480469 L 74.960938 117.480469 L 74.867188 124.808594 C 74.816406 127.152344 74.761719 129.496094 74.707031 131.839844 C 74.65625 134.269531 74.632812 136.699219 74.605469 139.125 L 74.484375 143.75 L 74.410156 148.019531 L 73.742188 151.5625 C 71.414062 153.84375 71.414062 153.84375 68.875 155.214844 C 65.546875 155.933594 62.480469 155.851562 59.136719 155.214844 C 56.179688 152.9375 54.707031 151.21875 53.050781 147.910156 C 52.949219 145.765625 52.90625 143.621094 52.917969 141.472656 L 52.914062 137.398438 L 52.925781 132.976562 L 52.871094 123.765625 C 52.839844 118.90625 52.824219 114.050781 52.839844 109.195312 C 52.851562 104.519531 52.8125 99.84375 52.773438 95.167969 L 52.816406 90.765625 C 52.761719 86.957031 52.628906 83.476562 51.835938 79.746094 C 49.648438 76.5 48.074219 75.605469 44.53125 73.660156 C 39.917969 73.015625 37.023438 73.292969 32.664062 74.878906 C 29.5625 77.636719 28.390625 80.210938 27.019531 84.082031 C 25.585938 89.789062 25.78125 95.535156 25.832031 101.386719 L 25.828125 105.535156 C 25.832031 108.425781 25.84375 111.320312 25.863281 114.210938 C 25.894531 118.570312 25.890625 122.925781 25.882812 127.289062 C 25.910156 151.765625 26.265625 175.1875 38.730469 197.003906 C 42.507812 202.710938 47.019531 207.578125 51.835938 212.421875 L 53.746094 214.460938 C 62.414062 222.878906 75.65625 228.582031 87.132812 231.894531 C 99.734375 234.53125 112.847656 234.175781 125.195312 230.558594 L 128.515625 229.460938 L 131.652344 228.476562 C 144.835938 223.820312 156.019531 214.429688 165.03125 203.902344 C 173.476562 192.5 179.085938 180.277344 180.855469 166.167969 C 181.148438 162.46875 181.34375 158.769531 181.527344 155.066406 L 181.683594 151.824219 C 182.195312 140.5 182.199219 129.199219 182.097656 117.871094 L 182.070312 114.628906 C 182.027344 109 181.972656 103.375 181.914062 97.746094 C 181.851562 91.960938 181.820312 86.179688 181.792969 80.394531 C 181.769531 75.90625 181.722656 71.417969 181.671875 66.929688 C 181.652344 64.796875 181.640625 62.660156 181.632812 60.527344 C 181.625 57.558594 181.585938 54.589844 181.539062 51.621094 L 181.550781 48.988281 C 181.449219 44.445312 180.761719 41.847656 178.53125 37.839844 C 176.304688 34.660156 176.304688 34.660156 173.554688 33.496094 C 171.074219 33.113281 171.074219 33.113281 168.304688 33.039062 L 165.503906 32.859375 C 162.339844 33.335938 162.339844 33.335938 159.421875 35.917969 "/></g><mask id="2c4a6d466f"><g filter="url(#b4420fbc15)"><rect x="0" width="375" y="0" height="374.999991" style="fill:#000000;fill-opacity:0.14;stroke:none;"/></g></mask></g></g></svg>