<svg xmlns="http://www.w3.org/2000/svg" xmlns:xlink="http://www.w3.org/1999/xlink" width="500" zoomAndPan="magnify" viewBox="0 0 375 374.999991" height="500" preserveAspectRatio="xMidYMid meet" version="1.2"><defs><filter x="0%" y="0%" width="100%" filterUnits="objectBoundingBox" id="64590427ec" height="100%"><feColorMatrix values="0 0 0 0 1 0 0 0 0 1 0 0 0 0 1 0 0 0 1 0" type="matrix" in="SourceGraphic"/></filter><clipPath id="3887c87917"><rect x="0" width="291" y="0" height="362"/></clipPath></defs><g id="3c35fda448"><path style=" stroke:none;fill-rule:nonzero;fill:#e64c52;fill-opacity:1;" d="M 287.554688 13.292969 C 296.128906 15.921875 302.644531 21.632812 309.113281 27.679688 C 315.203125 34.417969 318.210938 41.6875 321.074219 50.277344 C 321.230469 52.765625 321.3125 55.253906 321.3125 57.746094 L 321.34375 62.367188 L 321.351562 67.433594 L 321.375 72.773438 C 321.398438 78.628906 321.414062 84.480469 321.421875 90.335938 L 321.453125 102.566406 C 321.46875 111.136719 321.480469 119.703125 321.484375 128.273438 C 321.496094 139.199219 321.535156 150.117188 321.585938 161.039062 C 321.617188 169.476562 321.625 177.914062 321.628906 186.351562 C 321.632812 190.371094 321.648438 194.394531 321.671875 198.417969 C 321.832031 229.566406 320.410156 256.664062 305.660156 284.890625 C 292.964844 306.617188 275.46875 326.226562 253.597656 338.972656 L 249.148438 341.402344 L 245.074219 343.777344 C 222.792969 356 197.292969 359.40625 172.234375 358.992188 C 146.15625 357.988281 123.664062 348.375 101.773438 334.707031 C 81.898438 320.976562 67.078125 304.398438 55.636719 283.179688 L 52.691406 277.839844 C 47.683594 267.988281 44.425781 258.34375 42.546875 247.464844 L 41.886719 243.636719 C 39.683594 229.929688 39.476562 216.382812 39.542969 202.53125 C 39.539062 199.84375 39.535156 197.15625 39.527344 194.472656 C 39.519531 188.90625 39.53125 183.339844 39.554688 177.773438 C 39.585938 170.679688 39.566406 163.582031 39.539062 156.488281 C 39.515625 150.96875 39.523438 145.445312 39.539062 139.925781 C 39.542969 137.308594 39.539062 134.695312 39.523438 132.078125 C 39.425781 104.847656 39.425781 104.847656 45.363281 93.089844 C 51.820312 84.355469 60.113281 76.585938 69.765625 71.46875 C 80.117188 67.617188 91.03125 67.894531 101.875 69.117188 C 112.0625 71.683594 120.328125 77.316406 127.917969 84.480469 C 133.730469 91.054688 136.386719 96.738281 139.550781 105.078125 L 141.261719 129.054688 L 220.035156 129.054688 L 220.171875 111.554688 C 220.238281 105.929688 220.3125 100.308594 220.394531 94.683594 C 220.441406 90.792969 220.476562 86.898438 220.5 83.003906 C 220.539062 77.394531 220.617188 71.785156 220.707031 66.171875 L 220.710938 60.9375 C 220.910156 51.34375 222.105469 44.28125 226.832031 35.871094 C 232.484375 27.179688 240.109375 20.074219 249.253906 15.171875 C 261.261719 10.484375 275.023438 11.214844 287.554688 13.292969 M 258.378906 48.550781 C 253.746094 53.511719 253.746094 53.511719 253.226562 60.460938 C 253.1875 63.148438 253.191406 65.839844 253.238281 68.53125 L 253.210938 72.996094 C 253.1875 77.859375 253.222656 82.71875 253.257812 87.578125 C 253.25 90.964844 253.234375 94.347656 253.214844 97.734375 C 253.175781 106.636719 253.183594 115.539062 253.203125 124.445312 C 253.234375 138.695312 253.21875 152.949219 253.160156 167.199219 C 253.148438 172.175781 253.171875 177.148438 253.199219 182.125 C 253.191406 185.179688 253.1875 188.234375 253.179688 191.289062 L 253.226562 195.472656 C 253.183594 201.449219 252.734375 205.769531 250.183594 211.21875 C 247.4375 214.679688 247.4375 214.679688 244.011719 216.390625 C 234.273438 217.019531 234.273438 217.019531 230.3125 216.390625 C 226.730469 214.472656 226.730469 214.472656 223.460938 211.253906 C 222.527344 206.269531 222.527344 206.269531 222.417969 200.261719 L 222.25 193.757812 L 222.175781 186.957031 C 222.128906 184.667969 222.078125 182.382812 222.023438 180.097656 C 221.902344 174.5 221.820312 168.902344 221.75 163.304688 L 194.347656 163.304688 L 194.15625 172.367188 C 194.042969 176.300781 193.929688 180.238281 193.8125 184.171875 L 193.695312 190.144531 L 193.515625 195.914062 L 193.375 201.210938 C 192.53125 206.8125 190.816406 210.121094 187.5 214.679688 C 184.074219 216.390625 184.074219 216.390625 178.402344 216.925781 C 172.085938 216.390625 172.085938 216.390625 167.488281 213.605469 L 163.523438 209.539062 C 162.394531 204.519531 162.394531 204.519531 162.3125 198.757812 L 162.164062 192.503906 L 162.132812 185.992188 L 162.003906 179.402344 C 161.90625 174.039062 161.84375 168.671875 161.8125 163.304688 L 139.550781 163.304688 L 139.414062 173.613281 C 139.34375 176.910156 139.269531 180.207031 139.191406 183.507812 C 139.121094 186.921875 139.085938 190.339844 139.046875 193.757812 L 138.878906 200.261719 L 138.773438 206.269531 L 137.835938 211.253906 C 134.5625 214.460938 134.5625 214.460938 130.988281 216.390625 C 126.308594 217.40625 121.988281 217.289062 117.285156 216.390625 C 113.125 213.1875 111.054688 210.773438 108.722656 206.117188 C 108.582031 203.097656 108.519531 200.078125 108.535156 197.058594 L 108.53125 191.328125 L 108.542969 185.101562 L 108.46875 172.144531 C 108.429688 165.308594 108.402344 158.480469 108.425781 151.644531 C 108.441406 145.066406 108.390625 138.488281 108.332031 131.910156 L 108.394531 125.71875 C 108.316406 120.359375 108.128906 115.460938 107.011719 110.214844 C 103.9375 105.644531 101.722656 104.386719 96.738281 101.652344 C 90.246094 100.742188 86.175781 101.132812 80.039062 103.367188 C 75.679688 107.242188 74.027344 110.863281 72.097656 116.316406 C 70.082031 124.34375 70.355469 132.429688 70.429688 140.660156 L 70.425781 146.496094 C 70.429688 150.566406 70.445312 154.632812 70.472656 158.703125 C 70.511719 164.832031 70.507812 170.964844 70.5 177.101562 C 70.539062 211.539062 71.039062 244.492188 88.574219 275.183594 C 93.890625 283.214844 100.234375 290.066406 107.011719 296.878906 L 109.699219 299.746094 C 121.898438 311.59375 140.527344 319.617188 156.675781 324.277344 C 174.402344 327.988281 192.851562 327.484375 210.222656 322.398438 L 214.898438 320.851562 L 219.308594 319.46875 C 237.859375 312.914062 253.589844 299.707031 266.273438 284.890625 C 278.152344 268.847656 286.046875 251.652344 288.535156 231.804688 C 288.945312 226.601562 289.222656 221.394531 289.480469 216.179688 L 289.703125 211.621094 C 290.421875 195.691406 290.425781 179.789062 290.285156 163.851562 L 290.246094 159.289062 C 290.183594 151.375 290.109375 143.457031 290.023438 135.539062 C 289.9375 127.402344 289.894531 119.261719 289.855469 111.125 C 289.824219 104.8125 289.757812 98.496094 289.6875 92.179688 C 289.65625 89.179688 289.636719 86.175781 289.632812 83.171875 C 289.621094 78.996094 289.5625 74.820312 289.5 70.640625 L 289.515625 66.9375 C 289.371094 60.542969 288.40625 56.890625 285.265625 51.253906 C 282.128906 46.78125 282.128906 46.78125 278.261719 45.140625 C 274.773438 44.605469 274.773438 44.605469 270.878906 44.5 L 266.9375 44.246094 C 262.488281 44.917969 262.488281 44.917969 258.378906 48.550781 "/><g mask="url(#c754f6ab60)" transform="matrix(1,0,0,1,49,13)"><g clip-path="url(#3887c87917)"><path style=" stroke:none;fill-rule:nonzero;fill:#e64c52;fill-opacity:1;" d="M 252.003906 14.414062 C 260.578125 17.042969 267.089844 22.757812 273.5625 28.804688 C 279.652344 35.539062 282.660156 42.808594 285.523438 51.398438 C 285.679688 53.886719 285.757812 56.375 285.761719 58.867188 L 285.792969 63.488281 L 285.800781 68.554688 L 285.824219 73.898438 C 285.847656 79.75 285.863281 85.605469 285.871094 91.457031 L 285.898438 103.6875 C 285.917969 112.257812 285.929688 120.828125 285.933594 129.394531 C 285.945312 140.320312 285.984375 151.242188 286.035156 162.164062 C 286.066406 170.597656 286.074219 179.035156 286.078125 187.472656 C 286.082031 191.496094 286.097656 195.519531 286.117188 199.539062 C 286.28125 230.691406 284.855469 257.785156 270.109375 286.011719 C 257.414062 307.742188 239.917969 327.351562 218.046875 340.097656 L 213.597656 342.523438 L 209.523438 344.898438 C 187.242188 357.125 161.742188 360.53125 136.683594 360.113281 C 110.605469 359.109375 88.109375 349.5 66.222656 335.828125 C 46.347656 322.101562 31.523438 305.519531 20.085938 284.300781 L 17.140625 278.960938 C 12.132812 269.113281 8.875 259.464844 6.996094 248.585938 L 6.335938 244.757812 C 4.132812 231.050781 3.925781 217.503906 3.992188 203.652344 C 3.988281 200.964844 3.980469 198.28125 3.972656 195.59375 C 3.96875 190.027344 3.976562 184.460938 4.003906 178.898438 C 4.03125 171.800781 4.015625 164.707031 3.988281 157.609375 C 3.964844 152.089844 3.972656 146.570312 3.988281 141.046875 C 3.992188 138.433594 3.988281 135.816406 3.972656 133.199219 C 3.875 105.96875 3.875 105.96875 9.8125 94.210938 C 16.269531 85.480469 24.5625 77.707031 34.214844 72.59375 C 44.5625 68.738281 55.480469 69.019531 66.324219 70.238281 C 76.511719 72.804688 84.773438 78.4375 92.363281 85.605469 C 98.179688 92.175781 100.835938 97.863281 104 106.199219 L 105.710938 130.175781 L 184.484375 130.175781 L 184.621094 112.675781 C 184.6875 107.054688 184.761719 101.429688 184.84375 95.808594 C 184.890625 91.914062 184.925781 88.019531 184.949219 84.128906 C 184.988281 78.515625 185.066406 72.90625 185.15625 67.292969 L 185.160156 62.058594 C 185.355469 52.464844 186.550781 45.40625 191.28125 36.992188 C 196.933594 28.300781 204.558594 21.195312 213.703125 16.292969 C 225.707031 11.605469 239.46875 12.335938 252.003906 14.414062 M 222.828125 49.671875 C 218.195312 54.636719 218.195312 54.636719 217.675781 61.582031 C 217.636719 64.273438 217.640625 66.960938 217.6875 69.652344 L 217.660156 74.121094 C 217.636719 78.980469 217.671875 83.839844 217.703125 88.699219 C 217.695312 92.085938 217.683594 95.46875 217.664062 98.855469 C 217.625 107.757812 217.632812 116.660156 217.652344 125.566406 C 217.683594 139.816406 217.667969 154.070312 217.609375 168.324219 C 217.597656 173.300781 217.621094 178.273438 217.648438 183.25 C 217.640625 186.300781 217.636719 189.355469 217.628906 192.410156 L 217.675781 196.59375 C 217.632812 202.570312 217.183594 206.894531 214.628906 212.339844 C 211.886719 215.800781 211.886719 215.800781 208.460938 217.511719 C 198.722656 218.140625 198.722656 218.140625 194.761719 217.511719 C 191.179688 215.59375 191.179688 215.59375 187.910156 212.375 C 186.976562 207.390625 186.976562 207.390625 186.867188 201.382812 L 186.699219 194.878906 L 186.625 188.078125 C 186.578125 185.792969 186.527344 183.503906 186.472656 181.21875 C 186.351562 175.621094 186.269531 170.023438 186.199219 164.425781 L 158.796875 164.425781 L 158.605469 173.488281 C 158.492188 177.425781 158.378906 181.359375 158.261719 185.296875 L 158.144531 191.265625 L 157.960938 197.035156 L 157.824219 202.335938 C 156.980469 207.9375 155.261719 211.242188 151.949219 215.800781 C 148.523438 217.511719 148.523438 217.511719 142.851562 218.046875 C 136.535156 217.511719 136.535156 217.511719 131.9375 214.726562 L 127.972656 210.664062 C 126.84375 205.640625 126.84375 205.640625 126.761719 199.878906 L 126.613281 193.625 L 126.582031 187.117188 L 126.449219 180.527344 C 126.355469 175.160156 126.292969 169.792969 126.261719 164.425781 L 104 164.425781 L 103.863281 174.734375 C 103.792969 178.03125 103.71875 181.332031 103.640625 184.628906 C 103.570312 188.046875 103.535156 191.460938 103.496094 194.878906 L 103.328125 201.382812 L 103.21875 207.390625 L 102.285156 212.375 C 99.007812 215.585938 99.007812 215.585938 95.4375 217.511719 C 90.753906 218.527344 86.4375 218.410156 81.734375 217.511719 C 77.574219 214.308594 75.503906 211.894531 73.171875 207.238281 C 73.03125 204.21875 72.96875 201.203125 72.984375 198.183594 L 72.980469 192.449219 L 72.992188 186.226562 L 72.917969 173.265625 C 72.875 166.433594 72.851562 159.601562 72.875 152.769531 C 72.890625 146.1875 72.839844 139.609375 72.777344 133.03125 L 72.84375 126.839844 C 72.765625 121.480469 72.578125 116.582031 71.460938 111.335938 C 68.386719 106.765625 66.171875 105.507812 61.1875 102.773438 C 54.695312 101.863281 50.625 102.257812 44.488281 104.488281 C 40.128906 108.363281 38.476562 111.988281 36.546875 117.4375 C 34.527344 125.464844 34.804688 133.550781 34.875 141.78125 L 34.875 147.617188 C 34.878906 151.6875 34.894531 155.757812 34.921875 159.824219 C 34.960938 165.957031 34.957031 172.089844 34.945312 178.222656 C 34.988281 212.660156 35.484375 245.613281 53.023438 276.304688 C 58.339844 284.335938 64.683594 291.1875 71.460938 298 L 74.148438 300.871094 C 86.347656 312.714844 104.976562 320.738281 121.125 325.398438 C 138.851562 329.109375 157.300781 328.605469 174.671875 323.519531 L 179.347656 321.976562 L 183.757812 320.589844 C 202.308594 314.039062 218.039062 300.828125 230.722656 286.011719 C 242.601562 269.96875 250.496094 252.777344 252.984375 232.925781 C 253.394531 227.722656 253.671875 222.515625 253.925781 217.304688 L 254.148438 212.742188 C 254.871094 196.8125 254.875 180.914062 254.730469 164.972656 L 254.695312 160.414062 C 254.632812 152.496094 254.558594 144.578125 254.472656 136.660156 C 254.386719 128.523438 254.34375 120.382812 254.304688 112.246094 C 254.273438 105.933594 254.207031 99.617188 254.132812 93.304688 C 254.105469 90.300781 254.085938 87.296875 254.078125 84.296875 C 254.066406 80.117188 254.011719 75.941406 253.949219 71.761719 L 253.964844 68.058594 C 253.820312 61.667969 252.855469 58.011719 249.714844 52.375 C 246.578125 47.902344 246.578125 47.902344 242.710938 46.261719 C 239.21875 45.726562 239.21875 45.726562 235.328125 45.621094 L 231.386719 45.367188 C 226.9375 46.039062 226.9375 46.039062 222.828125 49.671875 "/></g><mask id="c754f6ab60"><g filter="url(#64590427ec)"><rect x="0" width="375" y="0" height="374.999991" style="fill:#000000;fill-opacity:0.14;stroke:none;"/></g></mask></g></g></svg>