<svg xmlns="http://www.w3.org/2000/svg" xmlns:xlink="http://www.w3.org/1999/xlink" width="500" zoomAndPan="magnify" viewBox="0 0 375 374.999991" height="500" preserveAspectRatio="xMidYMid meet" version="1.2"><defs><clipPath id="4a6e7c4e02"><path d="M 54 0 L 345 0 L 345 373.5 L 54 373.5 Z M 54 0 "/></clipPath></defs><g id="9e5519aa9f"><g clip-rule="nonzero" clip-path="url(#4a6e7c4e02)"><path style=" stroke:none;fill-rule:nonzero;fill:#000000;fill-opacity:1;" d="M 243.464844 302.125 C 243.464844 305.933594 242.070312 309.449219 239.65625 312.085938 L 110.164062 312.085938 C 101.59375 302.855469 108.699219 286.742188 121.441406 287.035156 C 121.441406 287.035156 228.375 287.035156 228.375 287.035156 C 236.726562 287.035156 243.464844 293.773438 243.464844 302.125 Z M 110.164062 322.265625 C 101.59375 331.492188 108.699219 347.605469 121.441406 347.3125 L 228.375 347.3125 C 241.121094 347.605469 248.222656 331.421875 239.582031 322.265625 Z M 152.714844 373.535156 L 197.175781 373.535156 C 206.695312 373.535156 214.53125 366.578125 216.070312 357.496094 L 133.820312 357.496094 C 135.359375 366.578125 143.195312 373.535156 152.714844 373.535156 Z M 248.882812 223.535156 C 233.210938 237.160156 223.613281 256.347656 221.636719 276.855469 L 189.191406 276.855469 L 189.191406 71.777344 C 189.191406 67.457031 192.851562 64.015625 197.175781 64.378906 C 277.300781 71.484375 308.574219 172.046875 248.882812 223.535156 Z M 263.09375 154.980469 C 263.3125 124.21875 243.097656 95.363281 213.945312 85.328125 C 210.945312 84.230469 207.5 85.839844 206.476562 88.917969 C 205.378906 91.992188 206.914062 95.289062 209.992188 96.386719 C 234.453125 104.808594 251.519531 129.054688 251.300781 154.980469 C 251.445312 162.671875 263.019531 162.671875 263.09375 154.980469 Z M 114.042969 241.992188 C 117.851562 238.035156 126.496094 232.910156 129.71875 240.160156 C 130.890625 243.164062 129.351562 246.605469 126.277344 247.777344 C 113.09375 253.785156 119.902344 271.582031 128.105469 276.855469 L 154.402344 276.855469 C 160.039062 272.753906 163.703125 266.160156 163.703125 258.691406 L 163.703125 92.652344 C 163.554688 68.703125 130.742188 61.667969 120.929688 83.421875 C 128.839844 84.960938 152.203125 104.882812 135.429688 108.617188 C 129.863281 108.398438 128.621094 101 124.226562 98.511719 C 102.179688 81.078125 70.832031 104.957031 80.351562 130.371094 C 90.3125 128.539062 103.425781 133.445312 110.089844 141.871094 C 113.386719 145.457031 110.382812 151.683594 105.621094 151.539062 C 103.9375 151.539062 102.324219 150.804688 101.152344 149.414062 C 99.617188 147.582031 96.171875 144.214844 90.753906 142.675781 C 86.945312 141.429688 81.671875 141.722656 78.59375 142.75 C 48.199219 151.613281 45.710938 194.824219 74.714844 207.203125 C 78.667969 200.828125 101.8125 183.179688 105.988281 195.558594 C 106.792969 198.707031 104.816406 201.929688 101.738281 202.660156 C 68.339844 210.9375 72.957031 257.8125 107.378906 258.765625 C 107.453125 253.050781 109.285156 246.753906 114.042969 241.992188 Z M 268.074219 82.835938 C 269.609375 82.835938 271.074219 82.25 272.246094 81.152344 L 299.421875 53.980469 C 304.765625 48.414062 296.636719 40.28125 291.144531 45.703125 C 291.144531 45.703125 263.972656 72.875 263.972656 72.875 C 260.164062 76.316406 263.019531 82.984375 268.074219 82.835938 Z M 339.117188 149.925781 L 300.738281 149.925781 C 292.976562 150.074219 293.046875 161.570312 300.738281 161.644531 L 339.117188 161.644531 C 346.882812 161.574219 346.808594 150.074219 339.117188 149.925781 Z M 272.175781 230.566406 C 266.609375 225.21875 258.476562 233.347656 263.898438 238.84375 L 291.070312 266.015625 C 296.5625 271.433594 304.765625 263.160156 299.347656 257.738281 C 299.347656 257.664062 272.175781 230.566406 272.175781 230.566406 Z M 189.191406 50.171875 C 192.414062 50.171875 195.050781 47.535156 195.050781 44.3125 L 195.050781 5.859375 C 195.050781 2.636719 192.414062 0 189.191406 0 C 185.96875 0 183.332031 2.636719 183.332031 5.859375 L 183.332031 44.238281 C 183.332031 47.535156 185.96875 50.171875 189.191406 50.171875 Z M 189.191406 50.171875 "/></g></g></svg>