<svg xmlns="http://www.w3.org/2000/svg" xmlns:xlink="http://www.w3.org/1999/xlink" width="500" zoomAndPan="magnify" viewBox="0 0 375 374.999991" height="500" preserveAspectRatio="xMidYMid meet" version="1.2"><g id="8a99e8fefd"><path style=" stroke:none;fill-rule:nonzero;fill:#000000;fill-opacity:1;" d="M 191.175781 210.488281 C 188.824219 210.488281 186.5 210.121094 184.191406 209.371094 L 77.132812 173.703125 C 75.191406 178.742188 74.21875 185.234375 74.21875 194.710938 C 81.207031 198.75 88.015625 206.871094 88.015625 220.871094 C 88.015625 229.453125 83.71875 235.621094 80.03125 239.722656 C 95.910156 258.128906 139.617188 271.363281 191.191406 271.363281 C 256.175781 271.363281 308.839844 250.355469 308.839844 224.488281 C 308.839844 218.773438 308.839844 195.429688 308.839844 172.511719 L 198.132812 209.371094 C 195.851562 210.121094 193.53125 210.488281 191.175781 210.488281 Z M 191.175781 210.488281 "/><path style=" stroke:none;fill-rule:nonzero;fill:#000000;fill-opacity:1;" d="M 369.96875 117.964844 L 193.5 59.203125 C 191.96875 58.703125 190.367188 58.703125 188.851562 59.203125 L 12.382812 117.964844 C 9.382812 118.964844 7.351562 121.769531 7.351562 124.929688 C 7.351562 128.085938 9.382812 130.894531 12.382812 131.890625 L 52.839844 145.363281 C 43.53125 156.144531 38.117188 171.351562 36.132812 196.089844 C 29.734375 199.101562 25.21875 205.519531 25.21875 213.074219 C 25.21875 220.753906 29.839844 227.292969 36.425781 230.246094 C 30.675781 280.265625 0.691406 296.941406 0.691406 301.214844 C 0.691406 303.390625 23.910156 315.90625 29.425781 315.90625 C 37.957031 315.90625 58.425781 301.449219 58.425781 270.234375 C 58.425781 251.839844 56.765625 237.945312 55.015625 228.085938 C 59.734375 224.664062 63.015625 219.359375 63.015625 213.074219 C 63.015625 206.210938 59.175781 200.480469 53.691406 197.175781 C 56.792969 156.351562 69.425781 149.519531 99.984375 136.855469 C 103.042969 135.652344 108.824219 133.316406 112.160156 131.9375 C 118.160156 129.46875 123.589844 127.265625 128.792969 125.179688 C 145.601562 118.507812 159.808594 113.148438 170.648438 109.164062 C 182.515625 104.933594 187.839844 103.390625 188.03125 103.332031 C 192.574219 101.804688 197.632812 104.257812 199.191406 108.886719 C 200.734375 113.5 198.265625 118.492188 193.632812 120.050781 C 193.28125 120.167969 172.632812 126.058594 118.910156 148.242188 C 115.457031 149.667969 112.160156 150.960938 109.03125 152.195312 C 102.660156 154.707031 97.382812 156.71875 92.957031 158.746094 L 188.851562 190.667969 C 189.617188 190.902344 190.382812 191.035156 191.175781 191.035156 C 191.96875 191.035156 192.734375 190.902344 193.5 190.65625 L 369.96875 131.890625 C 372.96875 130.894531 375 128.085938 375 124.929688 C 375 121.769531 372.96875 118.964844 369.96875 117.964844 Z M 369.96875 117.964844 "/></g></svg>