<svg xmlns="http://www.w3.org/2000/svg" xmlns:xlink="http://www.w3.org/1999/xlink" width="500" zoomAndPan="magnify" viewBox="0 0 375 374.999991" height="500" preserveAspectRatio="xMidYMid meet" version="1.0"><defs><clipPath id="513697e80b"><path d="M 0 12 L 182 12 L 182 362.933594 L 0 362.933594 Z M 0 12 " clip-rule="nonzero"/></clipPath><clipPath id="4920f7101f"><path d="M 92 158 L 321 158 L 321 179 L 92 179 Z M 92 158 " clip-rule="nonzero"/></clipPath><clipPath id="6bf5b4d8c6"><path d="M 320.128906 178.199219 C 319.582031 171.378906 318.429688 164.664062 316.671875 158.054688 L 96.15625 158.054688 C 94.398438 164.664062 93.246094 171.378906 92.695312 178.199219 Z M 320.128906 178.199219 " clip-rule="nonzero"/></clipPath><linearGradient x1="0.5" gradientTransform="matrix(227.432015, 0, 0, 20.145937, 92.696573, 158.053116)" y1="0.999999" x2="0.5" gradientUnits="userSpaceOnUse" y2="-0.000000867218" id="69b4759557"><stop stop-opacity="1" stop-color="rgb(18.772888%, 14.463806%, 36.105347%)" offset="0"/><stop stop-opacity="1" stop-color="rgb(18.67981%, 14.390564%, 35.928345%)" offset="0.125"/><stop stop-opacity="1" stop-color="rgb(18.495178%, 14.24408%, 35.575867%)" offset="0.25"/><stop stop-opacity="1" stop-color="rgb(18.309021%, 14.097595%, 35.224915%)" offset="0.375"/><stop stop-opacity="1" stop-color="rgb(18.12439%, 13.952637%, 34.872437%)" offset="0.5"/><stop stop-opacity="1" stop-color="rgb(17.939758%, 13.806152%, 34.519958%)" offset="0.625"/><stop stop-opacity="1" stop-color="rgb(17.755127%, 13.659668%, 34.169006%)" offset="0.75"/><stop stop-opacity="1" stop-color="rgb(17.570496%, 13.514709%, 33.816528%)" offset="0.875"/><stop stop-opacity="1" stop-color="rgb(17.388916%, 13.369751%, 33.470154%)" offset="1"/></linearGradient><clipPath id="5aaf7a98ea"><path d="M 92 196 L 321 196 L 321 218 L 92 218 Z M 92 196 " clip-rule="nonzero"/></clipPath><clipPath id="0875a3bcfe"><path d="M 320.128906 196.910156 L 92.699219 196.910156 C 93.246094 203.730469 94.398438 210.445312 96.15625 217.058594 L 316.671875 217.058594 C 318.429688 210.445312 319.582031 203.730469 320.128906 196.910156 Z M 320.128906 196.910156 " clip-rule="nonzero"/></clipPath><linearGradient x1="0.49999" gradientTransform="matrix(227.429085, 0, 0, 20.147402, 92.699495, 196.910275)" y1="0.999999" x2="0.49999" gradientUnits="userSpaceOnUse" y2="-0.000000824156" id="32f716b568"><stop stop-opacity="1" stop-color="rgb(21.62323%, 16.717529%, 41.53595%)" offset="0"/><stop stop-opacity="1" stop-color="rgb(21.530151%, 16.644287%, 41.358948%)" offset="0.125"/><stop stop-opacity="1" stop-color="rgb(21.34552%, 16.497803%, 41.007996%)" offset="0.25"/><stop stop-opacity="1" stop-color="rgb(21.160889%, 16.351318%, 40.655518%)" offset="0.375"/><stop stop-opacity="1" stop-color="rgb(20.976257%, 16.20636%, 40.30304%)" offset="0.5"/><stop stop-opacity="1" stop-color="rgb(20.791626%, 16.059875%, 39.952087%)" offset="0.625"/><stop stop-opacity="1" stop-color="rgb(20.606995%, 15.913391%, 39.599609%)" offset="0.75"/><stop stop-opacity="1" stop-color="rgb(20.420837%, 15.768433%, 39.247131%)" offset="0.875"/><stop stop-opacity="1" stop-color="rgb(20.236206%, 15.621948%, 38.894653%)" offset="1"/></linearGradient><clipPath id="a449160cf7"><path d="M 102 235 L 310 235 L 310 302 L 102 302 Z M 102 235 " clip-rule="nonzero"/></clipPath><clipPath id="7d2dbed8d8"><path d="M 206.414062 301.648438 C 252.207031 301.648438 291.683594 274.679688 309.859375 235.765625 L 102.96875 235.765625 C 121.148438 274.679688 160.621094 301.648438 206.414062 301.648438 Z M 206.414062 301.648438 " clip-rule="nonzero"/></clipPath><linearGradient x1="0.49999" gradientTransform="matrix(206.890985, 0, 0, 65.882696, 102.968554, 235.765972)" y1="1" x2="0.49999" gradientUnits="userSpaceOnUse" y2="-0.000000224051" id="e70c99df28"><stop stop-opacity="1" stop-color="rgb(27.799988%, 21.598816%, 53.29895%)" offset="0"/><stop stop-opacity="1" stop-color="rgb(27.738953%, 21.549988%, 53.182983%)" offset="0.03125"/><stop stop-opacity="1" stop-color="rgb(27.600098%, 21.44165%, 52.922058%)" offset="0.0625"/><stop stop-opacity="1" stop-color="rgb(27.44751%, 21.321106%, 52.629089%)" offset="0.09375"/><stop stop-opacity="1" stop-color="rgb(27.293396%, 21.199036%, 52.337646%)" offset="0.125"/><stop stop-opacity="1" stop-color="rgb(27.140808%, 21.078491%, 52.044678%)" offset="0.15625"/><stop stop-opacity="1" stop-color="rgb(26.986694%, 20.956421%, 51.751709%)" offset="0.1875"/><stop stop-opacity="1" stop-color="rgb(26.832581%, 20.835876%, 51.460266%)" offset="0.21875"/><stop stop-opacity="1" stop-color="rgb(26.679993%, 20.713806%, 51.167297%)" offset="0.25"/><stop stop-opacity="1" stop-color="rgb(26.525879%, 20.593262%, 50.875854%)" offset="0.28125"/><stop stop-opacity="1" stop-color="rgb(26.373291%, 20.471191%, 50.582886%)" offset="0.3125"/><stop stop-opacity="1" stop-color="rgb(26.219177%, 20.350647%, 50.289917%)" offset="0.34375"/><stop stop-opacity="1" stop-color="rgb(26.066589%, 20.228577%, 49.998474%)" offset="0.375"/><stop stop-opacity="1" stop-color="rgb(25.912476%, 20.108032%, 49.705505%)" offset="0.40625"/><stop stop-opacity="1" stop-color="rgb(25.758362%, 19.985962%, 49.414062%)" offset="0.4375"/><stop stop-opacity="1" stop-color="rgb(25.605774%, 19.865417%, 49.121094%)" offset="0.46875"/><stop stop-opacity="1" stop-color="rgb(25.45166%, 19.743347%, 48.828125%)" offset="0.5"/><stop stop-opacity="1" stop-color="rgb(25.299072%, 19.622803%, 48.536682%)" offset="0.53125"/><stop stop-opacity="1" stop-color="rgb(25.144958%, 19.500732%, 48.243713%)" offset="0.5625"/><stop stop-opacity="1" stop-color="rgb(24.990845%, 19.380188%, 47.952271%)" offset="0.59375"/><stop stop-opacity="1" stop-color="rgb(24.838257%, 19.258118%, 47.659302%)" offset="0.625"/><stop stop-opacity="1" stop-color="rgb(24.684143%, 19.137573%, 47.366333%)" offset="0.65625"/><stop stop-opacity="1" stop-color="rgb(24.531555%, 19.015503%, 47.07489%)" offset="0.6875"/><stop stop-opacity="1" stop-color="rgb(24.377441%, 18.894958%, 46.781921%)" offset="0.71875"/><stop stop-opacity="1" stop-color="rgb(24.223328%, 18.772888%, 46.490479%)" offset="0.75"/><stop stop-opacity="1" stop-color="rgb(24.07074%, 18.652344%, 46.19751%)" offset="0.78125"/><stop stop-opacity="1" stop-color="rgb(23.916626%, 18.530273%, 45.904541%)" offset="0.8125"/><stop stop-opacity="1" stop-color="rgb(23.764038%, 18.409729%, 45.613098%)" offset="0.84375"/><stop stop-opacity="1" stop-color="rgb(23.609924%, 18.287659%, 45.320129%)" offset="0.875"/><stop stop-opacity="1" stop-color="rgb(23.457336%, 18.167114%, 45.028687%)" offset="0.90625"/><stop stop-opacity="1" stop-color="rgb(23.303223%, 18.045044%, 44.735718%)" offset="0.9375"/><stop stop-opacity="1" stop-color="rgb(23.149109%, 17.9245%, 44.442749%)" offset="0.96875"/><stop stop-opacity="1" stop-color="rgb(22.996521%, 17.802429%, 44.151306%)" offset="1"/></linearGradient></defs><path fill="#2c2255" d="M 102.972656 235.765625 L 45.734375 235.765625 C 53.3125 261.75 67.375 285.042969 87.964844 305.625 C 120.785156 338.4375 160.253906 354.824219 206.40625 354.824219 C 215.632812 354.824219 224.570312 354.136719 233.253906 352.828125 C 268.015625 347.582031 298.453125 331.871094 324.53125 305.625 C 345.25 285.050781 359.414062 261.75 367.050781 235.765625 Z M 71.410156 158.058594 L 41.511719 158.058594 C 40.394531 164.730469 39.667969 171.445312 39.332031 178.203125 L 373.488281 178.203125 C 373.148438 171.328125 372.402344 164.625 371.300781 158.058594 M 39.332031 196.910156 C 39.671875 203.789062 40.414062 210.492188 41.511719 217.058594 L 371.304688 217.058594 C 372.429688 210.386719 373.160156 203.667969 373.5 196.910156 M 367.058594 139.34375 C 359.425781 113.289062 345.261719 89.886719 324.53125 69.160156 C 298.519531 43.160156 268.171875 27.5625 233.519531 22.3125 C 224.53125 20.957031 215.496094 20.28125 206.40625 20.285156 C 160.253906 20.285156 120.785156 36.582031 87.964844 69.160156 C 67.371094 89.886719 53.296875 113.289062 45.726562 139.34375 " fill-opacity="1" fill-rule="nonzero"/><g clip-path="url(#513697e80b)"><path fill="#f7941e" d="M 29.398438 187.5625 C 29.398438 99.320312 95.691406 26.003906 181.9375 13.105469 C 179.800781 13.027344 177.648438 12.941406 175.488281 12.941406 C 78.707031 12.945312 0.238281 91.125 0.238281 187.5625 C 0.238281 284.003906 78.703125 362.179688 175.488281 362.179688 C 177.65625 362.179688 179.804688 362.101562 181.953125 362.019531 C 95.691406 349.125 29.398438 275.804688 29.398438 187.5625 Z M 29.398438 187.5625 " fill-opacity="1" fill-rule="nonzero"/></g><g clip-path="url(#4920f7101f)"><g clip-path="url(#6bf5b4d8c6)"><path fill="url(#69b4759557)" d="M 92.695312 158.054688 L 92.695312 178.199219 L 320.128906 178.199219 L 320.128906 158.054688 Z M 92.695312 158.054688 " fill-rule="nonzero"/></g></g><g clip-path="url(#5aaf7a98ea)"><g clip-path="url(#0875a3bcfe)"><path fill="url(#32f716b568)" d="M 92.699219 196.910156 L 92.699219 217.058594 L 320.128906 217.058594 L 320.128906 196.910156 Z M 92.699219 196.910156 " fill-rule="nonzero"/></g></g><g clip-path="url(#a449160cf7)"><g clip-path="url(#7d2dbed8d8)"><path fill="url(#e70c99df28)" d="M 102.96875 235.765625 L 102.96875 301.648438 L 309.859375 301.648438 L 309.859375 235.765625 Z M 102.96875 235.765625 " fill-rule="nonzero"/></g></g><path fill="#ffffff" d="M 75.84375 196.910156 L 373.265625 196.910156 C 373.421875 193.933594 373.511719 190.9375 373.511719 187.921875 C 373.511719 184.65625 373.390625 181.421875 373.207031 178.199219 L 39.332031 178.199219 C 39.148438 181.417969 39.03125 184.65625 39.03125 187.921875 C 39.03125 190.9375 39.117188 193.933594 39.273438 196.910156 Z M 102.300781 139.34375 L 45.722656 139.34375 C 43.863281 145.4375 42.664062 151.6875 41.511719 158.058594 L 370.242188 158.058594 C 369.105469 151.734375 367.605469 145.496094 365.746094 139.34375 M 348.75 217.054688 L 41.507812 217.054688 C 42.628906 223.417969 43.902344 229.664062 45.734375 235.765625 L 366.839844 235.765625 C 368.675781 229.613281 370.148438 223.378906 371.261719 217.054688 Z M 348.75 217.054688 " fill-opacity="1" fill-rule="nonzero"/></svg>