<svg xmlns="http://www.w3.org/2000/svg" xmlns:xlink="http://www.w3.org/1999/xlink" width="500" zoomAndPan="magnify" viewBox="0 0 375 374.999991" height="500" preserveAspectRatio="xMidYMid meet" version="1.2"><g id="33b2196354"><path style=" stroke:none;fill-rule:nonzero;fill:#3f51b5;fill-opacity:1;" d="M 243.75 9.375 L 243.75 8.605469 C 225.992188 3.027344 207.101562 0 187.5 0 C 83.945312 0 0 83.945312 0 187.5 C 0 193.828125 0.335938 200.082031 0.945312 206.25 L 243.75 206.25 Z M 243.75 9.375 "/><path style=" stroke:none;fill-rule:nonzero;fill:#eceff1;fill-opacity:1;" d="M 243.75 65.625 L 329.8125 65.625 C 320.839844 55.164062 310.707031 45.777344 299.652344 37.5 L 243.75 37.5 Z M 243.75 65.625 "/><path style=" stroke:none;fill-rule:nonzero;fill:#eceff1;fill-opacity:1;" d="M 374.054688 206.25 L 0.945312 206.25 C 1.902344 215.886719 3.789062 225.226562 6.148438 234.375 L 368.859375 234.375 C 371.210938 225.226562 373.097656 215.886719 374.054688 206.25 Z M 374.054688 206.25 "/><path style=" stroke:none;fill-rule:nonzero;fill:#eceff1;fill-opacity:1;" d="M 321.289062 318.75 L 53.710938 318.75 C 64.273438 329.523438 76.191406 338.898438 89.082031 346.875 L 285.917969 346.875 C 298.808594 338.898438 310.726562 329.523438 321.289062 318.75 Z M 321.289062 318.75 "/><path style=" stroke:none;fill-rule:nonzero;fill:#eceff1;fill-opacity:1;" d="M 359.296875 262.5 L 15.703125 262.5 C 20.007812 272.34375 25.125 281.746094 30.984375 290.625 L 344.015625 290.625 C 349.875 281.746094 354.984375 272.34375 359.296875 262.5 Z M 359.296875 262.5 "/><path style=" stroke:none;fill-rule:nonzero;fill:#eceff1;fill-opacity:1;" d="M 243.75 121.875 L 362.960938 121.875 C 359.296875 112.085938 354.890625 102.683594 349.714844 93.75 L 243.75 93.75 Z M 243.75 121.875 "/><path style=" stroke:none;fill-rule:nonzero;fill:#eceff1;fill-opacity:1;" d="M 243.75 178.125 L 374.53125 178.125 C 374.054688 168.5625 373.097656 159.132812 371.242188 150 L 243.75 150 Z M 243.75 178.125 "/><path style=" stroke:none;fill-rule:nonzero;fill:#f44336;fill-opacity:1;" d="M 243.75 37.5 L 299.664062 37.5 C 283.507812 25.40625 265.433594 15.789062 245.839844 9.375 L 243.75 9.375 Z M 243.75 37.5 "/><path style=" stroke:none;fill-rule:nonzero;fill:#f44336;fill-opacity:1;" d="M 243.75 93.75 L 349.714844 93.75 C 343.929688 83.757812 337.285156 74.34375 329.820312 65.625 L 243.75 65.625 Z M 243.75 93.75 "/><path style=" stroke:none;fill-rule:nonzero;fill:#f44336;fill-opacity:1;" d="M 243.75 150 L 371.230469 150 C 369.261719 140.304688 366.355469 130.96875 362.953125 121.875 L 243.75 121.875 Z M 243.75 150 "/><path style=" stroke:none;fill-rule:nonzero;fill:#f44336;fill-opacity:1;" d="M 243.75 206.25 L 374.054688 206.25 C 374.664062 200.082031 375 193.828125 375 187.5 C 375 184.332031 374.679688 181.246094 374.53125 178.125 L 243.75 178.125 Z M 243.75 206.25 "/><path style=" stroke:none;fill-rule:nonzero;fill:#f44336;fill-opacity:1;" d="M 368.851562 234.375 L 6.148438 234.375 C 8.644531 244.058594 11.765625 253.492188 15.710938 262.5 L 359.296875 262.5 C 363.234375 253.492188 366.355469 244.058594 368.851562 234.375 Z M 368.851562 234.375 "/><path style=" stroke:none;fill-rule:nonzero;fill:#f44336;fill-opacity:1;" d="M 344.015625 290.625 L 30.984375 290.625 C 37.648438 300.730469 45.261719 310.144531 53.710938 318.75 L 321.300781 318.75 C 329.738281 310.144531 337.351562 300.730469 344.015625 290.625 Z M 344.015625 290.625 "/><path style=" stroke:none;fill-rule:nonzero;fill:#f44336;fill-opacity:1;" d="M 89.082031 346.875 C 117.710938 364.59375 151.351562 375 187.5 375 C 223.648438 375 257.289062 364.59375 285.917969 346.875 Z M 89.082031 346.875 "/><path style=" stroke:none;fill-rule:nonzero;fill:#ffffff;fill-opacity:1;" d="M 58.59375 84.375 L 62.953125 93.636719 L 72.65625 95.101562 L 65.625 102.320312 L 67.3125 112.5 L 58.59375 107.699219 L 49.875 112.5 L 51.5625 102.320312 L 44.53125 95.101562 L 54.234375 93.636719 Z M 58.59375 84.375 "/><path style=" stroke:none;fill-rule:nonzero;fill:#ffffff;fill-opacity:1;" d="M 96.09375 84.375 L 100.453125 93.636719 L 110.15625 95.101562 L 103.125 102.320312 L 104.8125 112.5 L 96.09375 107.699219 L 87.375 112.5 L 89.0625 102.320312 L 82.03125 95.101562 L 91.734375 93.636719 Z M 96.09375 84.375 "/><path style=" stroke:none;fill-rule:nonzero;fill:#ffffff;fill-opacity:1;" d="M 21.09375 107.699219 L 29.8125 112.5 L 28.125 102.320312 L 35.15625 95.101562 L 25.453125 93.636719 L 25.414062 93.542969 C 22.320312 98.867188 19.480469 104.351562 16.914062 109.996094 Z M 21.09375 107.699219 "/><path style=" stroke:none;fill-rule:nonzero;fill:#ffffff;fill-opacity:1;" d="M 133.59375 84.375 L 137.953125 93.636719 L 147.65625 95.101562 L 140.625 102.320312 L 142.3125 112.5 L 133.59375 107.699219 L 124.875 112.5 L 126.5625 102.320312 L 119.53125 95.101562 L 129.234375 93.636719 Z M 133.59375 84.375 "/><path style=" stroke:none;fill-rule:nonzero;fill:#ffffff;fill-opacity:1;" d="M 171.09375 84.375 L 175.453125 93.636719 L 185.15625 95.101562 L 178.125 102.320312 L 179.8125 112.5 L 171.09375 107.699219 L 162.375 112.5 L 164.0625 102.320312 L 157.03125 95.101562 L 166.734375 93.636719 Z M 171.09375 84.375 "/><path style=" stroke:none;fill-rule:nonzero;fill:#ffffff;fill-opacity:1;" d="M 206.25 84.375 L 210.609375 93.636719 L 220.3125 95.101562 L 213.28125 102.320312 L 214.96875 112.5 L 206.25 107.699219 L 197.53125 112.5 L 199.21875 102.320312 L 192.1875 95.101562 L 201.890625 93.636719 Z M 206.25 84.375 "/><path style=" stroke:none;fill-rule:nonzero;fill:#ffffff;fill-opacity:1;" d="M 58.59375 159.375 L 62.953125 168.636719 L 72.65625 170.101562 L 65.625 177.320312 L 67.3125 187.5 L 58.59375 182.699219 L 49.875 187.5 L 51.5625 177.320312 L 44.53125 170.101562 L 54.234375 168.636719 Z M 58.59375 159.375 "/><path style=" stroke:none;fill-rule:nonzero;fill:#ffffff;fill-opacity:1;" d="M 96.09375 159.375 L 100.453125 168.636719 L 110.15625 170.101562 L 103.125 177.320312 L 104.8125 187.5 L 96.09375 182.699219 L 87.375 187.5 L 89.0625 177.320312 L 82.03125 170.101562 L 91.734375 168.636719 Z M 96.09375 159.375 "/><path style=" stroke:none;fill-rule:nonzero;fill:#ffffff;fill-opacity:1;" d="M 133.59375 159.375 L 137.953125 168.636719 L 147.65625 170.101562 L 140.625 177.320312 L 142.3125 187.5 L 133.59375 182.699219 L 124.875 187.5 L 126.5625 177.320312 L 119.53125 170.101562 L 129.234375 168.636719 Z M 133.59375 159.375 "/><path style=" stroke:none;fill-rule:nonzero;fill:#ffffff;fill-opacity:1;" d="M 21.09375 159.375 L 25.453125 168.636719 L 35.15625 170.101562 L 28.125 177.320312 L 29.8125 187.5 L 21.09375 182.699219 L 12.375 187.5 L 14.0625 177.320312 L 7.03125 170.101562 L 16.734375 168.636719 Z M 21.09375 159.375 "/><path style=" stroke:none;fill-rule:nonzero;fill:#ffffff;fill-opacity:1;" d="M 171.09375 159.375 L 175.453125 168.636719 L 185.15625 170.101562 L 178.125 177.320312 L 179.8125 187.5 L 171.09375 182.699219 L 162.375 187.5 L 164.0625 177.320312 L 157.03125 170.101562 L 166.734375 168.636719 Z M 171.09375 159.375 "/><path style=" stroke:none;fill-rule:nonzero;fill:#ffffff;fill-opacity:1;" d="M 206.25 159.375 L 210.609375 168.636719 L 220.3125 170.101562 L 213.28125 177.320312 L 214.96875 187.5 L 206.25 182.699219 L 197.53125 187.5 L 199.21875 177.320312 L 192.1875 170.101562 L 201.890625 168.636719 Z M 206.25 159.375 "/><path style=" stroke:none;fill-rule:nonzero;fill:#ffffff;fill-opacity:1;" d="M 67.96875 121.875 L 72.328125 131.136719 L 82.03125 132.601562 L 75 139.820312 L 76.6875 150 L 67.96875 145.199219 L 59.25 150 L 60.9375 139.820312 L 53.90625 132.601562 L 63.609375 131.136719 Z M 67.96875 121.875 "/><path style=" stroke:none;fill-rule:nonzero;fill:#ffffff;fill-opacity:1;" d="M 105.46875 121.875 L 109.828125 131.136719 L 119.53125 132.601562 L 112.5 139.820312 L 114.1875 150 L 105.46875 145.199219 L 96.75 150 L 98.4375 139.820312 L 91.40625 132.601562 L 101.109375 131.136719 Z M 105.46875 121.875 "/><path style=" stroke:none;fill-rule:nonzero;fill:#ffffff;fill-opacity:1;" d="M 30.46875 121.875 L 34.828125 131.136719 L 44.53125 132.601562 L 37.5 139.820312 L 39.1875 150 L 30.46875 145.199219 L 21.75 150 L 23.4375 139.820312 L 16.40625 132.601562 L 26.109375 131.136719 Z M 30.46875 121.875 "/><path style=" stroke:none;fill-rule:nonzero;fill:#ffffff;fill-opacity:1;" d="M 142.96875 121.875 L 147.328125 131.136719 L 157.03125 132.601562 L 150 139.820312 L 151.6875 150 L 142.96875 145.199219 L 134.25 150 L 135.9375 139.820312 L 128.90625 132.601562 L 138.609375 131.136719 Z M 142.96875 121.875 "/><path style=" stroke:none;fill-rule:nonzero;fill:#ffffff;fill-opacity:1;" d="M 180.46875 121.875 L 184.828125 131.136719 L 194.53125 132.601562 L 187.5 139.820312 L 189.1875 150 L 180.46875 145.199219 L 171.75 150 L 173.4375 139.820312 L 166.40625 132.601562 L 176.109375 131.136719 Z M 180.46875 121.875 "/><path style=" stroke:none;fill-rule:nonzero;fill:#ffffff;fill-opacity:1;" d="M 215.625 121.875 L 219.984375 131.136719 L 229.6875 132.601562 L 222.65625 139.820312 L 224.34375 150 L 215.625 145.199219 L 206.90625 150 L 208.59375 139.820312 L 201.5625 132.601562 L 211.265625 131.136719 Z M 215.625 121.875 "/><path style=" stroke:none;fill-rule:nonzero;fill:#ffffff;fill-opacity:1;" d="M 67.96875 46.875 L 72.328125 56.136719 L 82.03125 57.601562 L 75 64.820312 L 76.6875 75 L 67.96875 70.199219 L 59.25 75 L 60.9375 64.820312 L 53.90625 57.601562 L 63.609375 56.136719 Z M 67.96875 46.875 "/><path style=" stroke:none;fill-rule:nonzero;fill:#ffffff;fill-opacity:1;" d="M 105.46875 46.875 L 109.828125 56.136719 L 119.53125 57.601562 L 112.5 64.820312 L 114.1875 75 L 105.46875 70.199219 L 96.75 75 L 98.4375 64.820312 L 91.40625 57.601562 L 101.109375 56.136719 Z M 105.46875 46.875 "/><path style=" stroke:none;fill-rule:nonzero;fill:#ffffff;fill-opacity:1;" d="M 142.96875 46.875 L 147.328125 56.136719 L 157.03125 57.601562 L 150 64.820312 L 151.6875 75 L 142.96875 70.199219 L 134.25 75 L 135.9375 64.820312 L 128.90625 57.601562 L 138.609375 56.136719 Z M 142.96875 46.875 "/><path style=" stroke:none;fill-rule:nonzero;fill:#ffffff;fill-opacity:1;" d="M 180.46875 46.875 L 184.828125 56.136719 L 194.53125 57.601562 L 187.5 64.820312 L 189.1875 75 L 180.46875 70.199219 L 171.75 75 L 173.4375 64.820312 L 166.40625 57.601562 L 176.109375 56.136719 Z M 180.46875 46.875 "/><path style=" stroke:none;fill-rule:nonzero;fill:#ffffff;fill-opacity:1;" d="M 215.625 46.875 L 219.984375 56.136719 L 229.6875 57.601562 L 222.65625 64.820312 L 224.34375 75 L 215.625 70.199219 L 206.90625 75 L 208.59375 64.820312 L 201.5625 57.601562 L 211.265625 56.136719 Z M 215.625 46.875 "/><path style=" stroke:none;fill-rule:nonzero;fill:#ffffff;fill-opacity:1;" d="M 104.8125 37.5 L 103.125 27.320312 L 110.15625 20.101562 L 104.992188 19.320312 C 99.46875 22.03125 94.117188 25.003906 88.914062 28.226562 L 87.375 37.5 L 96.09375 32.699219 Z M 104.8125 37.5 "/><path style=" stroke:none;fill-rule:nonzero;fill:#ffffff;fill-opacity:1;" d="M 133.59375 9.375 L 137.953125 18.636719 L 147.65625 20.101562 L 140.625 27.320312 L 142.3125 37.5 L 133.59375 32.699219 L 124.875 37.5 L 126.5625 27.320312 L 119.53125 20.101562 L 129.234375 18.636719 Z M 133.59375 9.375 "/><path style=" stroke:none;fill-rule:nonzero;fill:#ffffff;fill-opacity:1;" d="M 171.09375 9.375 L 175.453125 18.636719 L 185.15625 20.101562 L 178.125 27.320312 L 179.8125 37.5 L 171.09375 32.699219 L 162.375 37.5 L 164.0625 27.320312 L 157.03125 20.101562 L 166.734375 18.636719 Z M 171.09375 9.375 "/><path style=" stroke:none;fill-rule:nonzero;fill:#ffffff;fill-opacity:1;" d="M 206.25 9.375 L 210.609375 18.636719 L 220.3125 20.109375 L 213.28125 27.328125 L 214.96875 37.5 L 206.25 32.699219 L 197.53125 37.5 L 199.21875 27.320312 L 192.1875 20.101562 L 201.890625 18.636719 Z M 206.25 9.375 "/></g></svg>