<svg xmlns="http://www.w3.org/2000/svg" xmlns:xlink="http://www.w3.org/1999/xlink" width="500" zoomAndPan="magnify" viewBox="0 0 375 374.999991" height="500" preserveAspectRatio="xMidYMid meet" version="1.2"><defs><clipPath id="4db4542253"><path d="M 6.933594 81 L 130 81 L 130 361.179688 L 6.933594 361.179688 Z M 6.933594 81 "/></clipPath><clipPath id="e7f210cc3f"><path d="M 129 81 L 247 81 L 247 361.179688 L 129 361.179688 Z M 129 81 "/></clipPath><clipPath id="9617af0219"><path d="M 246 81 L 368.433594 81 L 368.433594 361.179688 L 246 361.179688 Z M 246 81 "/></clipPath><clipPath id="1758ee009e"><path d="M 246 13.929688 L 368.433594 13.929688 L 368.433594 85 L 246 85 Z M 246 13.929688 "/></clipPath><clipPath id="4f9b2a3f99"><path d="M 129 13.929688 L 247 13.929688 L 247 85 L 129 85 Z M 129 13.929688 "/></clipPath><clipPath id="e837251756"><path d="M 6.933594 13.929688 L 130 13.929688 L 130 85 L 6.933594 85 Z M 6.933594 13.929688 "/></clipPath></defs><g id="fe1e033d15"><g clip-rule="nonzero" clip-path="url(#4db4542253)"><path style=" stroke:none;fill-rule:evenodd;fill:#4fba6f;fill-opacity:1;" d="M 129.132812 361.179688 L 129.132812 84.816406 L 61.792969 81.222656 L 6.949219 84.816406 L 6.949219 332.824219 C 6.949219 348.484375 19.652344 361.179688 35.324219 361.179688 Z M 129.132812 361.179688 "/></g><g clip-rule="nonzero" clip-path="url(#e7f210cc3f)"><path style=" stroke:none;fill-rule:evenodd;fill:#ffc107;fill-opacity:1;" d="M 246.019531 361.179688 L 246.019531 84.816406 L 181.859375 81.222656 L 129.132812 84.816406 L 129.132812 361.179688 Z M 246.019531 361.179688 "/></g><g clip-rule="nonzero" clip-path="url(#9617af0219)"><path style=" stroke:none;fill-rule:evenodd;fill:#5c9cee;fill-opacity:1;" d="M 368.417969 332.824219 L 368.417969 84.816406 L 293.453125 81.222656 L 246.019531 84.816406 L 246.019531 361.179688 L 339.828125 361.179688 C 355.5 361.179688 368.417969 348.484375 368.417969 332.824219 Z M 368.417969 332.824219 "/></g><g clip-rule="nonzero" clip-path="url(#1758ee009e)"><path style=" stroke:none;fill-rule:evenodd;fill:#3e80d6;fill-opacity:1;" d="M 368.417969 84.816406 L 368.417969 42.285156 C 368.417969 26.625 355.5 13.929688 340.042969 13.929688 L 246.019531 13.929688 L 246.019531 84.816406 Z M 368.417969 84.816406 "/></g><g clip-rule="nonzero" clip-path="url(#4f9b2a3f99)"><path style=" stroke:none;fill-rule:evenodd;fill:#ff9d05;fill-opacity:1;" d="M 129.132812 13.929688 L 246.019531 13.929688 L 246.019531 84.816406 L 129.132812 84.816406 Z M 129.132812 13.929688 "/></g><g clip-rule="nonzero" clip-path="url(#e837251756)"><path style=" stroke:none;fill-rule:evenodd;fill:#3ba35a;fill-opacity:1;" d="M 129.132812 84.816406 L 129.132812 13.929688 L 35.324219 13.929688 C 19.652344 13.929688 6.949219 26.625 6.949219 42.285156 L 6.949219 84.816406 Z M 129.132812 84.816406 "/></g><path style=" stroke:none;fill-rule:evenodd;fill:#f5f5f5;fill-opacity:1;" d="M 102.875 53.5 L 37.441406 53.5 C 31.933594 53.5 31.933594 45.035156 37.441406 45.035156 L 102.875 45.035156 C 108.589844 45.035156 108.589844 53.5 102.875 53.5 Z M 102.875 53.5 "/><path style=" stroke:none;fill-rule:evenodd;fill:#ffffff;fill-opacity:1;" d="M 220.398438 53.5 L 154.964844 53.5 C 149.25 53.5 149.25 45.035156 154.964844 45.035156 L 220.398438 45.035156 C 225.902344 45.035156 225.902344 53.5 220.398438 53.5 Z M 220.398438 53.5 "/><path style=" stroke:none;fill-rule:evenodd;fill:#ffffff;fill-opacity:1;" d="M 337.710938 53.5 L 272.277344 53.5 C 266.773438 53.5 266.773438 45.035156 272.277344 45.035156 L 337.921875 45.035156 C 343.429688 45.035156 343.429688 53.5 337.710938 53.5 Z M 337.710938 53.5 "/><path style=" stroke:none;fill-rule:evenodd;fill:#ffffff;fill-opacity:1;" d="M 331.996094 335.152344 L 294.089844 335.152344 L 268.46875 311.238281 L 268.46875 277.171875 C 268.46875 271.878906 272.914062 267.4375 278.207031 267.4375 L 331.996094 267.4375 C 337.289062 267.4375 341.523438 271.878906 341.523438 277.171875 L 341.523438 325.417969 C 341.523438 330.917969 337.289062 335.152344 331.996094 335.152344 Z M 331.996094 335.152344 "/><path style=" stroke:none;fill-rule:evenodd;fill:#ffc107;fill-opacity:1;" d="M 294.089844 335.152344 L 268.46875 311.238281 L 292.394531 307.007812 C 295.785156 307.007812 298.324219 309.757812 298.324219 313.144531 Z M 294.089844 335.152344 "/><path style=" stroke:none;fill-rule:evenodd;fill:#ffc107;fill-opacity:1;" d="M 319.289062 295.792969 L 290.703125 295.792969 C 285.195312 295.792969 285.195312 287.328125 290.703125 287.328125 L 319.5 287.328125 C 325.007812 287.328125 325.007812 295.792969 319.289062 295.792969 Z M 319.289062 295.792969 "/><path style=" stroke:none;fill-rule:evenodd;fill:#ffffff;fill-opacity:1;" d="M 331.996094 170.097656 L 294.089844 170.097656 L 268.46875 146.183594 L 268.46875 112.117188 C 268.46875 106.824219 272.914062 102.382812 278.207031 102.382812 L 331.996094 102.382812 C 337.289062 102.382812 341.523438 106.824219 341.523438 112.117188 L 341.523438 160.363281 C 341.523438 165.652344 337.289062 170.097656 331.996094 170.097656 Z M 331.996094 170.097656 "/><path style=" stroke:none;fill-rule:evenodd;fill:#ffc107;fill-opacity:1;" d="M 294.089844 170.097656 L 268.46875 146.183594 L 292.394531 141.953125 C 295.785156 141.953125 298.324219 144.703125 298.324219 148.089844 Z M 294.089844 170.097656 "/><path style=" stroke:none;fill-rule:evenodd;fill:#ffc107;fill-opacity:1;" d="M 319.289062 130.738281 L 290.703125 130.738281 C 285.195312 130.738281 285.195312 122.273438 290.703125 122.273438 L 319.5 122.273438 C 325.007812 122.273438 325.007812 130.738281 319.289062 130.738281 Z M 319.289062 130.738281 "/><path style=" stroke:none;fill-rule:evenodd;fill:#ffffff;fill-opacity:1;" d="M 214.46875 335.152344 L 176.777344 335.152344 L 151.152344 311.238281 L 151.152344 277.171875 C 151.152344 271.878906 155.390625 267.4375 160.683594 267.4375 L 214.46875 267.4375 C 219.761719 267.4375 224.210938 271.878906 224.210938 277.171875 L 224.210938 325.417969 C 224.210938 330.917969 219.761719 335.152344 214.46875 335.152344 Z M 214.46875 335.152344 "/><path style=" stroke:none;fill-rule:evenodd;fill:#4fba6f;fill-opacity:1;" d="M 176.777344 335.152344 L 151.152344 311.238281 L 174.871094 307.007812 C 178.257812 307.007812 181.011719 309.757812 181.011719 313.144531 Z M 176.777344 335.152344 "/><path style=" stroke:none;fill-rule:evenodd;fill:#ffffff;fill-opacity:1;" d="M 214.46875 252.625 L 176.777344 252.625 L 151.152344 228.710938 L 151.152344 194.644531 C 151.152344 189.351562 155.390625 184.910156 160.683594 184.910156 L 214.46875 184.910156 C 219.761719 184.910156 224.210938 189.351562 224.210938 194.644531 L 224.210938 242.890625 C 224.210938 248.390625 219.761719 252.625 214.46875 252.625 Z M 214.46875 252.625 "/><path style=" stroke:none;fill-rule:evenodd;fill:#4fba6f;fill-opacity:1;" d="M 176.777344 252.625 L 151.152344 228.710938 L 174.871094 224.480469 C 178.257812 224.480469 181.011719 227.230469 181.011719 230.617188 Z M 176.777344 252.625 "/><path style=" stroke:none;fill-rule:evenodd;fill:#ffffff;fill-opacity:1;" d="M 214.46875 170.097656 L 176.777344 170.097656 L 151.152344 146.183594 L 151.152344 112.117188 C 151.152344 106.824219 155.390625 102.382812 160.683594 102.382812 L 214.46875 102.382812 C 219.761719 102.382812 224.210938 106.824219 224.210938 112.117188 L 224.210938 160.363281 C 224.210938 165.652344 219.761719 170.097656 214.46875 170.097656 Z M 214.46875 170.097656 "/><path style=" stroke:none;fill-rule:evenodd;fill:#4fba6f;fill-opacity:1;" d="M 176.777344 170.097656 L 151.152344 146.183594 L 174.871094 141.953125 C 178.257812 141.953125 181.011719 144.703125 181.011719 148.089844 Z M 176.777344 170.097656 "/><path style=" stroke:none;fill-rule:evenodd;fill:#4fba6f;fill-opacity:1;" d="M 201.976562 130.738281 L 173.386719 130.738281 C 167.671875 130.738281 167.671875 122.273438 173.386719 122.273438 L 201.976562 122.273438 C 207.480469 122.273438 207.480469 130.738281 201.976562 130.738281 Z M 201.976562 130.738281 "/><path style=" stroke:none;fill-rule:evenodd;fill:#ffffff;fill-opacity:1;" d="M 97.15625 252.625 L 59.25 252.625 L 63.488281 230.617188 C 63.488281 227.230469 60.945312 224.480469 57.558594 224.480469 L 33.628906 228.710938 L 33.628906 194.644531 C 33.628906 189.351562 38.074219 184.910156 43.371094 184.910156 L 97.15625 184.910156 C 102.449219 184.910156 106.683594 189.351562 106.683594 194.644531 L 106.683594 242.890625 C 106.683594 248.390625 102.449219 252.625 97.15625 252.625 Z M 97.15625 252.625 "/><path style=" stroke:none;fill-rule:evenodd;fill:#5c9cee;fill-opacity:1;" d="M 59.25 252.625 L 33.628906 228.710938 L 57.558594 224.480469 C 60.945312 224.480469 63.488281 227.230469 63.488281 230.617188 Z M 59.25 252.625 "/><path style=" stroke:none;fill-rule:evenodd;fill:#ffffff;fill-opacity:1;" d="M 97.15625 170.097656 L 59.25 170.097656 L 63.488281 148.089844 C 63.488281 144.703125 60.945312 141.953125 57.558594 141.953125 L 33.628906 146.183594 L 33.628906 112.117188 C 33.628906 106.824219 38.074219 102.382812 43.371094 102.382812 L 97.15625 102.382812 C 102.449219 102.382812 106.683594 106.824219 106.683594 112.117188 L 106.683594 160.363281 C 106.683594 165.652344 102.449219 170.097656 97.15625 170.097656 Z M 97.15625 170.097656 "/><path style=" stroke:none;fill-rule:evenodd;fill:#5c9cee;fill-opacity:1;" d="M 59.25 170.097656 L 33.628906 146.183594 L 57.558594 141.953125 C 60.945312 141.953125 63.488281 144.703125 63.488281 148.089844 Z M 59.25 170.097656 "/><path style=" stroke:none;fill-rule:evenodd;fill:#5c9cee;fill-opacity:1;" d="M 84.449219 130.738281 L 55.863281 130.738281 C 50.359375 130.738281 50.359375 122.273438 55.863281 122.273438 L 84.449219 122.273438 C 90.167969 122.273438 90.167969 130.738281 84.449219 130.738281 Z M 84.449219 130.738281 "/><path style=" stroke:none;fill-rule:evenodd;fill:#5c9cee;fill-opacity:1;" d="M 84.449219 213.265625 L 55.863281 213.265625 C 50.359375 213.265625 50.359375 204.800781 55.863281 204.800781 L 84.449219 204.800781 C 90.167969 204.800781 90.167969 213.265625 84.449219 213.265625 Z M 84.449219 213.265625 "/></g></svg>