<svg xmlns="http://www.w3.org/2000/svg" xmlns:xlink="http://www.w3.org/1999/xlink" width="500" zoomAndPan="magnify" viewBox="0 0 375 374.999991" height="500" preserveAspectRatio="xMidYMid meet" version="1.0"><defs><clipPath id="90a4bcc783"><path d="M 60 11 L 374.886719 11 L 374.886719 319 L 60 319 Z M 60 11 " clip-rule="nonzero"/></clipPath><clipPath id="e4c7d565eb"><path d="M 2 297 L 164 297 L 164 374.632812 L 2 374.632812 Z M 2 297 " clip-rule="nonzero"/></clipPath></defs><g clip-path="url(#90a4bcc783)"><path fill="#00a2ff" d="M 350.191406 249.425781 C 333.078125 248.949219 319.800781 250.703125 308.671875 255.382812 C 305.464844 256.671875 300.324219 256.671875 299.902344 260.703125 C 301.613281 262.394531 301.820312 265.164062 303.320312 267.511719 C 305.886719 271.769531 310.386719 277.503906 314.449219 280.476562 L 328.144531 290.265625 C 336.492188 295.367188 345.910156 298.34375 354.039062 303.449219 C 358.75 306.429688 363.457031 310.257812 368.167969 313.453125 C 370.566406 315.152344 372.019531 317.921875 375.015625 318.980469 L 375.015625 318.339844 C 373.519531 316.429688 373.089844 313.667969 371.597656 311.53125 L 365.167969 305.367188 C 358.964844 297.070312 351.257812 289.835938 342.910156 283.886719 C 336.0625 279.203125 321.085938 272.828125 318.300781 264.960938 L 317.878906 264.484375 C 322.582031 264.007812 328.144531 262.351562 332.644531 261.074219 C 339.925781 259.167969 346.554688 259.589844 354.039062 257.675781 L 364.320312 254.695312 L 364.320312 252.789062 C 360.46875 248.960938 357.683594 243.855469 353.621094 240.242188 C 342.710938 230.886719 330.71875 221.738281 318.300781 214.082031 C 311.667969 209.828125 303.105469 207.058594 296.046875 203.449219 C 293.46875 202.171875 289.195312 201.535156 287.699219 199.40625 C 283.835938 194.734375 281.703125 188.5625 278.921875 183.027344 L 261.371094 146.019531 C 257.519531 137.726562 255.160156 129.429688 250.460938 121.773438 C 228.414062 85.613281 204.4375 63.710938 167.625 42.222656 C 159.710938 37.757812 150.296875 35.835938 140.285156 33.5 L 124.234375 32.640625 C 120.804688 31.15625 117.382812 27.113281 114.386719 25.195312 C 102.1875 17.539062 70.722656 0.949219 61.730469 22.8125 C 55.949219 36.636719 70.292969 50.246094 75.160156 57.269531 C 78.808594 62.160156 83.507812 67.691406 86.085938 73.21875 C 87.523438 76.835938 88.003906 80.667969 89.503906 84.496094 C 92.925781 93.851562 96.136719 104.277344 100.632812 113.003906 C 103.03125 117.46875 105.550781 122.15625 108.546875 126.191406 C 110.261719 128.578125 113.257812 129.597656 113.898438 133.425781 C 110.898438 137.683594 110.691406 144.054688 108.980469 149.378906 C 101.269531 173.417969 104.269531 203.191406 115.183594 220.886719 C 118.613281 226.203125 126.695312 237.90625 137.660156 233.433594 C 147.292969 229.605469 145.144531 217.484375 147.925781 206.847656 C 148.574219 204.296875 148.140625 202.597656 149.421875 200.890625 L 149.421875 201.367188 L 158.199219 219.019531 C 164.835938 229.441406 176.394531 240.289062 186.023438 247.527344 C 191.15625 251.355469 195.222656 257.953125 201.640625 260.289062 L 201.640625 259.644531 L 201.21875 259.644531 C 199.933594 257.738281 198.003906 256.878906 196.292969 255.394531 C 192.441406 251.566406 188.164062 246.882812 185.164062 242.632812 C 176.179688 230.722656 168.265625 217.53125 161.199219 203.921875 C 157.769531 197.328125 154.769531 190.097656 152 183.503906 C 150.703125 180.949219 150.703125 177.117188 148.570312 175.847656 C 145.355469 180.519531 140.652344 184.570312 138.289062 190.3125 C 134.222656 199.453125 133.800781 210.730469 132.300781 222.429688 C 131.4375 222.640625 131.824219 222.429688 131.4375 222.90625 C 124.597656 221.207031 122.238281 214.179688 119.671875 208.230469 C 113.253906 193.128906 112.179688 168.882812 117.742188 151.441406 C 119.242188 146.972656 125.667969 132.933594 123.101562 128.679688 C 121.808594 124.640625 117.539062 122.304688 115.175781 119.109375 C 112.394531 115.066406 109.40625 109.964844 107.480469 105.5 C 102.347656 93.582031 99.78125 80.398438 94.210938 68.488281 C 91.632812 62.957031 87.144531 57.210938 83.503906 52.113281 C 79.4375 46.367188 74.949219 42.324219 71.738281 35.523438 C 70.667969 33.136719 69.171875 29.351562 70.882812 26.796875 C 71.304688 25.097656 72.167969 24.414062 73.871094 24.03125 C 76.652344 21.648438 84.578125 24.671875 87.359375 25.941406 C 95.273438 29.132812 101.910156 32.109375 108.542969 36.570312 C 111.542969 38.695312 114.753906 42.738281 118.609375 43.808594 L 123.105469 43.808594 C 129.957031 45.292969 137.65625 44.285156 144.070312 46.191406 C 155.414062 49.8125 165.683594 55.125 174.894531 60.875 C 202.925781 78.527344 226.046875 103.625 241.667969 133.621094 C 244.234375 138.511719 245.304688 142.976562 247.664062 148.082031 C 252.164062 158.507812 257.726562 169.140625 262.210938 179.355469 C 266.710938 189.351562 270.992188 199.570312 277.410156 207.863281 C 280.621094 212.332031 293.460938 214.667969 299.234375 217.007812 C 303.519531 218.914062 310.148438 220.628906 314.007812 222.964844 C 321.28125 227.433594 328.558594 232.539062 335.402344 237.429688 C 338.824219 239.976562 349.53125 245.296875 350.167969 249.539062 Z M 131.933594 64.59375 C 128.964844 64.566406 126.039062 64.921875 123.164062 65.65625 L 123.164062 66.132812 L 123.585938 66.132812 C 125.300781 69.535156 128.296875 71.875 130.4375 74.855469 L 135.363281 85.066406 L 135.785156 84.589844 C 138.78125 82.464844 140.285156 79.058594 140.285156 73.960938 C 139 72.472656 138.789062 70.980469 137.71875 69.492188 C 136.433594 67.367188 133.648438 66.296875 131.933594 64.601562 Z M 131.933594 64.59375 " fill-opacity="1" fill-rule="evenodd"/></g><path fill="#00a2ff" d="M 173.410156 357.992188 L 210.351562 357.992188 C 214.679688 357.992188 218.800781 357.117188 222.152344 355.546875 C 227.742188 352.96875 230.394531 349.542969 230.394531 345.035156 L 230.394531 335.605469 C 230.394531 332 227.355469 328.523438 221.273438 326.175781 C 217.75 324.925781 214.117188 324.308594 210.378906 324.324219 L 194.867188 324.324219 C 189.664062 324.324219 187.21875 322.777344 186.523438 319.324219 C 186.417969 318.9375 186.417969 318.550781 186.417969 318.140625 L 186.417969 312.34375 C 186.417969 312.035156 186.417969 311.648438 186.523438 311.261719 C 187.21875 308.609375 188.582031 307.910156 193.117188 307.398438 L 230.9375 307.398438 L 230.9375 298.84375 L 194.945312 298.84375 C 189.742188 298.84375 186.960938 299.152344 184.539062 299.925781 C 176.964844 302.246094 173.640625 306.003906 173.640625 312.601562 L 173.640625 320.070312 C 173.640625 325.867188 180.132812 330.789062 191.160156 331.921875 C 192.34375 332.027344 193.605469 332.027344 194.894531 332.027344 L 208.164062 332.027344 C 208.675781 332.027344 209.140625 332.027344 209.527344 332.128906 C 213.546875 332.515625 215.324219 333.210938 216.484375 334.703125 C 217.257812 335.476562 217.460938 336.171875 217.460938 337.074219 L 217.460938 344.546875 C 217.460938 345.421875 216.871094 346.605469 215.660156 347.585938 C 214.449219 348.566406 212.617188 349.261719 210.144531 349.390625 C 209.628906 349.390625 209.371094 349.492188 208.859375 349.492188 L 173.410156 349.492188 Z M 310.335938 343.15625 C 310.335938 351.914062 316.929688 356.808594 330.09375 357.789062 L 333.832031 357.992188 L 367.21875 357.992188 L 367.21875 349.492188 L 333.546875 349.492188 C 325.820312 349.492188 323.242188 347.636719 323.242188 343.101562 L 323.242188 298.871094 L 310.363281 298.871094 L 310.363281 343.179688 Z M 238.535156 343.542969 L 238.535156 313.117188 C 238.535156 305.386719 244.023438 300.648438 254.765625 299.203125 L 258.191406 299 L 282.5625 299 C 283.851562 299 284.933594 299.101562 286.171875 299.203125 C 296.886719 300.671875 302.273438 305.386719 302.273438 313.117188 L 302.273438 343.566406 C 302.273438 349.851562 300.003906 353.203125 294.699219 355.417969 L 307.269531 366.804688 L 292.429688 366.804688 L 282.203125 357.582031 L 271.898438 358.175781 L 258.140625 358.175781 C 255.875 358.175781 253.324219 357.917969 250.414062 357.195312 C 242.273438 354.929688 238.226562 350.601562 238.226562 343.542969 Z M 252.394531 342.871094 C 252.394531 343.257812 252.601562 343.644531 252.707031 344.160156 C 253.402344 347.6875 256.722656 349.648438 261.824219 349.648438 L 273.417969 349.648438 L 262.804688 340.011719 L 277.644531 340.011719 L 286.96875 348.460938 C 288.773438 347.484375 289.804688 346.089844 290.214844 344.339844 C 290.316406 343.953125 290.316406 343.464844 290.316406 343.050781 L 290.316406 313.941406 C 290.316406 313.554688 290.316406 313.167969 290.214844 312.753906 C 289.519531 309.40625 286.195312 307.550781 281.199219 307.550781 L 261.875 307.550781 C 256.207031 307.550781 252.449219 310 252.449219 313.941406 Z M 252.394531 342.871094 " fill-opacity="1" fill-rule="evenodd"/><g clip-path="url(#e4c7d565eb)"><path fill="#00a2ff" d="M 2.886719 358.046875 L 15.664062 358.046875 L 15.664062 307.449219 L 35.605469 351.554688 C 37.875 356.859375 41.117188 358.816406 47.40625 358.816406 C 53.691406 358.816406 56.730469 356.859375 59.101562 351.554688 L 78.9375 307.449219 L 78.9375 358.046875 L 91.820312 358.046875 L 91.820312 307.449219 C 91.820312 302.554688 89.863281 300.183594 85.738281 298.894531 C 76.027344 295.957031 69.507812 298.507812 66.574219 305.078125 L 46.992188 348.695312 L 28.136719 305.078125 C 25.300781 298.507812 18.707031 295.957031 8.890625 298.894531 C 4.871094 300.183594 2.886719 302.5 2.886719 307.449219 Z M 102.40625 316.878906 L 115.289062 316.878906 L 115.289062 344.699219 C 115.1875 346.246094 115.804688 349.800781 123.019531 349.90625 L 150.636719 349.90625 L 150.636719 316.671875 L 163.515625 316.671875 L 163.515625 362.140625 C 163.515625 373.347656 149.65625 375.796875 143.164062 375.898438 L 102.71875 375.898438 L 102.71875 367.34375 L 143.292969 367.34375 C 151.535156 366.46875 150.558594 362.347656 150.558594 360.957031 L 150.558594 357.609375 L 123.328125 357.609375 C 110.652344 357.503906 102.511719 351.941406 102.40625 345.5 Z M 102.40625 316.878906 " fill-opacity="1" fill-rule="evenodd"/></g><path fill="#e38e00" d="M 173.410156 357.992188 L 210.351562 357.992188 C 214.679688 357.992188 218.800781 357.117188 222.152344 355.546875 C 227.742188 352.96875 230.394531 349.542969 230.394531 345.035156 L 230.394531 335.605469 C 230.394531 332 227.355469 328.523438 221.273438 326.175781 C 217.75 324.925781 214.117188 324.308594 210.378906 324.324219 L 194.867188 324.324219 C 189.664062 324.324219 187.21875 322.777344 186.523438 319.324219 C 186.417969 318.9375 186.417969 318.550781 186.417969 318.140625 L 186.417969 312.34375 C 186.417969 312.035156 186.417969 311.648438 186.523438 311.261719 C 187.21875 308.609375 188.582031 307.910156 193.117188 307.398438 L 230.9375 307.398438 L 230.9375 298.84375 L 194.945312 298.84375 C 189.742188 298.84375 186.960938 299.152344 184.539062 299.925781 C 176.964844 302.246094 173.640625 306.003906 173.640625 312.601562 L 173.640625 320.070312 C 173.640625 325.867188 180.132812 330.789062 191.160156 331.921875 C 192.34375 332.027344 193.605469 332.027344 194.894531 332.027344 L 208.164062 332.027344 C 208.675781 332.027344 209.140625 332.027344 209.527344 332.128906 C 213.546875 332.515625 215.324219 333.210938 216.484375 334.703125 C 217.257812 335.476562 217.460938 336.171875 217.460938 337.074219 L 217.460938 344.546875 C 217.460938 345.421875 216.871094 346.605469 215.660156 347.585938 C 214.449219 348.566406 212.617188 349.261719 210.144531 349.390625 C 209.628906 349.390625 209.371094 349.492188 208.859375 349.492188 L 173.410156 349.492188 Z M 310.335938 343.15625 C 310.335938 351.914062 316.929688 356.808594 330.09375 357.789062 L 333.832031 357.992188 L 367.21875 357.992188 L 367.21875 349.492188 L 333.546875 349.492188 C 325.820312 349.492188 323.242188 347.636719 323.242188 343.101562 L 323.242188 298.871094 L 310.363281 298.871094 L 310.363281 343.179688 Z M 238.535156 343.542969 L 238.535156 313.117188 C 238.535156 305.386719 244.023438 300.648438 254.765625 299.203125 L 258.191406 299 L 282.5625 299 C 283.851562 299 284.933594 299.101562 286.171875 299.203125 C 296.886719 300.671875 302.273438 305.386719 302.273438 313.117188 L 302.273438 343.566406 C 302.273438 349.851562 300.003906 353.203125 294.699219 355.417969 L 307.269531 366.804688 L 292.429688 366.804688 L 282.203125 357.582031 L 271.898438 358.175781 L 258.140625 358.175781 C 255.875 358.175781 253.324219 357.917969 250.414062 357.195312 C 242.273438 354.929688 238.226562 350.601562 238.226562 343.542969 Z M 252.394531 342.871094 C 252.394531 343.257812 252.601562 343.644531 252.707031 344.160156 C 253.402344 347.6875 256.722656 349.648438 261.824219 349.648438 L 273.417969 349.648438 L 262.804688 340.011719 L 277.644531 340.011719 L 286.96875 348.460938 C 288.773438 347.484375 289.804688 346.089844 290.214844 344.339844 C 290.316406 343.953125 290.316406 343.464844 290.316406 343.050781 L 290.316406 313.941406 C 290.316406 313.554688 290.316406 313.167969 290.214844 312.753906 C 289.519531 309.40625 286.195312 307.550781 281.199219 307.550781 L 261.875 307.550781 C 256.207031 307.550781 252.449219 310 252.449219 313.941406 Z M 252.394531 342.871094 " fill-opacity="1" fill-rule="evenodd"/></svg>