<svg xmlns="http://www.w3.org/2000/svg" xmlns:xlink="http://www.w3.org/1999/xlink" width="500" zoomAndPan="magnify" viewBox="0 0 375 374.999991" height="500" preserveAspectRatio="xMidYMid meet" version="1.0"><defs><filter x="0%" y="0%" width="100%" height="100%" id="10a390eb1e"><feColorMatrix values="0 0 0 0 1 0 0 0 0 1 0 0 0 0 1 0 0 0 1 0" color-interpolation-filters="sRGB"/></filter><clipPath id="5a6fab905a"><path d="M 1.457031 0 L 374.957031 0 L 374.957031 374 L 1.457031 374 Z M 1.457031 0 " clip-rule="nonzero"/></clipPath><clipPath id="1a70381a8f"><path d="M 1.457031 0 L 229 0 L 229 228 L 1.457031 228 Z M 1.457031 0 " clip-rule="nonzero"/></clipPath><mask id="3fc4f3da1e"><g filter="url(#10a390eb1e)"><rect x="-37.5" width="450" fill="#000000" y="-37.499999" height="449.999989" fill-opacity="0.3"/></g></mask><clipPath id="2a754145eb"><path d="M 0.457031 0 L 227.71875 0 L 227.71875 227 L 0.457031 227 Z M 0.457031 0 " clip-rule="nonzero"/></clipPath><clipPath id="e4029ba1b6"><rect x="0" width="228" y="0" height="228"/></clipPath><clipPath id="8934b9132f"><path d="M 147 145 L 374.957031 145 L 374.957031 374 L 147 374 Z M 147 145 " clip-rule="nonzero"/></clipPath><mask id="6b4b47b59c"><g filter="url(#10a390eb1e)"><rect x="-37.5" width="450" fill="#000000" y="-37.499999" height="449.999989" fill-opacity="0.15"/></g></mask><clipPath id="7bf63ad266"><path d="M 0.359375 1 L 227.878906 1 L 227.878906 228.441406 L 0.359375 228.441406 Z M 0.359375 1 " clip-rule="nonzero"/></clipPath><clipPath id="e07543e300"><rect x="0" width="228" y="0" height="229"/></clipPath></defs><g clip-path="url(#5a6fab905a)"><path fill="#353535" d="M 374.804688 186.707031 C 374.804688 189.761719 374.730469 192.816406 374.582031 195.867188 C 374.433594 198.917969 374.207031 201.964844 373.90625 205.003906 C 373.609375 208.042969 373.234375 211.074219 372.785156 214.097656 C 372.335938 217.121094 371.816406 220.128906 371.21875 223.125 C 370.625 226.121094 369.953125 229.101562 369.210938 232.066406 C 368.46875 235.027344 367.65625 237.972656 366.769531 240.894531 C 365.882812 243.820312 364.921875 246.71875 363.894531 249.597656 C 362.863281 252.472656 361.765625 255.320312 360.597656 258.144531 C 359.425781 260.964844 358.191406 263.757812 356.882812 266.519531 C 355.578125 269.28125 354.203125 272.011719 352.765625 274.703125 C 351.324219 277.398438 349.820312 280.054688 348.25 282.675781 C 346.675781 285.296875 345.042969 287.878906 343.347656 290.417969 C 341.648438 292.957031 339.890625 295.453125 338.070312 297.910156 C 336.25 300.363281 334.371094 302.769531 332.433594 305.132812 C 330.496094 307.492188 328.5 309.804688 326.449219 312.070312 C 324.398438 314.332031 322.292969 316.546875 320.132812 318.707031 C 317.972656 320.867188 315.757812 322.972656 313.496094 325.023438 C 311.230469 327.074219 308.917969 329.070312 306.558594 331.007812 C 304.195312 332.945312 301.789062 334.824219 299.335938 336.644531 C 296.878906 338.464844 294.382812 340.222656 291.84375 341.921875 C 289.304688 343.617188 286.722656 345.253906 284.101562 346.824219 C 281.480469 348.394531 278.824219 349.898438 276.128906 351.339844 C 273.4375 352.777344 270.707031 354.152344 267.945312 355.457031 C 265.183594 356.765625 262.390625 358.003906 259.570312 359.171875 C 256.746094 360.339844 253.898438 361.441406 251.019531 362.46875 C 248.144531 363.5 245.246094 364.457031 242.320312 365.34375 C 239.398438 366.230469 236.453125 367.042969 233.492188 367.785156 C 230.527344 368.527344 227.546875 369.199219 224.550781 369.792969 C 221.554688 370.390625 218.546875 370.914062 215.523438 371.359375 C 212.5 371.808594 209.46875 372.183594 206.429688 372.480469 C 203.390625 372.78125 200.34375 373.007812 197.292969 373.15625 C 194.242188 373.304688 191.1875 373.382812 188.132812 373.382812 C 185.078125 373.382812 182.023438 373.304688 178.972656 373.15625 C 175.921875 373.007812 172.875 372.78125 169.835938 372.480469 C 166.796875 372.183594 163.765625 371.808594 160.742188 371.359375 C 157.71875 370.914062 154.710938 370.390625 151.714844 369.792969 C 148.71875 369.199219 145.738281 368.527344 142.773438 367.785156 C 139.8125 367.042969 136.867188 366.230469 133.945312 365.34375 C 131.019531 364.457031 128.121094 363.5 125.246094 362.46875 C 122.367188 361.441406 119.519531 360.339844 116.695312 359.171875 C 113.875 358.003906 111.082031 356.765625 108.320312 355.457031 C 105.558594 354.152344 102.828125 352.777344 100.136719 351.339844 C 97.441406 349.898438 94.785156 348.394531 92.164062 346.824219 C 89.542969 345.253906 86.960938 343.617188 84.421875 341.921875 C 81.882812 340.222656 79.386719 338.464844 76.929688 336.644531 C 74.476562 334.824219 72.070312 332.945312 69.707031 331.007812 C 67.347656 329.070312 65.035156 327.074219 62.769531 325.023438 C 60.507812 322.972656 58.292969 320.867188 56.132812 318.707031 C 53.972656 316.546875 51.867188 314.332031 49.816406 312.070312 C 47.765625 309.804688 45.769531 307.492188 43.832031 305.132812 C 41.894531 302.769531 40.015625 300.363281 38.195312 297.910156 C 36.375 295.453125 34.617188 292.957031 32.917969 290.417969 C 31.222656 287.878906 29.585938 285.296875 28.015625 282.675781 C 26.445312 280.054688 24.941406 277.398438 23.5 274.703125 C 22.0625 272.011719 20.6875 269.28125 19.382812 266.519531 C 18.074219 263.757812 16.835938 260.964844 15.667969 258.144531 C 14.5 255.320312 13.398438 252.472656 12.371094 249.597656 C 11.34375 246.71875 10.382812 243.820312 9.496094 240.894531 C 8.609375 237.972656 7.796875 235.027344 7.054688 232.066406 C 6.3125 229.101562 5.640625 226.121094 5.046875 223.125 C 4.449219 220.128906 3.925781 217.121094 3.480469 214.097656 C 3.03125 211.074219 2.65625 208.042969 2.359375 205.003906 C 2.058594 201.964844 1.832031 198.917969 1.683594 195.867188 C 1.535156 192.816406 1.457031 189.761719 1.457031 186.707031 C 1.457031 183.652344 1.535156 180.597656 1.683594 177.546875 C 1.832031 174.496094 2.058594 171.449219 2.359375 168.410156 C 2.65625 165.371094 3.03125 162.339844 3.480469 159.316406 C 3.925781 156.292969 4.449219 153.285156 5.046875 150.289062 C 5.640625 147.292969 6.3125 144.3125 7.054688 141.347656 C 7.796875 138.386719 8.609375 135.441406 9.496094 132.519531 C 10.382812 129.59375 11.34375 126.695312 12.371094 123.820312 C 13.398438 120.941406 14.5 118.09375 15.667969 115.269531 C 16.835938 112.449219 18.074219 109.65625 19.382812 106.894531 C 20.6875 104.132812 22.0625 101.402344 23.5 98.710938 C 24.941406 96.015625 26.445312 93.359375 28.015625 90.738281 C 29.585938 88.117188 31.222656 85.535156 32.917969 82.996094 C 34.617188 80.457031 36.375 77.960938 38.195312 75.503906 C 40.015625 73.050781 41.894531 70.644531 43.832031 68.28125 C 45.769531 65.921875 47.765625 63.609375 49.816406 61.34375 C 51.867188 59.082031 53.972656 56.871094 56.132812 54.707031 C 58.292969 52.546875 60.507812 50.441406 62.769531 48.390625 C 65.035156 46.339844 67.347656 44.34375 69.707031 42.40625 C 72.070312 40.46875 74.476562 38.589844 76.929688 36.769531 C 79.386719 34.949219 81.882812 33.191406 84.421875 31.492188 C 86.960938 29.796875 89.542969 28.164062 92.164062 26.59375 C 94.785156 25.019531 97.441406 23.515625 100.136719 22.074219 C 102.828125 20.636719 105.558594 19.261719 108.320312 17.957031 C 111.082031 16.648438 113.875 15.414062 116.695312 14.242188 C 119.519531 13.074219 122.367188 11.976562 125.246094 10.945312 C 128.121094 9.917969 131.019531 8.957031 133.945312 8.070312 C 136.867188 7.183594 139.8125 6.371094 142.773438 5.628906 C 145.738281 4.886719 148.71875 4.214844 151.714844 3.621094 C 154.710938 3.023438 157.71875 2.503906 160.742188 2.054688 C 163.765625 1.605469 166.796875 1.230469 169.835938 0.933594 C 172.875 0.632812 175.921875 0.410156 178.972656 0.257812 C 182.023438 0.109375 185.078125 0.0351562 188.132812 0.0351562 C 191.1875 0.0351562 194.242188 0.109375 197.292969 0.257812 C 200.34375 0.410156 203.390625 0.632812 206.429688 0.933594 C 209.46875 1.230469 212.5 1.605469 215.523438 2.054688 C 218.546875 2.503906 221.554688 3.023438 224.550781 3.621094 C 227.546875 4.214844 230.527344 4.886719 233.492188 5.628906 C 236.453125 6.371094 239.398438 7.183594 242.320312 8.070312 C 245.246094 8.957031 248.144531 9.917969 251.019531 10.945312 C 253.898438 11.976562 256.746094 13.074219 259.570312 14.242188 C 262.390625 15.414062 265.183594 16.648438 267.945312 17.957031 C 270.707031 19.261719 273.4375 20.636719 276.128906 22.074219 C 278.824219 23.515625 281.480469 25.019531 284.101562 26.59375 C 286.722656 28.164062 289.304688 29.796875 291.84375 31.492188 C 294.382812 33.191406 296.878906 34.949219 299.335938 36.769531 C 301.789062 38.589844 304.195312 40.46875 306.558594 42.40625 C 308.917969 44.34375 311.230469 46.339844 313.496094 48.390625 C 315.757812 50.441406 317.972656 52.546875 320.132812 54.707031 C 322.292969 56.871094 324.398438 59.082031 326.449219 61.34375 C 328.5 63.609375 330.496094 65.921875 332.433594 68.28125 C 334.371094 70.644531 336.25 73.050781 338.070312 75.503906 C 339.890625 77.960938 341.648438 80.457031 343.347656 82.996094 C 345.042969 85.535156 346.675781 88.117188 348.25 90.738281 C 349.820312 93.359375 351.324219 96.015625 352.765625 98.710938 C 354.203125 101.402344 355.578125 104.132812 356.882812 106.894531 C 358.191406 109.65625 359.425781 112.449219 360.597656 115.269531 C 361.765625 118.09375 362.863281 120.941406 363.894531 123.820312 C 364.921875 126.695312 365.882812 129.59375 366.769531 132.519531 C 367.65625 135.441406 368.46875 138.386719 369.210938 141.347656 C 369.953125 144.3125 370.625 147.292969 371.21875 150.289062 C 371.816406 153.285156 372.335938 156.292969 372.785156 159.316406 C 373.234375 162.339844 373.609375 165.371094 373.90625 168.410156 C 374.207031 171.449219 374.433594 174.496094 374.582031 177.546875 C 374.730469 180.597656 374.804688 183.652344 374.804688 186.707031 Z M 374.804688 186.707031 " fill-opacity="1" fill-rule="nonzero"/></g><g clip-path="url(#1a70381a8f)"><g mask="url(#3fc4f3da1e)"><g transform="matrix(1, 0, 0, 1, 1, 0)"><g clip-path="url(#e4029ba1b6)"><g clip-path="url(#2a754145eb)"><path fill="#b9b9b9" d="M 187.132812 40.613281 C 208.046875 40.613281 225.066406 24.730469 227.277344 4.40625 C 214.339844 1.574219 200.921875 0.0351562 187.132812 0.0351562 C 84.03125 0.0351562 0.457031 83.605469 0.457031 186.707031 C 0.457031 200.496094 2 213.914062 4.832031 226.851562 C 25.164062 224.644531 41.039062 207.621094 41.039062 186.707031 C 41.039062 106.152344 106.578125 40.613281 187.132812 40.613281 Z M 187.132812 40.613281 " fill-opacity="1" fill-rule="nonzero"/></g></g></g></g></g><path stroke-linecap="round" transform="matrix(8.116253, 0, 0, 8.116253, -71.587344, -73.012774)" fill="none" stroke-linejoin="round" d="M 15.047142 23.426793 C 16.925125 19.7281 19.978894 16.721979 23.713202 14.905119 " stroke="#ffffff" stroke-width="3" stroke-opacity="1" stroke-miterlimit="10"/><g clip-path="url(#8934b9132f)"><g mask="url(#6b4b47b59c)"><g transform="matrix(1, 0, 0, 1, 147, 145)"><g clip-path="url(#e07543e300)"><g clip-path="url(#7bf63ad266)"><path fill="#000000" d="M 223.433594 1.5625 C 203.101562 3.773438 187.226562 20.792969 187.226562 41.707031 C 187.226562 122.261719 121.6875 187.800781 41.132812 187.800781 C 20.21875 187.800781 3.199219 203.683594 0.988281 224.007812 C 13.925781 226.839844 27.34375 228.382812 41.132812 228.382812 C 144.234375 228.382812 227.804688 144.808594 227.804688 41.707031 C 227.804688 27.917969 226.265625 14.5 223.433594 1.5625 Z M 223.433594 1.5625 " fill-opacity="1" fill-rule="nonzero"/></g></g></g></g></g><path fill="#ffffff" d="M 104.496094 284.101562 C 96.320312 284.101562 90.496094 281.367188 86.988281 275.929688 C 83.480469 270.46875 83.578125 263.769531 87.273438 255.792969 L 161.992188 92.054688 C 165.097656 85.449219 168.792969 80.628906 173.085938 77.617188 C 177.363281 74.597656 182.328125 73.078125 187.96875 73.078125 C 193.609375 73.078125 198.578125 74.597656 202.863281 77.617188 C 207.140625 80.636719 210.738281 85.457031 213.660156 92.054688 L 288.945312 255.792969 C 292.636719 263.964844 292.792969 270.710938 289.382812 276.074219 C 285.972656 281.414062 280.488281 284.101562 272.898438 284.101562 C 266.285156 284.101562 261.179688 282.535156 257.582031 279.425781 C 253.972656 276.320312 250.816406 271.449219 248.09375 264.84375 L 235.839844 236.816406 L 139.816406 236.816406 L 127.84375 264.84375 C 124.941406 271.636719 121.816406 276.554688 118.511719 279.566406 C 115.199219 282.585938 110.535156 284.101562 104.496094 284.101562 Z M 187.386719 123.855469 L 154.992188 201.496094 L 220.945312 201.496094 L 187.96875 123.855469 Z M 187.386719 123.855469 " fill-opacity="1" fill-rule="nonzero"/></svg>