<svg xmlns="http://www.w3.org/2000/svg" xmlns:xlink="http://www.w3.org/1999/xlink" width="500" zoomAndPan="magnify" viewBox="0 0 375 374.999991" height="500" preserveAspectRatio="xMidYMid meet" version="1.2"><defs><filter x="0%" y="0%" width="100%" filterUnits="objectBoundingBox" id="b94ea424d2" height="100%"><feColorMatrix values="0 0 0 0 1 0 0 0 0 1 0 0 0 0 1 0 0 0 1 0" type="matrix" in="SourceGraphic"/></filter><clipPath id="381848066d"><rect x="0" width="365" y="0" height="365"/></clipPath></defs><g id="c53be3e179"><g mask="url(#496b782466)" transform="matrix(1,0,0,1,10,10)"><g clip-path="url(#381848066d)"><path style=" stroke:none;fill-rule:nonzero;fill:#2c4f75;fill-opacity:1;" d="M 167.605469 34.480469 C 168.472656 35.132812 169.019531 35.78125 169.445312 36.78125 C 169.804688 37.839844 170.132812 38.90625 170.453125 39.980469 L 170.839844 41.226562 C 171.117188 42.128906 171.394531 43.03125 171.671875 43.929688 C 172.183594 45.617188 172.707031 47.296875 173.238281 48.980469 L 173.710938 50.496094 C 174.042969 51.550781 174.375 52.609375 174.703125 53.664062 C 178.226562 64.949219 181.847656 76.195312 185.605469 87.402344 L 185.90625 88.300781 L 187.972656 94.457031 L 188.253906 95.304688 C 190.152344 100.96875 191.980469 106.652344 193.78125 112.347656 L 194.425781 114.378906 L 194.746094 115.386719 C 196.191406 119.945312 197.6875 124.492188 199.179688 129.039062 C 200.5 133.050781 201.804688 137.066406 203.054688 141.101562 L 203.371094 142.109375 C 203.851562 143.664062 204.332031 145.21875 204.804688 146.777344 L 205.308594 148.414062 L 205.742188 149.832031 C 206.265625 151.195312 206.878906 152.179688 207.730469 153.355469 C 210.257812 153.113281 212.78125 152.828125 215.300781 152.503906 L 217.554688 152.21875 C 218.699219 152.078125 219.847656 151.929688 220.992188 151.785156 C 235.089844 149.976562 249.238281 148.945312 263.425781 148.152344 C 264.679688 148.082031 265.933594 148.007812 267.1875 147.9375 C 280.496094 147.167969 293.8125 146.527344 307.132812 146.007812 C 310.75 145.863281 314.367188 145.6875 317.980469 145.480469 L 317.980469 145.855469 C 316.128906 146.203125 314.277344 146.550781 312.425781 146.894531 C 311.800781 147.011719 311.179688 147.128906 310.554688 147.246094 C 306.714844 147.96875 302.859375 148.621094 298.992188 149.199219 C 293.972656 149.953125 288.996094 150.890625 284.019531 151.878906 L 282.660156 152.148438 C 273.621094 153.933594 264.628906 155.914062 255.652344 157.988281 C 254.324219 158.292969 253 158.59375 251.671875 158.894531 C 243.328125 160.789062 235.015625 162.800781 226.714844 164.863281 L 225.945312 165.054688 C 217.441406 167.167969 208.988281 169.464844 200.585938 171.941406 L 199.386719 172.292969 C 198.65625 172.503906 197.921875 172.722656 197.191406 172.941406 L 196.21875 173.226562 L 195.378906 173.476562 C 194.496094 173.621094 193.945312 173.519531 193.105469 173.230469 C 192.515625 172.8125 192.515625 172.8125 191.980469 172.105469 C 191.589844 171.21875 191.234375 170.324219 190.910156 169.414062 L 190.613281 168.605469 C 189.6875 166.042969 188.839844 163.460938 188 160.871094 C 184.496094 150.101562 180.457031 139.515625 176.40625 128.941406 C 174.105469 122.890625 171.925781 116.789062 169.71875 110.699219 L 169.230469 109.351562 C 168.921875 108.503906 168.617188 107.65625 168.3125 106.808594 L 167.894531 105.660156 L 167.53125 104.65625 C 167.246094 103.851562 167.246094 103.851562 166.855469 103.105469 L 166.105469 103.105469 L 162.960938 112.347656 C 161.238281 117.402344 159.527344 122.457031 157.820312 127.511719 C 157.183594 129.398438 156.546875 131.289062 155.910156 133.175781 C 155.832031 133.410156 155.75 133.644531 155.667969 133.886719 C 153.535156 140.210938 151.347656 146.507812 149.050781 152.773438 C 147.316406 157.515625 145.792969 162.300781 144.425781 167.160156 L 144.214844 167.902344 C 144.027344 168.554688 143.84375 169.207031 143.660156 169.863281 C 143.179688 171.113281 142.679688 171.910156 141.730469 172.855469 C 140.433594 173.207031 139.199219 173.277344 137.859375 173.285156 L 136.660156 173.296875 L 135.351562 173.300781 L 133.964844 173.3125 C 132.964844 173.316406 131.96875 173.324219 130.96875 173.328125 C 129.359375 173.335938 127.75 173.347656 126.140625 173.355469 C 123.269531 173.375 120.398438 173.390625 117.527344 173.40625 C 112.195312 173.4375 106.859375 173.46875 101.523438 173.503906 C 89.050781 173.585938 76.578125 173.765625 64.105469 173.980469 C 65.230469 175.117188 66.335938 176.179688 67.621094 177.136719 L 68.542969 177.828125 L 69.519531 178.550781 L 70.535156 179.308594 C 72.804688 180.992188 75.09375 182.652344 77.402344 184.285156 C 78.378906 184.980469 79.347656 185.679688 80.316406 186.382812 C 83.433594 188.660156 86.582031 190.863281 89.804688 192.988281 C 92.410156 194.714844 94.953125 196.519531 97.480469 198.355469 C 102.335938 201.882812 102.335938 201.882812 107.253906 205.316406 C 112.21875 208.710938 117.109375 212.1875 121.902344 215.824219 C 122.40625 216.203125 122.910156 216.582031 123.417969 216.960938 L 124.234375 217.566406 L 124.972656 218.113281 C 125.605469 218.605469 125.605469 218.605469 126.355469 219.355469 C 126.296875 220.257812 126.296875 220.257812 125.980469 221.230469 C 123.621094 224.160156 119.828125 226.269531 116.78125 228.441406 C 113.007812 231.140625 109.269531 233.867188 105.710938 236.847656 C 103.433594 238.664062 101.039062 240.328125 98.667969 242.015625 C 97.582031 242.804688 96.523438 243.621094 95.46875 244.445312 L 94.855469 244.855469 L 94.105469 244.855469 C 94.628906 243.425781 95.289062 242.210938 96.109375 240.929688 L 96.863281 239.746094 L 97.667969 238.503906 L 98.480469 237.230469 C 100.21875 234.523438 102.035156 231.914062 104.03125 229.394531 C 104.675781 228.390625 104.675781 228.390625 104.710938 227.25 C 104.199219 226.03125 103.859375 225.695312 102.847656 224.894531 C 102.242188 224.464844 101.632812 224.039062 101.019531 223.621094 L 99.050781 222.222656 L 98.050781 221.527344 C 96.707031 220.574219 95.394531 219.578125 94.082031 218.582031 C 89.578125 215.1875 84.988281 211.917969 80.375 208.671875 C 75.796875 205.449219 71.277344 202.144531 66.769531 198.816406 C 62.605469 195.742188 58.402344 192.710938 54.167969 189.730469 C 48.726562 185.898438 43.355469 181.972656 38 178.015625 C 36.515625 176.921875 35.03125 175.824219 33.542969 174.730469 L 27.308594 170.136719 L 25.523438 168.820312 C 24.0625 167.746094 22.605469 166.667969 21.152344 165.582031 C 18.539062 163.632812 15.917969 161.714844 13.210938 159.898438 L 12.558594 159.457031 C 11.496094 158.742188 10.429688 158.035156 9.359375 157.328125 C 8.78125 156.941406 8.78125 156.941406 8.191406 156.550781 L 7.144531 155.859375 L 6.355469 155.230469 L 5.980469 154.105469 C 7.28125 153.8125 8.480469 153.683594 9.8125 153.679688 L 10.988281 153.671875 L 12.273438 153.671875 L 13.648438 153.667969 C 14.902344 153.664062 16.160156 153.660156 17.414062 153.660156 C 18.769531 153.65625 20.125 153.652344 21.480469 153.648438 C 23.832031 153.644531 26.179688 153.636719 28.53125 153.632812 C 31.941406 153.625 35.347656 153.617188 38.757812 153.605469 C 44.300781 153.589844 49.84375 153.574219 55.386719 153.5625 L 56.390625 153.558594 L 71.472656 153.523438 L 72.46875 153.519531 C 77.980469 153.507812 83.496094 153.492188 89.007812 153.476562 C 92.402344 153.464844 95.792969 153.457031 99.1875 153.449219 C 101.523438 153.445312 103.855469 153.441406 106.1875 153.433594 C 107.53125 153.429688 108.871094 153.425781 110.210938 153.421875 C 116.601562 153.414062 122.972656 153.292969 129.355469 152.980469 L 129.582031 152.214844 L 129.886719 151.203125 L 130.183594 150.203125 C 130.601562 148.824219 131.050781 147.457031 131.507812 146.085938 L 131.796875 145.207031 C 132.003906 144.582031 132.210938 143.957031 132.417969 143.332031 C 132.75 142.328125 133.082031 141.324219 133.414062 140.320312 C 134.355469 137.464844 135.300781 134.613281 136.246094 131.757812 C 139.039062 123.320312 141.789062 114.875 144.433594 106.386719 C 145.617188 102.585938 146.824219 98.789062 148.035156 94.996094 L 148.414062 93.808594 C 150.128906 88.433594 151.910156 83.078125 153.753906 77.746094 C 156.578125 69.582031 159.132812 61.339844 161.679688 53.082031 C 162.125 51.640625 162.570312 50.199219 163.019531 48.757812 L 163.253906 48.007812 L 163.476562 47.285156 C 164.207031 44.929688 164.9375 42.574219 165.667969 40.21875 C 165.9375 39.34375 166.207031 38.46875 166.480469 37.597656 L 166.902344 36.234375 C 167.230469 35.230469 167.230469 35.230469 167.605469 34.480469 "/><path style=" stroke:none;fill-rule:nonzero;fill:#c83c40;fill-opacity:1;" d="M 367.855469 146.230469 L 367.855469 146.980469 L 366.902344 147.0625 C 341.082031 149.433594 315.144531 155.960938 291.25 166.050781 C 290.261719 166.464844 289.265625 166.867188 288.265625 167.253906 C 275.761719 172.179688 263.613281 178.171875 251.867188 184.675781 C 250.867188 185.222656 249.867188 185.765625 248.863281 186.300781 C 243.304688 189.289062 237.882812 192.480469 232.480469 195.730469 L 231.324219 196.425781 C 224.101562 200.773438 216.957031 205.25 209.980469 209.980469 L 209.042969 210.613281 C 204.445312 213.726562 199.875 216.878906 195.355469 220.105469 L 194.554688 220.675781 C 190.480469 223.574219 186.488281 226.570312 182.519531 229.609375 C 181.144531 230.664062 179.757812 231.707031 178.363281 232.738281 C 175.851562 234.617188 173.433594 236.605469 171.007812 238.59375 C 169.734375 239.636719 168.460938 240.675781 167.183594 241.714844 L 166.429688 242.328125 C 164.820312 243.632812 163.195312 244.921875 161.558594 246.191406 C 159.101562 248.105469 156.738281 250.117188 154.386719 252.160156 C 153.289062 253.113281 152.183594 254.058594 151.082031 255.003906 L 150.425781 255.566406 C 149.359375 256.484375 148.289062 257.394531 147.210938 258.296875 C 144.898438 260.238281 142.632812 262.214844 140.40625 264.257812 C 139.625 264.972656 138.828125 265.675781 138.027344 266.371094 C 135.121094 268.898438 132.277344 271.515625 129.582031 274.265625 C 128.910156 274.921875 128.214844 275.53125 127.503906 276.144531 C 126.457031 277.046875 125.449219 277.992188 124.480469 278.980469 C 123.535156 279.945312 122.550781 280.867188 121.527344 281.746094 C 119.984375 283.070312 118.574219 284.503906 117.148438 285.949219 C 116.113281 286.96875 115.035156 287.917969 113.929688 288.863281 C 113 289.683594 112.140625 290.566406 111.273438 291.449219 C 110.574219 292.136719 109.847656 292.777344 109.105469 293.417969 C 107.203125 295.0625 105.441406 296.800781 103.808594 298.714844 C 101.9375 300.863281 99.894531 302.832031 97.863281 304.832031 C 96.238281 306.441406 94.675781 308.082031 93.179688 309.820312 C 92.40625 310.707031 91.574219 311.53125 90.730469 312.355469 C 89.390625 313.679688 88.121094 315.027344 86.894531 316.457031 C 86.125 317.351562 85.335938 318.226562 84.542969 319.105469 C 83.53125 320.222656 82.53125 321.347656 81.542969 322.480469 C 79.648438 324.652344 77.726562 326.800781 75.757812 328.90625 C 73.695312 331.117188 71.714844 333.355469 69.816406 335.710938 C 68.890625 336.835938 67.9375 337.941406 66.964844 339.027344 L 66.042969 340.0625 C 65.230469 340.855469 65.230469 340.855469 64.105469 341.230469 C 65.023438 337.046875 66.417969 333.027344 67.785156 328.972656 L 68.546875 326.699219 C 70.128906 321.992188 71.726562 317.289062 73.339844 312.589844 C 75.628906 305.894531 77.894531 299.191406 80.136719 292.480469 L 80.398438 291.699219 C 82.570312 285.199219 84.722656 278.691406 86.632812 272.105469 C 88.148438 266.894531 89.738281 262.238281 93.710938 258.382812 C 94.734375 257.417969 95.78125 256.484375 96.835938 255.554688 C 97.6875 254.792969 98.519531 254.015625 99.351562 253.234375 C 101.308594 251.398438 103.335938 249.640625 105.429688 247.957031 C 106.585938 247.019531 107.714844 246.054688 108.847656 245.089844 C 110.941406 243.304688 113.089844 241.597656 115.261719 239.90625 C 116.160156 239.207031 117.050781 238.496094 117.9375 237.78125 C 121.367188 235 124.890625 232.367188 128.457031 229.765625 C 129.3125 229.136719 130.164062 228.496094 131.011719 227.855469 C 136.28125 223.878906 141.800781 220.296875 147.355469 216.730469 L 148.449219 216.027344 C 152.292969 213.566406 156.171875 211.171875 160.105469 208.855469 L 161.113281 208.261719 C 185.226562 194.074219 210.722656 181.382812 237.296875 172.503906 C 238.390625 172.136719 239.476562 171.761719 240.566406 171.382812 C 269.644531 161.320312 299.980469 154.542969 330.417969 150.136719 C 331.476562 149.980469 332.535156 149.824219 333.589844 149.664062 C 343.070312 148.246094 352.554688 147.234375 362.109375 146.480469 L 363.085938 146.402344 C 364.679688 146.28125 366.253906 146.203125 367.855469 146.230469 "/><path style=" stroke:none;fill-rule:nonzero;fill:#2c4f75;fill-opacity:1;" d="M 266.980469 193.855469 L 267.730469 194.230469 C 260.054688 200.648438 252.078125 206.65625 243.886719 212.402344 C 240.671875 214.664062 237.507812 217.003906 234.355469 219.355469 L 233.585938 219.925781 C 232.902344 220.4375 232.222656 220.949219 231.542969 221.464844 L 230.40625 222.324219 C 229.183594 223.3125 229.183594 223.3125 228.355469 224.605469 C 228.503906 227.316406 229.1875 229.703125 230.03125 232.269531 L 230.433594 233.519531 C 230.871094 234.871094 231.3125 236.21875 231.753906 237.566406 C 231.984375 238.273438 232.210938 238.980469 232.441406 239.6875 C 234.695312 246.644531 237 253.585938 239.320312 260.519531 C 241.132812 265.917969 242.90625 271.328125 244.664062 276.746094 L 245.3125 278.746094 L 245.644531 279.769531 C 246.597656 282.703125 247.558594 285.636719 248.523438 288.566406 L 249.46875 291.449219 L 249.707031 292.171875 C 250.089844 293.335938 250.472656 294.5 250.855469 295.660156 C 252.484375 300.609375 254.082031 305.5625 255.617188 310.535156 C 256.757812 314.25 257.949219 317.9375 259.238281 321.605469 C 260.726562 325.851562 262.167969 330.113281 263.511719 334.410156 L 263.890625 335.609375 C 264.441406 337.398438 264.898438 338.957031 264.730469 340.855469 C 263.800781 340.777344 263.050781 340.597656 262.246094 340.113281 C 261.539062 339.601562 260.84375 339.074219 260.160156 338.535156 L 259.371094 337.929688 C 257.972656 336.855469 256.585938 335.769531 255.199219 334.683594 L 253.527344 333.378906 L 252.675781 332.710938 C 249.90625 330.554688 247.0625 328.503906 244.207031 326.464844 C 242.761719 325.429688 241.324219 324.386719 239.886719 323.347656 C 237.710938 321.773438 235.53125 320.210938 233.347656 318.65625 C 232.160156 317.808594 230.976562 316.957031 229.792969 316.097656 C 226.839844 313.957031 223.875 311.835938 220.878906 309.753906 C 217.496094 307.398438 214.175781 304.972656 210.871094 302.515625 C 209.667969 301.621094 208.460938 300.734375 207.25 299.847656 C 204.765625 298.023438 202.292969 296.183594 199.832031 294.332031 C 196.90625 292.128906 193.9375 289.984375 190.960938 287.847656 C 190.109375 287.230469 189.253906 286.613281 188.402344 285.996094 C 185.410156 283.828125 182.40625 281.679688 179.382812 279.554688 C 177.6875 278.359375 176 277.144531 174.320312 275.917969 C 171.238281 273.664062 171.238281 273.664062 168.074219 271.527344 L 167.28125 271.015625 C 166.457031 270.667969 166.457031 270.667969 165.425781 270.753906 C 163.878906 271.207031 162.785156 271.96875 161.488281 272.910156 L 160.8125 273.386719 C 160.292969 273.753906 159.773438 274.125 159.253906 274.496094 C 154.210938 278.105469 149.105469 281.609375 143.953125 285.0625 C 138.609375 288.652344 133.359375 292.339844 128.230469 296.230469 L 127.480469 295.855469 C 130.09375 293.492188 132.710938 291.140625 135.398438 288.863281 C 137.707031 286.90625 139.972656 284.921875 142.175781 282.847656 C 143.980469 281.148438 145.851562 279.523438 147.785156 277.972656 C 150.90625 275.441406 153.921875 272.785156 156.894531 270.082031 C 158.011719 269.089844 159.148438 268.128906 160.292969 267.167969 C 162.101562 265.644531 163.882812 264.085938 165.632812 262.496094 C 166.636719 261.589844 167.65625 260.703125 168.675781 259.816406 C 170.027344 258.621094 171.34375 257.386719 172.660156 256.15625 C 174.140625 254.898438 174.140625 254.898438 175.105469 254.605469 C 176.34375 254.621094 177.3125 254.746094 178.40625 255.355469 C 179.160156 255.878906 179.886719 256.429688 180.613281 256.996094 C 183.371094 259.066406 186.183594 261.035156 189.042969 262.957031 C 193.074219 265.664062 197.046875 268.433594 200.964844 271.300781 C 202.273438 272.25 203.59375 273.175781 204.917969 274.105469 C 208.890625 276.902344 212.839844 279.738281 216.746094 282.625 L 217.699219 283.332031 C 218.296875 283.773438 218.894531 284.21875 219.492188 284.664062 C 220.90625 285.710938 222.332031 286.738281 223.785156 287.734375 L 224.589844 288.289062 C 225.351562 288.726562 225.996094 288.941406 226.855469 289.105469 C 225.125 282.054688 223.089844 275.128906 220.941406 268.195312 C 219.875 264.75 218.84375 261.296875 217.808594 257.839844 L 217.238281 255.933594 C 216.453125 253.316406 215.671875 250.699219 214.890625 248.082031 L 213.800781 244.433594 L 213.394531 243.066406 C 212.761719 240.964844 212.121094 238.871094 211.4375 236.785156 L 211.0625 235.632812 C 210.835938 234.933594 210.601562 234.234375 210.367188 233.539062 C 209.3125 230.335938 209.3125 230.335938 209.605469 228.730469 C 211.011719 226.863281 213.03125 225.875 215.042969 224.769531 L 217.167969 223.574219 L 218.265625 222.964844 C 222.480469 220.609375 226.679688 218.242188 230.757812 215.660156 C 233.320312 214.039062 235.910156 212.464844 238.503906 210.894531 L 239.203125 210.46875 C 242.34375 208.566406 245.488281 206.667969 248.640625 204.78125 C 249.804688 204.085938 250.964844 203.390625 252.125 202.691406 L 255.027344 200.953125 C 256.402344 200.125 257.78125 199.300781 259.15625 198.472656 C 259.835938 198.0625 260.515625 197.65625 261.195312 197.25 C 262.066406 196.726562 262.933594 196.203125 263.800781 195.675781 L 265.035156 194.933594 L 266.121094 194.273438 Z M 266.980469 193.855469 "/><path style=" stroke:none;fill-rule:nonzero;fill:#8d5255;fill-opacity:1;" d="M 367.855469 146.230469 L 367.855469 146.980469 L 366.839844 147.074219 C 359.371094 147.800781 352.019531 148.804688 344.652344 150.246094 L 343.769531 150.417969 C 343.230469 150.523438 342.6875 150.632812 342.144531 150.742188 C 340.820312 151.003906 339.582031 151.164062 338.230469 151.105469 C 339.222656 150.574219 340.136719 150.234375 341.230469 149.980469 C 337.351562 150.128906 333.554688 150.484375 329.722656 151.097656 C 327.78125 151.402344 325.945312 151.53125 323.980469 151.480469 L 323.980469 151.105469 C 347.121094 147.660156 347.121094 147.660156 358.152344 146.769531 L 359.269531 146.679688 C 365.359375 146.195312 365.359375 146.195312 367.855469 146.230469 "/><path style=" stroke:none;fill-rule:nonzero;fill:#4f6174;fill-opacity:1;" d="M 140.980469 283.855469 L 141.730469 284.230469 L 141.355469 284.980469 L 143.980469 284.605469 C 142.898438 285.757812 141.789062 286.609375 140.464844 287.464844 C 136.265625 290.21875 132.230469 293.195312 128.230469 296.230469 L 127.480469 295.855469 C 130.136719 293.453125 132.804688 291.070312 135.53125 288.746094 L 136.238281 288.140625 C 136.703125 287.746094 137.167969 287.347656 137.632812 286.953125 C 138.796875 285.960938 139.917969 284.957031 140.980469 283.855469 "/><path style=" stroke:none;fill-rule:nonzero;fill:#47596c;fill-opacity:1;" d="M 317.980469 145.480469 L 317.980469 145.855469 C 316.019531 146.222656 314.058594 146.589844 312.097656 146.957031 C 311.433594 147.082031 310.765625 147.203125 310.101562 147.332031 C 302.53125 148.753906 302.53125 148.753906 299.980469 148.855469 L 299.230469 148.105469 C 299.371094 147.308594 299.371094 147.308594 299.605469 146.605469 C 301.859375 146.445312 304.117188 146.285156 306.371094 146.125 C 307.136719 146.070312 307.90625 146.015625 308.671875 145.960938 C 309.773438 145.882812 310.878906 145.804688 311.984375 145.726562 L 313.015625 145.652344 C 314.675781 145.535156 316.316406 145.449219 317.980469 145.480469 "/><path style=" stroke:none;fill-rule:nonzero;fill:#506173;fill-opacity:1;" d="M 266.980469 193.855469 L 267.730469 194.230469 C 265.871094 195.769531 264.003906 197.308594 262.136719 198.839844 C 261.496094 199.367188 260.855469 199.894531 260.21875 200.425781 L 259.339844 201.144531 L 258.605469 201.753906 C 258.398438 201.867188 258.191406 201.984375 257.980469 202.105469 L 256.855469 201.730469 C 256.410156 200.957031 256.410156 200.957031 256.105469 200.230469 C 257.636719 199.3125 259.171875 198.398438 260.710938 197.484375 C 261.234375 197.175781 261.753906 196.863281 262.277344 196.550781 C 263.027344 196.101562 263.777344 195.65625 264.527344 195.210938 L 265.238281 194.785156 C 265.804688 194.453125 266.390625 194.148438 266.980469 193.855469 "/><path style=" stroke:none;fill-rule:nonzero;fill:#5c4949;fill-opacity:1;" d="M 367.855469 146.230469 L 367.855469 146.980469 C 365.972656 147.195312 364.09375 147.410156 362.210938 147.621094 L 360.292969 147.839844 C 359.371094 147.945312 358.449219 148.046875 357.527344 148.152344 L 356.667969 148.25 C 355.136719 148.421875 353.648438 148.515625 352.105469 148.480469 L 352.480469 147.730469 C 353.164062 147.546875 353.164062 147.546875 354.054688 147.425781 L 355.046875 147.28125 L 356.113281 147.144531 C 356.46875 147.09375 356.824219 147.046875 357.191406 146.996094 C 360.742188 146.527344 364.273438 146.203125 367.855469 146.230469 "/><path style=" stroke:none;fill-rule:nonzero;fill:#68838c;fill-opacity:1;" d="M 68.605469 326.605469 C 68.929688 327.679688 68.980469 328.101562 68.710938 329.238281 L 68.277344 330.546875 L 67.8125 331.96875 L 67.316406 333.449219 C 67.152344 333.949219 66.988281 334.445312 66.824219 334.945312 C 66.421875 336.167969 66.015625 337.386719 65.605469 338.605469 L 67.480469 338.605469 L 64.480469 341.230469 L 64.105469 340.480469 C 64.390625 339.433594 64.707031 338.398438 65.050781 337.371094 L 65.355469 336.441406 C 65.679688 335.457031 66.003906 334.476562 66.332031 333.496094 L 66.988281 331.5 C 67.523438 329.867188 68.0625 328.234375 68.605469 326.605469 "/><path style=" stroke:none;fill-rule:nonzero;fill:#4f6679;fill-opacity:1;" d="M 317.980469 145.480469 L 317.980469 145.855469 C 316.707031 146.105469 315.433594 146.355469 314.160156 146.605469 L 313.070312 146.820312 L 312.011719 147.027344 L 311.039062 147.21875 C 310.089844 147.355469 309.191406 147.378906 308.230469 147.355469 L 308.605469 146.230469 C 309.746094 146.105469 310.886719 145.980469 312.027344 145.855469 C 312.347656 145.820312 312.667969 145.785156 313 145.746094 C 314.667969 145.566406 316.296875 145.4375 317.980469 145.480469 "/><path style=" stroke:none;fill-rule:nonzero;fill:#606f80;fill-opacity:1;" d="M 131.230469 292.480469 L 131.980469 292.855469 C 130.902344 294.347656 129.796875 295.269531 128.230469 296.230469 L 127.480469 295.855469 Z M 131.230469 292.480469 "/><path style=" stroke:none;fill-rule:nonzero;fill:#4c5d70;fill-opacity:1;" d="M 95.980469 241.105469 L 97.855469 242.230469 C 96.914062 243.203125 95.984375 244.101562 94.855469 244.855469 L 94.105469 244.855469 C 94.605469 243.507812 95.214844 242.320312 95.980469 241.105469 "/><path style=" stroke:none;fill-rule:nonzero;fill:#dc4d59;fill-opacity:1;" d="M 342.355469 149.605469 C 341.265625 150.332031 340.894531 150.46875 339.660156 150.589844 L 338.230469 150.730469 L 338.230469 151.480469 L 336.355469 151.105469 L 336.730469 149.980469 C 338.613281 149.746094 340.453125 149.554688 342.355469 149.605469 "/><path style=" stroke:none;fill-rule:nonzero;fill:#545b61;fill-opacity:1;" d="M 167.605469 34.480469 C 168.457031 35.246094 169.0625 35.898438 169.597656 36.917969 C 169.855469 37.855469 169.855469 37.855469 169.714844 38.722656 L 169.480469 39.355469 C 168.355469 37.199219 168.355469 37.199219 168.355469 36.355469 L 166.855469 36.730469 Z M 167.605469 34.480469 "/><path style=" stroke:none;fill-rule:nonzero;fill:#7e535c;fill-opacity:1;" d="M 64.855469 338.230469 L 65.605469 338.605469 L 67.480469 338.605469 L 64.480469 341.230469 L 64.105469 340.480469 C 64.332031 339.722656 64.582031 338.972656 64.855469 338.230469 "/><path style=" stroke:none;fill-rule:nonzero;fill:#404d57;fill-opacity:1;" d="M 264.355469 338.605469 L 264.730469 338.605469 L 264.730469 340.855469 C 263.863281 340.738281 263.863281 340.738281 262.855469 340.480469 C 262.175781 339.894531 262.175781 339.894531 261.730469 339.355469 L 262.410156 339.613281 L 263.230469 339.730469 C 263.871094 339.214844 263.871094 339.214844 264.355469 338.605469 "/><path style=" stroke:none;fill-rule:nonzero;fill:#47596c;fill-opacity:1;" d="M 268.105469 193.105469 L 268.855469 193.480469 L 267.730469 193.480469 Z M 269.230469 192.355469 L 269.980469 192.730469 L 268.855469 192.730469 Z M 269.980469 191.980469 L 270.730469 192.355469 Z M 271.105469 191.230469 L 271.855469 191.605469 Z M 271.105469 191.230469 "/></g><mask id="496b782466"><g filter="url(#b94ea424d2)"><rect x="0" width="375" y="0" height="374.999991" style="fill:#000000;fill-opacity:0.27;stroke:none;"/></g></mask></g><path style=" stroke:none;fill-rule:nonzero;fill:#2c4f75;fill-opacity:1;" d="M 166.875 33.75 C 167.746094 34.402344 168.289062 35.050781 168.71875 36.050781 C 169.074219 37.109375 169.402344 38.175781 169.722656 39.25 L 170.109375 40.496094 C 170.390625 41.398438 170.664062 42.300781 170.941406 43.203125 C 171.457031 44.886719 171.976562 46.570312 172.507812 48.25 L 172.984375 49.765625 C 173.3125 50.820312 173.644531 51.878906 173.972656 52.933594 C 177.496094 64.21875 181.117188 75.464844 184.875 86.671875 L 185.175781 87.570312 L 187.242188 93.726562 L 187.527344 94.574219 C 189.421875 100.238281 191.253906 105.921875 193.054688 111.617188 L 193.695312 113.648438 L 194.015625 114.65625 C 195.460938 119.214844 196.957031 123.761719 198.449219 128.308594 C 199.769531 132.320312 201.074219 136.335938 202.324219 140.371094 L 202.640625 141.378906 C 203.121094 142.933594 203.601562 144.488281 204.074219 146.046875 L 204.578125 147.683594 L 205.011719 149.101562 C 205.535156 150.464844 206.148438 151.449219 207 152.625 C 209.527344 152.382812 212.050781 152.097656 214.570312 151.773438 L 216.824219 151.492188 C 217.96875 151.347656 219.117188 151.199219 220.265625 151.054688 C 234.363281 149.246094 248.511719 148.214844 262.695312 147.421875 C 263.949219 147.351562 265.203125 147.277344 266.457031 147.207031 C 279.765625 146.4375 293.082031 145.796875 306.402344 145.277344 C 310.019531 145.132812 313.636719 144.957031 317.25 144.75 L 317.25 145.125 C 315.398438 145.472656 313.546875 145.820312 311.699219 146.164062 C 311.074219 146.28125 310.449219 146.398438 309.824219 146.515625 C 305.984375 147.238281 302.128906 147.890625 298.265625 148.46875 C 293.242188 149.222656 288.269531 150.160156 283.289062 151.148438 L 281.929688 151.417969 C 272.890625 153.203125 263.898438 155.183594 254.921875 157.257812 C 253.597656 157.5625 252.269531 157.863281 250.941406 158.164062 C 242.597656 160.058594 234.285156 162.070312 225.984375 164.132812 L 225.214844 164.324219 C 216.710938 166.4375 208.257812 168.734375 199.855469 171.210938 L 198.65625 171.5625 C 197.925781 171.773438 197.191406 171.992188 196.460938 172.214844 L 195.488281 172.496094 L 194.648438 172.746094 C 193.765625 172.894531 193.214844 172.789062 192.375 172.5 C 191.785156 172.082031 191.785156 172.082031 191.25 171.375 C 190.859375 170.492188 190.503906 169.59375 190.179688 168.683594 L 189.882812 167.875 C 188.957031 165.3125 188.113281 162.730469 187.273438 160.140625 C 183.769531 149.371094 179.730469 138.785156 175.679688 128.210938 C 173.375 122.160156 171.195312 116.058594 168.988281 109.972656 L 168.5 108.621094 C 168.195312 107.773438 167.886719 106.925781 167.582031 106.078125 L 167.164062 104.929688 L 166.800781 103.925781 C 166.515625 103.121094 166.515625 103.121094 166.125 102.375 L 165.375 102.375 L 162.230469 111.617188 C 160.511719 116.671875 158.796875 121.726562 157.089844 126.78125 C 156.453125 128.671875 155.816406 130.558594 155.179688 132.445312 C 155.101562 132.679688 155.019531 132.914062 154.941406 133.15625 C 152.804688 139.480469 150.617188 145.777344 148.320312 152.042969 C 146.585938 156.785156 145.0625 161.570312 143.695312 166.429688 L 143.484375 167.171875 C 143.296875 167.824219 143.113281 168.480469 142.929688 169.132812 C 142.449219 170.382812 141.949219 171.179688 141 172.125 C 139.703125 172.476562 138.46875 172.550781 137.128906 172.554688 L 135.929688 172.566406 L 134.625 172.570312 L 133.234375 172.582031 C 132.238281 172.585938 131.238281 172.59375 130.238281 172.597656 C 128.628906 172.605469 127.019531 172.617188 125.410156 172.625 C 122.539062 172.644531 119.667969 172.660156 116.796875 172.679688 C 111.464844 172.707031 106.128906 172.738281 100.792969 172.773438 C 88.320312 172.855469 75.847656 173.035156 63.375 173.25 C 64.5 174.386719 65.605469 175.449219 66.890625 176.40625 L 67.8125 177.097656 L 68.789062 177.820312 L 69.804688 178.578125 C 72.074219 180.265625 74.363281 181.921875 76.671875 183.558594 C 77.648438 184.25 78.621094 184.949219 79.585938 185.652344 C 82.703125 187.929688 85.851562 190.132812 89.074219 192.261719 C 91.679688 193.984375 94.222656 195.789062 96.75 197.625 C 101.605469 201.152344 101.605469 201.152344 106.523438 204.585938 C 111.488281 207.980469 116.378906 211.457031 121.171875 215.09375 C 121.675781 215.472656 122.183594 215.851562 122.691406 216.230469 L 123.503906 216.835938 L 124.242188 217.382812 C 124.875 217.875 124.875 217.875 125.625 218.625 C 125.566406 219.527344 125.566406 219.527344 125.25 220.5 C 122.890625 223.429688 119.097656 225.539062 116.050781 227.710938 C 112.28125 230.414062 108.539062 233.140625 104.980469 236.117188 C 102.703125 237.9375 100.308594 239.597656 97.9375 241.285156 C 96.851562 242.074219 95.792969 242.890625 94.738281 243.714844 L 94.125 244.125 L 93.375 244.125 C 93.898438 242.699219 94.558594 241.480469 95.378906 240.199219 L 96.136719 239.015625 L 96.9375 237.773438 L 97.75 236.5 C 99.488281 233.792969 101.304688 231.183594 103.300781 228.664062 C 103.945312 227.660156 103.945312 227.660156 103.980469 226.519531 C 103.46875 225.300781 103.128906 224.964844 102.117188 224.164062 C 101.511719 223.734375 100.902344 223.308594 100.289062 222.890625 L 98.320312 221.496094 L 97.324219 220.796875 C 95.976562 219.84375 94.664062 218.847656 93.351562 217.851562 C 88.847656 214.460938 84.257812 211.1875 79.644531 207.941406 C 75.066406 204.71875 70.546875 201.414062 66.042969 198.089844 C 61.875 195.011719 57.671875 191.980469 53.4375 189 C 47.996094 185.167969 42.625 181.242188 37.273438 177.289062 C 35.785156 176.191406 34.300781 175.09375 32.8125 174 L 26.578125 169.40625 L 24.792969 168.089844 C 23.332031 167.015625 21.875 165.9375 20.421875 164.851562 C 17.8125 162.902344 15.1875 160.984375 12.480469 159.167969 L 11.828125 158.730469 C 10.765625 158.015625 9.699219 157.304688 8.628906 156.597656 C 8.050781 156.214844 8.050781 156.214844 7.460938 155.820312 L 6.414062 155.128906 L 5.625 154.5 L 5.25 153.375 C 6.550781 153.082031 7.75 152.953125 9.082031 152.949219 L 10.257812 152.945312 L 11.542969 152.945312 L 12.917969 152.9375 C 14.171875 152.933594 15.429688 152.933594 16.683594 152.929688 C 18.039062 152.925781 19.394531 152.925781 20.75 152.917969 C 23.101562 152.914062 25.453125 152.90625 27.800781 152.902344 C 31.210938 152.894531 34.617188 152.886719 38.027344 152.875 C 43.570312 152.859375 49.113281 152.84375 54.65625 152.832031 L 55.660156 152.828125 L 70.742188 152.792969 L 71.738281 152.789062 C 77.25 152.777344 82.765625 152.761719 88.277344 152.746094 C 91.671875 152.734375 95.066406 152.726562 98.457031 152.71875 C 100.792969 152.714844 103.125 152.710938 105.460938 152.703125 C 106.800781 152.699219 108.140625 152.695312 109.480469 152.695312 C 115.871094 152.683594 122.242188 152.5625 128.625 152.25 L 128.851562 151.484375 L 129.15625 150.472656 L 129.453125 149.472656 C 129.875 148.09375 130.320312 146.726562 130.777344 145.355469 L 131.066406 144.476562 C 131.273438 143.851562 131.480469 143.226562 131.6875 142.601562 C 132.019531 141.597656 132.351562 140.59375 132.683594 139.589844 C 133.625 136.734375 134.570312 133.882812 135.515625 131.027344 C 138.308594 122.589844 141.058594 114.144531 143.703125 105.65625 C 144.886719 101.855469 146.09375 98.058594 147.304688 94.265625 L 147.683594 93.078125 C 149.398438 87.703125 151.179688 82.347656 153.023438 77.015625 C 155.847656 68.851562 158.402344 60.609375 160.949219 52.355469 C 161.394531 50.910156 161.839844 49.46875 162.289062 48.027344 L 162.523438 47.277344 L 162.746094 46.554688 C 163.480469 44.199219 164.210938 41.84375 164.9375 39.488281 C 165.207031 38.613281 165.480469 37.742188 165.75 36.867188 L 166.171875 35.503906 C 166.5 34.5 166.5 34.5 166.875 33.75 "/><path style=" stroke:none;fill-rule:nonzero;fill:#c83c40;fill-opacity:1;" d="M 367.125 145.5 L 367.125 146.25 L 366.171875 146.335938 C 340.351562 148.703125 314.414062 155.230469 290.523438 165.320312 C 289.53125 165.734375 288.535156 166.136719 287.535156 166.523438 C 275.03125 171.449219 262.882812 177.441406 251.136719 183.945312 C 250.136719 184.492188 249.136719 185.035156 248.132812 185.570312 C 242.574219 188.558594 237.152344 191.75 231.75 195 L 230.59375 195.695312 C 223.371094 200.042969 216.226562 204.519531 209.25 209.25 L 208.3125 209.882812 C 203.714844 213 199.144531 216.148438 194.625 219.375 L 193.824219 219.945312 C 189.753906 222.84375 185.757812 225.839844 181.792969 228.878906 C 180.414062 229.933594 179.027344 230.976562 177.632812 232.007812 C 175.121094 233.886719 172.703125 235.875 170.277344 237.863281 C 169.003906 238.90625 167.730469 239.945312 166.453125 240.984375 L 165.699219 241.597656 C 164.089844 242.902344 162.464844 244.191406 160.828125 245.460938 C 158.371094 247.375 156.007812 249.390625 153.65625 251.429688 C 152.558594 252.382812 151.457031 253.328125 150.351562 254.273438 L 149.695312 254.835938 C 148.628906 255.753906 147.558594 256.664062 146.480469 257.566406 C 144.167969 259.511719 141.902344 261.484375 139.675781 263.527344 C 138.894531 264.242188 138.101562 264.949219 137.296875 265.640625 C 134.390625 268.171875 131.550781 270.785156 128.851562 273.535156 C 128.179688 274.191406 127.484375 274.800781 126.773438 275.414062 C 125.726562 276.316406 124.71875 277.261719 123.75 278.25 C 122.804688 279.214844 121.820312 280.136719 120.796875 281.015625 C 119.257812 282.339844 117.84375 283.773438 116.417969 285.21875 C 115.382812 286.238281 114.304688 287.1875 113.199219 288.132812 C 112.269531 288.953125 111.410156 289.835938 110.542969 290.71875 C 109.84375 291.40625 109.117188 292.046875 108.375 292.6875 C 106.472656 294.332031 104.710938 296.070312 103.078125 297.984375 C 101.210938 300.132812 99.164062 302.101562 97.136719 304.101562 C 95.507812 305.714844 93.945312 307.351562 92.453125 309.089844 C 91.675781 309.980469 90.84375 310.800781 90 311.625 C 88.664062 312.949219 87.390625 314.296875 86.167969 315.726562 C 85.394531 316.621094 84.605469 317.5 83.8125 318.375 C 82.800781 319.492188 81.800781 320.617188 80.8125 321.75 C 78.917969 323.921875 76.996094 326.070312 75.027344 328.175781 C 72.964844 330.386719 70.984375 332.625 69.085938 334.980469 C 68.160156 336.105469 67.207031 337.210938 66.234375 338.296875 L 65.3125 339.332031 C 64.5 340.125 64.5 340.125 63.375 340.5 C 64.292969 336.316406 65.6875 332.296875 67.054688 328.242188 L 67.816406 325.96875 C 69.398438 321.261719 70.996094 316.558594 72.609375 311.859375 C 74.898438 305.164062 77.164062 298.460938 79.40625 291.75 L 79.667969 290.972656 C 81.839844 284.46875 83.992188 277.964844 85.902344 271.378906 C 87.417969 266.164062 89.007812 261.507812 92.980469 257.652344 C 94.003906 256.6875 95.054688 255.753906 96.105469 254.824219 C 96.957031 254.0625 97.789062 253.285156 98.621094 252.503906 C 100.582031 250.667969 102.605469 248.910156 104.699219 247.226562 C 105.855469 246.289062 106.988281 245.324219 108.117188 244.359375 C 110.210938 242.574219 112.359375 240.867188 114.53125 239.175781 C 115.429688 238.476562 116.320312 237.765625 117.207031 237.050781 C 120.636719 234.269531 124.160156 231.636719 127.726562 229.035156 C 128.582031 228.40625 129.433594 227.765625 130.28125 227.125 C 135.550781 223.148438 141.070312 219.566406 146.625 216 L 147.71875 215.296875 C 151.5625 212.835938 155.441406 210.441406 159.375 208.125 L 160.382812 207.53125 C 184.496094 193.34375 209.992188 180.652344 236.566406 171.773438 C 237.660156 171.40625 238.75 171.03125 239.835938 170.652344 C 268.914062 160.589844 299.25 153.8125 329.6875 149.40625 C 330.746094 149.25 331.804688 149.09375 332.859375 148.933594 C 342.339844 147.515625 351.824219 146.503906 361.378906 145.75 L 362.355469 145.671875 C 363.949219 145.550781 365.523438 145.472656 367.125 145.5 "/><path style=" stroke:none;fill-rule:nonzero;fill:#2c4f75;fill-opacity:1;" d="M 266.25 193.125 L 267 193.5 C 259.324219 199.917969 251.351562 205.925781 243.160156 211.671875 C 239.941406 213.933594 236.777344 216.273438 233.625 218.625 L 232.855469 219.199219 C 232.171875 219.707031 231.492188 220.21875 230.8125 220.734375 L 229.675781 221.59375 C 228.453125 222.582031 228.453125 222.582031 227.625 223.875 C 227.773438 226.585938 228.457031 228.972656 229.300781 231.539062 L 229.707031 232.789062 C 230.140625 234.140625 230.582031 235.488281 231.023438 236.835938 C 231.253906 237.542969 231.484375 238.25 231.710938 238.957031 C 233.964844 245.914062 236.269531 252.855469 238.59375 259.789062 C 240.402344 265.1875 242.175781 270.601562 243.933594 276.015625 L 244.582031 278.015625 L 244.914062 279.039062 C 245.867188 281.972656 246.828125 284.90625 247.792969 287.835938 L 248.738281 290.71875 L 248.976562 291.441406 C 249.359375 292.605469 249.742188 293.769531 250.125 294.933594 C 251.753906 299.878906 253.351562 304.832031 254.886719 309.808594 C 256.03125 313.519531 257.21875 317.210938 258.507812 320.875 C 259.996094 325.121094 261.441406 329.382812 262.78125 333.679688 L 263.164062 334.878906 C 263.710938 336.667969 264.167969 338.226562 264 340.125 C 263.070312 340.046875 262.320312 339.867188 261.515625 339.382812 C 260.808594 338.871094 260.113281 338.34375 259.429688 337.804688 L 258.640625 337.199219 C 257.242188 336.128906 255.855469 335.039062 254.46875 333.957031 L 252.796875 332.648438 L 251.945312 331.984375 C 249.175781 329.824219 246.332031 327.773438 243.476562 325.734375 C 242.03125 324.699219 240.59375 323.65625 239.15625 322.617188 C 236.980469 321.046875 234.800781 319.480469 232.617188 317.925781 C 231.429688 317.078125 230.246094 316.226562 229.0625 315.367188 C 226.109375 313.226562 223.144531 311.105469 220.148438 309.023438 C 216.769531 306.667969 213.445312 304.242188 210.140625 301.785156 C 208.9375 300.890625 207.730469 300.003906 206.523438 299.117188 C 204.039062 297.292969 201.5625 295.457031 199.101562 293.601562 C 196.175781 291.398438 193.207031 289.253906 190.234375 287.117188 C 189.378906 286.5 188.523438 285.886719 187.671875 285.265625 C 184.679688 283.097656 181.675781 280.949219 178.652344 278.824219 C 176.957031 277.628906 175.269531 276.414062 173.589844 275.1875 C 170.507812 272.933594 170.507812 272.933594 167.34375 270.796875 L 166.550781 270.285156 C 165.726562 269.9375 165.726562 269.9375 164.695312 270.023438 C 163.148438 270.476562 162.054688 271.238281 160.757812 272.179688 L 160.082031 272.65625 C 159.5625 273.023438 159.042969 273.394531 158.523438 273.765625 C 153.480469 277.375 148.375 280.878906 143.222656 284.332031 C 137.878906 287.921875 132.628906 291.609375 127.5 295.5 L 126.75 295.125 C 129.363281 292.761719 131.980469 290.410156 134.667969 288.132812 C 136.976562 286.175781 139.242188 284.191406 141.445312 282.117188 C 143.253906 280.417969 145.121094 278.792969 147.058594 277.242188 C 150.179688 274.710938 153.191406 272.054688 156.164062 269.355469 C 157.28125 268.359375 158.417969 267.398438 159.5625 266.4375 C 161.371094 264.914062 163.152344 263.359375 164.902344 261.765625 C 165.90625 260.859375 166.925781 259.972656 167.945312 259.085938 C 169.296875 257.890625 170.613281 256.65625 171.933594 255.425781 C 173.410156 254.167969 173.410156 254.167969 174.375 253.875 C 175.613281 253.890625 176.582031 254.015625 177.675781 254.625 C 178.429688 255.148438 179.15625 255.699219 179.882812 256.265625 C 182.640625 258.335938 185.453125 260.304688 188.316406 262.226562 C 192.34375 264.933594 196.316406 267.703125 200.234375 270.570312 C 201.542969 271.519531 202.867188 272.445312 204.1875 273.375 C 208.160156 276.171875 212.109375 279.007812 216.015625 281.894531 L 216.96875 282.601562 C 217.566406 283.042969 218.164062 283.488281 218.761719 283.933594 C 220.175781 284.980469 221.601562 286.011719 223.054688 287.003906 L 223.859375 287.558594 C 224.621094 287.996094 225.265625 288.210938 226.125 288.375 C 224.394531 281.324219 222.359375 274.398438 220.210938 267.46875 C 219.144531 264.019531 218.113281 260.566406 217.078125 257.109375 L 216.507812 255.203125 C 215.722656 252.585938 214.941406 249.96875 214.160156 247.351562 L 213.070312 243.703125 L 212.664062 242.335938 C 212.035156 240.234375 211.390625 238.140625 210.710938 236.054688 L 210.332031 234.902344 C 210.105469 234.203125 209.871094 233.503906 209.636719 232.808594 C 208.582031 229.605469 208.582031 229.605469 208.875 228 C 210.28125 226.132812 212.300781 225.148438 214.3125 224.039062 L 216.4375 222.84375 L 217.535156 222.234375 C 221.75 219.878906 225.949219 217.511719 230.027344 214.929688 C 232.589844 213.308594 235.179688 211.734375 237.773438 210.164062 L 238.472656 209.738281 C 241.613281 207.835938 244.757812 205.9375 247.910156 204.050781 C 249.074219 203.355469 250.234375 202.660156 251.394531 201.964844 L 254.296875 200.222656 C 255.671875 199.394531 257.050781 198.570312 258.425781 197.742188 C 259.105469 197.332031 259.785156 196.925781 260.464844 196.519531 C 261.335938 196 262.203125 195.472656 263.070312 194.945312 L 264.304688 194.203125 L 265.390625 193.542969 Z M 266.25 193.125 "/><path style=" stroke:none;fill-rule:nonzero;fill:#8d5255;fill-opacity:1;" d="M 367.125 145.5 L 367.125 146.25 L 366.113281 146.347656 C 358.640625 147.070312 351.289062 148.074219 343.921875 149.515625 L 343.042969 149.6875 C 342.5 149.796875 341.957031 149.902344 341.414062 150.011719 C 340.089844 150.273438 338.851562 150.433594 337.5 150.375 C 338.492188 149.84375 339.40625 149.503906 340.5 149.25 C 336.621094 149.398438 332.828125 149.753906 328.992188 150.367188 C 327.050781 150.671875 325.214844 150.800781 323.25 150.75 L 323.25 150.375 C 346.390625 146.929688 346.390625 146.929688 357.421875 146.039062 L 358.542969 145.949219 C 364.628906 145.464844 364.628906 145.464844 367.125 145.5 "/><path style=" stroke:none;fill-rule:nonzero;fill:#4f6174;fill-opacity:1;" d="M 140.25 283.125 L 141 283.5 L 140.625 284.25 L 143.25 283.875 C 142.167969 285.027344 141.058594 285.878906 139.734375 286.734375 C 135.535156 289.488281 131.5 292.464844 127.5 295.5 L 126.75 295.125 C 129.40625 292.722656 132.074219 290.339844 134.800781 288.015625 L 135.507812 287.410156 C 135.972656 287.015625 136.4375 286.617188 136.902344 286.222656 C 138.066406 285.230469 139.1875 284.226562 140.25 283.125 "/><path style=" stroke:none;fill-rule:nonzero;fill:#47596c;fill-opacity:1;" d="M 317.25 144.75 L 317.25 145.125 C 315.289062 145.492188 313.328125 145.859375 311.367188 146.226562 C 310.703125 146.351562 310.035156 146.476562 309.371094 146.601562 C 301.800781 148.023438 301.800781 148.023438 299.25 148.125 L 298.5 147.375 C 298.640625 146.578125 298.640625 146.578125 298.875 145.875 C 301.128906 145.714844 303.386719 145.554688 305.640625 145.394531 C 306.40625 145.339844 307.175781 145.285156 307.941406 145.230469 C 309.046875 145.152344 310.148438 145.074219 311.253906 144.996094 L 312.285156 144.921875 C 313.945312 144.804688 315.585938 144.722656 317.25 144.75 "/><path style=" stroke:none;fill-rule:nonzero;fill:#506173;fill-opacity:1;" d="M 266.25 193.125 L 267 193.5 C 265.140625 195.042969 263.273438 196.578125 261.40625 198.109375 C 260.765625 198.636719 260.125 199.164062 259.488281 199.695312 L 258.609375 200.414062 L 257.875 201.023438 C 257.667969 201.136719 257.460938 201.253906 257.25 201.375 L 256.125 201 C 255.679688 200.226562 255.679688 200.226562 255.375 199.5 C 256.90625 198.582031 258.441406 197.667969 259.980469 196.753906 C 260.503906 196.445312 261.027344 196.132812 261.546875 195.820312 C 262.296875 195.371094 263.046875 194.925781 263.796875 194.484375 L 264.507812 194.054688 C 265.074219 193.722656 265.660156 193.417969 266.25 193.125 "/><path style=" stroke:none;fill-rule:nonzero;fill:#5c4949;fill-opacity:1;" d="M 367.125 145.5 L 367.125 146.25 C 365.242188 146.464844 363.363281 146.679688 361.480469 146.890625 L 359.5625 147.109375 C 358.640625 147.214844 357.71875 147.320312 356.796875 147.421875 L 355.9375 147.519531 C 354.410156 147.691406 352.917969 147.785156 351.375 147.75 L 351.75 147 C 352.433594 146.816406 352.433594 146.816406 353.324219 146.695312 L 354.316406 146.554688 L 355.382812 146.414062 C 355.738281 146.367188 356.09375 146.316406 356.460938 146.265625 C 360.011719 145.796875 363.542969 145.472656 367.125 145.5 "/><path style=" stroke:none;fill-rule:nonzero;fill:#68838c;fill-opacity:1;" d="M 67.875 325.875 C 68.199219 326.949219 68.25 327.375 67.984375 328.507812 L 67.546875 329.820312 L 67.082031 331.238281 L 66.585938 332.71875 C 66.421875 333.21875 66.257812 333.714844 66.09375 334.214844 C 65.691406 335.4375 65.285156 336.65625 64.875 337.875 L 66.75 337.875 L 63.75 340.5 L 63.375 339.75 C 63.660156 338.703125 63.976562 337.667969 64.324219 336.640625 L 64.628906 335.710938 C 64.949219 334.730469 65.277344 333.746094 65.601562 332.765625 L 66.257812 330.769531 C 66.792969 329.136719 67.332031 327.507812 67.875 325.875 "/><path style=" stroke:none;fill-rule:nonzero;fill:#4f6679;fill-opacity:1;" d="M 317.25 144.75 L 317.25 145.125 C 315.976562 145.378906 314.703125 145.628906 313.429688 145.875 L 312.339844 146.089844 L 311.28125 146.296875 L 310.3125 146.488281 C 309.359375 146.628906 308.460938 146.648438 307.5 146.625 L 307.875 145.5 C 309.015625 145.375 310.15625 145.25 311.296875 145.125 C 311.617188 145.089844 311.9375 145.054688 312.269531 145.015625 C 313.9375 144.835938 315.566406 144.707031 317.25 144.75 "/><path style=" stroke:none;fill-rule:nonzero;fill:#606f80;fill-opacity:1;" d="M 130.5 291.75 L 131.25 292.125 C 130.171875 293.617188 129.066406 294.539062 127.5 295.5 L 126.75 295.125 Z M 130.5 291.75 "/><path style=" stroke:none;fill-rule:nonzero;fill:#4c5d70;fill-opacity:1;" d="M 95.25 240.375 L 97.125 241.5 C 96.183594 242.476562 95.253906 243.371094 94.125 244.125 L 93.375 244.125 C 93.875 242.777344 94.484375 241.59375 95.25 240.375 "/><path style=" stroke:none;fill-rule:nonzero;fill:#dc4d59;fill-opacity:1;" d="M 341.625 148.875 C 340.539062 149.601562 340.164062 149.738281 338.929688 149.859375 L 337.5 150 L 337.5 150.75 L 335.625 150.375 L 336 149.25 C 337.882812 149.015625 339.722656 148.828125 341.625 148.875 "/><path style=" stroke:none;fill-rule:nonzero;fill:#545b61;fill-opacity:1;" d="M 166.875 33.75 C 167.726562 34.515625 168.332031 35.167969 168.867188 36.1875 C 169.125 37.125 169.125 37.125 168.984375 37.992188 L 168.75 38.625 C 167.625 36.46875 167.625 36.46875 167.625 35.625 L 166.125 36 Z M 166.875 33.75 "/><path style=" stroke:none;fill-rule:nonzero;fill:#7e535c;fill-opacity:1;" d="M 64.125 337.5 L 64.875 337.875 L 66.75 337.875 L 63.75 340.5 L 63.375 339.75 C 63.601562 338.992188 63.851562 338.242188 64.125 337.5 "/><path style=" stroke:none;fill-rule:nonzero;fill:#404d57;fill-opacity:1;" d="M 263.625 337.875 L 264 337.875 L 264 340.125 C 263.132812 340.007812 263.132812 340.007812 262.125 339.75 C 261.445312 339.164062 261.445312 339.164062 261 338.625 L 261.679688 338.882812 L 262.5 339 C 263.140625 338.484375 263.140625 338.484375 263.625 337.875 "/><path style=" stroke:none;fill-rule:nonzero;fill:#47596c;fill-opacity:1;" d="M 267.375 192.375 L 268.125 192.75 L 267 192.75 Z M 268.5 191.625 L 269.25 192 L 268.125 192 Z M 269.25 191.25 L 270 191.625 Z M 270.375 190.5 L 271.125 190.875 Z M 270.375 190.5 "/></g></svg>