<svg xmlns="http://www.w3.org/2000/svg" xmlns:xlink="http://www.w3.org/1999/xlink" width="500" zoomAndPan="magnify" viewBox="0 0 375 374.999991" height="500" preserveAspectRatio="xMidYMid meet" version="1.2"><defs><filter x="0%" y="0%" width="100%" filterUnits="objectBoundingBox" id="1725e52efe" height="100%"><feColorMatrix values="0 0 0 0 1 0 0 0 0 1 0 0 0 0 1 0 0 0 1 0" type="matrix" in="SourceGraphic"/></filter><clipPath id="8d05cf9792"><rect x="0" width="367" y="0" height="363"/></clipPath></defs><g id="ece0190bd5"><path style=" stroke:none;fill-rule:nonzero;fill:#00457c;fill-opacity:1;" d="M 332.71875 11.191406 C 332.738281 19.945312 332.75 28.703125 332.761719 37.457031 C 332.765625 41.523438 332.769531 45.589844 332.777344 49.65625 C 332.785156 53.203125 332.792969 56.746094 332.792969 60.292969 C 332.792969 62.167969 332.796875 64.042969 332.800781 65.921875 C 332.808594 67.6875 332.808594 69.457031 332.808594 71.226562 C 332.808594 71.875 332.808594 72.519531 332.8125 73.164062 C 332.855469 83.011719 332.855469 83.011719 330.539062 87.328125 L 330.125 88.125 C 328.300781 91.480469 325.921875 94.085938 322.695312 96.132812 C 320.359375 97.433594 318.007812 98.507812 315.480469 99.382812 L 314.574219 99.703125 C 313.921875 99.933594 313.265625 100.164062 312.613281 100.394531 C 310.765625 101.039062 308.925781 101.691406 307.085938 102.347656 C 306.6875 102.488281 306.292969 102.628906 305.882812 102.773438 C 301.050781 104.496094 296.242188 106.277344 291.429688 108.058594 C 282.933594 111.199219 274.421875 114.300781 265.898438 117.363281 L 265.132812 117.636719 C 259.359375 119.714844 253.59375 121.800781 247.832031 123.914062 C 241.761719 126.144531 235.679688 128.34375 229.59375 130.535156 C 221.828125 133.328125 214.066406 136.132812 206.320312 138.984375 L 205.171875 139.410156 L 204.011719 139.835938 L 201.65625 140.703125 L 200.460938 141.144531 C 194.890625 143.191406 189.320312 145.230469 183.746094 147.261719 C 175.03125 150.441406 166.3125 153.609375 157.589844 156.761719 C 151.484375 158.96875 145.382812 161.183594 139.28125 163.40625 C 126.152344 168.183594 126.152344 168.183594 120.207031 170.335938 C 119.59375 170.554688 118.984375 170.777344 118.371094 171 C 117.550781 171.296875 116.734375 171.59375 115.914062 171.890625 L 114.542969 172.386719 C 113.546875 172.730469 113.546875 172.730469 113.152344 172.730469 C 113.136719 163.90625 113.121094 155.085938 113.113281 146.265625 C 113.109375 142.171875 113.101562 138.074219 113.09375 133.980469 C 113.085938 130.410156 113.082031 126.835938 113.078125 123.265625 C 113.078125 121.375 113.074219 119.488281 113.070312 117.597656 C 113.066406 115.816406 113.0625 114.035156 113.066406 112.253906 C 113.066406 111.601562 113.0625 110.949219 113.058594 110.300781 C 113.039062 105.394531 113.234375 100.730469 115.503906 96.273438 C 116.347656 94.90625 117.273438 93.625 118.25 92.351562 L 118.796875 91.59375 C 120.722656 89.097656 123.363281 87.539062 126.21875 86.292969 C 129.472656 85.011719 132.746094 83.78125 136.039062 82.605469 C 137.566406 82.058594 139.097656 81.503906 140.628906 80.957031 L 141.644531 80.589844 C 146.175781 78.960938 150.703125 77.3125 155.230469 75.664062 L 162.246094 73.109375 C 165.453125 71.941406 168.660156 70.777344 171.871094 69.613281 C 181.035156 66.289062 190.191406 62.9375 199.339844 59.5625 C 208.832031 56.058594 218.34375 52.617188 227.871094 49.199219 C 239.898438 44.886719 251.902344 40.5 263.90625 36.113281 C 267.613281 34.761719 271.320312 33.40625 275.027344 32.054688 L 275.796875 31.773438 L 287.296875 27.574219 L 288.0625 27.292969 C 291.789062 25.933594 295.511719 24.574219 299.238281 23.214844 C 318.464844 16.1875 318.464844 16.1875 325.875 13.507812 L 327.683594 12.851562 C 328.476562 12.5625 329.273438 12.277344 330.070312 11.988281 L 331.378906 11.515625 C 332.328125 11.191406 332.328125 11.191406 332.71875 11.191406 M 251.949219 146.851562 C 251.988281 155.972656 252.015625 165.09375 252.03125 174.214844 C 252.039062 178.449219 252.050781 182.683594 252.070312 186.917969 C 252.085938 190.609375 252.09375 194.304688 252.097656 197.996094 C 252.101562 199.949219 252.105469 201.90625 252.117188 203.859375 C 252.125 205.699219 252.128906 207.542969 252.128906 209.382812 C 252.128906 210.058594 252.132812 210.730469 252.136719 211.40625 C 252.175781 216.003906 251.570312 219.773438 249.523438 223.945312 C 248.269531 226.070312 246.617188 227.828125 244.894531 229.582031 L 244.207031 230.28125 C 241.230469 233.070312 236.996094 234.253906 233.226562 235.597656 L 231.898438 236.074219 C 230.710938 236.5 229.523438 236.925781 228.335938 237.351562 C 226.289062 238.085938 224.246094 238.824219 222.203125 239.558594 L 220.621094 240.128906 C 214.976562 242.164062 209.351562 244.238281 203.722656 246.316406 C 195.992188 249.175781 188.246094 251.996094 180.484375 254.78125 C 174.503906 256.925781 168.527344 259.089844 162.554688 261.265625 C 156.933594 263.3125 151.308594 265.359375 145.683594 267.394531 L 144.941406 267.664062 L 138.347656 270.046875 C 133.601562 271.761719 128.855469 273.480469 124.121094 275.234375 L 123.039062 275.632812 C 121.40625 276.238281 119.777344 276.84375 118.144531 277.449219 L 116.472656 278.070312 L 115.035156 278.609375 C 113.9375 278.984375 113.9375 278.984375 113.152344 278.984375 C 113.136719 270.105469 113.121094 261.226562 113.113281 252.347656 C 113.109375 248.226562 113.101562 244.101562 113.09375 239.980469 C 113.085938 236.386719 113.082031 232.792969 113.078125 229.199219 C 113.078125 227.296875 113.074219 225.394531 113.070312 223.492188 C 113.066406 221.699219 113.0625 219.90625 113.066406 218.113281 C 113.066406 217.457031 113.0625 216.800781 113.058594 216.144531 C 113.039062 211.320312 113.316406 206.917969 115.503906 202.527344 C 117.425781 199.253906 119.949219 196.09375 123.179688 194.046875 C 128.015625 191.574219 133.171875 189.867188 138.28125 188.058594 C 139.628906 187.578125 140.976562 187.097656 142.324219 186.613281 C 144.449219 185.855469 146.574219 185.097656 148.703125 184.339844 C 151.988281 183.167969 155.273438 181.988281 158.554688 180.800781 L 161.078125 179.886719 C 164.859375 178.523438 168.628906 177.140625 172.402344 175.753906 C 177.300781 173.953125 182.210938 172.183594 187.121094 170.40625 C 197.332031 166.714844 197.332031 166.714844 207.523438 162.976562 C 213.992188 160.585938 220.464844 158.210938 226.945312 155.847656 L 229.355469 154.96875 C 230.890625 154.410156 232.425781 153.847656 233.960938 153.289062 L 234.707031 153.015625 C 238.652344 151.578125 242.601562 150.148438 246.554688 148.734375 L 247.6875 148.328125 L 248.667969 147.980469 C 249.339844 147.730469 250.007812 147.46875 250.671875 147.199219 C 251.558594 146.851562 251.558594 146.851562 251.949219 146.851562 "/><path style=" stroke:none;fill-rule:nonzero;fill:#01aef0;fill-opacity:1;" d="M 253.902344 27.207031 L 254.695312 27.65625 L 255.085938 28.441406 C 253.648438 29.035156 252.207031 29.617188 250.757812 30.183594 C 250.027344 30.472656 249.300781 30.769531 248.574219 31.074219 C 245.09375 32.421875 245.09375 32.421875 243.480469 32.261719 C 242.59375 31.96875 241.800781 31.613281 240.972656 31.1875 C 240.464844 30.984375 239.953125 30.785156 239.4375 30.59375 L 238.652344 30.285156 C 223.738281 24.519531 207.046875 20.984375 191.058594 20.914062 L 189.824219 20.90625 C 188.519531 20.898438 187.214844 20.894531 185.910156 20.894531 L 184.554688 20.894531 C 177.664062 20.898438 170.941406 21.109375 164.125 22.167969 L 162.773438 22.371094 C 146.449219 24.898438 130.523438 29.746094 115.878906 37.453125 C 115.050781 37.882812 114.21875 38.304688 113.382812 38.722656 C 104.003906 43.476562 95.28125 49.472656 87.277344 56.28125 L 86.609375 56.839844 C 83.019531 59.859375 83.019531 59.859375 79.652344 63.121094 C 78.988281 63.78125 78.289062 64.375 77.570312 64.980469 C 75.613281 66.675781 73.898438 68.585938 72.179688 70.515625 C 71.789062 70.960938 71.394531 71.402344 70.996094 71.839844 C 65.691406 77.734375 60.953125 84.097656 56.691406 90.785156 L 55.894531 92.03125 C 42.042969 114.117188 33.527344 139.957031 32.382812 166.0625 C 31.925781 180.183594 33.042969 193.800781 35.914062 207.625 C 36.027344 208.175781 36.027344 208.175781 36.140625 208.742188 C 41.425781 233.792969 54.636719 257.023438 71.359375 276.140625 C 73.769531 278.824219 76.304688 281.394531 78.847656 283.957031 L 79.875 285.003906 C 82.21875 287.347656 84.683594 289.464844 87.277344 291.53125 C 87.800781 291.964844 88.324219 292.398438 88.847656 292.835938 C 94.050781 297.15625 99.605469 300.855469 105.3125 304.46875 L 104.820312 305.863281 C 102.878906 311.722656 101.632812 317.417969 101.683594 323.605469 L 101.691406 324.949219 C 101.722656 328.238281 101.96875 331.421875 102.566406 334.660156 C 89.160156 328.292969 76.53125 319.460938 65.632812 309.390625 C 64.789062 308.625 63.9375 307.871094 63.070312 307.128906 C 61.183594 305.480469 59.417969 303.71875 57.648438 301.945312 L 56.683594 300.984375 C 54.78125 299.082031 52.953125 297.105469 51.203125 295.058594 C 50.828125 294.628906 50.449219 294.199219 50.070312 293.773438 C 47.132812 290.40625 44.421875 286.910156 41.792969 283.296875 L 41.210938 282.5 C 29.75 266.800781 20.980469 249.015625 15.523438 230.363281 L 15.15625 229.109375 C 6.796875 200.183594 6.476562 169.585938 13.601562 140.386719 C 18.902344 119.226562 28.066406 98.964844 41.011719 81.375 C 41.304688 80.964844 41.601562 80.558594 41.90625 80.140625 C 45.589844 75.140625 49.554688 70.382812 53.8125 65.863281 C 54.601562 65.019531 55.363281 64.152344 56.128906 63.289062 C 58.761719 60.355469 61.535156 57.554688 64.535156 54.996094 C 65.417969 54.234375 66.273438 53.445312 67.132812 52.652344 C 69.5625 50.464844 72.132812 48.464844 74.730469 46.476562 L 75.492188 45.890625 C 99.59375 27.398438 128.078125 15.769531 158.148438 11.6875 C 190.957031 7.59375 224.054688 13.09375 253.902344 27.207031 "/><path style=" stroke:none;fill-rule:nonzero;fill:#02aef0;fill-opacity:1;" d="M 331.542969 102.9375 C 332.980469 104.257812 333.636719 105.824219 334.460938 107.570312 L 334.972656 108.65625 C 342.734375 125.394531 347.847656 143.136719 350.070312 161.457031 L 350.167969 162.269531 C 352.347656 180.496094 351.5 199.09375 347.617188 217.035156 L 347.351562 218.304688 C 344.339844 232.558594 339.46875 246.425781 332.742188 259.363281 C 332.304688 260.210938 331.871094 261.0625 331.4375 261.917969 C 324.640625 275.230469 315.726562 287.183594 305.667969 298.195312 L 304.621094 299.363281 C 301.707031 302.601562 298.597656 305.589844 295.390625 308.53125 C 294.792969 309.078125 294.199219 309.625 293.609375 310.179688 C 290.957031 312.621094 288.136719 314.824219 285.277344 317.015625 L 284.515625 317.601562 C 260.640625 335.917969 232.191406 347.722656 202.367188 351.699219 C 200.992188 351.875 199.613281 352.042969 198.234375 352.203125 L 196.953125 352.355469 C 194.75 352.601562 192.609375 352.75 190.394531 352.695312 L 190.996094 351.660156 C 195.753906 343.453125 198.265625 335.789062 199.804688 326.425781 L 200.859375 326.28125 C 225.457031 322.917969 248.777344 315.554688 269.59375 301.722656 L 270.410156 301.1875 C 276.214844 297.347656 281.75 293.132812 286.847656 288.394531 C 287.367188 287.933594 287.890625 287.476562 288.414062 287.019531 L 289.984375 285.648438 L 290.953125 284.804688 C 292.761719 283.210938 294.425781 281.59375 295.980469 279.75 C 296.675781 278.953125 297.410156 278.222656 298.167969 277.488281 C 299.855469 275.820312 301.328125 274.011719 302.808594 272.15625 C 303.335938 271.507812 303.875 270.867188 304.421875 270.234375 C 310.359375 263.242188 315.308594 255.347656 319.699219 247.308594 C 320.121094 246.539062 320.550781 245.773438 320.992188 245.011719 C 329.464844 229.882812 334.582031 212.160156 337.03125 195.078125 L 337.210938 193.90625 C 340.953125 168.363281 337.175781 141.691406 327.773438 117.769531 C 326.472656 114.5 325.101562 111.261719 323.703125 108.035156 C 323.996094 107.882812 324.292969 107.730469 324.597656 107.574219 C 327.128906 106.253906 329.355469 104.765625 331.542969 102.9375 "/><path style=" stroke:none;fill-rule:nonzero;fill:#00457c;fill-opacity:1;" d="M 165.273438 289.78125 C 171.476562 292.730469 176.730469 296.640625 180.800781 302.234375 C 184.75 307.972656 186.925781 314.449219 187.519531 321.355469 C 187.972656 328.355469 186.46875 334.804688 183.410156 341.078125 C 182.105469 343.644531 180.539062 345.832031 178.632812 347.988281 L 178.105469 348.683594 C 174.902344 352.84375 170.085938 355.792969 165.332031 357.855469 C 158.390625 360.664062 151.054688 361.289062 143.621094 360.371094 C 136.851562 359.078125 130.769531 355.679688 125.554688 351.269531 C 120.503906 346.722656 117.25 341.0625 115.113281 334.660156 C 113.191406 327.875 113.035156 321.199219 114.695312 314.332031 C 116.585938 307.433594 120.132812 301.890625 125.097656 296.816406 C 129.964844 292.183594 136.097656 289.261719 142.558594 287.609375 C 150.171875 285.957031 158.09375 286.746094 165.273438 289.78125 "/><g mask="url(#77ef25d16e)" transform="matrix(1,0,0,1,8,12)"><g clip-path="url(#8d05cf9792)"><path style=" stroke:none;fill-rule:nonzero;fill:#00457c;fill-opacity:1;" d="M 334.144531 11.347656 C 334.164062 20.105469 334.179688 28.859375 334.1875 37.617188 C 334.191406 41.683594 334.195312 45.75 334.207031 49.8125 C 334.214844 53.359375 334.21875 56.90625 334.21875 60.449219 C 334.222656 62.328125 334.222656 64.203125 334.230469 66.078125 C 334.234375 67.847656 334.234375 69.617188 334.234375 71.386719 C 334.234375 72.03125 334.238281 72.675781 334.238281 73.324219 C 334.285156 83.167969 334.285156 83.167969 331.964844 87.484375 L 331.550781 88.285156 C 329.726562 91.636719 327.347656 94.242188 324.121094 96.292969 C 321.785156 97.589844 319.433594 98.667969 316.90625 99.542969 L 316 99.859375 C 315.347656 100.09375 314.691406 100.320312 314.039062 100.550781 C 312.195312 101.195312 310.351562 101.851562 308.511719 102.503906 C 308.113281 102.644531 307.71875 102.785156 307.308594 102.929688 C 302.476562 104.652344 297.667969 106.4375 292.855469 108.21875 C 284.359375 111.359375 275.847656 114.460938 267.324219 117.519531 L 266.558594 117.796875 C 260.785156 119.871094 255.019531 121.957031 249.261719 124.070312 C 243.1875 126.300781 237.105469 128.5 231.019531 130.691406 C 223.253906 133.484375 215.492188 136.292969 207.75 139.144531 L 206.597656 139.566406 L 205.4375 139.992188 L 203.082031 140.859375 L 201.886719 141.300781 C 196.316406 143.347656 190.746094 145.386719 185.171875 147.421875 C 176.460938 150.601562 167.738281 153.765625 159.015625 156.921875 C 152.910156 159.128906 146.808594 161.34375 140.710938 163.5625 C 127.582031 168.339844 127.582031 168.339844 121.632812 170.492188 C 121.019531 170.714844 120.410156 170.9375 119.796875 171.15625 C 118.976562 171.453125 118.160156 171.75 117.339844 172.046875 L 115.96875 172.542969 C 114.972656 172.886719 114.972656 172.886719 114.578125 172.886719 C 114.5625 164.066406 114.546875 155.246094 114.539062 146.425781 C 114.535156 142.328125 114.527344 138.234375 114.519531 134.136719 C 114.511719 130.566406 114.507812 126.996094 114.503906 123.425781 C 114.503906 121.535156 114.503906 119.644531 114.496094 117.753906 C 114.492188 115.972656 114.488281 114.191406 114.492188 112.410156 C 114.492188 111.761719 114.488281 111.109375 114.484375 110.457031 C 114.464844 105.550781 114.660156 100.886719 116.933594 96.429688 C 117.773438 95.0625 118.699219 93.78125 119.675781 92.507812 L 120.226562 91.75 C 122.148438 89.257812 124.789062 87.699219 127.648438 86.453125 C 130.898438 85.167969 134.171875 83.9375 137.464844 82.761719 C 138.996094 82.214844 140.523438 81.664062 142.054688 81.113281 L 143.070312 80.746094 C 147.605469 79.117188 152.128906 77.46875 156.65625 75.820312 L 163.671875 73.269531 C 166.878906 72.101562 170.085938 70.9375 173.296875 69.773438 C 182.460938 66.449219 191.617188 63.097656 200.765625 59.722656 C 210.257812 56.214844 219.769531 52.773438 229.296875 49.359375 C 241.328125 45.042969 253.328125 40.660156 265.332031 36.273438 C 269.039062 34.917969 272.746094 33.566406 276.453125 32.210938 L 277.222656 31.929688 L 288.722656 27.734375 L 289.488281 27.453125 C 293.214844 26.09375 296.9375 24.730469 300.664062 23.371094 C 319.890625 16.34375 319.890625 16.34375 327.300781 13.664062 L 329.109375 13.007812 C 329.902344 12.722656 330.699219 12.433594 331.496094 12.144531 L 332.804688 11.671875 C 333.753906 11.347656 333.753906 11.347656 334.144531 11.347656 M 253.378906 147.007812 C 253.414062 156.128906 253.441406 165.25 253.457031 174.371094 C 253.464844 178.605469 253.476562 182.839844 253.496094 187.074219 C 253.511719 190.769531 253.519531 194.460938 253.523438 198.15625 C 253.527344 200.109375 253.53125 202.0625 253.542969 204.015625 C 253.554688 205.859375 253.558594 207.699219 253.554688 209.542969 C 253.554688 210.214844 253.558594 210.890625 253.5625 211.5625 C 253.601562 216.160156 252.996094 219.929688 250.949219 224.101562 C 249.699219 226.226562 248.042969 227.988281 246.320312 229.738281 L 245.632812 230.441406 C 242.65625 233.230469 238.421875 234.414062 234.652344 235.753906 L 233.324219 236.230469 C 232.136719 236.660156 230.949219 237.085938 229.761719 237.511719 C 227.71875 238.242188 225.671875 238.980469 223.628906 239.71875 L 222.046875 240.289062 C 216.402344 242.320312 210.777344 244.394531 205.152344 246.476562 C 197.417969 249.332031 189.671875 252.152344 181.910156 254.9375 C 175.929688 257.085938 169.953125 259.246094 163.980469 261.421875 C 158.359375 263.472656 152.734375 265.515625 147.109375 267.550781 L 146.367188 267.820312 L 139.773438 270.203125 C 135.027344 271.917969 130.28125 273.640625 125.546875 275.390625 L 124.464844 275.789062 C 122.832031 276.394531 121.203125 277 119.574219 277.609375 L 117.898438 278.230469 L 116.460938 278.769531 C 115.363281 279.140625 115.363281 279.140625 114.578125 279.140625 C 114.5625 270.261719 114.546875 261.382812 114.539062 252.503906 C 114.535156 248.382812 114.527344 244.261719 114.519531 240.136719 C 114.511719 236.542969 114.507812 232.949219 114.503906 229.355469 C 114.503906 227.453125 114.503906 225.550781 114.496094 223.648438 C 114.492188 221.855469 114.488281 220.0625 114.492188 218.269531 C 114.492188 217.613281 114.488281 216.960938 114.484375 216.304688 C 114.464844 211.480469 114.742188 207.074219 116.933594 202.683594 C 118.851562 199.410156 121.375 196.25 124.605469 194.203125 C 129.441406 191.730469 134.597656 190.027344 139.707031 188.214844 C 141.054688 187.738281 142.402344 187.253906 143.75 186.773438 C 145.875 186.011719 148 185.253906 150.128906 184.496094 C 153.414062 183.328125 156.699219 182.148438 159.980469 180.957031 L 162.503906 180.046875 C 166.285156 178.683594 170.058594 177.300781 173.828125 175.914062 C 178.726562 174.113281 183.636719 172.339844 188.546875 170.566406 C 198.757812 166.875 198.757812 166.875 208.949219 163.132812 C 215.417969 160.746094 221.890625 158.371094 228.371094 156.007812 L 230.78125 155.128906 C 232.316406 154.566406 233.851562 154.007812 235.386719 153.445312 L 236.132812 153.171875 C 240.078125 151.734375 244.027344 150.308594 247.980469 148.894531 L 249.113281 148.488281 L 250.09375 148.136719 C 250.765625 147.886719 251.433594 147.628906 252.097656 147.359375 C 252.984375 147.007812 252.984375 147.007812 253.378906 147.007812 "/><path style=" stroke:none;fill-rule:nonzero;fill:#01aef0;fill-opacity:1;" d="M 255.328125 27.363281 L 256.121094 27.816406 L 256.515625 28.601562 C 255.078125 29.195312 253.632812 29.773438 252.183594 30.339844 C 251.453125 30.628906 250.726562 30.929688 250 31.230469 C 246.519531 32.578125 246.519531 32.578125 244.90625 32.417969 C 244.019531 32.128906 243.226562 31.769531 242.398438 31.34375 C 241.890625 31.140625 241.378906 30.945312 240.867188 30.753906 L 240.078125 30.445312 C 225.164062 24.675781 208.472656 21.144531 192.484375 21.070312 L 191.25 21.0625 C 189.945312 21.054688 188.640625 21.050781 187.335938 21.050781 L 185.980469 21.050781 C 179.089844 21.058594 172.371094 21.269531 165.550781 22.328125 L 164.199219 22.53125 C 147.875 25.058594 131.949219 29.902344 117.304688 37.609375 C 116.476562 38.039062 115.644531 38.464844 114.808594 38.882812 C 105.429688 43.636719 96.710938 49.632812 88.703125 56.4375 L 88.035156 57 C 84.445312 60.015625 84.445312 60.015625 81.078125 63.277344 C 80.414062 63.941406 79.714844 64.535156 78.996094 65.136719 C 77.039062 66.832031 75.324219 68.742188 73.605469 70.675781 C 73.214844 71.117188 72.820312 71.558594 72.421875 72 C 67.117188 77.894531 62.378906 84.253906 58.121094 90.941406 L 57.320312 92.1875 C 43.46875 114.273438 34.957031 140.113281 33.808594 166.222656 C 33.351562 180.339844 34.46875 193.960938 37.339844 207.78125 C 37.453125 208.335938 37.453125 208.335938 37.566406 208.898438 C 42.851562 233.949219 56.0625 257.179688 72.785156 276.296875 C 75.195312 278.984375 77.730469 281.550781 80.273438 284.117188 L 81.300781 285.160156 C 83.644531 287.507812 86.109375 289.621094 88.703125 291.6875 C 89.226562 292.121094 89.753906 292.558594 90.273438 292.996094 C 95.480469 297.3125 101.03125 301.015625 106.738281 304.625 L 106.246094 306.023438 C 104.304688 311.882812 103.058594 317.578125 103.109375 323.765625 L 103.117188 325.105469 C 103.148438 328.398438 103.394531 331.578125 103.992188 334.816406 C 90.585938 328.449219 77.957031 319.617188 67.058594 309.550781 C 66.214844 308.78125 65.363281 308.027344 64.496094 307.285156 C 62.609375 305.640625 60.84375 303.878906 59.074219 302.101562 L 58.109375 301.144531 C 56.207031 299.238281 54.378906 297.261719 52.628906 295.214844 C 52.253906 294.789062 51.875 294.359375 51.5 293.929688 C 48.558594 290.566406 45.847656 287.066406 43.21875 283.453125 L 42.636719 282.660156 C 31.175781 266.960938 22.410156 249.175781 16.949219 230.523438 L 16.582031 229.269531 C 8.222656 200.339844 7.902344 169.742188 15.027344 140.542969 C 20.328125 119.386719 29.492188 99.125 42.4375 81.53125 C 42.730469 81.125 43.027344 80.714844 43.335938 80.296875 C 47.015625 75.296875 50.984375 70.539062 55.238281 66.023438 C 56.027344 65.175781 56.789062 64.3125 57.554688 63.445312 C 60.1875 60.511719 62.960938 57.710938 65.960938 55.15625 C 66.84375 54.390625 67.699219 53.601562 68.558594 52.8125 C 70.988281 50.621094 73.558594 48.625 76.15625 46.636719 L 76.917969 46.046875 C 101.019531 27.558594 129.503906 15.925781 159.574219 11.84375 C 192.382812 7.75 225.484375 13.253906 255.328125 27.363281 "/><path style=" stroke:none;fill-rule:nonzero;fill:#02aef0;fill-opacity:1;" d="M 332.96875 103.097656 C 334.40625 104.417969 335.0625 105.980469 335.886719 107.726562 L 336.398438 108.8125 C 344.160156 125.554688 349.273438 143.292969 351.496094 161.613281 L 351.59375 162.429688 C 353.777344 180.652344 352.925781 199.253906 349.046875 217.191406 L 348.777344 218.460938 C 345.769531 232.71875 340.894531 246.585938 334.167969 259.519531 C 333.730469 260.371094 333.296875 261.222656 332.867188 262.074219 C 326.066406 275.390625 317.152344 287.339844 307.09375 298.351562 L 306.046875 299.523438 C 303.132812 302.757812 300.027344 305.746094 296.816406 308.6875 C 296.21875 309.234375 295.625 309.785156 295.035156 310.335938 C 292.386719 312.777344 289.5625 314.984375 286.703125 317.171875 L 285.941406 317.761719 C 262.066406 336.078125 233.617188 347.878906 203.792969 351.859375 C 202.417969 352.03125 201.039062 352.199219 199.660156 352.363281 L 198.378906 352.515625 C 196.175781 352.761719 194.035156 352.90625 191.820312 352.851562 L 192.421875 351.816406 C 197.179688 343.613281 199.695312 335.945312 201.230469 326.582031 L 202.285156 326.441406 C 226.882812 323.078125 250.203125 315.714844 271.019531 301.882812 L 271.835938 301.34375 C 277.640625 297.507812 283.179688 293.292969 288.273438 288.550781 C 288.792969 288.089844 289.316406 287.632812 289.839844 287.179688 L 291.410156 285.804688 L 292.378906 284.960938 C 294.1875 283.367188 295.851562 281.75 297.40625 279.90625 C 298.101562 279.109375 298.835938 278.382812 299.59375 277.648438 C 301.28125 275.976562 302.753906 274.167969 304.234375 272.316406 C 304.761719 271.667969 305.300781 271.027344 305.847656 270.394531 C 311.789062 263.398438 316.734375 255.507812 321.125 247.464844 C 321.546875 246.695312 321.976562 245.929688 322.417969 245.167969 C 330.890625 230.039062 336.007812 212.320312 338.460938 195.234375 L 338.636719 194.066406 C 342.378906 168.523438 338.601562 141.847656 329.203125 117.925781 C 327.898438 114.65625 326.527344 111.421875 325.128906 108.191406 C 325.421875 108.039062 325.71875 107.886719 326.023438 107.730469 C 328.554688 106.414062 330.78125 104.921875 332.96875 103.097656 "/><path style=" stroke:none;fill-rule:nonzero;fill:#00457c;fill-opacity:1;" d="M 166.699219 289.941406 C 172.902344 292.886719 178.15625 296.800781 182.226562 302.394531 C 186.175781 308.128906 188.351562 314.605469 188.945312 321.511719 C 189.398438 328.511719 187.894531 334.960938 184.835938 341.238281 C 183.53125 343.804688 181.964844 345.988281 180.058594 348.148438 L 179.53125 348.84375 C 176.328125 353.003906 171.511719 355.949219 166.757812 358.011719 C 159.816406 360.820312 152.480469 361.449219 145.046875 360.527344 C 138.277344 359.234375 132.199219 355.835938 126.980469 351.425781 C 121.929688 346.882812 118.675781 341.21875 116.539062 334.816406 C 114.617188 328.035156 114.460938 321.359375 116.121094 314.488281 C 118.011719 307.589844 121.558594 302.046875 126.523438 296.972656 C 131.390625 292.34375 137.523438 289.421875 143.984375 287.765625 C 151.597656 286.117188 159.519531 286.90625 166.699219 289.941406 "/></g><mask id="77ef25d16e"><g filter="url(#1725e52efe)"><rect x="0" width="375" y="0" height="374.999991" style="fill:#000000;fill-opacity:0.12;stroke:none;"/></g></mask></g></g></svg>