<svg xmlns="http://www.w3.org/2000/svg" xmlns:xlink="http://www.w3.org/1999/xlink" width="500" zoomAndPan="magnify" viewBox="0 0 375 374.999991" height="500" preserveAspectRatio="xMidYMid meet" version="1.2"><defs><filter x="0%" y="0%" width="100%" filterUnits="objectBoundingBox" id="034ccd77b2" height="100%"><feColorMatrix values="0 0 0 0 1 0 0 0 0 1 0 0 0 0 1 0 0 0 1 0" type="matrix" in="SourceGraphic"/></filter><clipPath id="d8f4e0cde3"><rect x="0" width="313" y="0" height="364"/></clipPath></defs><g id="aad6b13a6b"><g mask="url(#2f91d24d01)" transform="matrix(1,0,0,1,43,11)"><g clip-path="url(#d8f4e0cde3)"><path style=" stroke:none;fill-rule:nonzero;fill:#e71f26;fill-opacity:1;" d="M 48.117188 2.6875 L 56.785156 2.539062 C 69.867188 2.402344 82.953125 2.273438 96.035156 2.203125 C 102.9375 2.152344 109.839844 2.066406 116.742188 1.949219 C 126.691406 1.78125 136.632812 1.710938 146.582031 1.667969 L 155.914062 1.453125 C 164.121094 1.480469 171.613281 1.691406 179.667969 3.285156 C 188.472656 10.113281 193.292969 15.082031 198.222656 24.941406 C 198.484375 31.453125 198.554688 37.976562 198.523438 44.496094 L 198.496094 56.277344 L 198.417969 68.640625 C 198.402344 72.789062 198.386719 76.933594 198.375 81.078125 C 198.335938 91.242188 198.285156 101.402344 198.222656 111.566406 C 188.976562 114.652344 183.457031 114.804688 173.867188 114.464844 C 164.765625 114.40625 157.804688 114.714844 148.9375 116.980469 C 141.476562 121.5 137.785156 125.785156 133.28125 133.222656 C 129.703125 143.949219 129.171875 153.460938 128.449219 164.738281 L 127.664062 176.667969 L 127.09375 185.816406 C 114.664062 186.199219 102.230469 186.484375 89.800781 186.667969 C 85.574219 186.746094 81.347656 186.851562 77.128906 186.984375 C 42.132812 188.070312 42.132812 188.070312 30.507812 182.523438 C 23.976562 177.203125 19.527344 171.695312 15.765625 164.160156 C 15.441406 159.660156 15.257812 155.152344 15.21875 150.640625 L 15.097656 142.160156 L 15.027344 132.96875 L 14.953125 123.535156 C 14.910156 116.9375 14.878906 110.339844 14.851562 103.738281 C 14.800781 93.65625 14.664062 83.578125 14.527344 73.492188 C 14.496094 67.085938 14.46875 60.679688 14.449219 54.269531 L 14.285156 45.140625 C 14.308594 37.183594 14.5 29.703125 15.765625 21.847656 C 21.648438 12.28125 21.648438 12.28125 28.132812 6.378906 C 35.425781 2.730469 39.984375 2.820312 48.117188 2.6875 "/><path style=" stroke:none;fill-rule:nonzero;fill:#e7232a;fill-opacity:1;" d="M 171.101562 123.089844 L 178.828125 123 L 187.09375 123.011719 L 195.667969 122.972656 C 201.648438 122.953125 207.621094 122.949219 213.59375 122.964844 C 222.722656 122.972656 231.851562 122.902344 240.980469 122.824219 C 246.792969 122.816406 252.605469 122.816406 258.417969 122.820312 L 266.667969 122.734375 C 278.511719 122.824219 286.398438 123.246094 297.285156 128.265625 C 303.367188 133.222656 303.367188 133.222656 306.460938 139.410156 C 306.832031 143.8125 307.015625 148.230469 307.105469 152.648438 L 307.285156 160.941406 C 307.464844 173.464844 307.617188 185.984375 307.710938 198.507812 C 307.78125 205.113281 307.886719 211.71875 308.03125 218.324219 C 308.234375 227.84375 308.320312 237.359375 308.378906 246.882812 L 308.640625 255.808594 C 308.617188 263.824219 308.332031 270.835938 306.460938 278.628906 C 300.910156 286.699219 296.753906 289.070312 287.90625 294.097656 L 272.441406 294.097656 L 272.441406 204.378906 L 241.515625 207.472656 L 229.148438 204.378906 L 228.914062 212.28125 C 228.617188 221.929688 228.3125 231.574219 227.996094 241.21875 C 227.859375 245.398438 227.730469 249.578125 227.609375 253.761719 C 227.429688 259.757812 227.234375 265.753906 227.03125 271.753906 L 226.691406 282.703125 L 226.054688 291.003906 L 222.960938 294.097656 C 212.492188 295.136719 201.972656 295.105469 191.457031 295.257812 L 182.582031 295.609375 C 161.308594 295.878906 161.308594 295.878906 151.898438 290.792969 C 145.253906 285.382812 140.21875 280.136719 136.371094 272.441406 C 135.996094 263.175781 135.785156 253.910156 135.746094 244.636719 L 135.691406 236.242188 C 135.660156 230.371094 135.640625 224.5 135.628906 218.632812 C 135.597656 209.671875 135.507812 200.707031 135.40625 191.746094 C 135.386719 186.042969 135.371094 180.339844 135.359375 174.636719 L 135.242188 166.53125 C 135.285156 155.082031 135.746094 147.066406 140.304688 136.433594 C 149.09375 126.066406 157.722656 123.179688 171.105469 123.089844 M 241.515625 151.785156 C 232.445312 159.84375 232.445312 159.84375 226.054688 170.347656 C 225.503906 178.6875 225.503906 178.6875 229.148438 185.816406 C 232.558594 191.554688 232.558594 191.554688 238.425781 195.097656 C 247.269531 198.722656 247.269531 198.722656 256.980469 198.191406 C 266.515625 192.261719 266.515625 192.261719 272.441406 182.722656 C 273.460938 173.101562 273.460938 173.101562 269.351562 164.160156 C 262.53125 156.539062 262.53125 156.539062 253.886719 151.785156 Z M 241.515625 151.785156 "/><path style=" stroke:none;fill-rule:nonzero;fill:#e82128;fill-opacity:1;" d="M 77.941406 233.914062 L 84.8125 234.109375 L 92.304688 234.230469 L 100.035156 234.542969 L 107.910156 234.714844 C 114.308594 234.859375 120.703125 235.078125 127.09375 235.316406 L 127.335938 244.140625 C 127.875 265.230469 127.875 265.230469 132.820312 285.527344 C 136.160156 291.046875 136.160156 291.046875 142.558594 297.191406 C 156.617188 301.882812 170.945312 301.664062 185.683594 302.511719 L 195.128906 303.378906 L 198.222656 306.472656 C 198.78125 314.515625 199.082031 322.398438 199.191406 330.449219 L 199.460938 337.167969 C 199.539062 343.742188 199.539062 343.742188 198.222656 355.972656 C 192.945312 365.109375 192.945312 365.109375 185.851562 371.441406 C 166.429688 376.804688 145.71875 375.230469 125.742188 375.308594 L 113.464844 375.5 L 101.59375 375.550781 L 90.800781 375.636719 C 79.375 374.390625 71.9375 371.199219 62.152344 365.253906 C 57.304688 355.558594 58.425781 345.1875 58.324219 334.535156 L 58.246094 327.160156 C 58.207031 322.003906 58.171875 316.851562 58.148438 311.695312 C 58.082031 303.820312 57.972656 295.945312 57.824219 288.070312 C 57.792969 283.0625 57.765625 278.054688 57.742188 273.046875 L 57.578125 265.917969 C 57.605469 259.222656 57.605469 259.222656 59.058594 247.691406 C 64.84375 239.496094 68.121094 236.027344 77.941406 233.914062 "/></g><mask id="2f91d24d01"><g filter="url(#034ccd77b2)"><rect x="0" width="375" y="0" height="374.999991" style="fill:#000000;fill-opacity:0.11;stroke:none;"/></g></mask></g><path style=" stroke:none;fill-rule:nonzero;fill:#e71f26;fill-opacity:1;" d="M 79.117188 1.6875 L 87.785156 1.539062 C 100.867188 1.402344 113.953125 1.273438 127.035156 1.203125 C 133.9375 1.152344 140.839844 1.066406 147.742188 0.949219 C 157.691406 0.78125 167.632812 0.710938 177.582031 0.667969 L 186.914062 0.453125 C 195.121094 0.480469 202.613281 0.691406 210.667969 2.285156 C 219.472656 9.113281 224.292969 14.082031 229.222656 23.941406 C 229.484375 30.453125 229.554688 36.976562 229.523438 43.496094 L 229.496094 55.277344 L 229.417969 67.640625 C 229.402344 71.789062 229.386719 75.933594 229.375 80.078125 C 229.335938 90.242188 229.285156 100.402344 229.222656 110.566406 C 219.976562 113.652344 214.457031 113.804688 204.867188 113.464844 C 195.765625 113.40625 188.804688 113.714844 179.9375 115.980469 C 172.476562 120.5 168.785156 124.785156 164.28125 132.222656 C 160.703125 142.949219 160.171875 152.460938 159.449219 163.738281 L 158.664062 175.667969 L 158.09375 184.816406 C 145.664062 185.199219 133.230469 185.484375 120.800781 185.667969 C 116.574219 185.746094 112.347656 185.851562 108.128906 185.984375 C 73.132812 187.070312 73.132812 187.070312 61.507812 181.523438 C 54.976562 176.203125 50.527344 170.695312 46.765625 163.160156 C 46.441406 158.660156 46.257812 154.152344 46.21875 149.640625 L 46.097656 141.160156 L 46.027344 131.96875 L 45.953125 122.535156 C 45.910156 115.9375 45.878906 109.339844 45.851562 102.738281 C 45.800781 92.65625 45.664062 82.578125 45.527344 72.492188 C 45.496094 66.085938 45.46875 59.679688 45.449219 53.269531 L 45.285156 44.140625 C 45.308594 36.183594 45.5 28.703125 46.765625 20.847656 C 52.648438 11.28125 52.648438 11.28125 59.132812 5.378906 C 66.425781 1.730469 70.984375 1.820312 79.117188 1.6875 "/><path style=" stroke:none;fill-rule:nonzero;fill:#e7232a;fill-opacity:1;" d="M 202.101562 122.089844 L 209.828125 122 L 218.09375 122.011719 L 226.667969 121.972656 C 232.648438 121.953125 238.621094 121.949219 244.59375 121.964844 C 253.722656 121.972656 262.851562 121.902344 271.980469 121.824219 C 277.792969 121.816406 283.605469 121.816406 289.417969 121.820312 L 297.667969 121.734375 C 309.511719 121.824219 317.398438 122.246094 328.285156 127.265625 C 334.367188 132.222656 334.367188 132.222656 337.460938 138.410156 C 337.832031 142.8125 338.015625 147.230469 338.105469 151.648438 L 338.285156 159.941406 C 338.464844 172.464844 338.617188 184.984375 338.710938 197.507812 C 338.78125 204.113281 338.886719 210.71875 339.03125 217.324219 C 339.234375 226.84375 339.320312 236.359375 339.378906 245.882812 L 339.640625 254.808594 C 339.617188 262.824219 339.332031 269.835938 337.460938 277.628906 C 331.910156 285.699219 327.753906 288.070312 318.90625 293.097656 L 303.441406 293.097656 L 303.441406 203.378906 L 272.515625 206.472656 L 260.148438 203.378906 L 259.914062 211.28125 C 259.617188 220.929688 259.3125 230.574219 258.996094 240.21875 C 258.859375 244.398438 258.730469 248.578125 258.609375 252.761719 C 258.429688 258.757812 258.234375 264.753906 258.03125 270.753906 L 257.691406 281.703125 L 257.054688 290.003906 L 253.960938 293.097656 C 243.492188 294.136719 232.972656 294.105469 222.457031 294.257812 L 213.582031 294.609375 C 192.308594 294.878906 192.308594 294.878906 182.898438 289.792969 C 176.253906 284.382812 171.21875 279.136719 167.371094 271.441406 C 166.996094 262.175781 166.785156 252.910156 166.746094 243.636719 L 166.691406 235.242188 C 166.660156 229.371094 166.640625 223.5 166.628906 217.632812 C 166.597656 208.671875 166.507812 199.707031 166.40625 190.746094 C 166.386719 185.042969 166.371094 179.339844 166.359375 173.636719 L 166.242188 165.53125 C 166.285156 154.082031 166.746094 146.066406 171.304688 135.433594 C 180.09375 125.066406 188.722656 122.179688 202.105469 122.089844 M 272.515625 150.785156 C 263.445312 158.84375 263.445312 158.84375 257.054688 169.347656 C 256.503906 177.6875 256.503906 177.6875 260.148438 184.816406 C 263.558594 190.554688 263.558594 190.554688 269.425781 194.097656 C 278.269531 197.722656 278.269531 197.722656 287.980469 197.191406 C 297.515625 191.261719 297.515625 191.261719 303.441406 181.722656 C 304.460938 172.101562 304.460938 172.101562 300.351562 163.160156 C 293.53125 155.539062 293.53125 155.539062 284.886719 150.785156 Z M 272.515625 150.785156 "/><path style=" stroke:none;fill-rule:nonzero;fill:#e82128;fill-opacity:1;" d="M 108.941406 232.914062 L 115.8125 233.109375 L 123.304688 233.230469 L 131.035156 233.542969 L 138.910156 233.714844 C 145.308594 233.859375 151.703125 234.078125 158.09375 234.316406 L 158.335938 243.140625 C 158.875 264.230469 158.875 264.230469 163.820312 284.527344 C 167.160156 290.046875 167.160156 290.046875 173.558594 296.191406 C 187.617188 300.882812 201.945312 300.664062 216.683594 301.511719 L 226.128906 302.378906 L 229.222656 305.472656 C 229.78125 313.515625 230.082031 321.398438 230.191406 329.449219 L 230.460938 336.167969 C 230.539062 342.742188 230.539062 342.742188 229.222656 354.972656 C 223.945312 364.109375 223.945312 364.109375 216.851562 370.441406 C 197.429688 375.804688 176.71875 374.230469 156.742188 374.308594 L 144.464844 374.5 L 132.59375 374.550781 L 121.800781 374.636719 C 110.375 373.390625 102.9375 370.199219 93.152344 364.253906 C 88.304688 354.558594 89.425781 344.1875 89.324219 333.535156 L 89.246094 326.160156 C 89.207031 321.003906 89.171875 315.851562 89.148438 310.695312 C 89.082031 302.820312 88.972656 294.945312 88.824219 287.070312 C 88.792969 282.0625 88.765625 277.054688 88.742188 272.046875 L 88.578125 264.917969 C 88.605469 258.222656 88.605469 258.222656 90.058594 246.691406 C 95.84375 238.496094 99.121094 235.027344 108.941406 232.914062 "/></g></svg>