<svg xmlns="http://www.w3.org/2000/svg" xmlns:xlink="http://www.w3.org/1999/xlink" width="500" zoomAndPan="magnify" viewBox="0 0 375 374.999991" height="500" preserveAspectRatio="xMidYMid meet" version="1.2"><defs><filter x="0%" y="0%" width="100%" filterUnits="objectBoundingBox" id="8faa884e9e" height="100%"><feColorMatrix values="0 0 0 0 1 0 0 0 0 1 0 0 0 0 1 0 0 0 1 0" type="matrix" in="SourceGraphic"/></filter><clipPath id="3d3a54c604"><rect x="0" width="357" y="0" height="356"/></clipPath></defs><g id="3b4dd531ee"><path style=" stroke:none;fill-rule:nonzero;fill:#82a579;fill-opacity:1;" d="M 129.179688 242.835938 C 131.546875 242.839844 133.910156 242.84375 136.277344 242.84375 C 161.785156 242.878906 187.25 243.246094 212.734375 244.277344 C 215.582031 244.390625 218.433594 244.503906 221.28125 244.613281 C 243.582031 245.472656 265.867188 246.550781 288.152344 247.785156 C 289.75 247.875 291.351562 247.960938 292.953125 248.046875 C 295.453125 248.179688 297.953125 248.320312 300.453125 248.464844 C 301.808594 248.542969 303.160156 248.613281 304.511719 248.683594 C 308.53125 248.925781 312.222656 249.175781 316.011719 250.585938 C 317.300781 251.574219 317.300781 251.574219 318.078125 252.648438 C 318.84375 254.953125 318.859375 256.691406 318.867188 259.117188 L 318.871094 260.460938 C 318.878906 261.929688 318.882812 263.398438 318.882812 264.867188 L 318.886719 267.945312 C 318.890625 270.105469 318.894531 272.261719 318.894531 274.417969 C 318.894531 277.160156 318.902344 279.902344 318.914062 282.644531 C 318.921875 284.769531 318.925781 286.894531 318.921875 289.019531 C 318.921875 290.027344 318.925781 291.039062 318.933594 292.046875 C 318.972656 300.011719 318.9375 307.945312 314.996094 315.082031 C 311.851562 319.839844 307.675781 323.101562 302.699219 325.816406 C 277.160156 338.25 245.222656 338.78125 217.386719 338.84375 L 213.203125 338.855469 C 208.6875 338.871094 204.175781 338.875 199.660156 338.875 L 197.296875 338.875 C 145.023438 338.886719 92.875 336.550781 40.675781 333.941406 L 38.664062 333.84375 C 32.441406 333.53125 26.222656 333.214844 20.007812 332.847656 L 17.453125 332.699219 C 15.277344 332.515625 13.164062 332.210938 11.019531 331.816406 C 13.53125 315.039062 16.195312 298.285156 18.890625 281.53125 C 19.265625 279.199219 19.636719 276.867188 20.011719 274.53125 C 20.457031 271.734375 20.90625 268.941406 21.359375 266.144531 C 21.527344 265.097656 21.695312 264.054688 21.859375 263.007812 C 22.089844 261.558594 22.324219 260.113281 22.5625 258.667969 L 22.957031 256.195312 C 23.382812 254.167969 23.902344 252.449219 24.789062 250.585938 C 26.164062 249.207031 26.164062 249.207031 27.464844 248.832031 C 60.933594 242.898438 95.292969 242.75 129.179688 242.835938 "/><path style=" stroke:none;fill-rule:nonzero;fill:#81b1b4;fill-opacity:1;" d="M 324.695312 120.40625 C 326.183594 120.359375 327.667969 120.324219 329.15625 120.296875 L 331.453125 120.242188 C 333.222656 120.472656 333.222656 120.472656 334.464844 121.410156 C 338.957031 127.5625 339.449219 138.222656 340.3125 145.621094 C 342.300781 165.261719 340.390625 183.710938 332.449219 201.785156 C 330.035156 207.019531 326.792969 213.914062 322.207031 217.539062 C 320.089844 218.144531 320.089844 218.144531 317.527344 218.617188 L 316.136719 218.875 C 311.480469 219.71875 306.804688 220.386719 302.113281 220.984375 L 300.765625 221.15625 C 293.085938 222.132812 285.390625 222.878906 277.671875 223.519531 L 276.164062 223.648438 C 263.535156 224.695312 250.929688 225.242188 238.253906 225.242188 C 236.257812 225.242188 234.265625 225.253906 232.269531 225.269531 C 216.304688 225.316406 200.421875 223.882812 184.523438 222.53125 C 169.894531 221.292969 155.277344 220.226562 140.605469 219.554688 L 138.695312 219.464844 C 132.429688 219.175781 126.164062 218.898438 119.898438 218.65625 C 117.5625 218.566406 115.230469 218.464844 112.894531 218.359375 C 111.804688 218.3125 110.710938 218.273438 109.617188 218.238281 C 108.117188 218.183594 106.621094 218.121094 105.121094 218.050781 L 102.566406 217.953125 L 100.519531 217.539062 C 99.207031 216.273438 99.207031 216.273438 98.453125 214.785156 C 98.347656 213.09375 98.355469 211.402344 98.480469 209.710938 L 98.566406 208.164062 C 98.660156 206.46875 98.773438 204.777344 98.882812 203.082031 C 98.957031 201.894531 99.027344 200.707031 99.097656 199.519531 C 99.25 196.992188 99.410156 194.460938 99.578125 191.933594 C 99.796875 188.535156 99.992188 185.136719 100.179688 181.738281 C 100.332031 179.003906 100.492188 176.273438 100.660156 173.539062 C 100.738281 172.21875 100.8125 170.902344 100.882812 169.582031 C 101.300781 161.988281 101.800781 155.644531 105.707031 148.953125 C 111.78125 141.265625 119.714844 136.011719 128.707031 132.316406 C 139.140625 128.308594 149.59375 127.746094 160.648438 127.304688 C 162.144531 127.242188 163.640625 127.175781 165.136719 127.113281 C 169.21875 126.9375 173.300781 126.769531 177.386719 126.601562 C 181.714844 126.425781 186.039062 126.242188 190.367188 126.058594 C 195.929688 125.824219 201.488281 125.589844 207.050781 125.359375 C 220.265625 124.808594 233.480469 124.25 246.695312 123.679688 C 255.054688 123.320312 263.40625 122.960938 271.761719 122.605469 L 273.402344 122.535156 L 284.847656 122.042969 C 289.53125 121.839844 294.214844 121.640625 298.898438 121.441406 C 301.300781 121.339844 303.707031 121.238281 306.109375 121.132812 C 312.304688 120.863281 318.5 120.632812 324.695312 120.40625 "/><path style=" stroke:none;fill-rule:nonzero;fill:#dd8b40;fill-opacity:1;" d="M 187.265625 11.703125 C 204.777344 11.605469 222.289062 11.535156 239.800781 11.488281 C 247.929688 11.46875 256.0625 11.4375 264.191406 11.390625 C 271.277344 11.351562 278.363281 11.324219 285.449219 11.3125 C 289.203125 11.308594 292.957031 11.296875 296.707031 11.265625 C 300.242188 11.238281 303.773438 11.230469 307.304688 11.234375 C 308.601562 11.234375 309.898438 11.226562 311.191406 11.210938 C 312.964844 11.191406 314.734375 11.195312 316.503906 11.207031 L 318.054688 11.171875 C 319.507812 11.195312 319.507812 11.195312 322.207031 11.703125 C 324.691406 13.304688 326.558594 15.121094 328.179688 17.585938 C 332.785156 28.878906 332.882812 40.988281 332.792969 53.007812 L 332.785156 55.164062 C 332.6875 84.296875 332.6875 84.296875 329.78125 97.753906 C 326.574219 98.25 323.355469 98.585938 320.113281 98.761719 L 318.710938 98.839844 C 317.171875 98.925781 315.628906 99.007812 314.089844 99.089844 L 310.761719 99.273438 C 307.75 99.4375 304.742188 99.601562 301.734375 99.765625 C 299.210938 99.902344 296.6875 100.039062 294.164062 100.175781 C 288.199219 100.5 282.234375 100.824219 276.269531 101.144531 C 270.148438 101.472656 264.03125 101.804688 257.914062 102.140625 C 252.636719 102.429688 247.359375 102.71875 242.082031 103 C 238.941406 103.167969 235.800781 103.339844 232.660156 103.511719 C 210.210938 104.75 210.210938 104.75 201.453125 104.851562 L 199.808594 104.890625 C 196.128906 104.886719 193.394531 104.054688 190.019531 102.574219 C 185.851562 99.792969 182.957031 96.492188 180.683594 92.035156 C 177.53125 85.203125 177.855469 77.945312 178.457031 70.558594 C 178.890625 66.449219 179.496094 62.367188 180.101562 58.277344 C 180.285156 56.992188 180.46875 55.703125 180.652344 54.414062 C 181.03125 51.746094 181.417969 49.078125 181.808594 46.410156 C 182.3125 42.992188 182.800781 39.570312 183.289062 36.148438 C 183.757812 32.871094 184.230469 29.589844 184.703125 26.3125 L 184.976562 24.425781 C 185.230469 22.671875 185.484375 20.917969 185.742188 19.167969 L 185.96875 17.59375 C 186.273438 15.546875 186.613281 13.667969 187.265625 11.703125 "/><g mask="url(#ef0db7b47c)" transform="matrix(1,0,0,1,18,19)"><g clip-path="url(#3d3a54c604)"><path style=" stroke:none;fill-rule:nonzero;fill:#82a579;fill-opacity:1;" d="M 129.976562 243.691406 C 132.339844 243.695312 134.707031 243.699219 137.074219 243.703125 C 162.578125 243.734375 188.042969 244.101562 213.53125 245.132812 C 216.378906 245.25 219.226562 245.359375 222.074219 245.46875 C 244.375 246.332031 266.664062 247.410156 288.945312 248.640625 C 290.546875 248.730469 292.148438 248.816406 293.746094 248.902344 C 296.25 249.035156 298.75 249.175781 301.25 249.320312 C 302.601562 249.398438 303.953125 249.46875 305.304688 249.539062 C 309.324219 249.78125 313.015625 250.03125 316.808594 251.441406 C 318.097656 252.429688 318.097656 252.429688 318.871094 253.507812 C 319.640625 255.808594 319.652344 257.546875 319.660156 259.972656 L 319.667969 261.316406 C 319.671875 262.785156 319.675781 264.253906 319.675781 265.722656 L 319.683594 268.804688 C 319.6875 270.960938 319.6875 273.117188 319.6875 275.273438 C 319.6875 278.015625 319.699219 280.757812 319.710938 283.5 C 319.714844 285.625 319.71875 287.75 319.71875 289.875 C 319.71875 290.886719 319.722656 291.894531 319.726562 292.902344 C 319.765625 300.867188 319.734375 308.800781 315.792969 315.9375 C 312.644531 320.695312 308.472656 323.957031 303.496094 326.671875 C 277.953125 339.105469 246.015625 339.636719 218.183594 339.699219 L 213.996094 339.710938 C 209.484375 339.726562 204.96875 339.730469 200.453125 339.730469 L 198.09375 339.730469 C 145.816406 339.742188 93.671875 337.40625 41.472656 334.796875 L 39.457031 334.699219 C 33.238281 334.386719 27.019531 334.070312 20.804688 333.703125 L 18.246094 333.554688 C 16.070312 333.371094 13.960938 333.066406 11.8125 332.675781 C 14.324219 315.894531 16.988281 299.140625 19.683594 282.390625 C 20.058594 280.054688 20.433594 277.722656 20.804688 275.386719 C 21.25 272.589844 21.699219 269.796875 22.152344 267 C 22.324219 265.957031 22.488281 264.910156 22.65625 263.863281 C 22.886719 262.417969 23.121094 260.96875 23.355469 259.523438 L 23.753906 257.050781 C 24.175781 255.027344 24.695312 253.304688 25.582031 251.441406 C 26.960938 250.0625 26.960938 250.0625 28.261719 249.6875 C 61.730469 243.753906 96.085938 243.605469 129.976562 243.691406 "/><path style=" stroke:none;fill-rule:nonzero;fill:#81b1b4;fill-opacity:1;" d="M 325.492188 121.265625 C 326.976562 121.214844 328.464844 121.179688 329.953125 121.152344 L 332.246094 121.101562 C 334.019531 121.328125 334.019531 121.328125 335.261719 122.265625 C 339.75 128.417969 340.246094 139.082031 341.105469 146.476562 C 343.097656 166.117188 341.183594 184.566406 333.246094 202.640625 C 330.832031 207.875 327.589844 214.769531 323.003906 218.398438 C 320.886719 219 320.886719 219 318.320312 219.472656 L 316.929688 219.730469 C 312.277344 220.574219 307.601562 221.242188 302.90625 221.839844 L 301.5625 222.011719 C 293.878906 222.988281 286.183594 223.734375 278.46875 224.378906 L 276.960938 224.503906 C 264.328125 225.550781 251.726562 226.097656 239.050781 226.097656 C 237.054688 226.097656 235.058594 226.109375 233.066406 226.125 C 217.097656 226.171875 201.21875 224.738281 185.320312 223.386719 C 170.6875 222.148438 156.074219 221.082031 141.402344 220.410156 L 139.492188 220.320312 C 133.226562 220.03125 126.960938 219.753906 120.691406 219.515625 C 118.359375 219.421875 116.023438 219.320312 113.691406 219.214844 C 112.597656 219.171875 111.503906 219.128906 110.414062 219.09375 C 108.914062 219.039062 107.414062 218.980469 105.917969 218.90625 L 103.363281 218.808594 L 101.316406 218.398438 C 100.003906 217.132812 100.003906 217.132812 99.25 215.644531 C 99.140625 213.949219 99.148438 212.257812 99.277344 210.566406 L 99.359375 209.019531 C 99.457031 207.324219 99.566406 205.632812 99.679688 203.941406 C 99.75 202.753906 99.824219 201.566406 99.894531 200.378906 C 100.046875 197.847656 100.207031 195.320312 100.371094 192.789062 C 100.59375 189.394531 100.785156 185.996094 100.972656 182.59375 C 101.125 179.863281 101.289062 177.128906 101.453125 174.394531 C 101.53125 173.074219 101.609375 171.757812 101.679688 170.4375 C 102.097656 162.84375 102.59375 156.5 106.503906 149.808594 C 112.574219 142.125 120.507812 136.867188 129.5 133.171875 C 139.933594 129.164062 150.390625 128.601562 161.441406 128.160156 C 162.9375 128.097656 164.4375 128.03125 165.933594 127.96875 C 170.015625 127.792969 174.097656 127.625 178.179688 127.457031 C 182.507812 127.28125 186.835938 127.097656 191.164062 126.914062 C 196.722656 126.679688 202.285156 126.445312 207.84375 126.214844 C 221.058594 125.664062 234.273438 125.105469 247.488281 124.535156 C 255.847656 124.175781 264.203125 123.816406 272.554688 123.460938 L 274.199219 123.390625 L 285.640625 122.898438 C 290.324219 122.695312 295.007812 122.496094 299.695312 122.296875 C 302.097656 122.195312 304.5 122.09375 306.90625 121.988281 C 313.097656 121.722656 319.292969 121.488281 325.492188 121.265625 "/><path style=" stroke:none;fill-rule:nonzero;fill:#dd8b40;fill-opacity:1;" d="M 188.0625 12.558594 C 205.574219 12.460938 223.082031 12.390625 240.59375 12.347656 C 248.726562 12.324219 256.855469 12.292969 264.988281 12.246094 C 272.074219 12.207031 279.160156 12.179688 286.246094 12.171875 C 290 12.164062 293.75 12.152344 297.503906 12.121094 C 301.035156 12.09375 304.566406 12.085938 308.101562 12.09375 C 309.394531 12.089844 310.691406 12.082031 311.988281 12.066406 C 313.757812 12.046875 315.527344 12.050781 317.300781 12.0625 L 318.847656 12.027344 C 320.300781 12.050781 320.300781 12.050781 323.003906 12.558594 C 325.488281 14.160156 327.351562 15.976562 328.972656 18.441406 C 333.578125 29.734375 333.679688 41.847656 333.589844 53.863281 L 333.582031 56.023438 C 333.484375 85.152344 333.484375 85.152344 330.578125 98.613281 C 327.371094 99.105469 324.148438 99.441406 320.910156 99.617188 L 319.503906 99.695312 C 317.964844 99.78125 316.425781 99.863281 314.882812 99.945312 L 311.554688 100.128906 C 308.546875 100.296875 305.535156 100.460938 302.527344 100.621094 C 300.003906 100.757812 297.480469 100.894531 294.960938 101.03125 C 288.996094 101.355469 283.03125 101.679688 277.066406 102 C 270.945312 102.328125 264.828125 102.660156 258.707031 102.996094 C 253.429688 103.285156 248.15625 103.574219 242.878906 103.855469 C 239.738281 104.027344 236.597656 104.195312 233.457031 104.371094 C 211.003906 105.605469 211.003906 105.605469 202.246094 105.707031 L 200.601562 105.746094 C 196.921875 105.742188 194.191406 104.910156 190.816406 103.429688 C 186.644531 100.648438 183.753906 97.347656 181.480469 92.890625 C 178.328125 86.058594 178.648438 78.804688 179.253906 71.414062 C 179.683594 67.304688 180.289062 63.222656 180.894531 59.136719 C 181.078125 57.847656 181.261719 56.558594 181.445312 55.269531 C 181.828125 52.601562 182.210938 49.933594 182.605469 47.265625 C 183.105469 43.847656 183.597656 40.425781 184.085938 37.003906 C 184.554688 33.726562 185.023438 30.445312 185.5 27.167969 L 185.769531 25.28125 C 186.023438 23.527344 186.28125 21.773438 186.539062 20.023438 L 186.765625 18.449219 C 187.066406 16.40625 187.40625 14.523438 188.0625 12.558594 "/></g><mask id="ef0db7b47c"><g filter="url(#8faa884e9e)"><rect x="0" width="375" y="0" height="374.999991" style="fill:#000000;fill-opacity:0.17;stroke:none;"/></g></mask></g></g></svg>