<svg xmlns="http://www.w3.org/2000/svg" xmlns:xlink="http://www.w3.org/1999/xlink" width="500" zoomAndPan="magnify" viewBox="0 0 375 374.999991" height="500" preserveAspectRatio="xMidYMid meet" version="1.2"><g id="883f8f6c41"><path style=" stroke:none;fill-rule:nonzero;fill:#e64c52;fill-opacity:1;" d="M 287.554688 13.292969 C 296.128906 15.921875 302.644531 21.632812 309.113281 27.679688 C 315.203125 34.417969 318.210938 41.6875 321.074219 50.277344 C 321.230469 52.765625 321.3125 55.253906 321.3125 57.746094 L 321.34375 62.367188 L 321.351562 67.433594 L 321.375 72.773438 C 321.398438 78.628906 321.414062 84.480469 321.421875 90.335938 L 321.453125 102.566406 C 321.46875 111.136719 321.480469 119.703125 321.484375 128.273438 C 321.496094 139.199219 321.535156 150.117188 321.585938 161.039062 C 321.617188 169.476562 321.625 177.914062 321.628906 186.351562 C 321.632812 190.371094 321.648438 194.394531 321.671875 198.417969 C 321.832031 229.566406 320.410156 256.664062 305.660156 284.890625 C 292.964844 306.617188 275.46875 326.226562 253.597656 338.972656 L 249.148438 341.402344 L 245.074219 343.777344 C 222.792969 356 197.292969 359.40625 172.234375 358.992188 C 146.15625 357.988281 123.664062 348.375 101.773438 334.707031 C 81.898438 320.976562 67.078125 304.398438 55.636719 283.179688 L 52.691406 277.839844 C 47.683594 267.988281 44.425781 258.34375 42.546875 247.464844 L 41.886719 243.636719 C 39.683594 229.929688 39.476562 216.382812 39.542969 202.53125 C 39.539062 199.84375 39.535156 197.15625 39.527344 194.472656 C 39.519531 188.90625 39.53125 183.339844 39.554688 177.773438 C 39.585938 170.679688 39.566406 163.582031 39.539062 156.488281 C 39.515625 150.96875 39.523438 145.445312 39.539062 139.925781 C 39.542969 137.308594 39.539062 134.695312 39.523438 132.078125 C 39.425781 104.847656 39.425781 104.847656 45.363281 93.089844 C 51.820312 84.355469 60.113281 76.585938 69.765625 71.46875 C 80.117188 67.617188 91.03125 67.894531 101.875 69.117188 C 112.0625 71.683594 120.328125 77.316406 127.917969 84.480469 C 133.730469 91.054688 136.386719 96.738281 139.550781 105.078125 L 141.261719 129.054688 L 220.035156 129.054688 L 220.171875 111.554688 C 220.238281 105.929688 220.3125 100.308594 220.394531 94.683594 C 220.441406 90.792969 220.476562 86.898438 220.5 83.003906 C 220.539062 77.394531 220.617188 71.785156 220.707031 66.171875 L 220.710938 60.9375 C 220.910156 51.34375 222.105469 44.28125 226.832031 35.871094 C 232.484375 27.179688 240.109375 20.074219 249.253906 15.171875 C 261.261719 10.484375 275.023438 11.214844 287.554688 13.292969 M 258.378906 48.550781 C 253.746094 53.511719 253.746094 53.511719 253.226562 60.460938 C 253.1875 63.148438 253.191406 65.839844 253.238281 68.53125 L 253.210938 72.996094 C 253.1875 77.859375 253.222656 82.71875 253.257812 87.578125 C 253.25 90.964844 253.234375 94.347656 253.214844 97.734375 C 253.175781 106.636719 253.183594 115.539062 253.203125 124.445312 C 253.234375 138.695312 253.21875 152.949219 253.160156 167.199219 C 253.148438 172.175781 253.171875 177.148438 253.199219 182.125 C 253.191406 185.179688 253.1875 188.234375 253.179688 191.289062 L 253.226562 195.472656 C 253.183594 201.449219 252.734375 205.769531 250.183594 211.21875 C 247.4375 214.679688 247.4375 214.679688 244.011719 216.390625 C 234.273438 217.019531 234.273438 217.019531 230.3125 216.390625 C 226.730469 214.472656 226.730469 214.472656 223.460938 211.253906 C 222.527344 206.269531 222.527344 206.269531 222.417969 200.261719 L 222.25 193.757812 L 222.175781 186.957031 C 222.128906 184.667969 222.078125 182.382812 222.023438 180.097656 C 221.902344 174.5 221.820312 168.902344 221.75 163.304688 L 194.347656 163.304688 L 194.15625 172.367188 C 194.042969 176.300781 193.929688 180.238281 193.8125 184.171875 L 193.695312 190.144531 L 193.515625 195.914062 L 193.375 201.210938 C 192.53125 206.8125 190.816406 210.121094 187.5 214.679688 C 184.074219 216.390625 184.074219 216.390625 178.402344 216.925781 C 172.085938 216.390625 172.085938 216.390625 167.488281 213.605469 L 163.523438 209.539062 C 162.394531 204.519531 162.394531 204.519531 162.3125 198.757812 L 162.164062 192.503906 L 162.132812 185.992188 L 162.003906 179.402344 C 161.90625 174.039062 161.84375 168.671875 161.8125 163.304688 L 139.550781 163.304688 L 139.414062 173.613281 C 139.34375 176.910156 139.269531 180.207031 139.191406 183.507812 C 139.121094 186.921875 139.085938 190.339844 139.046875 193.757812 L 138.878906 200.261719 L 138.773438 206.269531 L 137.835938 211.253906 C 134.5625 214.460938 134.5625 214.460938 130.988281 216.390625 C 126.308594 217.40625 121.988281 217.289062 117.285156 216.390625 C 113.125 213.1875 111.054688 210.773438 108.722656 206.117188 C 108.582031 203.097656 108.519531 200.078125 108.535156 197.058594 L 108.53125 191.328125 L 108.542969 185.101562 L 108.46875 172.144531 C 108.429688 165.308594 108.402344 158.480469 108.425781 151.644531 C 108.441406 145.066406 108.390625 138.488281 108.332031 131.910156 L 108.394531 125.71875 C 108.316406 120.359375 108.128906 115.460938 107.011719 110.214844 C 103.9375 105.644531 101.722656 104.386719 96.738281 101.652344 C 90.246094 100.742188 86.175781 101.132812 80.039062 103.367188 C 75.679688 107.242188 74.027344 110.863281 72.097656 116.316406 C 70.082031 124.34375 70.355469 132.429688 70.429688 140.660156 L 70.425781 146.496094 C 70.429688 150.566406 70.445312 154.632812 70.472656 158.703125 C 70.511719 164.832031 70.507812 170.964844 70.5 177.101562 C 70.539062 211.539062 71.039062 244.492188 88.574219 275.183594 C 93.890625 283.214844 100.234375 290.066406 107.011719 296.878906 L 109.699219 299.746094 C 121.898438 311.59375 140.527344 319.617188 156.675781 324.277344 C 174.402344 327.988281 192.851562 327.484375 210.222656 322.398438 L 214.898438 320.851562 L 219.308594 319.46875 C 237.859375 312.914062 253.589844 299.707031 266.273438 284.890625 C 278.152344 268.847656 286.046875 251.652344 288.535156 231.804688 C 288.945312 226.601562 289.222656 221.394531 289.480469 216.179688 L 289.703125 211.621094 C 290.421875 195.691406 290.425781 179.789062 290.285156 163.851562 L 290.246094 159.289062 C 290.183594 151.375 290.109375 143.457031 290.023438 135.539062 C 289.9375 127.402344 289.894531 119.261719 289.855469 111.125 C 289.824219 104.8125 289.757812 98.496094 289.6875 92.179688 C 289.65625 89.179688 289.636719 86.175781 289.632812 83.171875 C 289.621094 78.996094 289.5625 74.820312 289.5 70.640625 L 289.515625 66.9375 C 289.371094 60.542969 288.40625 56.890625 285.265625 51.253906 C 282.128906 46.78125 282.128906 46.78125 278.261719 45.140625 C 274.773438 44.605469 274.773438 44.605469 270.878906 44.5 L 266.9375 44.246094 C 262.488281 44.917969 262.488281 44.917969 258.378906 48.550781 "/></g></svg>